<?xml version="1.0" encoding="utf-8"?>
<!-- Generator: Adobe Illustrator 28.0.0, SVG Export Plug-In . SVG Version: 6.00 Build 0)  -->
<svg version="1.1" id="Layer_1" xmlns="http://www.w3.org/2000/svg" xmlns:xlink="http://www.w3.org/1999/xlink" x="0px" y="0px"
	 width="71px" height="69.4px" viewBox="0 0 71 69.4" style="enable-background:new 0 0 71 69.4;" xml:space="preserve">
<style type="text/css">
	.st0{fill:#F1C630;}
	.st1{fill:#007662;}
	.st2{fill:#17A27B;}
	.st3{fill:#2BD62E;}
	.st4{fill:#009C5E;}
	.st5{fill:#EBB21E;}
</style>
<path class="st0" d="M39.8,40.3C25,57.6,9.1,68.2,4.3,64.1C-0.4,60,7.8,42.7,22.6,25.5S53.4-2.4,58.1,1.6
	C62.9,5.7,54.7,23.1,39.8,40.3"/>
<path class="st1" d="M71,24.4c-11-1.9-55,3.3-67.4,40.8c0,0,5.1,10.9,19.7-2.2C34.6,52.8,42.4,28.3,71,24.4"/>
<path class="st2" d="M25,0C25.2,17.9,9.9,36.1,4.2,44.7c-8.1,12.3-2,22.1-2,22.1c0.6-0.4,1.1-0.7,1.7-1.1c-0.2-0.3-0.3-0.5-0.3-0.5
	c0.1-0.4,0.3-0.9,0.5-1.3c-4.1-4.6,4-21.5,18.6-38.4c1.6-1.9,3.3-3.7,4.9-5.5C27.8,10.2,25.9,2.4,25,0"/>
<path class="st3" d="M27.6,20c-1.7,1.7-3.3,3.5-4.9,5.5C8.1,42.4-0.1,59.3,4,63.9C8.4,51.7,16.2,43,25,37
	C26.7,31.1,27.4,25.3,27.6,20"/>
<path class="st4" d="M25,37C16.2,43,8.4,51.7,4,63.9c-0.2,0.4-0.3,0.9-0.5,1.3c0,0,0.1,0.2,0.3,0.5C15.7,57.8,21.9,47.3,25,37"/>
<path class="st5" d="M43.8,6.5c-0.2,0-0.4,0.1-0.6,0.3l-0.6,0.7c-0.3,0.3-0.2,0.8,0.1,1.1l1.1,1c0.2,0.1,0.3,0.2,0.5,0.2
	c0.2,0,0.4-0.1,0.6-0.3l0.6-0.7c0.3-0.3,0.2-0.8-0.1-1.1l-1.1-1C44.2,6.6,44,6.5,43.8,6.5"/>
<path class="st5" d="M46.6,8.9c-0.2,0-0.4,0.1-0.6,0.3l-0.6,0.7c-0.3,0.3-0.2,0.8,0.1,1.1l1.1,1c0.2,0.1,0.3,0.2,0.5,0.2
	c0.2,0,0.4-0.1,0.6-0.3l0.6-0.7c0.3-0.3,0.2-0.8-0.1-1.1l-1.1-1C46.9,8.9,46.7,8.9,46.6,8.9"/>
<path class="st5" d="M53.2,6.9c-0.2,0-0.4,0.1-0.6,0.3L52,7.9c-0.3,0.3-0.2,0.8,0.1,1.1l1.1,1c0.2,0.1,0.3,0.2,0.5,0.2
	c0.2,0,0.4-0.1,0.6-0.3l0.6-0.7c0.3-0.3,0.2-0.8-0.1-1.1l-1.1-1C53.5,7,53.4,6.9,53.2,6.9"/>
<path class="st5" d="M52.2,3.1c-0.2,0-0.4,0.1-0.6,0.3L51,4.1c-0.3,0.3-0.2,0.8,0.1,1.1l1.1,1c0.2,0.1,0.3,0.2,0.5,0.2
	c0.2,0,0.4-0.1,0.6-0.3l0.6-0.7c0.3-0.3,0.2-0.8-0.1-1.1l-1.1-1C52.5,3.2,52.4,3.1,52.2,3.1"/>
<path class="st5" d="M49.8,7.7c-0.2,0-0.4,0.1-0.6,0.3l-0.6,0.7c-0.3,0.3-0.2,0.8,0.1,1.1l1.1,1c0.2,0.1,0.3,0.2,0.5,0.2
	c0.2,0,0.4-0.1,0.6-0.3l0.6-0.7c0.3-0.3,0.2-0.8-0.1-1.1l-1.1-1C50.1,7.8,49.9,7.7,49.8,7.7"/>
<path class="st5" d="M43.3,9.9c-0.2,0-0.4,0.1-0.6,0.3l-0.6,0.7c-0.3,0.3-0.2,0.8,0.1,1.1l1.1,1c0.2,0.1,0.3,0.2,0.5,0.2
	c0.2,0,0.4-0.1,0.6-0.3l0.6-0.7c0.3-0.3,0.2-0.8-0.1-1.1l-1.1-1C43.6,10,43.5,9.9,43.3,9.9"/>
<path class="st5" d="M45.9,12.2c-0.2,0-0.4,0.1-0.6,0.3l-0.6,0.7c-0.3,0.3-0.2,0.8,0.1,1.1l1.1,1c0.2,0.1,0.3,0.2,0.5,0.2
	c0.2,0,0.4-0.1,0.6-0.3l0.6-0.7c0.3-0.3,0.2-0.8-0.1-1.1l-1.1-1C46.3,12.3,46.1,12.2,45.9,12.2"/>
<path class="st5" d="M48.6,14.6c-0.2,0-0.4,0.1-0.6,0.3l-0.6,0.7c-0.3,0.3-0.2,0.8,0.1,1.1l1.1,1c0.2,0.1,0.3,0.2,0.5,0.2
	c0.2,0,0.4-0.1,0.6-0.3l0.6-0.7c0.3-0.3,0.2-0.8-0.1-1.1l-1.1-1C49,14.6,48.8,14.6,48.6,14.6"/>
<path class="st5" d="M45.4,15.6c-0.2,0-0.4,0.1-0.6,0.3l-0.6,0.7c-0.3,0.3-0.2,0.8,0.1,1.1l1.1,1c0.2,0.1,0.3,0.2,0.5,0.2
	c0.2,0,0.4-0.1,0.6-0.3l0.6-0.7c0.3-0.3,0.2-0.8-0.1-1.1l-1.1-1C45.7,15.6,45.5,15.6,45.4,15.6"/>
<path class="st5" d="M49.3,11.3c-0.2,0-0.4,0.1-0.6,0.3l-0.6,0.7c-0.3,0.3-0.2,0.8,0.1,1.1l1.1,1c0.2,0.1,0.3,0.2,0.5,0.2
	c0.2,0,0.4-0.1,0.6-0.3l0.6-0.7c0.3-0.3,0.2-0.8-0.1-1.1l-1.1-1C49.7,11.3,49.5,11.3,49.3,11.3"/>
<path class="st5" d="M45.7,19.5c-0.2,0-0.4,0.1-0.6,0.3l-0.6,0.7c-0.3,0.3-0.2,0.8,0.1,1.1l1.1,1c0.2,0.1,0.3,0.2,0.5,0.2
	c0.2,0,0.4-0.1,0.6-0.3l0.6-0.7c0.3-0.3,0.2-0.8-0.1-1.1l-1.1-1C46,19.5,45.9,19.5,45.7,19.5"/>
<path class="st5" d="M46.1,23.4c-0.2,0-0.4,0.1-0.6,0.3l-0.6,0.7c-0.3,0.3-0.2,0.8,0.1,1.1l1.1,1c0.2,0.1,0.3,0.2,0.5,0.2
	c0.2,0,0.4-0.1,0.6-0.3l0.6-0.7c0.3-0.3,0.2-0.8-0.1-1.1l-1.1-1C46.4,23.5,46.3,23.4,46.1,23.4"/>
<path class="st5" d="M38.4,17.1c-0.2,0-0.4,0.1-0.6,0.3l-0.6,0.7c-0.3,0.3-0.2,0.8,0.1,1.1l1.1,1c0.2,0.1,0.3,0.2,0.5,0.2
	c0.2,0,0.4-0.1,0.6-0.3l0.6-0.7c0.3-0.3,0.2-0.8-0.1-1.1l-1.1-1C38.8,17.2,38.6,17.1,38.4,17.1"/>
<path class="st5" d="M41.6,15.9c-0.2,0-0.4,0.1-0.6,0.3l-0.6,0.7c-0.3,0.3-0.2,0.8,0.1,1.1l1.1,1c0.2,0.1,0.3,0.2,0.5,0.2
	c0.2,0,0.4-0.1,0.6-0.3l0.6-0.7c0.3-0.3,0.2-0.8-0.1-1.1l-1.1-1C42,16,41.8,15.9,41.6,15.9"/>
<path class="st5" d="M35.1,18.1c-0.2,0-0.4,0.1-0.6,0.3l-0.6,0.7c-0.3,0.3-0.2,0.8,0.1,1.1l1.1,1c0.2,0.1,0.3,0.2,0.5,0.2
	c0.2,0,0.4-0.1,0.6-0.3l0.6-0.7c0.3-0.3,0.2-0.8-0.1-1.1l-1.1-1C35.5,18.2,35.3,18.1,35.1,18.1"/>
<path class="st5" d="M37.8,20.4c-0.2,0-0.4,0.1-0.6,0.3l-0.6,0.7c-0.3,0.3-0.2,0.8,0.1,1.1l1.1,1c0.2,0.1,0.3,0.2,0.5,0.2
	c0.2,0,0.4-0.1,0.6-0.3l0.6-0.7c0.3-0.3,0.2-0.8-0.1-1.1l-1.1-1C38.1,20.5,37.9,20.4,37.8,20.4"/>
<path class="st5" d="M40.5,22.8c-0.2,0-0.4,0.1-0.6,0.3l-0.6,0.7c-0.3,0.3-0.2,0.8,0.1,1.1l1.1,1C40.6,26,40.8,26,41,26
	c0.2,0,0.4-0.1,0.6-0.3l0.6-0.7c0.3-0.3,0.2-0.8-0.1-1.1L41,23C40.9,22.9,40.7,22.8,40.5,22.8"/>
<path class="st5" d="M37.2,23.8c-0.2,0-0.4,0.1-0.6,0.3L36,24.8c-0.3,0.3-0.2,0.8,0.1,1.1l1.1,1c0.2,0.1,0.3,0.2,0.5,0.2
	c0.2,0,0.4-0.1,0.6-0.3l0.6-0.7c0.3-0.3,0.2-0.8-0.1-1.1l-1.1-1C37.6,23.9,37.4,23.8,37.2,23.8"/>
<path class="st5" d="M41.2,19.5c-0.2,0-0.4,0.1-0.6,0.3L40,20.5c-0.3,0.3-0.2,0.8,0.1,1.1l1.1,1c0.2,0.1,0.3,0.2,0.5,0.2
	c0.2,0,0.4-0.1,0.6-0.3l0.6-0.7c0.3-0.3,0.2-0.8-0.1-1.1l-1.1-1C41.5,19.6,41.4,19.5,41.2,19.5"/>
<path class="st5" d="M33.9,24.8c-0.2,0-0.4,0.1-0.6,0.3l-0.6,0.7c-0.3,0.3-0.2,0.8,0.1,1.1l1.1,1c0.2,0.1,0.3,0.2,0.5,0.2
	c0.2,0,0.4-0.1,0.6-0.3l0.6-0.7c0.3-0.3,0.2-0.8-0.1-1.1l-1.1-1C34.2,24.8,34,24.8,33.9,24.8"/>
<path class="st5" d="M30.6,25.8c-0.2,0-0.4,0.1-0.6,0.3l-0.6,0.7c-0.3,0.3-0.2,0.8,0.1,1.1l1.1,1c0.2,0.1,0.3,0.2,0.5,0.2
	c0.2,0,0.4-0.1,0.6-0.3l0.6-0.7c0.3-0.3,0.2-0.8-0.1-1.1l-1.1-1C30.9,25.9,30.8,25.8,30.6,25.8"/>
<path class="st5" d="M31.2,22.5c-0.2,0-0.4,0.1-0.6,0.3L30,23.5c-0.3,0.3-0.2,0.8,0.1,1.1l1.1,1c0.2,0.1,0.3,0.2,0.5,0.2
	c0.2,0,0.4-0.1,0.6-0.3l0.6-0.7c0.3-0.3,0.2-0.8-0.1-1.1l-1.1-1C31.5,22.5,31.3,22.5,31.2,22.5"/>
<path class="st5" d="M30.7,29.6c-0.2,0-0.4,0.1-0.6,0.3l-0.6,0.7c-0.3,0.3-0.2,0.8,0.1,1.1l1.1,1c0.2,0.1,0.3,0.2,0.5,0.2
	c0.2,0,0.4-0.1,0.6-0.3l0.6-0.7c0.3-0.3,0.2-0.8-0.1-1.1l-1.1-1C31,29.7,30.9,29.6,30.7,29.6"/>
</svg>
