<?xml version="1.0" encoding="utf-8"?>
<!-- Generator: Adobe Illustrator 28.0.0, SVG Export Plug-In . SVG Version: 6.00 Build 0)  -->
<svg version="1.1" id="Layer_1" xmlns="http://www.w3.org/2000/svg" xmlns:xlink="http://www.w3.org/1999/xlink" x="0px" y="0px"
	 width="49.3px" height="48.4px" viewBox="0 0 49.3 48.4" style="enable-background:new 0 0 49.3 48.4;" xml:space="preserve">
<style type="text/css">
	.st0{fill:#F4683D;}
	.st1{fill:#FEC46A;}
</style>
<g>
	<circle class="st0" cx="8.6" cy="9.4" r="2.5"/>
	<path class="st1" d="M8.6,12.7c-1.8,0-3.3-1.5-3.3-3.3s1.5-3.3,3.3-3.3s3.3,1.5,3.3,3.3S10.4,12.7,8.6,12.7z M8.6,7.6
		c-1,0-1.8,0.8-1.8,1.8s0.8,1.8,1.8,1.8s1.8-0.8,1.8-1.8S9.6,7.6,8.6,7.6z"/>
</g>
<g>
	<circle class="st0" cx="14.8" cy="5.4" r="2.5"/>
	<path class="st1" d="M14.8,8.7c-1.8,0-3.3-1.5-3.3-3.3s1.5-3.3,3.3-3.3s3.3,1.5,3.3,3.3S16.6,8.7,14.8,8.7z M14.8,3.6
		c-1,0-1.8,0.8-1.8,1.8s0.8,1.8,1.8,1.8s1.8-0.8,1.8-1.8S15.8,3.6,14.8,3.6z"/>
</g>
<g>
	<circle class="st0" cx="22" cy="3.3" r="2.5"/>
	<path class="st1" d="M22,6.6c-1.8,0-3.3-1.5-3.3-3.3S20.2,0,22,0s3.3,1.5,3.3,3.3S23.8,6.6,22,6.6z M22,1.5c-1,0-1.8,0.8-1.8,1.8
		S21,5.1,22,5.1s1.8-0.8,1.8-1.8S23,1.5,22,1.5z"/>
</g>
<g>
	<circle class="st0" cx="29.3" cy="3.4" r="2.6"/>
	<path class="st1" d="M29.3,6.7c-1.8,0-3.3-1.5-3.3-3.3s1.5-3.3,3.3-3.3s3.3,1.5,3.3,3.3S31.1,6.7,29.3,6.7z M29.3,1.6
		c-1,0-1.8,0.8-1.8,1.8s0.8,1.8,1.8,1.8s1.8-0.8,1.8-1.8S30.3,1.6,29.3,1.6z"/>
</g>
<g>
	<circle class="st0" cx="36.5" cy="5.7" r="2.6"/>
	<path class="st1" d="M36.5,9c-1.8,0-3.3-1.5-3.3-3.3s1.5-3.3,3.3-3.3s3.3,1.5,3.3,3.3S38.3,9,36.5,9z M36.5,3.9
		c-1,0-1.8,0.8-1.8,1.8s0.8,1.8,1.8,1.8s1.8-0.8,1.8-1.8S37.5,3.9,36.5,3.9z"/>
</g>
<g>
	<circle class="st0" cx="41.9" cy="11.1" r="2.6"/>
	<path class="st1" d="M41.9,14.4c-1.8,0-3.3-1.5-3.3-3.3s1.5-3.3,3.3-3.3s3.3,1.5,3.3,3.3S43.7,14.4,41.9,14.4z M41.9,9.3
		c-1,0-1.8,0.8-1.8,1.8s0.8,1.8,1.8,1.8s1.8-0.8,1.8-1.8S42.9,9.3,41.9,9.3z"/>
</g>
<g>
	<circle class="st0" cx="45.2" cy="18.2" r="2.6"/>
	<path class="st1" d="M45.2,21.5c-1.8,0-3.3-1.5-3.3-3.3s1.5-3.3,3.3-3.3s3.3,1.5,3.3,3.3S47,21.5,45.2,21.5z M45.2,16.4
		c-1,0-1.8,0.8-1.8,1.8s0.8,1.8,1.8,1.8s1.8-0.8,1.8-1.8S46.2,16.4,45.2,16.4z"/>
</g>
<g>
	<circle class="st0" cx="46" cy="25.3" r="2.6"/>
	<path class="st1" d="M46,28.6c-1.8,0-3.3-1.5-3.3-3.3S44.2,22,46,22s3.3,1.5,3.3,3.3S47.8,28.6,46,28.6z M46,23.5
		c-1,0-1.8,0.8-1.8,1.8s0.8,1.8,1.8,1.8s1.8-0.8,1.8-1.8S47,23.5,46,23.5z"/>
</g>
<g>
	<circle class="st0" cx="26.9" cy="32.5" r="2.6"/>
	<path class="st1" d="M26.9,35.8c-1.8,0-3.3-1.5-3.3-3.3s1.5-3.3,3.3-3.3s3.3,1.5,3.3,3.3S28.7,35.8,26.9,35.8z M26.9,30.7
		c-1,0-1.8,0.8-1.8,1.8s0.8,1.8,1.8,1.8s1.8-0.8,1.8-1.8S27.8,30.7,26.9,30.7z"/>
</g>
<g>
	<circle class="st0" cx="33.2" cy="21.4" r="2.6"/>
	<path class="st1" d="M33.2,24.7c-1.8,0-3.3-1.5-3.3-3.3s1.5-3.3,3.3-3.3s3.3,1.5,3.3,3.3S35,24.7,33.2,24.7z M33.2,19.6
		c-1,0-1.8,0.8-1.8,1.8s0.8,1.8,1.8,1.8s1.8-0.8,1.8-1.8S34.2,19.6,33.2,19.6z"/>
</g>
<g>
	<circle class="st0" cx="32.4" cy="27.9" r="2.6"/>
	<path class="st1" d="M32.4,31.2c-1.8,0-3.3-1.5-3.3-3.3s1.5-3.3,3.3-3.3s3.3,1.5,3.3,3.3C35.7,29.7,34.2,31.2,32.4,31.2z
		 M32.4,26.1c-1,0-1.8,0.8-1.8,1.8c0,1,0.8,1.8,1.8,1.8s1.8-0.8,1.8-1.8S33.4,26.1,32.4,26.1z"/>
</g>
<g>
	<circle class="st0" cx="39.9" cy="24.1" r="2.6"/>
	<path class="st1" d="M39.9,27.4c-1.8,0-3.3-1.5-3.3-3.3s1.5-3.3,3.3-3.3s3.3,1.5,3.3,3.3S41.7,27.4,39.9,27.4z M39.9,22.3
		c-1,0-1.8,0.8-1.8,1.8s0.8,1.8,1.8,1.8s1.8-0.8,1.8-1.8S40.9,22.3,39.9,22.3z"/>
</g>
<g>
	<circle class="st0" cx="38.8" cy="31.4" r="2.6"/>
	<path class="st1" d="M38.8,34.7c-1.8,0-3.3-1.5-3.3-3.3s1.5-3.3,3.3-3.3s3.3,1.5,3.3,3.3S40.6,34.7,38.8,34.7z M38.8,29.6
		c-1,0-1.8,0.8-1.8,1.8s0.8,1.8,1.8,1.8s1.8-0.8,1.8-1.8S39.7,29.6,38.8,29.6z"/>
</g>
<g>
	<circle class="st0" cx="38.8" cy="17.4" r="2.6"/>
	<path class="st1" d="M38.8,20.7c-1.8,0-3.3-1.5-3.3-3.3s1.5-3.3,3.3-3.3s3.3,1.5,3.3,3.3S40.6,20.7,38.8,20.7z M38.8,15.6
		c-1,0-1.8,0.8-1.8,1.8s0.8,1.8,1.8,1.8s1.8-0.8,1.8-1.8S39.7,15.6,38.8,15.6z"/>
</g>
<g>
	<circle class="st0" cx="32.5" cy="35.5" r="2.6"/>
	<path class="st1" d="M32.5,38.8c-1.8,0-3.3-1.5-3.3-3.3s1.5-3.3,3.3-3.3s3.3,1.5,3.3,3.3S34.3,38.8,32.5,38.8z M32.5,33.7
		c-1,0-1.8,0.8-1.8,1.8s0.8,1.8,1.8,1.8s1.8-0.8,1.8-1.8S33.5,33.7,32.5,33.7z"/>
</g>
<g>
	<circle class="st0" cx="25.4" cy="38.8" r="2.6"/>
	<path class="st1" d="M25.4,42.1c-1.8,0-3.3-1.5-3.3-3.3s1.5-3.3,3.3-3.3s3.3,1.5,3.3,3.3S27.2,42.1,25.4,42.1z M25.4,37
		c-1,0-1.8,0.8-1.8,1.8s0.8,1.8,1.8,1.8s1.8-0.8,1.8-1.8S26.4,37,25.4,37z"/>
</g>
<g>
	<circle class="st0" cx="18.1" cy="31" r="2.6"/>
	<path class="st1" d="M18.1,34.3c-1.8,0-3.3-1.5-3.3-3.3s1.5-3.3,3.3-3.3s3.3,1.5,3.3,3.3S19.9,34.3,18.1,34.3z M18.1,29.2
		c-1,0-1.8,0.8-1.8,1.8s0.8,1.8,1.8,1.8s1.8-0.8,1.8-1.8S19,29.2,18.1,29.2z"/>
</g>
<g>
	<circle class="st0" cx="18.2" cy="37.2" r="2.6"/>
	<path class="st1" d="M18.2,40.5c-1.8,0-3.3-1.5-3.3-3.3s1.5-3.3,3.3-3.3s3.3,1.5,3.3,3.3S20,40.5,18.2,40.5z M18.2,35.4
		c-1,0-1.8,0.8-1.8,1.8s0.8,1.8,1.8,1.8s1.8-0.8,1.8-1.8S19.1,35.4,18.2,35.4z"/>
</g>
<g>
	<circle class="st0" cx="11.2" cy="30.5" r="2.6"/>
	<path class="st1" d="M11.2,33.8c-1.8,0-3.3-1.5-3.3-3.3s1.5-3.3,3.3-3.3s3.3,1.5,3.3,3.3S13,33.8,11.2,33.8z M11.2,28.7
		c-1,0-1.8,0.8-1.8,1.8s0.8,1.8,1.8,1.8s1.8-0.8,1.8-1.8S12.2,28.7,11.2,28.7z"/>
</g>
<g>
	<circle class="st0" cx="5.2" cy="15.6" r="2.5"/>
	<path class="st1" d="M5.2,18.9c-1.8,0-3.3-1.5-3.3-3.3s1.5-3.3,3.3-3.3s3.3,1.5,3.3,3.3S7,18.9,5.2,18.9z M5.2,13.8
		c-1,0-1.8,0.8-1.8,1.8s0.8,1.8,1.8,1.8S7,16.6,7,15.6S6.2,13.8,5.2,13.8z"/>
</g>
<g>
	<circle class="st0" cx="3.3" cy="22.7" r="2.5"/>
	<path class="st1" d="M3.3,26C1.5,26,0,24.5,0,22.7s1.5-3.3,3.3-3.3s3.3,1.5,3.3,3.3S5.1,26,3.3,26z M3.3,20.9c-1,0-1.8,0.8-1.8,1.8
		s0.8,1.8,1.8,1.8s1.8-0.8,1.8-1.8S4.3,20.9,3.3,20.9z"/>
</g>
<g>
	<circle class="st0" cx="4.1" cy="29.7" r="2.6"/>
	<path class="st1" d="M4.1,33c-1.8,0-3.3-1.5-3.3-3.3s1.5-3.3,3.3-3.3s3.3,1.5,3.3,3.3S5.9,33,4.1,33z M4.1,27.9
		c-1,0-1.8,0.8-1.8,1.8s0.8,1.8,1.8,1.8s1.8-0.8,1.8-1.8S5,27.9,4.1,27.9z"/>
</g>
<g>
	<circle class="st0" cx="7.3" cy="36.5" r="2.6"/>
	<path class="st1" d="M7.3,39.8c-1.8,0-3.3-1.5-3.3-3.3s1.5-3.3,3.3-3.3s3.3,1.5,3.3,3.3S9.1,39.8,7.3,39.8z M7.3,34.7
		c-1,0-1.8,0.8-1.8,1.8s0.8,1.8,1.8,1.8s1.8-0.8,1.8-1.8S8.3,34.7,7.3,34.7z"/>
</g>
<g>
	<circle class="st0" cx="12.5" cy="42.1" r="2.6"/>
	<path class="st1" d="M12.5,45.4c-1.8,0-3.3-1.5-3.3-3.3s1.5-3.3,3.3-3.3s3.3,1.5,3.3,3.3S14.3,45.4,12.5,45.4z M12.5,40.3
		c-1,0-1.8,0.8-1.8,1.8s0.8,1.8,1.8,1.8s1.8-0.8,1.8-1.8S13.5,40.3,12.5,40.3z"/>
</g>
<g>
	<circle class="st0" cx="19.6" cy="44.7" r="2.6"/>
	<path class="st1" d="M19.6,48.1c-1.8,0-3.3-1.5-3.3-3.3s1.5-3.3,3.3-3.3s3.3,1.5,3.3,3.3S21.4,48.1,19.6,48.1z M19.6,43
		c-1,0-1.8,0.8-1.8,1.8s0.8,1.8,1.8,1.8s1.8-0.8,1.8-1.8S20.5,43,19.6,43z"/>
</g>
<g>
	<circle class="st0" cx="27.2" cy="45.1" r="2.6"/>
	<path class="st1" d="M27.2,48.4c-1.8,0-3.3-1.5-3.3-3.3s1.5-3.3,3.3-3.3s3.3,1.5,3.3,3.3S29,48.4,27.2,48.4z M27.2,43.3
		c-1,0-1.8,0.8-1.8,1.8s0.8,1.8,1.8,1.8s1.8-0.8,1.8-1.8S28.2,43.3,27.2,43.3z"/>
</g>
<g>
	<circle class="st0" cx="34.4" cy="43" r="2.6"/>
	<path class="st1" d="M34.4,46.3c-1.8,0-3.3-1.5-3.3-3.3s1.5-3.3,3.3-3.3s3.3,1.5,3.3,3.3S36.2,46.3,34.4,46.3z M34.4,41.2
		c-1,0-1.8,0.8-1.8,1.8s0.8,1.8,1.8,1.8s1.8-0.8,1.8-1.8S35.4,41.2,34.4,41.2z"/>
</g>
<g>
	<circle class="st0" cx="40.2" cy="38.6" r="2.6"/>
	<path class="st1" d="M40.2,41.9c-1.8,0-3.3-1.5-3.3-3.3s1.5-3.3,3.3-3.3s3.3,1.5,3.3,3.3S42,41.9,40.2,41.9z M40.2,36.8
		c-1,0-1.8,0.8-1.8,1.8s0.8,1.8,1.8,1.8s1.8-0.8,1.8-1.8S41.2,36.8,40.2,36.8z"/>
</g>
<g>
	<circle class="st0" cx="44.3" cy="32.7" r="2.6"/>
	<path class="st1" d="M44.3,36c-1.8,0-3.3-1.5-3.3-3.3s1.5-3.3,3.3-3.3s3.3,1.5,3.3,3.3S46.1,36,44.3,36z M44.3,30.9
		c-1,0-1.8,0.8-1.8,1.8s0.8,1.8,1.8,1.8s1.8-0.8,1.8-1.8S45.3,30.9,44.3,30.9z"/>
</g>
</svg>
