<?xml version="1.0" encoding="utf-8"?>
<!-- Generator: Adobe Illustrator 28.0.0, SVG Export Plug-In . SVG Version: 6.00 Build 0)  -->
<svg version="1.1" id="Layer_1" xmlns="http://www.w3.org/2000/svg" xmlns:xlink="http://www.w3.org/1999/xlink" x="0px" y="0px"
	 width="70.1px" height="70.6px" viewBox="0 0 70.1 70.6" style="enable-background:new 0 0 70.1 70.6;" xml:space="preserve">
<style type="text/css">
	.st0{fill:#17A27B;}
	.st1{fill:#FDC371;}
	.st2{fill:#FCD46D;}
	.st3{fill:#FC8E2C;}
</style>
<path class="st0" d="M67.3,33.7c0,18.6-15.1,33.7-33.7,33.7S0,52.3,0,33.7S15.1,0,33.7,0S67.3,15.1,67.3,33.7"/>
<path class="st1" d="M62.9,17c2.8,4.9,4.4,10.6,4.4,16.7c0,18.6-15.1,33.7-33.7,33.7c-5.4,0-10.6-1.3-15.1-3.6
	c5.4,4.1,12.1,6.6,19.3,6.8c0.5,0,0.9,0,1.4,0c19.7,0,30.9-15.7,30.9-33.2C70.1,29.7,67.4,22.6,62.9,17"/>
<path class="st2" d="M37.6,4.9c-18,0-32.5,14.5-32.5,32.5c0,10.8,5.3,20.3,13.5,26.4c4.5,2.3,9.7,3.6,15.1,3.6
	c18.6,0,33.7-15.1,33.7-33.7c0-6-1.6-11.7-4.4-16.7C57,9.6,47.8,4.9,37.6,4.9"/>
<path class="st3" d="M36.4,37.2C39,46.9,44,61,33.8,55.4c-4.8-2.7-9-6.2-11.5-14.5c-2.5-8.3-0.5-14.6,2.2-17.7
	C31.6,15,31.7,19.5,36.4,37.2L36.4,37.2z"/>
<path class="st3" d="M39,38.3c2.7,9.8,5.5,24.4,11.5,14.4c2.8-4.7,4.6-9.9,2.6-18.3s-7-12.9-10.8-14.2C31.9,16.7,34.2,20.6,39,38.3z
	"/>
<path class="st1" d="M42.5,30.8c0.4-1.1,1.3-2.1,2.3-2.6c0.1,0,0.2-0.1,0.3-0.1l0.2,0.1c0.2,0.1,0.4,0.3,0.4,0.5
	c0,0.2-0.1,0.4-0.2,0.5c-0.6,0.8-1.2,1.4-1.9,2c-0.2,0.2-0.8,0.8-1.1,0.6C42.2,31.7,42.4,31.1,42.5,30.8L42.5,30.8z"/>
<path class="st1" d="M45.3,31.8c0.8-0.9,1.9-1.5,3.1-1.7c0.1,0,0.2,0,0.3,0l0.2,0.2c0.1,0.2,0.3,0.4,0.2,0.6c0,0.2-0.2,0.3-0.4,0.4
	c-0.8,0.5-1.6,1-2.5,1.3c-0.3,0.1-1,0.5-1.2,0.2C44.7,32.4,45.1,32,45.3,31.8L45.3,31.8z"/>
<path class="st1" d="M38.2,26.7c0.4-1.1,1.3-2.1,2.4-2.6c0.1,0,0.2-0.1,0.3-0.1l0.2,0.1c0.2,0.1,0.4,0.3,0.4,0.5
	c0,0.2-0.1,0.4-0.2,0.5c-0.6,0.8-1.2,1.4-1.9,2c-0.2,0.2-0.8,0.8-1.1,0.6C37.8,27.5,38.1,27,38.2,26.7L38.2,26.7z"/>
<path class="st1" d="M41,27.7c0.8-0.9,1.9-1.5,3.1-1.7c0.1,0,0.2,0,0.3,0l0.2,0.2c0.1,0.2,0.3,0.4,0.2,0.6c0,0.2-0.2,0.3-0.4,0.4
	c-0.8,0.5-1.6,1-2.5,1.3c-0.3,0.1-1,0.5-1.2,0.2C40.4,28.3,40.8,27.9,41,27.7L41,27.7z"/>
<path class="st1" d="M44.1,34.6c1-0.7,2.2-1,3.4-0.9c0.1,0,0.2,0,0.3,0.1l0.2,0.2c0.1,0.2,0.2,0.4,0.1,0.6c-0.1,0.2-0.3,0.3-0.5,0.3
	c-0.9,0.3-1.8,0.5-2.7,0.6c-0.3,0-1.1,0.2-1.2-0.1C43.3,35.1,43.8,34.7,44.1,34.6L44.1,34.6z"/>
<path class="st1" d="M46.8,36.6c1-0.7,2.2-1,3.4-0.9c0.1,0,0.2,0,0.3,0.1l0.2,0.2c0.1,0.2,0.2,0.4,0.1,0.6c-0.1,0.2-0.3,0.3-0.5,0.3
	c-0.9,0.3-1.8,0.5-2.7,0.6c-0.3,0-1.1,0.2-1.2-0.1C46,37.1,46.5,36.7,46.8,36.6L46.8,36.6z"/>
<path class="st1" d="M45.4,39.8c1-0.6,2.3-0.9,3.5-0.7c0.1,0,0.2,0,0.3,0.1l0.1,0.2c0.1,0.2,0.1,0.4,0,0.6c-0.1,0.2-0.3,0.2-0.5,0.3
	c-0.9,0.3-1.8,0.4-2.8,0.4c-0.3,0-1.1,0.2-1.2-0.2C44.7,40.3,45.2,40,45.4,39.8L45.4,39.8z"/>
<path class="st1" d="M47.1,42.3c1.2-0.3,2.4-0.1,3.5,0.5l0.2,0.2l0.1,0.3c0,0.2,0,0.5-0.2,0.6C50.6,44,50.4,44,50.2,44
	c-0.9-0.1-1.9-0.2-2.8-0.5c-0.3-0.1-1.1-0.2-1.1-0.6C46.3,42.5,46.8,42.4,47.1,42.3L47.1,42.3z"/>
<path class="st1" d="M44.4,43.8c1.2,0,2.4,0.5,3.2,1.4c0.1,0.1,0.1,0.1,0.2,0.2v0.3c-0.1,0.2-0.1,0.4-0.3,0.5c-0.2,0.1-0.4,0-0.6,0
	c-0.9-0.3-1.8-0.7-2.5-1.2c-0.3-0.2-1-0.5-0.9-0.9C43.6,43.7,44.1,43.8,44.4,43.8L44.4,43.8z"/>
<path class="st1" d="M45.4,47c1.2,0,2.4,0.5,3.2,1.4c0.1,0.1,0.1,0.1,0.2,0.2v0.3c-0.1,0.2-0.1,0.4-0.3,0.5c-0.2,0.1-0.4,0-0.6,0
	c-0.9-0.3-1.8-0.7-2.5-1.2c-0.3-0.2-1-0.5-0.9-0.9C44.5,47,45.1,47,45.4,47L45.4,47z"/>
<path class="st1" d="M32.8,44.1c-0.4,1.1-1.3,2.1-2.4,2.6c-0.1,0-0.2,0.1-0.3,0.1l-0.2-0.1c-0.2-0.1-0.4-0.3-0.4-0.5
	c0-0.2,0.1-0.4,0.2-0.5c0.6-0.7,1.2-1.4,2-2c0.2-0.2,0.8-0.8,1.1-0.6C33.1,43.3,32.9,43.8,32.8,44.1z"/>
<path class="st1" d="M30,43.1c-0.8,0.9-1.9,1.5-3.1,1.7c-0.1,0-0.2,0-0.3,0l-0.2-0.2c-0.1-0.2-0.3-0.4-0.2-0.6
	c0-0.2,0.2-0.3,0.4-0.4c0.8-0.5,1.6-0.9,2.5-1.2c0.3-0.1,1-0.5,1.2-0.2C30.5,42.5,30.2,42.9,30,43.1L30,43.1z"/>
<path class="st1" d="M37,48.3c-0.4,1.1-1.3,2.1-2.4,2.6c-0.1,0-0.2,0.1-0.3,0.1l-0.2-0.1c-0.2-0.1-0.4-0.3-0.4-0.5
	c0-0.2,0.1-0.4,0.2-0.5c0.6-0.7,1.2-1.4,2-2c0.2-0.2,0.8-0.8,1.1-0.6C37.3,47.5,37.1,48,37,48.3z"/>
<path class="st1" d="M34.2,47.3c-0.8,0.9-1.9,1.5-3.1,1.7c-0.1,0-0.2,0-0.3,0l-0.2-0.2c-0.1-0.2-0.3-0.4-0.2-0.6
	c0-0.2,0.2-0.3,0.4-0.4c0.8-0.5,1.6-0.9,2.5-1.2c0.3-0.1,1-0.5,1.2-0.2C34.8,46.7,34.4,47.1,34.2,47.3L34.2,47.3z"/>
<path class="st1" d="M31.2,40.4c-1,0.7-2.2,1-3.4,0.8c-0.1,0-0.2,0-0.3-0.1l-0.2-0.2c-0.1-0.2-0.2-0.4-0.1-0.6
	c0.1-0.2,0.3-0.3,0.5-0.3c0.9-0.3,1.8-0.5,2.7-0.6c0.3,0,1.1-0.2,1.2,0.2C32,39.9,31.5,40.2,31.2,40.4z"/>
<path class="st1" d="M28.5,38.3c-1,0.7-2.2,1-3.4,0.8c-0.1,0-0.2,0-0.3-0.1l-0.2-0.2c-0.1-0.2-0.2-0.4-0.1-0.6
	c0.1-0.2,0.3-0.3,0.5-0.3c0.9-0.3,1.8-0.5,2.7-0.6c0.3,0,1.1-0.2,1.2,0.2C29.3,37.8,28.8,38.2,28.5,38.3L28.5,38.3z"/>
<path class="st1" d="M29.9,35.1c-1,0.6-2.3,0.9-3.5,0.6c-0.1,0-0.2,0-0.3-0.1L26,35.4c-0.1-0.2-0.1-0.4,0-0.6
	c0.1-0.2,0.3-0.2,0.5-0.3c0.9-0.2,1.8-0.4,2.8-0.4c0.3,0,1.1-0.1,1.2,0.2C30.7,34.6,30.2,34.9,29.9,35.1z"/>
<path class="st1" d="M28.3,32.6c-1.2,0.3-2.5,0.1-3.5-0.5l-0.2-0.2l0-0.3c0-0.2,0-0.5,0.2-0.6c0.2-0.1,0.4-0.1,0.6-0.1
	c0.9,0.1,1.9,0.2,2.8,0.5c0.3,0.1,1.1,0.2,1.1,0.6C29.1,32.5,28.6,32.6,28.3,32.6L28.3,32.6z"/>
<path class="st1" d="M31,31.2c-1.2,0-2.4-0.6-3.2-1.4c-0.1-0.1-0.1-0.2-0.2-0.2l0-0.3c0-0.2,0.1-0.4,0.3-0.5c0.2-0.1,0.4,0,0.6,0
	c0.9,0.3,1.7,0.7,2.5,1.2c0.3,0.2,1,0.5,0.9,0.9C31.8,31.2,31.2,31.2,31,31.2L31,31.2z"/>
<path class="st1" d="M30,27.9c-1.2,0-2.4-0.6-3.2-1.4c-0.1-0.1-0.1-0.2-0.2-0.2l0-0.3c0-0.2,0.1-0.4,0.3-0.5c0.2-0.1,0.4,0,0.6,0
	c0.9,0.3,1.7,0.7,2.5,1.2c0.3,0.2,1,0.5,0.9,0.9C30.9,28,30.3,27.9,30,27.9L30,27.9z"/>
</svg>
