<?xml version="1.0" encoding="utf-8"?>
<!-- Generator: Adobe Illustrator 28.0.0, SVG Export Plug-In . SVG Version: 6.00 Build 0)  -->
<svg version="1.1" id="Layer_1" xmlns="http://www.w3.org/2000/svg" xmlns:xlink="http://www.w3.org/1999/xlink" x="0px" y="0px"
	 width="75.2px" height="62.9px" viewBox="0 0 75.2 62.9" style="enable-background:new 0 0 75.2 62.9;" xml:space="preserve">
<style type="text/css">
	.st0{fill:#FFE79C;}
	.st1{fill:#FBEAAC;}
	.st2{fill:#FFF3CD;}
	.st3{fill:#FFF9B0;}
	.st4{fill:#EAE5BB;}
	.st5{fill:#F0EED7;}
	.st6{fill:#FFEEBF;}
	.st7{fill:#FFF7E6;}
	.st8{fill:#FAF0D9;}
	.st9{fill:#FBEBC5;}
	.st10{fill:#FFF6DD;}
	.st11{fill:#FFFFFF;}
	.st12{fill:#17A27B;}
	.st13{fill:#007662;}
	.st14{fill:#00E687;}
	.st15{fill:#00D577;}
	.st16{fill:#00DC92;}
	.st17{fill:#00E4B0;}
	.st18{fill:#00ECC4;}
	.st19{fill:#00955E;}
</style>
<ellipse class="st0" cx="54" cy="14.8" rx="5.4" ry="5.9"/>
<ellipse class="st1" cx="59.9" cy="20.4" rx="6.4" ry="6.9"/>
<ellipse class="st2" cx="51.3" cy="8.3" rx="5.2" ry="5.6"/>
<ellipse class="st3" cx="60" cy="30.4" rx="8" ry="8.7"/>
<ellipse class="st4" cx="47.8" cy="15.9" rx="7.3" ry="8"/>
<ellipse class="st2" cx="51.7" cy="28.4" rx="7.6" ry="8.2"/>
<path class="st3" d="M48.4,33c0,4.5-3.4,8.2-7.5,8.2s-7.5-3.7-7.5-8.2s3.4-8.2,7.5-8.2S48.4,28.5,48.4,33"/>
<ellipse class="st5" cx="14.3" cy="19.1" rx="5.4" ry="5.9"/>
<ellipse class="st0" cx="21.2" cy="14.6" rx="5.4" ry="5.9"/>
<ellipse class="st5" cx="43.5" cy="5.9" rx="5.4" ry="5.9"/>
<ellipse class="st4" cx="27.7" cy="17.9" rx="8.1" ry="8.8"/>
<path class="st0" d="M25.6,31c0,5.2-3.9,9.4-8.6,9.4S8.3,36.1,8.3,31s3.9-9.4,8.6-9.4S25.6,25.8,25.6,31"/>
<path class="st6" d="M32.4,36c0,4.5-3.4,8.2-7.5,8.2s-7.5-3.7-7.5-8.2s3.4-8.2,7.5-8.2S32.4,31.5,32.4,36"/>
<ellipse class="st5" cx="35.7" cy="22.1" rx="5.5" ry="5.9"/>
<path class="st7" d="M36.7,30.4c0,3.8-2.9,7-6.4,7s-6.4-3.1-6.4-7s2.9-7,6.4-7S36.7,26.5,36.7,30.4"/>
<ellipse class="st8" cx="25.9" cy="8.5" rx="5.2" ry="5.6"/>
<path class="st8" d="M61.2,37.1c0,4.9-3.6,8.8-8.1,8.8S45,42,45,37.1s3.6-8.8,8.1-8.8S61.2,32.3,61.2,37.1"/>
<path class="st9" d="M28.2,23.8c0,4.5-3.4,8.2-7.6,8.2s-7.6-3.7-7.6-8.2s3.4-8.2,7.6-8.2S28.2,19.2,28.2,23.8"/>
<ellipse class="st3" cx="35.3" cy="10.3" rx="7.6" ry="8.2"/>
<ellipse class="st10" cx="41.8" cy="20.9" rx="5.2" ry="5.6"/>
<path class="st11" d="M23.3,59.3c0.3,0.1,0.6,0.2,1.1,0.3c0.7,0.2,1.3,0.4,2,0.6c-0.2-0.1-0.3-0.2-0.5-0.3c0,0,0,0,0,0
	c-0.5-0.1-1-0.2-1.5-0.3C23.9,59.5,23.5,59.4,23.3,59.3 M22.1,58.9c0.2,0.1,0.5,0.2,0.7,0.2c0,0,0,0,0,0c0,0,0,0-0.1,0
	C22.6,59,22.3,59,22.1,58.9 M5.8,25.8c0.7,0.2,1.3,0.8,1.8,1.3c0.4,0.5,0.7,0.9,1,1.5c0,0,0,0,0,0c-0.3-0.5-0.6-1-1-1.4
	C7.1,26.6,6.5,26.1,5.8,25.8"/>
<path class="st11" d="M38.5,33.6c0.4,0.1,0.8,0.3,1.2,0.6c1.7,1.1,2,2.9,1.7,4.7c0,0,0,0,0,0c0.3-1.8,0-3.5-1.7-4.7
	C39.3,34,38.9,33.8,38.5,33.6"/>
<path class="st11" d="M8.6,28.6C8.6,28.6,8.6,28.6,8.6,28.6c0.4,0.7,0.7,1.3,1,2c0.8,1.5,1.6,3,2.3,4.5c0.2,0.3,0.3,0.7,0.6,0.7
	c-0.2-0.1-0.4-0.4-0.5-0.7c-0.8-1.5-1.6-3-2.3-4.5C9.3,30,9,29.3,8.6,28.6"/>
<path class="st11" d="M19.5,32.6c1.6,0.5,2,2.4,2.1,4c0,0.9,0,1.9,0.4,2.8c0.2,0.4,0.5,0.7,0.9,0.8c-0.3-0.1-0.7-0.4-0.8-0.8
	c-0.4-0.8-0.3-1.9-0.4-2.8C21.5,35,21.1,33.1,19.5,32.6"/>
<path class="st12" d="M75.1,27.5c0.2-2.2,0.1-4.5-1-6.4c-0.4-0.8-1.3-2.1-2.3-1.5c-1.1,0.6-1.7,2-2.1,3.1c-0.5,1.2-0.8,2.4-1.7,3.3
	c-0.4,0.4-0.8,0.8-1.3,1c-0.7,0.2-1.3,0-1.9-0.2c-1.1-0.3-2.1-0.3-3.1,0.4c-0.8,0.7-1.4,1.6-1.9,2.6c-0.5,1-0.9,2.2-1.7,3
	c-1,1-3.6-0.8-4.7-1.2c-1.1-0.3-2.2-0.7-3.3-0.2c-0.8,0.3-1.4,0.9-2,1.6c-1,1.4-0.2,5.3-1.9,6.1c-1.3,0.6-3,0.2-4.2-0.1
	c-1.2-0.3-2.5-0.5-3.8-0.3c-1.2,0.2-2.2,0.7-3,1.6c-0.9,1.1-1,2.2-1.5,3.5c-0.2,0.6-0.4,1.4-0.9,1.8c-0.5,0.4-1.2,0.3-1.8,0.2
	c-1-0.2-2-0.4-3-0.2c-1.9,0.4-2.8,0.9-4.1,2.5c-0.3,0.4-0.8,1.2-1.2,2.5c0,0-0.3,1-0.4,2c0,0.9,0,2,0.5,3.2c0.5,1.2,2,3.3,3.1,4
	c2.6,1.5,5.3,2.4,8.2,2.8c5.2,0.7,12.9-0.2,18.1-2.2c6.7-2.7,9.9-5.5,13-9c3.9-4.5,6.5-10,8.1-15.8C74.1,32.9,74.8,30.2,75.1,27.5"
	/>
<path class="st13" d="M22.8,59.1c0.1,0,0.2,0.1,0.4,0.2C23.1,59.2,22.9,59.1,22.8,59.1 M4.8,25.7c-1.2,0-2.3,0.7-3.1,1.7
	c-1.6,1.9-1.9,4.5-1.6,6.9c0.3,2.6,1.2,5,2.3,7.3c1.1,2.4,2.6,4.6,4.2,6.6c3.3,4.1,7.6,7.4,12.4,9.5c1,0.4,2,0.8,3,1.2
	c-1-0.3-2-0.7-3-1.2c-4.8-2.2-9.1-5.5-12.4-9.5c-1.7-2-3.1-4.3-4.2-6.6c-1.1-2.3-2-4.8-2.3-7.3c-0.3-2.4,0.1-5,1.6-6.9
	C2.5,26.4,3.6,25.7,4.8,25.7c0.1,0,0.1,0,0.1,0c0.3,0,0.6,0.1,0.9,0.2C5.5,25.7,5.2,25.7,4.8,25.7C4.9,25.7,4.8,25.7,4.8,25.7"/>
<path class="st14" d="M36.7,33.4c-0.2,0-0.5,0-0.7,0c0,0,0,0,0,0C36.3,33.4,36.5,33.4,36.7,33.4c0.6,0,1.2,0.1,1.8,0.3
	C37.9,33.4,37.3,33.3,36.7,33.4"/>
<path class="st15" d="M18.1,32.5c-1,0.1-1.9,0.6-2.7,1.2c-0.5,0.4-1,0.9-1.5,1.3c-0.3,0.2-0.6,0.5-0.9,0.7c-0.2,0.1-0.3,0.2-0.4,0.2
	c0,0-0.1,0-0.1,0c0,0,0.1,0,0.2,0c0.1,0,0.3-0.1,0.4-0.2c0.3-0.2,0.6-0.4,0.9-0.7c0.5-0.4,1-0.9,1.5-1.3
	C16.2,33.1,17.1,32.6,18.1,32.5C18.1,32.5,18.1,32.5,18.1,32.5"/>
<path class="st16" d="M29.3,37.3C28,38.4,26.6,39.5,25,40c-0.5,0.2-1,0.3-1.5,0.3c-0.2,0-0.5,0-0.7-0.1c0.2,0.1,0.5,0.1,0.7,0.1
	c0.5,0,1.1-0.1,1.5-0.3C26.7,39.5,28,38.4,29.3,37.3C29.3,37.3,29.3,37.3,29.3,37.3 M18.5,32.5c-0.1,0-0.3,0-0.4,0c0,0,0,0,0,0
	C18.2,32.5,18.4,32.5,18.5,32.5c0.1,0,0.1,0,0.1,0c0.3,0,0.6,0.1,0.8,0.1C19.2,32.5,18.9,32.5,18.5,32.5
	C18.5,32.5,18.5,32.5,18.5,32.5"/>
<path class="st17" d="M36,33.4c-1.2,0.1-2.3,0.6-3.3,1.2c-1.2,0.7-2.3,1.7-3.4,2.7c0,0,0,0,0,0c1.1-0.9,2.2-1.9,3.4-2.7
	C33.7,34,34.9,33.5,36,33.4C36,33.4,36,33.4,36,33.4"/>
<path class="st18" d="M4.8,25.7c-1.2,0-2.3,0.7-3.1,1.7c-1.6,1.9-1.9,4.5-1.6,6.9c0.3,2.6,1.2,5,2.3,7.3c1.1,2.4,2.6,4.6,4.2,6.6
	c3.3,4.1,7.6,7.4,12.4,9.5c1,0.4,2,0.8,3,1.2c0.2,0.1,0.5,0.2,0.7,0.2c0,0,0,0,0.1,0c0.1,0,0.2,0.1,0.4,0.2c0.3,0.1,0.6,0.2,1,0.3
	c0.5,0.1,1,0.2,1.5,0.3c-1.1-0.7-2.6-2.7-3-4c-0.5-1.2-0.5-2.3-0.5-3.2c0.1-1,0.4-2,0.4-2c0.4-1.3,0.9-2.1,1.2-2.5
	c1.3-1.6,2.2-2.1,4.1-2.5c0.4-0.1,0.7-0.1,1-0.1c0.7,0,1.3,0.1,1.9,0.3c0.3,0.1,0.6,0.1,0.9,0.1c0.3,0,0.6-0.1,0.9-0.3
	c0.5-0.4,0.7-1.2,0.9-1.8c0.4-1.3,0.6-2.4,1.5-3.5c0.3-0.3,0.6-0.6,0.9-0.8c-1-0.9-1.8-2-2.3-3.3c-0.4,0.3-0.9,0.6-1.4,0.8
	c-0.4,4.1-3.6,7.2-7.5,7.2c-2.7,0-5.1-1.6-6.5-4c-0.5,0.1-1,0.1-1.5,0.1c-4.8,0-8.6-4.2-8.6-9.4c0-0.8,0.1-1.6,0.3-2.3
	c-0.3-0.5-0.6-1-1-1.5c-0.5-0.6-1.1-1.1-1.8-1.3C5.5,25.8,5.2,25.7,4.8,25.7C4.9,25.7,4.9,25.7,4.8,25.7"/>
<path class="st18" d="M36.8,33.4c-0.3,0-0.5,0-0.8,0.1c-0.5,1.1-1.2,2-2.2,2.7c0.5,1.3,1.3,2.5,2.3,3.3c0.6-0.4,1.3-0.7,2.1-0.8
	c0.3-0.1,0.7-0.1,1-0.1c0.7,0,1.4,0.1,2.1,0.3c0.3-1.8,0-3.5-1.7-4.7c-0.4-0.2-0.8-0.4-1.2-0.6C37.9,33.5,37.4,33.4,36.8,33.4"/>
<path class="st18" d="M8.6,28.6c-0.2,0.8-0.3,1.5-0.3,2.3c0,5.2,3.9,9.4,8.6,9.4c0.5,0,1-0.1,1.5-0.1c-0.7-1.2-1.1-2.7-1.1-4.2
	c0-1.2,0.3-2.4,0.7-3.5c-1,0.1-1.8,0.6-2.6,1.2c-0.5,0.4-1,0.9-1.5,1.3c-0.3,0.2-0.6,0.5-0.9,0.7c-0.2,0.1-0.3,0.2-0.4,0.2
	c0,0-0.1,0-0.2,0c-0.2-0.1-0.4-0.4-0.6-0.7c-0.8-1.5-1.6-3-2.3-4.5C9.3,29.9,9,29.3,8.6,28.6"/>
<path class="st18" d="M18.5,32.5c-0.2,0-0.3,0-0.5,0c-0.5,1.1-0.7,2.2-0.7,3.5c0,1.6,0.4,3,1.1,4.2c1.3,2.4,3.7,4,6.5,4
	c3.9,0,7.1-3.2,7.5-7.2c-0.7,0.3-1.4,0.4-2.2,0.4c-0.3,0-0.6,0-0.9-0.1C28,38.4,26.7,39.5,25,40c-0.5,0.2-1,0.3-1.5,0.3
	c-0.2,0-0.5,0-0.7-0.1c-0.4-0.1-0.7-0.4-0.9-0.8c-0.4-0.8-0.3-1.9-0.4-2.8c-0.1-1.6-0.5-3.5-2.1-4c-0.2-0.1-0.5-0.1-0.8-0.1
	C18.6,32.5,18.6,32.5,18.5,32.5"/>
<path class="st18" d="M36,33.4c-1.2,0.1-2.3,0.6-3.3,1.2c-1.2,0.7-2.3,1.7-3.4,2.7c0.3,0.1,0.6,0.1,0.9,0.1c0.8,0,1.5-0.1,2.2-0.4
	c0.5-0.2,1-0.5,1.4-0.8C34.7,35.5,35.5,34.5,36,33.4"/>
<path class="st19" d="M39.2,38.6c-0.3,0-0.7,0-1,0.1c-0.7,0.1-1.5,0.4-2.1,0.8c-0.3,0.2-0.7,0.5-0.9,0.8c-0.9,1.1-1,2.2-1.5,3.5
	c-0.2,0.6-0.4,1.4-0.9,1.8c-0.3,0.2-0.6,0.3-0.9,0.3c-0.3,0-0.6-0.1-0.9-0.1c-0.7-0.2-1.3-0.3-1.9-0.3c-0.3,0-0.7,0-1,0.1
	c-1.9,0.4-2.8,0.9-4.1,2.5c-0.3,0.4-0.8,1.2-1.2,2.5c0,0-0.3,1-0.4,2c0,0.9,0,2,0.5,3.2c0.5,1.2,1.9,3.3,3,4
	c1.8,0.3,3.8,0.5,5.9,0.5s4-0.2,5.9-0.6c5.2-1.2,8.8-3.8,11.2-8.6c0.6-1.1,1.1-2.4,0.9-3.7c-0.2-1.1-0.8-2.1-1.8-2.5
	c-0.3-0.1-0.6-0.2-0.9-0.2c-0.7,0-1.4,0.3-2,0.7c-0.9,0.6-1.8,1.7-3,1.8c0,0-0.1,0-0.1,0c-1.1,0-1.9-1.2-2-2.2
	c-0.2-1.4,0.5-2.8,1-4.1c0.2-0.6,0.5-1.3,0.6-2C40.6,38.7,39.9,38.6,39.2,38.6"/>
</svg>
