<?xml version="1.0" encoding="utf-8"?>
<!-- Generator: Adobe Illustrator 28.0.0, SVG Export Plug-In . SVG Version: 6.00 Build 0)  -->
<svg version="1.1" id="Layer_1" xmlns="http://www.w3.org/2000/svg" xmlns:xlink="http://www.w3.org/1999/xlink" x="0px" y="0px"
	 width="29.6px" height="30.4px" viewBox="0 0 29.6 30.4" style="enable-background:new 0 0 29.6 30.4;" xml:space="preserve">
<style type="text/css">
	.st0{fill:#D2F25C;}
	.st1{fill:#004C43;}
	.st2{fill:#00D400;}
</style>
<path class="st0" d="M23.9,8.1c6.2,6.2,7.5,15,2.9,19.6c-4.6,4.6-13.4,3.3-19.6-2.9C1,18.6-0.3,9.8,4.4,5.2C9,0.6,17.7,1.9,23.9,8.1
	"/>
<path class="st1" d="M1.1,0C0.7,0,0.3,0.2,0.1,0.4c-0.5,0.5,2.5,2.9,4.4,4.7C4.9,4.7,5.4,4.3,5.9,4L2.2,0.4C1.9,0.1,1.5,0,1.1,0"/>
<path class="st2" d="M5.9,4c-0.5,0.3-1,0.7-1.4,1.1C4.8,5.4,5.1,5.7,5.4,6l1.3,1.5c0.8,1.1,0.5,2.3,1.6,2.5c0.4,0,0.8-0.3,1.1-0.5
	c1-0.9,0.6-1.5,0-2.1L5.9,4"/>
</svg>
