<?xml version="1.0" encoding="utf-8"?>
<!-- Generator: Adobe Illustrator 28.0.0, SVG Export Plug-In . SVG Version: 6.00 Build 0)  -->
<svg version="1.1" id="Layer_1" xmlns="http://www.w3.org/2000/svg" xmlns:xlink="http://www.w3.org/1999/xlink" x="0px" y="0px"
	 width="50.6px" height="62.7px" viewBox="0 0 50.6 62.7" style="enable-background:new 0 0 50.6 62.7;" xml:space="preserve">
<style type="text/css">
	.st0{fill:#18A058;}
	.st1{fill:#E4FF9B;}
	.st2{fill:#94DE61;}
	.st3{fill:#6FC461;}
	.st4{fill:#D1ECB5;}
	.st5{fill:#407972;}
	.st6{fill:#066F39;}
</style>
<path class="st0" d="M50.5,24.7c-0.3-3.7-1.8-8.8-4.7-11.4c-2.9-2.6-7.6-4-10.8-1.3c-0.7,0.6-2,1.7-4.1,1.7c-2.3-0.1-3.1-2-6-1.8
	c-3.1,0.2-3.1,0.8-5.7,2.4c-1.7,1-4.3-0.3-5.2-0.7C10.1,11.8,5.9,13,3.1,16C0.4,19-0.2,23.3,0,27.1c0.4,5.7,1.5,11.2,4,16.5
	c1.9,4.1,4,8.2,7.5,11.4c2.1,2,4.8,4.1,8,4.1c1.9,0,3.3-0.6,4.6-1.2c1.5-0.7,2.8-1.4,4.2-1.1c2.2,0.4,4.6,1.6,7.1,1.3
	c4.4-0.6,6.8-4.2,8.5-6.6c2.6-3.7,3.9-6.7,5.1-11C50.4,35.1,50.9,30.4,50.5,24.7"/>
<path class="st1" d="M6.1,47.8c1.1,3.4,2.3,6.8,4.4,9.7c1.6,2.2,3.6,4.6,6.2,4.9c0.2,0,0.5,0,0.7,0c1.3,0,2.4-0.4,3.3-0.9
	c1-0.4,1.8-0.9,2.6-0.9c0.3,0,0.6,0.1,0.8,0.2c1.7,0.6,3.5,1.9,5.5,1.9c0.1,0,0.2,0,0.3,0c3.1-0.2,5.3-2.7,6.9-4.8
	c-0.5,0.2-1,0.3-1.5,0.3c-0.3,0-0.6,0.1-0.9,0.1c-2.1,0-4.2-1-6.2-1.3c-0.3-0.1-0.5-0.1-0.8-0.1c-1.1,0-2.1,0.6-3.4,1.2
	c-1.2,0.6-2.7,1.2-4.5,1.2c0,0-0.1,0-0.1,0c-3.2,0-5.9-2.2-8-4.1C9.2,52.9,7.5,50.4,6.1,47.8"/>
<path class="st2" d="M29.8,54.6C29.8,54.6,29.7,54.6,29.8,54.6c-5.3-0.1-4.5-8.1-4.3-17.9c0.2-9.7-0.3-17,4.9-17.4
	c0.8-0.1,1.6-0.1,2.3-0.1c8.9,0,10.6,4.3,9.2,15.1C40.7,43.9,35,54.6,29.8,54.6 M17.3,55c-0.1,0-0.2,0-0.3,0
	c-5.4-0.3-10.5-12-11.1-22.1c-0.6-10.5,1.1-15,8.6-15c1.3,0,2.7,0.1,4.4,0.4c5.4,0.8,4.3,8.4,3.8,18.5C22.2,46.8,22.4,55.1,17.3,55
	 M36.8,14.8c-1,0-2.1,0.3-3,1.2c-0.6,0.5-1.6,1.4-3.1,1.4c-0.2,0-0.3,0-0.5,0c-1.9-0.3-2.4-2.3-4.8-2.4c-0.2,0-0.4,0-0.5,0
	c-2.1,0-2.3,0.7-4.4,2c-0.3,0.2-0.7,0.3-1.1,0.3c-1.4,0-3-0.9-3.6-1.2c-1.2-0.6-2.5-0.8-3.7-0.8c-2.3,0-4.6,0.9-6.2,2.7
	C3.3,20.7,3,24.2,2.9,28c-0.2,5.8,0.9,11.7,2.5,17.3c0.2,0.8,0.5,1.7,0.8,2.5c1.4,2.6,3.1,5.1,5.4,7.2c2.1,2,4.8,4.1,8,4.1
	c0,0,0.1,0,0.1,0c1.8,0,3.3-0.6,4.5-1.2c1.2-0.6,2.3-1.2,3.4-1.2c0.2,0,0.5,0,0.8,0.1c1.9,0.3,4.1,1.3,6.2,1.3c0.3,0,0.6,0,0.9-0.1
	c0.5-0.1,1-0.2,1.5-0.3c0.3-0.4,0.6-0.8,0.8-1.1c2.5-3.5,3.8-6.5,5.2-10.7c1.7-5.5,2.6-10.2,2.7-16c0.1-3.8-0.7-9.1-2.8-11.9
	C41.2,16.3,39,14.8,36.8,14.8"/>
<path class="st3" d="M18.2,31.7c-0.3,0-0.5-0.1-0.8-0.3c-0.5-0.4-0.5-1.1-0.1-1.6c0.4-0.4,2.4-2,3.1-2c0.1,0,0.2,0,0.2,0.1
	c0.5,0.4-1.1,2.9-1.5,3.3C18.8,31.6,18.5,31.7,18.2,31.7 M15.4,28.5c-0.4,0-0.9-0.2-1.1-0.6c-0.3-0.5,0-1.2,0.5-1.5
	c0.4-0.2,2.3-0.7,3.2-0.7c0.3,0,0.5,0,0.6,0.2c0.3,0.5-2.2,2.2-2.8,2.5C15.8,28.5,15.6,28.5,15.4,28.5 M15.6,24.4
	c-0.6,0-1.2-0.5-1.2-1.1c0-0.6,0.5-1.1,1.1-1.1c0,0,0,0,0,0c0.7,0,3.7,0.4,3.7,1C19.4,23.8,16.3,24.3,15.6,24.4
	C15.7,24.4,15.6,24.4,15.6,24.4 M14.6,17.9c-7.5,0-9.2,4.5-8.6,15C6.5,43,11.6,54.7,17,55c0.1,0,0.2,0,0.3,0c5.1,0,4.9-8.3,5.4-18.2
	c0.5-10.1,1.6-17.7-3.8-18.5C17.3,18,15.8,17.9,14.6,17.9"/>
<path class="st3" d="M30.3,33.6c-0.3,0-0.7-0.1-0.9-0.4c-0.4-0.5-1.9-3-1.4-3.4c0,0,0.1,0,0.2,0c0.7,0,2.7,1.7,3.1,2.1
	c0.4,0.5,0.3,1.2-0.2,1.6C30.8,33.5,30.6,33.6,30.3,33.6 M33.2,30.5c-0.2,0-0.4,0-0.6-0.1c-0.6-0.3-3-2.1-2.7-2.6
	c0.1-0.1,0.2-0.2,0.5-0.2c0.9,0,2.9,0.6,3.3,0.9c0.6,0.3,0.8,1,0.5,1.5C34.1,30.3,33.7,30.5,33.2,30.5 M33.2,26.3
	C33.2,26.3,33.2,26.3,33.2,26.3c-0.8,0-3.8-0.8-3.7-1.4c0.1-0.6,2.7-0.8,3.6-0.8c0.1,0,0.2,0,0.2,0c0.7,0,1.1,0.6,1.1,1.2
	C34.4,25.9,33.9,26.3,33.2,26.3 M32.7,19.2c-0.7,0-1.5,0-2.3,0.1c-5.2,0.3-4.7,7.6-4.9,17.4s-1,17.8,4.2,17.9c0,0,0.1,0,0.1,0
	c5.2,0,10.9-10.7,12.1-20.2C43.4,23.5,41.6,19.2,32.7,19.2"/>
<path class="st4" d="M28.2,29.7c-0.1,0-0.1,0-0.2,0c-0.5,0.4,1,2.9,1.4,3.4c0.2,0.3,0.6,0.4,0.9,0.4c0.3,0,0.5-0.1,0.7-0.2
	c0.5-0.4,0.6-1.1,0.2-1.6C30.9,31.3,28.9,29.7,28.2,29.7"/>
<path class="st4" d="M30.5,27.5c-0.3,0-0.4,0-0.5,0.2c-0.3,0.5,2.1,2.3,2.7,2.6c0.2,0.1,0.4,0.1,0.6,0.1c0.4,0,0.8-0.2,1-0.6
	c0.3-0.5,0.1-1.2-0.5-1.5C33.4,28.2,31.4,27.5,30.5,27.5"/>
<path class="st4" d="M33.1,24.1c-0.9,0-3.6,0.3-3.6,0.8c-0.1,0.6,3,1.3,3.6,1.4c0,0,0.1,0,0.1,0c0.6,0,1.1-0.4,1.2-1
	c0.1-0.6-0.4-1.1-1.1-1.2C33.3,24.1,33.2,24.1,33.1,24.1"/>
<path class="st4" d="M20.4,28c-0.8,0-2.8,1.5-3.1,2c-0.4,0.5-0.4,1.2,0.1,1.6c0.2,0.2,0.5,0.3,0.8,0.3c0.3,0,0.7-0.1,0.9-0.4
	c0.4-0.5,2-3,1.5-3.3C20.6,28,20.5,28,20.4,28"/>
<path class="st4" d="M18.1,25.7c-1,0-2.8,0.5-3.2,0.7c-0.6,0.3-0.8,0.9-0.5,1.5c0.2,0.4,0.6,0.6,1.1,0.6c0.2,0,0.3,0,0.5-0.1
	c0.6-0.3,3.1-2,2.8-2.5C18.7,25.8,18.5,25.7,18.1,25.7"/>
<path class="st4" d="M15.6,22.2C15.6,22.2,15.6,22.2,15.6,22.2c-0.7,0-1.2,0.5-1.2,1.1c0,0.6,0.5,1.1,1.2,1.1c0,0,0,0,0,0
	c0.7,0,3.7-0.6,3.7-1.2C19.3,22.6,16.4,22.2,15.6,22.2"/>
<path class="st5" d="M19.1,0C17.9,0,17,0.1,17,1.2c0,1.1,1,2.1,2.1,2.1c1.8,0,2.7,0,3.5,1.3c1.3,2,0.1,6.4-0.2,7.6c0,0,0,0.1,0,0.1
	c0.6-0.3,1.4-0.4,2.6-0.5c0.1,0,0.2,0,0.3,0c1.4,0,2.3,0.5,3.1,1c0.2-1.4,0.4-7.1-2.4-10.6C24.8,0.9,23.2,0,19.1,0
	C19.1,0,19.1,0,19.1,0"/>
<path class="st6" d="M25.2,11.9c-0.1,0-0.2,0-0.3,0c-1.3,0.1-2,0.2-2.6,0.5c-0.2,1,1.1,1.2,2.3,1.5c0.1,0,0.2,0,0.3,0.1
	c0.3,0,0.7,0.1,1.1,0.1c1,0,2.1-0.2,2.3-0.9c0,0,0-0.1,0-0.2C27.5,12.3,26.6,11.9,25.2,11.9"/>
</svg>
