<?xml version="1.0" encoding="utf-8"?>
<!-- Generator: Adobe Illustrator 28.0.0, SVG Export Plug-In . SVG Version: 6.00 Build 0)  -->
<svg version="1.1" id="Layer_1" xmlns="http://www.w3.org/2000/svg" xmlns:xlink="http://www.w3.org/1999/xlink" x="0px" y="0px"
	 width="79.3px" height="68.5px" viewBox="0 0 79.3 68.5" style="enable-background:new 0 0 79.3 68.5;" xml:space="preserve">
<style type="text/css">
	.st0{fill:#A4FFDE;}
	.st1{fill:#4ED8AA;}
	.st2{fill:#195E55;}
	.st3{fill:#10A27E;}
	.st4{fill:#088961;}
	.st5{fill:#64FFE9;}
	.st6{fill:#2FF4C7;}
	.st7{fill:#04DB96;}
	.st8{fill:#007662;}
</style>
<path class="st0" d="M69,10.6c-1-0.9-2.2-1.6-3.4-1.9c-0.6-0.1-1.2-0.1-1.8,0c-0.7,0.1-1.5,0.7-2.2,0.4c-1-0.5-0.6-2.7-0.6-3.7
	c0-1.5-0.6-2.8-1.6-3.7C56.9-0.8,53.6-0.1,51,1c-1.6,0.7-3.2,1.5-4.9,2c-1.5,0.4-3,0.3-4.6-0.2c-2.6-0.8-5.3-2.4-8-1.4
	c-2.4,0.9-3.8,3.6-5.5,5.6c-1,1.2-2.1,2.1-3.4,2.6c-1.5,0.6-3.2,0.7-4.8,0.9c-2.7,0.2-5.6,0.4-7.9,2.1c-2.3,1.7-3.5,4.6-2.9,7.7
	c0.3,1.7,0.6,1.8,0.2,3.5c-1.2,1.5-2.5,1.1-4,1.3c-0.8,0.1-1.6,0.2-2.4,0.3c-0.6,0.1-1.2,0.3-1.6,0.8c-0.7,0.8-0.8,2.2-0.4,3.3
	c0.3,1.1,1.1,2,1.9,2.7c0.7,0.8,1.2,1.4,1.8,2c1.1,1.1,0.6,1,1.8,2.5c1,1.3,2,2.5,3.1,3.7c2.2,2.4,4.5,4.6,7,6.6
	c5.1,4,10.9,6.8,16.9,7.8c6.2,1,12.5,0,17.9-3.3c2.8-1.7,5.3-3.9,7.6-6.3c2.2-2.3,4.3-4.7,6.3-7.3c1.9-2.5,3.6-5.2,4.9-8.2
	c1.3-3,2.4-6.4,2.4-9.9C72.3,16.2,71.4,12.8,69,10.6"/>
<path class="st1" d="M66.7,28.9c3.7,14.6-5.2,29.4-19.8,33c-14.6,3.7-29.4-5.2-33-19.8s5.2-29.4,19.8-33S63.1,14.3,66.7,28.9"/>
<path class="st2" d="M74.4,16.5c-0.2,0-0.4,0-0.6,0.1c-0.6,0.3-1,0.9-1.3,1.4c-0.1,0.2-0.2,0.4-0.3,0.5c0,0.3,0,0.6,0,0.9
	c-0.1,3.5-1.1,6.9-2.4,9.9c-0.7,1.5-1.5,3-2.3,4.4c0.8,12.9-7.6,24.9-20.6,28.1c-2.2,0.6-4.5,0.8-6.6,0.8c-0.9,0-1.8-0.1-2.7-0.1
	c0.2,0.2,0.5,0.5,0.7,0.8c0.3,0.5,0.5,1.2,0.6,1.8c0.1,0.9-0.7,1.8-1.5,2.4c6.7-1,13.6-0.4,19.7-3.5c5.3-2.6,9.9-6.5,13.4-11.2
	c3.6-4.9,5.8-10.8,6.4-16.8c0.2-1.6,0.4-3.4,0.6-5c0.2-1.8,0.4-2.7,1-4.4c0.4-1.3,0.9-2.5,0.9-3.9c-0.1-1.2-0.5-2.5-1.1-3.5
	c-0.7-1-1.6-2-2.7-2.5C75.2,16.6,74.8,16.5,74.4,16.5"/>
<path class="st3" d="M72.2,18.6c-0.5,1.1-0.6,2.3-1.2,3.4c-0.5,0.9-1.3,1.6-2.1,1.6c-0.4,0-0.9-0.2-1.3-0.5
	c-1.1-0.9-1.8-1.3-3.4-2.5c-0.4-0.3-1-0.5-1.6-0.6c1.8,2.6,3.2,5.6,4,8.9c0.4,1.7,0.7,3.3,0.8,4.9c0.9-1.4,1.7-2.9,2.3-4.4
	c1.3-3,2.4-6.4,2.4-9.9C72.2,19.2,72.2,18.9,72.2,18.6"/>
<path class="st2" d="M37.3,67.7c-0.3,0.1-0.7,0.1-1,0.2c-0.1,0-0.2,0-0.3,0c0,0-0.1,0-0.1,0c0.1,0.3,0.3,0.5,0.5,0.5
	c0,0,0.1,0,0.2-0.1C36.8,68.1,37.1,67.9,37.3,67.7 M35.4,67.2C35.4,67.2,35.3,67.2,35.4,67.2c-0.4,0.5,0,0.7,0.5,0.7
	c0,0,0-0.1,0-0.1C35.6,67.5,35.5,67.2,35.4,67.2"/>
<path class="st4" d="M62.2,20c-0.1,0-0.1,0-0.2,0c-0.7,0.1-1.8,1-2.1,1.7c-0.6,1.4-0.3,2.4,0,4c0.2,1.2,0.2,2.6-0.1,3.8
	c-0.3,1.1-1.1,1.5-2,1.5c-0.4,0-0.8-0.1-1.2-0.3c-0.7-0.3-1.2-0.8-1.8-1.3c-0.1,0.3-0.2,0.6-0.3,0.8c-0.5,1.4-1.7,2.6-2,4.1
	c-0.2,0.7-0.1,1.7,0.6,2.2c0.2,0.2,0.5,0.2,0.8,0.2c0.4,0,0.8-0.1,1.2-0.3c0.7-0.4,1.2-1,1.7-1.6c0.5-0.6,1.1-1.4,1.7-2
	c0.6-0.6,1.3-1.1,2-1.5c0.5-0.3,1.2-0.6,1.8-0.6c0,0,0,0,0,0c1.5,0,1.4,1.9,1.3,3c-0.1,1.5-0.6,2.9-1.1,4.3
	c-2,5.5-4.7,11.7-9.8,14.8c-2.5,1.6-5.3,2.1-8.2,2.1c-0.2,0-0.3,0-0.5,0c0.2,0.5,0.3,1,0.4,1.6c0.1,0.7,0.2,1.6-0.2,2.3
	c-0.4,0.6-1,0.7-1.6,0.7c-0.5,0-1-0.1-1.4-0.2c-0.7-0.1-1.4-0.2-2-0.2c-0.5,0-0.9,0.1-1.3,0.2c-1.3,0.4-1.7,1.6-0.8,2.6
	c0.2,0.2,0.3,0.4,0.5,0.5c0.9,0.1,1.8,0.1,2.7,0.1c2.2,0,4.4-0.3,6.6-0.8c12.9-3.2,21.4-15.2,20.6-28.1c-0.1-1.6-0.4-3.3-0.8-4.9
	c-0.8-3.3-2.2-6.3-4-8.9C62.5,20,62.4,20,62.2,20"/>
<path class="st5" d="M18.9,18.7c-0.9,0-1.8,0.2-2.6,0.7c-2.6,1.3-4.1,4.1-4.9,6.8c-1.6,5.3-0.9,10.8,2.3,15.4
	C11.8,33.2,14,24.9,18.9,18.7"/>
<path class="st6" d="M19.1,18.7c0,0-0.1,0-0.2,0c-4.9,6.2-7.1,14.5-5.2,22.9c0.1,0.1,0.2,0.3,0.3,0.4c0.1,0.2,0.5,0.7,0.7,0.8
	c0.7,0.8,1.4,1.5,2.2,2.2c2.5,2.1,5.5,3.6,8.4,5c3,1.4,6.2,2.6,9.3,3.5c3,0.9,6.3,1.6,9.5,1.7c-0.1-0.3-0.2-0.6-0.3-0.8
	c-0.5-1.5-1.2-2.9-1.2-4.5c-0.1-2.3,1-5.2,3.5-5.5c0.1,0,0.3,0,0.4,0c0.1,0,0.1,0,0.2,0c0.1,0,0.1,0,0.2,0c0.6,0,1.1-0.1,1.4-0.6
	c0.3-0.6,0.2-1.5,0.2-2.2c-0.1-1.8-0.3-3.5-0.7-5.3c-0.4-1.7-1-3.2-1.4-4.9c-0.4-1.3-0.5-2.7,0.2-4c0.6-1,1.6-1.7,2.8-1.7
	c0.1,0,0.2,0,0.3,0c1.4,0.1,2.6,1,3.5,1.9c0.6,0.6,1.1,1.2,1.6,1.8c0.7-2.3,0.9-5.5-0.7-7.5c-0.7-0.8-1.6-1.2-2.5-1.2
	c-1.5,0-3.1,0.9-4.1,1.9c-1.1,1-2,2.3-3,3.5c-0.7,1-1.9,2.9-3.2,2.9c-0.2,0-0.4,0-0.7-0.2c-1.4-0.7-2.2-2.5-2.7-3.9
	c-0.6-1.5-1.1-3.1-2-4.4c-0.6-0.8-1.5-1.6-2.5-1.6c-0.2,0-0.4,0-0.5,0.1c-1.3,0.4-1.7,2-2,3.3c-0.3,1.3-0.3,2.7-0.6,4.1
	c-0.1,0.5-0.4,2-1,2.2c0,0-0.1,0-0.1,0c-0.5,0-1.2-0.9-1.5-1.3c-1.7-2.1-2.4-4.8-4.2-6.9C22.3,19.3,20.7,18.7,19.1,18.7"/>
<path class="st7" d="M49.4,25.7c-1.2,0-2.2,0.6-2.8,1.7c-0.7,1.2-0.5,2.7-0.2,4c0.4,1.7,1.1,3.2,1.4,4.9c0.4,1.7,0.6,3.5,0.7,5.3
	c0,0.7,0.1,1.6-0.2,2.2c-0.3,0.5-0.8,0.6-1.4,0.6c-0.1,0-0.1,0-0.2,0s-0.1,0-0.2,0c-0.2,0-0.3,0-0.4,0c-2.5,0.3-3.6,3.2-3.5,5.5
	c0.1,1.6,0.7,3.1,1.2,4.5c0.1,0.3,0.2,0.6,0.3,0.8c0.2,0,0.3,0,0.5,0c2.9,0,5.7-0.6,8.2-2.1c5.1-3.2,7.7-9.3,9.8-14.8
	c0.5-1.4,0.9-2.8,1.1-4.3c0.1-1,0.2-3-1.3-3c0,0,0,0,0,0c-0.7,0-1.3,0.2-1.8,0.6c-0.7,0.5-1.4,1-2,1.5c-0.6,0.5-1.1,1.4-1.7,2
	c-0.5,0.6-1,1.2-1.7,1.6c-0.3,0.2-0.8,0.3-1.2,0.3c-0.3,0-0.6-0.1-0.8-0.2c-0.7-0.5-0.8-1.4-0.6-2.2c0.3-1.5,1.4-2.7,2-4.1
	c0.1-0.3,0.2-0.5,0.3-0.8c-0.6-0.6-1.1-1.3-1.6-1.8c-0.9-1-2.1-1.8-3.5-1.9C49.6,25.7,49.5,25.7,49.4,25.7"/>
<path class="st8" d="M0.6,41c0.5,1.3,1.5,2.2,2.5,3.1c1.3,1.3,1.9,2,2.8,3.5c0.8,1.4,1.9,2.9,2.7,4.3c3.2,5.2,7.7,9.5,13.1,12.3
	c5.2,2.8,11.1,4.2,16.9,4.2c7.2,0,14.2-2,21.1-4c0.6-0.2,1.2-0.7,0.6-1c-0.4-0.2-0.7-0.2-1.4-0.3c-1.3-0.2-3-0.6-3.4-1.7
	c-0.2-0.6-0.3-1.2-0.3-1.8c0.1-0.6,0.3-1.1,0.5-1.7c0.3-1.3-0.6-2.2-1.9-2c-1.1,0.2-2.1,0.9-3.1,1.5c-0.8,0.6-2,1.4-3,0.8
	c-0.7-0.4-1-1.3-1.2-2c-0.2-0.8-0.3-1.6-0.5-2.4c-0.2-1.5-0.2-3.2-0.8-4.6c-0.9-2.1-3.1-4.2-5.5-3.4c-0.7,0.2-1.6,1-2.3,0.4
	c-0.6-0.4-0.8-1.2-1.1-1.9c-0.7-1.6-1.3-3.3-1.7-5.1c-0.4-1.7-0.5-3.4-0.8-5c-0.2-1.3-0.8-2.7-1.9-3.5c-1-0.8-2.4-0.8-3.5-0.1
	c-1.2,0.7-1.9,2-2.3,3.3c-0.5,1.5-0.6,3.1-1.7,4.3c-1,1.1-2.5,1.5-3.5,0.3c-0.8-1-1.2-2.2-1.8-3.3c-0.7-1.3-0.7-2.6-1.8-3.6
	c-0.5-0.5-2-0.7-2.7-0.4c-0.6,0.2-1.1,0.8-1.5,1.3c-0.9,1.1-1.3,2.4-2,3.7c-0.8,1.6-2.3,1.5-3.6,0.6c-1.1-0.8-1.9-2.1-3-2.9
	C4.1,33.3,3.5,33,2.8,33c-0.6,0-1.1,0.4-1.5,0.9c-0.7,1-1.2,2.2-1.3,3.4C-0.1,38.6,0.1,39.9,0.6,41L0.6,41z"/>
</svg>
