<?xml version="1.0" encoding="UTF-8"?>
<svg id="Layer_2" xmlns="http://www.w3.org/2000/svg" width="103.66" height="108.42" viewBox="0 0 103.66 108.42">
  <defs>
    <style>
      .cls-1 {
        fill: #437344;
      }

      .cls-2 {
        fill: #427f3d;
      }

      .cls-3 {
        fill: #ff7112;
      }

      .cls-4 {
        fill: #286024;
      }

      .cls-5 {
        fill: #fff8e6;
      }

      .cls-6 {
        fill: #09271e;
      }

      .cls-7 {
        fill: #0e3332;
      }

      .cls-8 {
        fill: #e84516;
      }

      .cls-9 {
        fill: #3767d3;
      }

      .cls-10 {
        fill: #8cb387;
      }

      .cls-11 {
        fill: #ffce31;
      }

      .cls-12 {
        fill: #4c8446;
      }

      .cls-13 {
        fill: #487d42;
      }

      .cls-14 {
        fill: #1a4916;
      }

      .cls-15 {
        fill: #061d12;
      }
    </style>
  </defs>
  <g id="Layer_1-2" data-name="Layer_1">
    <g>
      <path class="cls-14" d="M102.89,25.36c-2.65-9.49-20.43-16.1-28.88-17.24-4.19-.56-7.62-.12-10.02.46-1.46-.26-2.96-.4-4.47-.45-.4-.02-.8-.01-1.2.01-1.19.06-2.34.28-3.48.57-.29.07-.58.16-.86.26l-.36.12c-.25.09-.5.17-.75.25-.15.05-.29.09-.44.13l-.41.1-.2.04-.2-.04-.41-.1c-.15-.04-.3-.09-.44-.13-.25-.08-.5-.16-.75-.25l-.36-.12c-.28-.09-.57-.18-.86-.26-1.14-.29-2.29-.51-3.48-.57-.4-.02-.79-.03-1.2-.01-1.5.06-3.01.19-4.47.45-2.4-.59-5.83-1.03-10.02-.46C21.2,9.26,3.42,15.87.77,25.36c-1.74,6.23-.27,23.26,1.91,31.41,2.18,8.14,4.7,17.07,7.61,20.87,5.28,6.87,31.51,21.98,37.44,22.65l.14-.02c.19.04.38.07.59.1.67.09,1.46.15,2.42.17.33,0,.64,0,.95-.01.31,0,.62.01.95.01.96-.02,1.75-.07,2.42-.17.21-.03.4-.06.59-.1l.14.02c5.93-.67,32.16-15.77,37.44-22.65,2.91-3.79,5.43-12.72,7.61-20.87,2.18-8.14,3.65-25.17,1.91-31.41"/>
      <path class="cls-4" d="M68.64,7.93c-1.65.12-3.08.37-4.26.66-1.46-.26-2.96-.4-4.47-.45-.4-.02-.8-.01-1.2.01-1.19.06-2.34.28-3.48.57-.29.07-.58.16-.86.26l-.36.12c-.25.09-.5.17-.75.25-.15.05-.29.09-.44.13l-.41.1-.2.04-.2-.04v-.02h-.05s-.05,0-.05,0v.02h0l-.2.04-.2-.04-.41-.1c-.15-.04-.3-.09-.44-.13-.25-.08-.5-.16-.75-.25l-.36-.12c-.28-.09-.57-.18-.86-.26-1.14-.29-2.29-.51-3.48-.57-.4-.02-.79-.03-1.2-.01-1.5.06-3.01.19-4.47.45-1.18-.29-2.61-.54-4.26-.66-6.62,1.53-21.22,6.52-20.99,22.69.24,16.63,3.03,39.56,8.66,53.02,2,4.78,8.43,8.56,12.68,11.58,5.3,2.81,9.89,4.83,11.97,5.06l.14-.02c.19.04.38.07.59.1.67.09,1.46.15,2.42.17.33,0,.64,0,.95-.01h0s.24,0,.24,0h.24s0,0,0,0c.31,0,.62.01.95.01.96-.02,1.76-.07,2.42-.17.21-.03.4-.06.59-.1l.14.02c2.08-.23,6.67-2.25,11.97-5.06,4.25-3.02,10.4-6.8,12.4-11.58,5.63-13.46,8.42-36.39,8.66-53.02.23-16.17-14.09-21.16-20.71-22.69"/>
      <path class="cls-2" d="M51.78,9.55l-.21-.08-.28-.13c-.16-.08-.32-.16-.48-.25l-.23-.12c-.18-.09-.36-.18-.55-.26-.73-.29-1.47-.51-2.22-.57-.25-.02-6.73-.21-8.19.44-4.34,1.95-9.87,7.4-9.73,22.03.15,16.63,1.93,39.56,5.53,53.02,1.28,4.78,3.55,8.56,6.27,11.58,3.39,2.81,6.32,4.83,7.65,5.06l.09-.02.38.1c.43.09.93.15,1.55.17.15,0,.29,0,.43,0V9.55"/>
      <path class="cls-9" d="M53.71,0C53.33,0,52.93.02,52.5.05c-4.37.33-4.37,2.79-5.24,5.47-.29.9-.92,1.75-1.55,2.58,1.14,0,2,.03,2.09.04.76.06,1.49.28,2.22.57.19.07.37.16.55.26l.23.12c.16.09.32.17.48.25l.28.13.21.08v.05l.14-.03h0v-.02h.05s.05,0,.05,0v.02h0s0,0,0,0l.41-.1c.15-.04.3-.09.44-.13.25-.08.5-.16.75-.25l.36-.12c.28-.09.57-.18.86-.26.96-.24,1.93-.44,2.91-.53-.54-2.04.14-4.29.27-5.57C58.16,1.31,57.11,0,53.71,0"/>
      <path class="cls-15" d="M57.76,8.18c-.99.09-1.95.29-2.91.53-.29.07-.58.16-.86.26l-.36.12c-.25.09-.5.17-.75.25-.15.05-.29.09-.44.13l-.41.1h0s.19.04.19.04l.2-.04.41-.1c.15-.04.3-.09.44-.13.25-.08.5-.16.75-.25l.36-.12c.28-.09.57-.18.86-.26.84-.21,1.68-.39,2.54-.49,0-.01,0-.03-.01-.04"/>
      <path class="cls-6" d="M57.77,8.22c-.86.1-1.7.28-2.54.49-.29.07-.58.16-.86.26l-.36.12c-.25.09-.5.17-.75.25-.15.05-.29.09-.44.13l-.41.1-.2.04-.19-.04h0v-.02h-.05s-.05,0-.05,0v.02h0l-.14.03v5.15h0v-.96l.43-.09c.18-.04.35-.09.53-.14,2.25-.62,4.54-.98,6.87-1.15.02-.79-.85-1.86-1.56-3.44-.11-.24-.2-.5-.27-.75"/>
      <path class="cls-7" d="M45.71,8.1c-.78,1.03-1.57,2.01-1.73,2.96-.17,1,.37,1.97,2.36,2.91,1.26.6,2.76.81,4.3.81.38,0,.76-.01,1.14-.04v-5.19l-.21-.08-.28-.13c-.16-.08-.32-.16-.48-.25l-.23-.12c-.18-.09-.36-.18-.55-.26-.73-.29-1.47-.51-2.22-.57-.09,0-.95-.04-2.09-.04"/>
      <path class="cls-10" d="M89.11,81.71c-3.06,2.46-7.16,5.26-11.46,7.91-2.91,2.7-7.03,4.99-10.18,6.93-5.58,2.57-10.41,4.42-12.6,4.63l-.15-.02c-.2.03-.4.06-.62.09-.65.08-1.41.13-2.32.15v-.89,7.89c.27,0,.54,0,.84,0,1.15-.02,2.1-.08,2.9-.17.25-.03.48-.07.71-.1l.17.02c2.49-.24,7.99-2.34,14.33-5.27,5.09-3.14,12.45-7.07,14.84-12.05,1.31-2.71,2.49-5.8,3.54-9.14"/>
      <path class="cls-13" d="M85.01,17.17c2.64,3.28,4.43,7.64,4.35,13.45-.01,1-.04,2.02-.07,3.06.24,1.23.36,2.51.34,3.81-.25,15.2-3.18,36.17-9.11,48.48-.63,1.3-1.64,2.52-2.87,3.66,4.31-2.66,8.41-5.45,11.46-7.91,4.38-13.87,6.6-32.07,6.82-46.02.13-7.68-3.89-14.24-10.92-18.52"/>
      <path class="cls-12" d="M63.23,12.29c-1.22,0-2.42.04-3.62.13-.02.75-.84,1.26-3.35,1.72-1.36.25-2.92.52-4.48.61v14.48h0v-11.78c2.67-.79,5.84-1.15,9.07-1.15,4.11,0,8.3.59,11.65,1.63,2.75.85,5.41,1.97,7.8,3.44,4.92,3.02,8.01,7.36,8.99,12.32.03-1.04.06-2.07.07-3.06.08-5.8-1.71-10.17-4.35-13.45-.6-.37-1.23-.72-1.87-1.05-4.26-2.2-8.08-3.05-12.06-3.42-2.63-.24-5.25-.42-7.84-.42"/>
      <path class="cls-1" d="M59.61,12.41c-2.33.17-4.63.53-6.87,1.15-.18.05-.35.1-.53.14l-.43.09v.96c1.56-.09,3.12-.36,4.48-.61,2.51-.47,3.33-.97,3.35-1.72"/>
      <path class="cls-11" d="M80.29,21.36c-2.39-1.47-5.05-2.58-7.8-3.44-5.98-1.86-14.65-2.27-20.72-.47v83.96c.9-.02,1.67-.07,2.32-.15.22-.03.42-.06.62-.09l.15.02c2.19-.21,7.02-2.06,12.6-4.63,4.48-2.76,10.94-6.22,13.05-10.59,5.93-12.31,8.86-33.27,9.11-48.48.11-6.53-3.18-12.36-9.33-16.13"/>
      <path class="cls-8" d="M51.78,29.23c-.72.12-1.41.27-2.04.45v59.32c.64-.01,1.18-.05,1.64-.1.14-.02.27-.04.4-.06V29.23"/>
      <path class="cls-3" d="M56.08,28.91c-1.49,0-2.97.1-4.3.32v59.62s.02,0,.04,0h.11c1.55-.14,4.96-1.44,8.9-3.26,3.16-1.95,7.73-4.39,9.22-7.48,4.19-8.7,6.26-23.51,6.44-34.25.08-4.61-2.25-8.73-6.59-11.4-1.69-1.04-3.57-1.82-5.51-2.43-2.26-.7-5.33-1.1-8.3-1.1"/>
      <path class="cls-5" d="M60.48,48.98c.86-1.72,2.48-3.15,4.45-3.92.16-.06.33-.12.51-.11.16.02.3.09.43.17.32.19.66.44.69.78.03.31-.2.58-.42.82-1.06,1.13-2.29,2.14-3.65,3-.44.28-1.44,1.13-2.03.83-.62-.32-.19-1.14.02-1.57Z"/>
      <path class="cls-5" d="M65.43,50.63c1.47-1.38,3.54-2.26,5.69-2.43.18-.01.36-.02.52.05l.34.29c.23.27.45.61.35.93-.09.3-.41.49-.71.65-1.43.76-2.98,1.36-4.58,1.79-.53.14-1.79.66-2.24.2-.47-.48.25-1.13.62-1.48Z"/>
      <path class="cls-5" d="M52.5,43.31c.86-1.72,2.48-3.15,4.45-3.92.16-.06.33-.12.51-.11.16.02.3.09.43.17.32.19.66.44.69.78.03.31-.2.58-.42.82-1.06,1.13-2.29,2.14-3.65,3-.44.28-1.44,1.13-2.03.83-.62-.32-.19-1.14.02-1.57Z"/>
      <path class="cls-5" d="M58.05,43.89c1.47-1.38,3.54-2.26,5.69-2.43.18-.01.36-.02.52.05l.34.29c.23.27.45.61.35.93-.09.3-.41.49-.71.65-1.43.76-2.98,1.36-4.58,1.79-.53.14-1.79.66-2.24.2-.47-.48.25-1.13.62-1.48Z"/>
      <path class="cls-5" d="M62.97,54.88c1.82-1.01,4.08-1.41,6.21-1.09.17.03.36.06.49.16l.25.35c.14.32.26.69.07.98-.17.27-.54.38-.87.47-1.61.42-3.28.66-4.96.71-.55.02-1.93.24-2.22-.3-.31-.57.57-1.04,1.03-1.29Z"/>
      <path class="cls-5" d="M65.5,58.21c1.82-1.01,4.08-1.41,6.21-1.09.17.03.36.06.49.16l.25.35c.14.32.26.69.07.98-.17.27-.54.38-.87.47-1.61.42-3.28.66-4.96.71-.55.02-1.93.24-2.22-.3-.31-.57.57-1.04,1.03-1.29Z"/>
      <path class="cls-5" d="M63.19,62.83c2.04-.62,4.34-.56,6.33.17.16.06.33.13.44.25l.15.39c.06.34.07.72-.19.97-.24.23-.62.27-.98.29-1.68.09-3.36,0-5.01-.29-.54-.09-1.94-.15-2.08-.73-.15-.61.83-.9,1.34-1.05Z"/>
      <path class="cls-5" d="M59.5,65.7c2.16-.11,4.35.5,6.04,1.68l.34.35.02.41c-.05.34-.16.71-.49.89-.3.16-.68.11-1.03.04-1.64-.32-3.23-.81-4.73-1.48-.49-.22-1.82-.61-1.77-1.2.05-.63,1.08-.66,1.63-.69Z"/>
      <path class="cls-5" d="M57.99,69.91c2.15.15,4.23,1.02,5.71,2.39.12.11.24.24.28.39l-.05.41c-.1.33-.27.68-.63.82-.32.12-.69.02-1.02-.08-1.57-.51-3.07-1.19-4.45-2.03-.45-.27-1.7-.82-1.57-1.4.15-.61,1.17-.53,1.72-.49Z"/>
      <path class="cls-5" d="M53.52,71.6c1.7,1.16,2.88,2.88,3.24,4.73.03.15.05.31-.01.46l-.3.32c-.3.22-.66.44-1.04.38-.35-.05-.59-.31-.8-.56-.99-1.18-1.8-2.47-2.42-3.83-.2-.44-.9-1.5-.41-1.92.51-.44,1.32.12,1.75.42Z"/>
    </g>
  </g>
</svg>