<?xml version="1.0" encoding="UTF-8"?>
<svg id="Layer_2" xmlns="http://www.w3.org/2000/svg" width="79.99" height="108.06" viewBox="0 0 79.99 108.06">
  <defs>
    <style>
      .cls-1 {
        fill: #2ec12e;
      }

      .cls-2 {
        fill: #173a91;
      }

      .cls-3 {
        fill: #2e4d4d;
      }

      .cls-4 {
        fill: #17a27b;
      }

      .cls-5 {
        fill: #ffaa30;
      }
    </style>
  </defs>
  <g id="Layer_1-2" data-name="Layer_1">
    <g>
      <path class="cls-5" d="M73.46,67.68C48.98,115.49,4.39,115.83,6.55,94.59c3.2-31.51-4.7-38.19,3.18-58.41C22.03,4.6,53.72,8.28,63.72,14.92c9.45,6.28,25.27,22.45,9.74,52.76"/>
      <path class="cls-4" d="M35.5,0C16.53,0,0,14.73,0,14.73c6.07,4.55,11.76,7.32,17.02,8.79,8.18-9.84,19.15-13.11,28.71-13.11,3.22,0,6.28.37,9.02.99,1.8-1.97,2.74-3.34,2.74-3.34C50.32,2.14,42.74,0,35.5,0"/>
      <path class="cls-1" d="M45.73,10.4c-9.56,0-20.53,3.27-28.71,13.11,3.39.95,6.59,1.36,9.61,1.36,13.81,0,23.63-8.57,28.11-13.48-2.74-.61-5.8-.99-9.02-.99"/>
      <path class="cls-2" d="M61.79,7.62c-2.74,1.38-4.03,3.36-4.55,4.42,2.62.79,4.84,1.8,6.48,2.88.22.15.45.3.67.46.57-3.33,2.85-4.48,2.85-4.48.78-3.02-5.28-3.25-5.45-3.28"/>
      <path class="cls-3" d="M57.24,12.04c-.23.46-.31.75-.31.75-2.08,4.27,7.36,4.79,7.36,4.79-.05-.82,0-1.55.11-2.2-.23-.16-.45-.31-.67-.46-1.64-1.09-3.86-2.1-6.48-2.88"/>
    </g>
  </g>
</svg>