<?xml version="1.0" encoding="utf-8"?>
<!-- Generator: Adobe Illustrator 28.0.0, SVG Export Plug-In . SVG Version: 6.00 Build 0)  -->
<svg version="1.1" id="Layer_1" xmlns="http://www.w3.org/2000/svg" xmlns:xlink="http://www.w3.org/1999/xlink" x="0px" y="0px"
	 width="49px" height="80.4px" viewBox="0 0 49 80.4" style="enable-background:new 0 0 49 80.4;" xml:space="preserve">
<style type="text/css">
	.st0{fill:#FC8E2C;}
	.st1{fill:#FFEBAB;}
	.st2{fill:#FFDC55;}
	.st3{fill:#FDA826;}
	.st4{fill:#FFF9B0;}
	.st5{clip-path:url(#SVGID_00000173134762255509385890000004823635382459198608_);}
	.st6{fill:#3767D3;}
	.st7{fill:#363924;}
</style>
<path class="st0" d="M39.9,46.5c-0.2-0.5-1.8-3.8-2.2-4.5c-1.4-3-2.1-4.8-2.5-6.5c-0.4-1.5-0.5-3.1-0.5-4.7c0.1-1.4,0-2,0.1-2.7
	c0-0.2,0-0.4,0-0.6c0.9-14.8,2.4-23.1-14.2-23C2.9,4.7,5.1,14.3,6,27.4c0.1,1.3,0.1,2.5,0.2,3.7c0,0.5,0.1,1.2,0.1,2.2
	c0,1.6-0.1,3.2-0.5,4.7c-0.6,2.4-1,3.8-2.2,6.2c-0.5,0.9-1.6,3.2-1.8,3.9c-2.2,6-1.8,8.9-1.6,12.7C1.3,77.3,12,78.7,21.9,78.5
	c9.3-0.1,19.5-1.4,20.3-18.9C42.5,54.5,42,51.1,39.9,46.5"/>
<path class="st1" d="M31.8,7c4.6,3.5,3.7,10.5,3.1,20.5c0,0.2,0,0.4,0,0.6c-0.1,0.7,0,1.3-0.1,2.7c-0.1,1.6,0.1,3.2,0.5,4.7
	c0.4,1.8,1.1,3.6,2.5,6.5c0.3,0.7,1.9,4,2.2,4.5c2.1,4.6,2.6,7.9,2.3,13.1c-0.8,17.5-11,18.8-20.3,18.9c-0.3,0-0.7,0-1,0
	c-1.9,0-3.8-0.1-5.7-0.3c2.9,1.6,6.2,2.1,9.7,2.1c1.9,0,3.8-0.2,5.7-0.3c9.2-1,19.3-3.2,18.5-20.7c-0.2-5.1-1-8.4-3.6-12.8
	c-0.3-0.5-2.2-3.6-2.6-4.3c-1.7-2.8-2.5-4.5-3.1-6.3c-0.5-1.5-0.8-3.1-0.9-4.7c-0.1-1.4-0.2-2-0.2-2.7c0-0.2,0-0.4,0-0.6
	C38.3,16.8,38.5,9.3,31.8,7"/>
<path class="st2" d="M26.1,66.6c-6.4,0-11.7-4.8-11.9-10.9c-0.3-6.3,4.9-11.6,11.5-11.9c0.2,0,0.4,0,0.6,0c6.4,0,11.7,4.8,11.9,10.9
	c0.3,6.3-4.9,11.6-11.5,11.9C26.5,66.6,26.3,66.6,26.1,66.6 M26.2,6.2c-1.2,0-2.5,0.1-3.9,0.2C4.7,8.3,7.8,17.7,9.9,30.6
	c0.2,1.3,0.3,2.5,0.6,3.7c0,0.5,0.2,1.2,0.3,2.2c0.2,1.6,0.2,3.2-0.1,4.8c-0.4,2.4-0.7,3.9-1.6,6.4c-0.4,1-1.3,3.3-1.4,4.1
	C6,58,6.7,60.9,7.3,64.6c1.2,7.4,4.2,11.5,7.9,13.6c1.8,0.2,3.8,0.3,5.7,0.3c0.3,0,0.7,0,1,0c9.3-0.1,19.5-1.4,20.3-18.9
	c0.2-5.1-0.2-8.5-2.3-13.1c-0.2-0.5-1.8-3.8-2.2-4.5c-1.4-3-2.1-4.8-2.5-6.5c-0.4-1.5-0.5-3.1-0.5-4.7c0.1-1.4,0-2,0.1-2.7
	c0-0.2,0-0.4,0-0.6c0.6-10,1.5-17-3.1-20.5C30.3,6.5,28.4,6.2,26.2,6.2"/>
<path class="st3" d="M26.3,43.8c-0.2,0-0.4,0-0.6,0c-6.6,0.3-11.8,5.6-11.5,11.9c0.3,6.1,5.6,10.9,11.9,10.9c0.2,0,0.4,0,0.6,0
	c6.6-0.3,11.8-5.6,11.5-11.9C37.9,48.5,32.6,43.7,26.3,43.8"/>
<path class="st4" d="M29.5,51.3c0.6-0.6,1.5-1.1,2.5-1.3h0.2l0.2,0.1c0.1,0.1,0.3,0.2,0.2,0.3c0,0.1-0.2,0.2-0.3,0.3
	c-0.6,0.4-1.3,0.7-2,1c-0.2,0.1-0.8,0.4-1.1,0.2C29.1,51.8,29.4,51.5,29.5,51.3z"/>
<path class="st4" d="M31.7,52.3c0.8-0.5,1.9-0.7,2.9-0.7l0.2,0.1l0.1,0.1c0.1,0.1,0.2,0.3,0.1,0.4c-0.1,0.1-0.2,0.2-0.4,0.2
	c-0.8,0.2-1.6,0.4-2.3,0.5c-0.3,0-0.9,0.2-1.1-0.1C31.1,52.6,31.5,52.4,31.7,52.3z"/>
<path class="st4" d="M26.8,48.2c0.6-0.6,1.5-1.1,2.5-1.3h0.2l0.2,0.1c0.1,0.1,0.3,0.2,0.2,0.3c0,0.1-0.2,0.2-0.3,0.3
	c-0.6,0.4-1.3,0.7-2,1c-0.2,0.1-0.8,0.4-1,0.2C26.3,48.7,26.6,48.4,26.8,48.2z"/>
<path class="st4" d="M28.9,49.1c0.8-0.5,1.9-0.7,2.9-0.7l0.2,0.1l0.1,0.1c0.1,0.1,0.2,0.3,0.1,0.4c-0.1,0.1-0.2,0.2-0.4,0.2
	c-0.8,0.2-1.6,0.4-2.3,0.5c-0.3,0-0.9,0.2-1.1-0.1C28.3,49.5,28.7,49.3,28.9,49.1z"/>
<path class="st4" d="M30.1,53.8c1-0.3,2.1-0.3,3-0.1l0.2,0.1l0.1,0.2c0,0.1,0.1,0.3-0.1,0.4c-0.1,0.1-0.3,0.1-0.5,0.1
	c-0.8,0.1-1.6,0.1-2.4,0c-0.3,0-0.9,0-1-0.2C29.4,54,29.9,53.9,30.1,53.8z"/>
<path class="st4" d="M32,55.4c1-0.3,2.1-0.3,3-0.1l0.2,0.1l0.1,0.2c0,0.1,0.1,0.3-0.1,0.4c-0.1,0.1-0.3,0.1-0.5,0.1
	c-0.8,0.1-1.6,0.1-2.4,0c-0.3,0-0.9,0-1-0.2C31.2,55.6,31.7,55.5,32,55.4z"/>
<path class="st4" d="M30.2,57.3c1-0.3,2.1-0.2,3,0l0.2,0.1l0.1,0.2c0,0.1,0,0.3-0.1,0.4c-0.1,0.1-0.3,0.1-0.5,0.1
	c-0.8,0-1.6,0-2.4-0.1c-0.3,0-0.9-0.1-1-0.3C29.5,57.5,29.9,57.4,30.2,57.3z"/>
<path class="st4" d="M31.1,59c1,0,2.1,0.3,2.8,0.8l0.2,0.2v0.2c-0.1,0.1-0.1,0.3-0.3,0.3c-0.2,0.1-0.3,0-0.5,0
	c-0.8-0.2-1.5-0.4-2.2-0.7c-0.2-0.1-0.8-0.3-0.8-0.5C30.3,59,30.8,59,31.1,59z"/>
<path class="st4" d="M28.6,59.6c1,0.2,1.9,0.7,2.4,1.3l0.1,0.2L31,61.2c-0.1,0.1-0.2,0.3-0.4,0.3c-0.2,0-0.3,0-0.5-0.1
	c-0.7-0.3-1.3-0.7-1.9-1.1c-0.2-0.1-0.7-0.4-0.6-0.7C27.8,59.4,28.3,59.5,28.6,59.6L28.6,59.6z"/>
<path class="st4" d="M28.7,61.7c1,0.2,1.9,0.7,2.4,1.3l0.1,0.2l-0.1,0.2c-0.1,0.1-0.2,0.3-0.4,0.3c-0.2,0-0.3,0-0.5-0.1
	c-0.7-0.3-1.3-0.7-1.9-1.1c-0.2-0.1-0.7-0.4-0.6-0.7C27.9,61.6,28.4,61.7,28.7,61.7L28.7,61.7z"/>
<path class="st4" d="M22.9,51.7c-0.6-0.6-1.6-1-2.6-1.1H20l-0.2,0.1c-0.1,0.1-0.2,0.2-0.2,0.4c0,0.1,0.2,0.2,0.3,0.3
	c0.7,0.3,1.4,0.6,2.1,0.8c0.2,0.1,0.8,0.3,1.1,0.1C23.3,52.1,23,51.8,22.9,51.7L22.9,51.7z"/>
<path class="st4" d="M20.8,52.8c-0.9-0.4-2-0.5-3-0.4l-0.2,0.1l-0.1,0.1c-0.1,0.1-0.1,0.3,0,0.4c0.1,0.1,0.3,0.2,0.4,0.2
	c0.8,0.2,1.6,0.2,2.4,0.2c0.3,0,0.9,0.1,1.1-0.1C21.4,53,21,52.9,20.8,52.8z"/>
<path class="st4" d="M24.3,48.6c-0.4-0.7-1.1-1.3-2-1.6L22,47l-0.2,0.1c-0.2,0.1-0.3,0.2-0.3,0.3c0,0.1,0.1,0.2,0.2,0.3
	c0.5,0.4,1,0.9,1.7,1.2c0.2,0.1,0.7,0.5,1,0.3C24.6,49.1,24.4,48.8,24.3,48.6L24.3,48.6z"/>
<path class="st4" d="M23.3,49.5c-0.9-0.4-2-0.5-3-0.4l-0.2,0.1l-0.1,0.1c-0.1,0.1-0.1,0.3,0,0.4c0.1,0.1,0.3,0.2,0.4,0.2
	c0.8,0.2,1.6,0.2,2.4,0.2c0.3,0,0.9,0.1,1.1-0.1C23.9,49.8,23.5,49.6,23.3,49.5z"/>
<path class="st4" d="M22.5,54.2c-1-0.2-2.1-0.2-3,0.2l-0.2,0.1l-0.1,0.2c0,0.1,0,0.3,0.1,0.4c0.1,0.1,0.3,0.1,0.5,0.1
	c0.8,0,1.6-0.1,2.4-0.2c0.3-0.1,0.9-0.1,1-0.3C23.2,54.3,22.7,54.2,22.5,54.2L22.5,54.2z"/>
<path class="st4" d="M20.8,55.9c-1-0.2-2.1-0.2-3,0.2l-0.2,0.1l-0.1,0.2c0,0.1,0,0.3,0.1,0.4c0.1,0.1,0.3,0.1,0.5,0.1
	c0.8,0,1.6-0.1,2.4-0.2c0.3-0.1,0.9-0.1,1-0.3C21.5,56,21,56,20.8,55.9L20.8,55.9z"/>
<path class="st4" d="M22.7,57.5c-1-0.2-2.1-0.1-3,0.3L19.5,58l0,0.2c0,0.1,0,0.3,0.1,0.4c0.1,0.1,0.3,0.1,0.5,0.1
	c0.8,0,1.6-0.1,2.4-0.3c0.2-0.1,0.9-0.1,1-0.4C23.4,57.7,23,57.6,22.7,57.5L22.7,57.5z"/>
<path class="st4" d="M21.9,59.3c-1,0.1-2,0.4-2.8,1L19,60.4l0,0.2c0,0.1,0.1,0.3,0.3,0.3c0.2,0.1,0.3,0,0.5,0
	c0.8-0.2,1.5-0.5,2.1-0.8c0.2-0.1,0.8-0.3,0.8-0.6C22.7,59.2,22.2,59.3,21.9,59.3L21.9,59.3z"/>
<path class="st4" d="M23.8,60.1c-1,0.3-1.8,0.8-2.3,1.4l-0.1,0.2l0.1,0.2c0.1,0.1,0.2,0.2,0.4,0.2c0.2,0,0.3-0.1,0.5-0.1
	c0.7-0.3,1.3-0.8,1.8-1.2c0.2-0.2,0.7-0.5,0.5-0.7C24.5,59.9,24,60,23.8,60.1L23.8,60.1z"/>
<path class="st4" d="M24.5,61.8c-0.8,0.5-1.4,1.2-1.6,1.9v0.2l0.2,0.1c0.1,0.1,0.3,0.2,0.5,0.1c0.2,0,0.3-0.1,0.4-0.2
	c0.5-0.5,0.9-1,1.2-1.5c0.1-0.2,0.4-0.6,0.2-0.8C25.1,61.5,24.7,61.7,24.5,61.8L24.5,61.8z"/>
<g>
	<defs>
		<path id="SVGID_1_" d="M20,0c-1.1,0-2.5,0.8-2.6,0.8c-1.2,1.8-1,3.5-1,4c1.2-0.1,2.6-0.2,4.2-0.2c0.1,0,0.3,0,0.4,0
			c0.1,0,0.2,0,0.3,0c-1.1-2.2-0.1-3.7-0.1-3.7C21,0.2,20.5,0,20,0"/>
	</defs>
	<clipPath id="SVGID_00000096017657067867226100000007237700714075646891_">
		<use xlink:href="#SVGID_1_"  style="overflow:visible;"/>
	</clipPath>
	<g style="clip-path:url(#SVGID_00000096017657067867226100000007237700714075646891_);">
		<rect x="16.2" y="0" class="st6" width="5.1" height="4.8"/>
	</g>
</g>
<path class="st7" d="M21,4.5c-0.1,0-0.3,0-0.4,0c-1.5,0-2.9,0.1-4.2,0.2c0,0.1,0,0.2,0,0.2c0.1,1,0.8,1.3,1.6,1.3
	c1.5,0,3.6-1.1,3.6-1.1c-0.2-0.2-0.3-0.5-0.4-0.7C21.2,4.5,21.1,4.5,21,4.5"/>
</svg>
