<?xml version="1.0" encoding="UTF-8"?>
<svg id="Layer_2" xmlns="http://www.w3.org/2000/svg" width="97.23" height="114.62" viewBox="0 0 97.23 114.62">
  <defs>
    <style>
      .cls-1 {
        fill: #be1b37;
      }

      .cls-2 {
        fill: #d10f25;
      }

      .cls-3 {
        fill: #f8b29f;
      }

      .cls-4 {
        fill: #aa1132;
      }

      .cls-5 {
        fill: #f8d7ad;
      }
    </style>
  </defs>
  <g id="Layer_1-2" data-name="Layer_1">
    <g>
      <path class="cls-4" d="M90.53,60.54c-2.33-11.17-7.22-20.6-20.29-27.27-5.19-2.65-12.81-4.71-13.43-11.69-.22-2.48,1.68-4.86,3.4-6.44,1.81-1.66,4.28-3.5,6.77-3.86-.01,0-7.34-3.82-13.27,0,0,0,2.38-8.19-.99-11.29,0,0-4.32,1.27-7.02,8.04-2.7-6.77-7.02-8.04-7.02-8.04-3.37,3.09-.99,11.29-.99,11.29-5.94-3.82-13.26,0-13.27,0,2.49.36,4.96,2.2,6.77,3.86,1.72,1.58,3.63,3.96,3.4,6.44-.63,6.98-8.25,9.04-13.43,11.69C8.1,39.95,3.2,49.37.87,60.54c-3.12,14.95,2.24,29.45,14.38,38.69,7.91,6.03,19.14,9.08,30.45,9.12,11.31-.04,22.53-3.09,30.45-9.12,12.14-9.24,17.5-23.75,14.38-38.69"/>
      <path class="cls-3" d="M83.1,43.45c3.97,5.02,6.11,10.77,7.43,17.09,3.12,14.95-2.24,29.45-14.38,38.69-7.91,6.03-19.14,9.08-30.45,9.12-10.67-.04-21.27-2.76-29.08-8.13,3.66,4.75,8.22,8.64,13.47,10.98,5.24,2.33,11.34,3.42,17.67,3.42,4.49,0,9.09-.55,13.6-1.6,10.84-2.61,20.91-8.08,27.12-15.66,9.54-11.62,11.39-26.74,5-40.37-2.52-5.38-5.84-9.78-10.38-13.55"/>
      <path class="cls-2" d="M41.88,100.46c-.51,0-1.15-.09-1.97-.27-15.3-3.4-31.4-15.12-31.47-30.35-.04-7.07,1.74-13.98,5.78-19.98,3.64-5.4,9.07-9.46,14.89-12.76,2.76-1.56,6.18-3.09,9.51-3.09,1.56,0,3.1.34,4.54,1.16,1.59.91,1.17,2.99,1.14,5.41-.06,6.3-.43,43.99-.55,56.53-.02,2.29-.15,3.36-1.87,3.36M49.65,100.26c-1.78,0-1.89-1.07-1.88-3.39.09-12.54.36-50.22.4-56.53.02-2.41-.37-4.5,1.24-5.39,1.41-.78,2.9-1.1,4.41-1.1,3.37,0,6.83,1.6,9.61,3.22,5.77,3.38,11.13,7.51,14.67,12.96,3.94,6.06,5.6,12.99,5.45,20.06-.33,15.23-16.63,26.73-31.98,29.92-.79.16-1.42.25-1.92.25M48.92,31c-2.98,0-6.07.27-9.16.93-6.76,1.43-15.79,6.6-20.16,10.31-11.02,9.36-12.97,19.83-12.67,31.07.25,9.29,3.79,19.23,9.69,26.91,7.81,5.37,18.41,8.09,29.08,8.13,11.31-.04,22.53-3.09,30.45-9.12,12.14-9.24,17.5-23.75,14.38-38.69-1.32-6.32-3.45-12.07-7.43-17.09-4.06-3.37-9.09-6.25-15.38-8.87-4.26-1.78-11.16-3.58-18.8-3.58"/>
      <path class="cls-5" d="M38.62,34c-3.33,0-6.75,1.53-9.51,3.09-5.82,3.3-11.25,7.36-14.89,12.76-4.04,6-5.82,12.91-5.78,19.98.08,15.23,16.18,26.95,31.47,30.35.82.18,1.46.27,1.97.27,1.72,0,1.85-1.07,1.87-3.36.12-12.54.49-50.22.55-56.53.02-2.41.44-4.5-1.14-5.41-1.44-.83-2.98-1.16-4.54-1.16"/>
      <path class="cls-5" d="M53.83,33.85c-1.51,0-3.01.32-4.41,1.1-1.6.89-1.22,2.98-1.24,5.39-.05,6.3-.31,43.99-.4,56.53-.02,2.32.1,3.39,1.88,3.39.5,0,1.13-.08,1.92-.25,15.35-3.19,31.65-14.7,31.98-29.92.16-7.07-1.51-14-5.45-20.06-3.54-5.45-8.91-9.58-14.67-12.96-2.77-1.62-6.23-3.22-9.61-3.22"/>
      <path class="cls-1" d="M35.63,42.22c-.62-.9-1.97-1.6-2.74-2.08-1.21-.76-1.98-1.31-3.33-.65-1.17.57-2.23,1.32-3.36,1.96-1.44.82-3.57,2.37-4.73,4.04-.87,1.26,1.29,3.28,2.38,4.33,2.47,2.38,5.79-.36,7.7-2.1,1.33-1.21,3.23-2.11,4.16-3.71.38-.66.27-1.25-.08-1.77Z"/>
      <path class="cls-1" d="M41.78,54.22c.17-3.47,1.34-8.7-3.82-8.58-2.33.05-3.41,1.06-4.01,3.25-.58,2.1-1.62,3.32-3.42,4.69-1.19.9-2.62,1.9-2.78,3.52-.37,3.78,5.93,5.18,8.53,6.12,2.93,1.05,5.04.28,5.19-2.83.1-2.05.2-4.11.3-6.16Z"/>
      <path class="cls-1" d="M29.7,64.61c-.48-.78-1.28-1.5-1.79-2.06-1.87-2.05-3.52-4.46-3.94-7.21-.34-2.23-.56-4.11-2.79-5.18-1.88-.9-3.16-.17-4.32,1.44-1.11,1.52-1.92,3.22-2.82,4.86-.8,1.48-1.42,3.36-1.12,5.07.37,2.07,7.24,7.38,9.24,8.38,1.37.69,3.43,1.82,4.86.73.63-.48,1.05-1.27,1.47-1.93.52-.81,1.6-1.85,1.61-2.87,0-.42-.16-.84-.4-1.23Z"/>
      <path class="cls-1" d="M41.26,69.73c.06-.77.07-1.58-.15-2.01-.57-1.11-3.17-2.25-4.3-2.8-1.51-.74-3.24-1.39-4.61-.06-.52.5-.88,1.14-1.21,1.79-1.05,2.04-2.45,5.18-2.4,7.52.08,3.81,7.11,5.36,9.86,5.37.51,0,1.07-.03,1.44-.37.98-.91,1.23-7.63,1.37-9.42Z"/>
      <path class="cls-1" d="M24.25,81.98c2.53-3.92,2.01-8.3-2.61-10.28-2.73-1.17-4.35-4.12-7.16-5.05-4.82-1.6-1.87,7.79-1.34,9.57.85,2.85,2.32,5.51,4.35,7.69.71.76,1.64,1.36,2.68,1.67,1.16.34,1.94.12,2.6-.95.54-.87,1.04-1.74,1.49-2.64Z"/>
      <path class="cls-1" d="M42,85.57c-.03-1.6-.48-2.96-2.53-1.85-.76.41-1.8.86-2.26,1.69-.51.91-.89,8.02,1.16,8.55.61.16,1.24.1,1.86.03,1.24-.14,1.39-2.34,1.5-3.23.19-1.67.3-3.5.27-5.18Z"/>
      <path class="cls-1" d="M34.79,81.97c-1.17-.98-4.72-3.75-6.11-2.98-1.37.76-2.41,2.6-3.2,3.88-.85,1.39-2.23,3.58-1.83,5.31.44,1.92,2.42,3.02,3.95,4.01,1.86,1.2,3.88,2.55,6.02,3.21,1.84.57,2.36-1.49,2.34-3.02-.01-.81-.09-9.52-1.15-10.42Z"/>
      <path class="cls-1" d="M68.37,45.62c-.35-1.74-2.91-3.9-4.96-5.33-2.7-1.89-6.08-4.67-9.61-3.44-2.73.96-2.5,4.08-2.59,6.54-.1,2.88.41,5.56,3.66,5.54,3.22-.02,6.44-.22,9.64-.6,3.19-.38,4.12-1.44,3.86-2.71Z"/>
      <path class="cls-1" d="M65.07,53.77c-.33-1.97-.85-2.92-3.7-3.07-2.77-.15-5.55.39-8.24.97-1.21.26-2.3.18-2.68,1.52-.27.98-.05,6.56.72,8.09.73,1.45,2.68,1.26,4.14,1.02,1.41-.23,2.76-.73,4.16-1,2.47-.48,5.54-1.12,5.97-4.09.07-.51-.27-2.89-.36-3.45Z"/>
      <path class="cls-1" d="M79.14,62.06c-.07-.8-1.17-4.43-1.57-5.45-.9-2.29-3.2.56-4.45,1.33-2.03,1.25-4.2,2.26-6.38,3.21-1.74.76-5.79,1.66-4.49,4.36.38.79,2.18,3.74,2.81,4.22,1.79,1.37,3.76-.35,5.29-1.24,1.98-1.16,3.97-2.32,5.95-3.49.59-.35,1.18-.69,1.78-1.04.72-.27,1.16-.86,1.07-1.92Z"/>
      <path class="cls-1" d="M63.41,73.41c-.14-.37-2.2-7.92-3.32-8.82-1.51-1.2-5.83-.14-7.54.14-3.11.51-2.58,3.98-2.67,6.39-.07,1.88.09,3.95.18,5.84.05,1.1.19,1.26,1.17,1.74.91.44,2.72,1.16,3.76,1.19,1.03.03,5.94-2.62,7.36-3.56,1.5-.99,1.49-1.74,1.04-2.92Z"/>
      <path class="cls-1" d="M79.72,67.53c-.12-1.17-.68-1.45-1.38-1.31-.89.17-11.57,6.67-12.47,8.34-.75,1.38.79,2.99,1.46,4.21.65,1.17,3.42,5.55,4.48,6.11,1.51.8,2.72-.29,3.56-1.49,2.16-3.11,3.52-6.26,4.07-10,.28-1.93.49-3.9.29-5.86Z"/>
      <path class="cls-1" d="M64.18,90.78c-.2-.46-.49-.83-.83-1.14-2.6-2.41-5.19-4.83-7.84-7.18-.98-.87-2.18-1.72-3.52-1.91-1.34-.19-1.54,1.55-1.59,2.5-.09,1.71.13,8.2.13,9.73,0,1.06.08,2.23.49,3.22.67,1.63,5.26.37,6.19.15,1.51-.37,2.98-1,4.35-1.69,1.18-.6,3.32-2.06,2.62-3.67Z"/>
      <path class="cls-1" d="M68.62,86.55c1.05-1.85-1.68-5.11-2.96-6.88-.98-1.35-1.36-1.9-2.89-.94-.99.62-2.81,1.94-2.91,3.28-.09,1.18,1.06,2.06,1.77,2.85,1.07,1.2,2.25,2.72,3.69,3.41,1.1.53,2.64-.56,3.3-1.72Z"/>
      <path class="cls-1" d="M75.3,54.27c-.53.94-1.72,1.74-2.66,2.26-1.59.88-3.71,1.22-4.44-.89-.43-1.24-.81-2.5-1.15-3.77-.47-1.75,1.74-2.69,2.97-3.33,1.55-.81,4.03,2.45,5.01,3.54.68.76.66,1.51.27,2.19Z"/>
    </g>
  </g>
</svg>