<?xml version="1.0" encoding="utf-8"?>
<!-- Generator: Adobe Illustrator 28.0.0, SVG Export Plug-In . SVG Version: 6.00 Build 0)  -->
<svg version="1.1" id="Layer_1" xmlns="http://www.w3.org/2000/svg" xmlns:xlink="http://www.w3.org/1999/xlink" x="0px" y="0px"
	 viewBox="0 0 25 32.7" style="enable-background:new 0 0 25 32.7;" xml:space="preserve">
<style type="text/css">
	.st0{fill:#00DAA5;}
	.st1{fill:#EA9357;}
	.st2{fill:#512E22;}
	.st3{fill:#E52E08;}
	.st4{fill:#F79C9C;}
	.st5{fill:#F6716D;}
	.st6{fill:#3E5640;}
	.st7{fill:#74452E;}
	.st8{fill:#52756E;}
	.st9{fill:#00C88E;}
	.st10{opacity:0.8;fill:#7FFFDC;}
	.st11{fill:#66F8D1;}
	.st12{fill:#76E3C6;}
	.st13{fill:#66F4CC;}
</style>
<g>
	<path class="st0" d="M7.4,3.3C7.4,3.3,7.4,3.3,7.4,3.3c-0.1,0-0.2,0.1-0.2,0.2c-0.1,0.1-0.1,0.2,0,0.4c0.2-0.1,0.4-0.2,0.6-0.2
		c0.1,0,0.3-0.1,0.4-0.1C8,3.3,7.8,3.3,7.7,3.3C7.6,3.3,7.5,3.3,7.4,3.3 M8.4,3.2c0-0.3-0.1-0.6-0.3-0.8C8,2.2,7.7,2.1,7.5,2.1
		C7.4,2.1,7.3,2,7.3,1.9c0-0.1,0.1-0.2,0.1-0.2c0,0,0,0,0.1,0c0.3,0,0.7,0.2,0.9,0.5c0.2,0.3,0.4,0.7,0.4,1.1c0,0,0,0,0,0.1
		c2.8-0.5,5.7,0.8,7.1,3.4c0.6-0.1,1.1,0.2,1.3,0.7c0.2,0.6-0.1,1.2-0.6,1.4c0.5,3.1-1.3,6.3-4.4,7.4c-0.2,0.1-0.3,0.1-0.5,0.2
		c-3,0.8-6.1-0.5-7.6-3.1c-0.6,0.1-1.2-0.2-1.4-0.7c-0.2-0.5,0-1.1,0.5-1.4C2.8,8.3,4.2,5.4,6.8,4C6.7,3.7,6.7,3.4,6.9,3.2
		C7,3.1,7.1,3,7.3,2.9c0.1,0,0.2,0,0.4,0C8,2.9,8.2,3,8.4,3.2 M7.6,0.4c-3.1,0.9-5.7,3.2-6.7,7c-0.4,1.2-0.5,2.6-0.4,4
		c2.6,5.2,7.5,9.2,15.6,8.2c4.5-4.9,4-11.1,1.8-16.1C15,0.4,11-0.6,7.6,0.4"/>
	<path class="st1" d="M7.2,14.1c-0.5,0.1-0.9-0.1-1.1-0.6c-0.2-0.5,0.1-1,0.5-1.2c0,0,0,0,0.1,0c0.5-0.1,0.9,0.1,1.1,0.6
		C7.9,13.4,7.7,13.9,7.2,14.1C7.2,14.1,7.2,14.1,7.2,14.1 M14.8,11.3c-0.5,0.1-0.9-0.1-1.1-0.6c-0.2-0.5,0.1-1,0.5-1.2
		c0,0,0,0,0.1,0c0.5-0.1,0.9,0.1,1.1,0.6C15.5,10.6,15.3,11.1,14.8,11.3C14.8,11.3,14.8,11.3,14.8,11.3 M8.8,3.3
		c0,0.1,0,0.2-0.1,0.3c0.2,0.3,0.2,0.6,0.1,0.9C8.8,4.7,8.7,4.8,8.6,4.9C8.4,5.1,8.2,5.2,7.9,5.3l0,0c0,0,0,0,0,0
		c-0.1,0-0.2,0-0.2-0.1c0-0.1,0-0.2,0.1-0.3C8,4.9,8.2,4.8,8.3,4.6c0.1-0.1,0.1-0.2,0.2-0.2c0-0.1,0-0.2,0-0.4
		C8.3,4.2,8.1,4.3,7.9,4.4c0,0-0.1,0-0.1,0C7.4,4.5,7.2,4.5,7,4.3C6.9,4.2,6.8,4.1,6.8,4c-2.6,1.4-4,4.3-3.4,7.2
		c-0.5,0.3-0.7,0.9-0.5,1.4c0.2,0.6,0.8,0.9,1.4,0.7c1.5,2.6,4.7,3.9,7.6,3.1c0.2,0,0.3-0.1,0.5-0.2c3.1-1.1,4.9-4.3,4.4-7.4
		c0.5-0.3,0.8-0.9,0.6-1.4c-0.2-0.5-0.8-0.9-1.3-0.7C14.6,4.1,11.7,2.8,8.8,3.3 M8.1,3.4C8,3.5,7.9,3.5,7.7,3.6
		C7.5,3.6,7.3,3.7,7.1,3.8c0,0.1,0,0.1,0.1,0.2c0.1,0.1,0.2,0.1,0.4,0.1c0,0,0.1,0,0.1,0C7.9,4,8.2,3.8,8.3,3.6l0,0
		C8.2,3.5,8.2,3.5,8.1,3.4"/>
	<path class="st2" d="M14,8.7c-0.2-0.4-0.7-0.7-1.2-0.5c-0.5,0.2-0.8,0.7-0.6,1.2l0,0c0.1,0.1,0.2,0.1,0.3,0C12.7,9.2,12.9,9,13.1,9
		c0.2-0.1,0.5-0.1,0.7,0C14,9,14.1,8.9,14,8.7L14,8.7z"/>
	<path class="st2" d="M6.7,10.4c-0.4,0.2-0.7,0.7-0.6,1.1l0,0.1c0.1,0.1,0.2,0.1,0.3,0c0.1-0.2,0.3-0.4,0.5-0.5
		c0.2-0.1,0.5-0.1,0.7,0C7.9,11.3,8,11.1,8,11l0,0C7.8,10.5,7.2,10.2,6.7,10.4z"/>
	<path class="st3" d="M8.7,11.8c0.4,0.9,1.4,1.3,2.4,1c0.9-0.3,1.4-1.3,1.2-2.3L8.7,11.8z"/>
	<path class="st4" d="M9.7,11.4c0.2,0.4,0.6,0.6,1,0.4c0.4-0.1,0.6-0.6,0.5-1L9.7,11.4z"/>
	<path class="st5" d="M6.7,12.3C6.7,12.4,6.6,12.4,6.7,12.3c-0.5,0.2-0.8,0.7-0.6,1.2c0.2,0.4,0.6,0.7,1.1,0.6c0,0,0,0,0.1,0
		c0.5-0.2,0.7-0.7,0.5-1.2C7.6,12.5,7.1,12.2,6.7,12.3"/>
	<path class="st5" d="M14.3,9.6C14.3,9.6,14.2,9.6,14.3,9.6c-0.5,0.2-0.8,0.7-0.6,1.2c0.2,0.4,0.6,0.7,1.1,0.6c0,0,0,0,0.1,0
		c0.5-0.2,0.7-0.7,0.5-1.2C15.2,9.7,14.7,9.4,14.3,9.6"/>
	<path class="st6" d="M7.5,1.7c-0.1,0-0.1,0.1-0.1,0.2c0,0.1,0.1,0.2,0.2,0.2c0.2,0,0.5,0.1,0.6,0.3c0.2,0.2,0.3,0.5,0.3,0.8
		C8.2,3,8,2.9,7.7,2.9c-0.1,0-0.3,0-0.4,0C7.1,3,7,3.1,6.9,3.2C6.7,3.4,6.7,3.7,6.8,4C6.9,3.9,7,3.9,7.1,3.8c0-0.1,0-0.3,0-0.4
		c0-0.1,0.1-0.1,0.2-0.1c0,0,0,0,0,0c0.1,0,0.2,0,0.2,0c0.2,0,0.3,0.1,0.5,0.2c0,0,0.1,0,0.1,0c0.2-0.1,0.4-0.1,0.6-0.1
		c0,0,0,0,0-0.1c0-0.4-0.1-0.8-0.4-1.1C8.2,1.9,7.9,1.7,7.5,1.7C7.5,1.7,7.5,1.7,7.5,1.7"/>
	<path class="st7" d="M8.2,3.4C8.2,3.4,8.2,3.4,8.2,3.4c0,0.1,0,0.1,0.1,0.2l0,0C8.2,3.8,7.9,4,7.7,4c0,0-0.1,0-0.1,0
		c-0.2,0-0.3,0-0.4-0.1c0-0.1-0.1-0.1-0.1-0.2C7,3.9,6.9,3.9,6.8,4c0,0.1,0.1,0.2,0.2,0.3c0.2,0.2,0.5,0.3,0.8,0.2c0,0,0.1,0,0.1,0
		C8.1,4.3,8.3,4.2,8.5,4c0,0.1,0,0.3,0,0.4c0,0.1-0.1,0.2-0.2,0.2C8.2,4.8,8,4.9,7.8,4.9C7.7,5,7.6,5.1,7.7,5.2
		c0,0.1,0.1,0.1,0.2,0.1c0,0,0,0,0,0l0,0c0.2-0.1,0.4-0.2,0.6-0.4c0.1-0.1,0.2-0.2,0.3-0.4c0.1-0.3,0.1-0.6-0.1-0.9
		c0-0.1,0.1-0.2,0.1-0.3C8.6,3.3,8.4,3.4,8.2,3.4"/>
	<path class="st8" d="M0,10.6c0,2.7,0.6,5.6,1.3,8.3c2,7.9,6.9,15.6,15.4,13.5l0.1,0c2.4-0.8,4.1-2.1,5.3-3.7
		c-0.8,0.7-1.7,1.4-2.8,1.9l-0.1,0.1c-0.4,0.2-0.8,0.3-1.2,0.4c0,0,0,0,0,0c-0.5,0.2-1,0.4-1.5,0.6l-0.1,0
		c-8.1,2-12.8-5.3-14.7-12.9c-0.7-2.4-1.2-5-1.2-7.4C0.2,11.1,0.1,10.8,0,10.6"/>
	<path class="st9" d="M0.4,11.4c0.1,2.4,0.6,4.9,1.2,7.4c1.9,7.5,6.6,14.9,14.7,12.9l0.1,0c0.5-0.2,1.1-0.4,1.5-0.6
		c-5.2,1.4-9.3-1.5-12.3-5.8c0.5-0.1,0.9-0.2,1.4-0.3C8,24.6,8.8,24.3,9.7,24l0.2-0.1c2.6-1.2,4.6-2.7,6.1-4.3
		C7.9,20.5,2.9,16.6,0.4,11.4"/>
	<path class="st10" d="M17.7,3.4C17.7,3.4,17.7,3.5,17.7,3.4c0.3,0.4,0.6,0.7,0.8,1.1c1.7,2.4,2.9,5.6,3.8,8.8
		c0.4,1.3,0.7,2.7,0.9,4.1c0.2-0.1,0.4-0.2,0.6-0.3c0.7,4.2,0.4,8.4-1.8,11.5c4.4-4.2,3.2-11.3,0.6-17C21.4,8.6,19.7,5.6,17.7,3.4"
		/>
	<path class="st11" d="M17.7,3.5c2.2,5,2.7,11.2-1.8,16.1c1.1-0.1,2.2-0.3,3.4-0.6l0.2-0.1c1.4-0.4,2.6-0.9,3.7-1.5
		c-0.2-1.4-0.5-2.8-0.9-4.1c-0.9-3.2-2.1-6.4-3.8-8.8C18.3,4.1,18,3.8,17.7,3.5"/>
	<path class="st12" d="M23.9,17.1c-0.2,0.1-0.4,0.2-0.6,0.3c0.8,5.5-0.2,11.1-5.3,13.5c0,0,0,0,0,0c0.4-0.1,0.8-0.2,1.2-0.4l0.1-0.1
		c1.1-0.5,2-1.2,2.8-1.9C24.3,25.5,24.6,21.3,23.9,17.1"/>
	<path class="st13" d="M23.3,17.4c-1.1,0.6-2.4,1.1-3.7,1.5L19.4,19c-1.2,0.3-2.3,0.5-3.4,0.6c-1.5,1.6-3.4,3-6.1,4.3L9.7,24
		c-0.9,0.4-1.7,0.7-2.6,0.9c-0.5,0.1-1,0.3-1.4,0.3c2.9,4.3,7.1,7.2,12.3,5.8C23.1,28.5,24.1,22.9,23.3,17.4"/>
</g>
</svg>
