<?xml version="1.0" encoding="utf-8"?>
<!-- Generator: Adobe Illustrator 28.0.0, SVG Export Plug-In . SVG Version: 6.00 Build 0)  -->
<svg version="1.1" id="Layer_1" xmlns="http://www.w3.org/2000/svg" xmlns:xlink="http://www.w3.org/1999/xlink" x="0px" y="0px"
	 width="20.3px" height="17.9px" viewBox="0 0 20.3 17.9" style="enable-background:new 0 0 20.3 17.9;" xml:space="preserve">
<style type="text/css">
	.st0{fill:#FFE79C;}
	.st1{fill:#DDA985;}
	.st2{fill:#FFD564;}
</style>
<path class="st0" d="M2.2,2.3C0.7,3.5,0,5.4,0,7.3c0,1.9,0.8,3.7,1.8,5.2c1.9,2.9,5.3,5,8.7,4.8c2.8-0.2,5.3-2.1,6.6-4.5
	c1.3-2.5,1.3-5.5,0.3-8.1c-0.7-1.7-1.8-3.2-3.4-4c-0.9-0.5-2-0.6-3.1-0.5C9.8,0.3,9.2,1.2,8.1,1.5C7.3,1.7,6.5,1.4,5.7,1.3
	C4.4,1.2,3.2,1.5,2.2,2.3"/>
<path class="st1" d="M13.6,0.4c0.1,0,0.3,0.1,0.4,0.2c1.6,0.8,2.8,2.4,3.4,4c1,2.6,1,5.6-0.3,8.1c-1.3,2.5-3.8,4.3-6.6,4.5
	c-0.2,0-0.4,0-0.6,0c-0.4,0-0.8,0-1.2-0.1c1.1,0.4,2.3,0.7,3.5,0.7c0.7,0,1.5-0.1,2.2-0.3c2.7-0.8,4.8-3.1,5.5-5.8s0.2-5.7-1.4-8
	c-1-1.5-2.4-2.8-4.2-3.3C14.2,0.4,13.9,0.4,13.6,0.4"/>
<path class="st2" d="M13.2,0.3c-0.6,0-1.2,0.1-1.8,0.3c-1.1,0.4-1.5,1.5-2.5,2C8.1,3,7.3,2.9,6.5,3C5.2,3.1,4,3.7,3.2,4.7
	C2,6.1,1.7,8.1,2.1,9.9c0.4,1.8,1.5,3.4,2.8,4.7c1.1,1.1,2.4,1.9,3.8,2.5c0.4,0.1,0.8,0.1,1.2,0.1c0.2,0,0.4,0,0.6,0
	c2.8-0.2,5.3-2.1,6.6-4.5c1.3-2.5,1.3-5.5,0.3-8.1c-0.7-1.7-1.8-3.2-3.4-4c-0.1-0.1-0.3-0.1-0.4-0.2C13.5,0.4,13.3,0.3,13.2,0.3"/>
</svg>
