<?xml version="1.0" encoding="UTF-8"?>
<svg id="Layer_2" xmlns="http://www.w3.org/2000/svg" width="71.22" height="101.84" viewBox="0 0 71.22 101.84">
  <defs>
    <style>
      .cls-1 {
        fill: #cce589;
      }

      .cls-2 {
        fill: #d6ff66;
      }

      .cls-3 {
        fill: #c0063f;
      }

      .cls-4 {
        fill: #e30b5d;
      }

      .cls-5 {
        fill: #d89aad;
      }

      .cls-6 {
        fill: #abe537;
      }
    </style>
  </defs>
  <g id="Layer_1-2" data-name="Layer_1">
    <g>
      <path class="cls-1" d="M34.03,35.1c-.16.03.21-4.83.26-5.1.86-4.79,2.97-5.79,6.66-8.5,1.33-.98,2.42-2.28,3.16-3.75.83-1.65,1.12-4.5,2.62-1.46,1.17,2.37,1.42,5.53,1,8.11-1.08,6.63-7.8,9.52-13.7,10.7"/>
      <path class="cls-2" d="M33.55,33.96c.34-.08-4.08-7.21-4.41-7.59-2.44-2.86-6.35-4.44-9.98-5.14-3.79-.73-6.03-1.91-9.32-3.63-2.36-1.24-2.49-.1-2.28,2.37.23,2.71,1.14,5.55,2.51,7.89,4.88,8.29,15.18,8.16,23.48,6.1"/>
      <path class="cls-2" d="M64.24,21.16c-.83,0-2.35,1.24-3.73,1.88-1.93.9-4.06,1.37-6.19,1.37-.18,0-.36,0-.55-.01-1.99-.08-3.68-.2-5.2-.2-.28,0-.55,0-.82.01,0,.06-.02.13-.03.19-.57,3.47-2.67,5.91-5.4,7.62,1.29.82,2.41,1.88,3.31,3.1,1.87-1.89,4.46-3.07,7.33-3.07,2.03,0,3.92.59,5.52,1.6.07-.06.13-.11.19-.17,2.72-2.47,5.2-6.14,5.98-9.77.42-1.94.18-2.57-.42-2.57"/>
      <path class="cls-6" d="M47.76,24.21c-3,.1-5.46.86-8.7,3.71-.13.11-1.08,1.13-2.1,2.24,1.96.19,3.79.85,5.37,1.86,2.73-1.71,4.83-4.16,5.4-7.62.01-.06.02-.13.03-.19"/>
      <path class="cls-1" d="M32.54,35.55c-1.23-4.54-1.54-9.19-1.55-13.86,0-4.59.09-8.5.82-13.85.42-3.1,1.72-6.59,5.06-7.62,1.15-.35,2.88-.34,3.92.45,1.59,1.21,1.01,2.17.35,3.51-.85,1.71-1.62,3.45-2.33,5.26-1.42,3.63-2.67,7.34-3.39,11.21-.62,3.36-.95,6.83-.78,10.28.06,1.21.74,3.51.18,4.57-.38.72-1.98,1.09-2.26.05Z"/>
      <path class="cls-4" d="M63.25,42.35c0,5.68-4.61,10.29-10.29,10.29s-10.29-4.61-10.29-10.29,4.61-10.29,10.29-10.29,10.29,4.61,10.29,10.29"/>
      <path class="cls-5" d="M63.25,42.29s0,.04,0,.06h0s0-.04,0-.06M63.25,42.22s0,.04,0,.06c0-.02,0-.04,0-.06M63.25,42.16s0,.04,0,.05c0-.02,0-.04,0-.05M63.25,42.1s0,.04,0,.06c0-.02,0-.04,0-.06M63.25,42.03s0,.04,0,.06c0-.02,0-.04,0-.06M63.25,41.97s0,.03,0,.04c0-.01,0-.03,0-.04M63.24,41.9s0,.03,0,.05c0-.02,0-.03,0-.05M63.24,41.83s0,.03,0,.05c0-.02,0-.03,0-.05M63.24,41.77s0,.02,0,.04c0-.01,0-.02,0-.04M63.23,41.7s0,.03,0,.05c0-.02,0-.03,0-.05M63.23,41.65s0,.02,0,.03c0,0,0-.02,0-.03M63.23,41.58s0,.01,0,.02c0,0,0-.01,0-.02M63.22,41.46s0,0,0,.01c0,0,0,0,0-.01"/>
      <path class="cls-3" d="M58.91,33.96c.34,1.02.53,2.12.53,3.26,0,4.87-3.38,8.95-7.92,10.01,1.6,1.04,2.94,2.45,3.9,4.1,1.3-.68,2.75-1.1,4.29-1.2,2.18-1.89,3.55-4.67,3.55-7.78,0-.02,0-.04,0-.06h0s0-.05,0-.07c0,0,0,0,0-.01,0-.02,0-.04,0-.05,0,0,0,0,0,0,0-.02,0-.04,0-.06,0,0,0,0,0-.01,0-.02,0-.04,0-.06,0,0,0,0,0-.01,0-.02,0-.03,0-.04,0,0,0-.01,0-.02,0-.02,0-.03,0-.05,0,0,0-.01,0-.02,0-.02,0-.03,0-.05,0,0,0-.01,0-.02,0-.01,0-.02,0-.04,0,0,0-.02,0-.02,0-.02,0-.03,0-.05,0,0,0-.02,0-.03,0,0,0-.02,0-.03,0-.02,0-.03,0-.05,0,0,0-.01,0-.02,0-.04,0-.07,0-.11,0,0,0,0,0-.01-.27-3.1-1.9-5.8-4.3-7.5"/>
      <path class="cls-4" d="M28.81,42.35c0,5.68-4.61,10.29-10.29,10.29s-10.29-4.61-10.29-10.29,4.61-10.29,10.29-10.29,10.29,4.61,10.29,10.29"/>
      <path class="cls-3" d="M23.5,42.57c-1.81,2.96-5.07,4.94-8.79,4.94-2.22,0-4.27-.7-5.95-1.9.4,1.2,1.01,2.29,1.79,3.25.08,0,.16,0,.25,0,2.73,0,5.22,1.01,7.12,2.68,1.55-2.2,3.81-3.85,6.44-4.64-.54-1.34-.84-2.8-.87-4.33M24.47,33.96c.27.81.44,1.67.5,2.55.26-.48.55-.94.87-1.38-.42-.43-.89-.82-1.38-1.17"/>
      <path class="cls-4" d="M47.99,42.35c0,6.76-5.48,12.25-12.25,12.25s-12.25-5.48-12.25-12.25,5.48-12.25,12.25-12.25,12.25,5.48,12.25,12.25"/>
      <path class="cls-3" d="M47.99,42.28s0,.05,0,.07h0s0-.05,0-.07M47.99,42.2s0,.04,0,.07c0-.02,0-.04,0-.07M47.99,42.12s0,.04,0,.06c0-.02,0-.04,0-.06M47.99,42.05s0,.04,0,.07c0-.02,0-.04,0-.07M47.98,41.96s0,.04,0,.06c0-.02,0-.04,0-.06M47.98,41.89s0,.04,0,.05c0-.02,0-.04,0-.05M47.98,41.81s0,.04,0,.06c0-.02,0-.04,0-.06M47.98,41.73s0,.04,0,.05c0-.02,0-.04,0-.05M47.97,41.66s0,.03,0,.04c0-.01,0-.03,0-.04M47.97,41.58s0,.04,0,.05c0-.02,0-.04,0-.05M47.96,41.52s0,.02,0,.03c0,0,0-.02,0-.03M47.96,41.44s0,.01,0,.02c0,0,0-.01,0-.02M47.95,41.3s0,0,0,0c0,0,0,0,0,0"/>
      <path class="cls-3" d="M24.13,46.23c.08.23.16.45.24.67.18-.05.36-.1.55-.15-.27-.16-.53-.34-.79-.52M42.82,32.36c.41,1.22.63,2.52.63,3.87,0,5.76-3.97,10.59-9.33,11.9.6.36,1.16.77,1.69,1.23,2.22-2.51,5.47-4.09,9.09-4.09.91,0,1.81.1,2.66.29.28-1.02.42-2.1.42-3.21,0-.02,0-.05,0-.07,0,0,0-.01,0-.02,0-.02,0-.04,0-.07,0,0,0,0,0-.01,0-.02,0-.04,0-.06,0,0,0,0,0,0,0-.02,0-.04,0-.07,0,0,0-.01,0-.02,0-.02,0-.04,0-.06,0,0,0-.01,0-.02,0-.02,0-.04,0-.05,0,0,0-.01,0-.02,0-.02,0-.04,0-.06,0,0,0-.02,0-.02,0-.02,0-.04,0-.05,0-.01,0-.02,0-.03,0-.01,0-.03,0-.04,0,0,0-.02,0-.03,0-.02,0-.04,0-.05,0-.01,0-.02,0-.03,0,0,0-.02,0-.03,0-.02,0-.04,0-.06,0,0,0-.01,0-.02,0-.05,0-.09-.01-.14,0,0,0,0,0,0-.31-3.69-2.27-6.91-5.12-8.94"/>
      <path class="cls-4" d="M21.6,59.65c0,5.97-4.84,10.8-10.8,10.8S0,65.62,0,59.65s4.84-10.8,10.8-10.8,10.8,4.84,10.8,10.8"/>
      <path class="cls-3" d="M15.82,60.2c-1.93,2.93-5.25,4.86-9.02,4.86-2.33,0-4.48-.74-6.24-1.99.86,2.59,2.68,4.74,5.03,6.04,2.04-2.6,5.21-4.27,8.78-4.27,1.21,0,2.38.19,3.47.55-1.04-1.52-1.75-3.29-2.01-5.2M17.04,50.84c.16.48.29.96.38,1.47.16-.26.33-.52.5-.77-.28-.25-.57-.48-.88-.7"/>
      <path class="cls-4" d="M39.99,58.53c0,6.71-5.44,12.14-12.14,12.14s-12.14-5.44-12.14-12.14,5.44-12.14,12.14-12.14,12.14,5.44,12.14,12.14"/>
      <path class="cls-3" d="M33,59.84c-2.22,2.9-5.72,4.77-9.65,4.77-2.62,0-5.04-.83-7.02-2.24.36,1.08.87,2.1,1.51,3.03,2.16.71,4.02,2.05,5.37,3.81,2.09-3.83,6.01-6.51,10.59-6.87-.35-.79-.62-1.63-.8-2.5M34.87,48.63c.15.46.28.93.38,1.42.18-.23.37-.46.56-.68-.3-.26-.61-.51-.94-.74"/>
      <path class="cls-4" d="M71.22,60.91c0,5.97-4.84,10.8-10.8,10.8s-10.8-4.84-10.8-10.8,4.84-10.8,10.8-10.8,10.8,4.84,10.8,10.8"/>
      <path class="cls-5" d="M71.22,60.84s0,.04,0,.06c0,0,0,0,0,0,0-.02,0-.04,0-.06M71.22,60.77s0,.04,0,.06c0-.02,0-.04,0-.06M71.22,60.63s0,.09,0,.13c0-.04,0-.09,0-.13M71.22,60.56s0,.04,0,.06c0-.02,0-.04,0-.06M71.22,60.49s0,.04,0,.07c0-.02,0-.04,0-.07M71.21,60.42s0,.04,0,.06c0-.02,0-.04,0-.06M71.21,60.35s0,.04,0,.06c0-.02,0-.04,0-.06M71.21,60.29s0,.04,0,.06c0-.02,0-.04,0-.06M71.2,60.22s0,.04,0,.06c0-.02,0-.04,0-.06M71.2,60.15s0,.04,0,.06c0-.02,0-.04,0-.06M71.19,60.09s0,.04,0,.06c0-.02,0-.04,0-.06M71.19,60.01s0,.04,0,.05c0-.02,0-.04,0-.05M71.18,59.95s0,.03,0,.04c0-.01,0-.03,0-.04M71.18,59.88s0,.03,0,.04c0-.01,0-.03,0-.04M71.17,59.83s0,.02,0,.03c0-.01,0-.02,0-.03M71.16,59.76s0,.01,0,.02c0,0,0-.01,0-.02M71.16,59.69s0,0,0,0c0,0,0,0,0,0"/>
      <path class="cls-3" d="M66.67,52.1c.36,1.07.56,2.22.56,3.42,0,5.97-4.84,10.8-10.8,10.8-.99,0-1.95-.13-2.86-.38-.21.22-.44.43-.67.63.21-.01.43-.02.65-.02,3.85,0,7.24,1.95,9.24,4.91,4.83-1.07,8.45-5.39,8.45-10.54,0-.02,0-.04,0-.06h0s0-.05,0-.07c0,0,0,0,0,0,0-.04,0-.09,0-.13,0,0,0,0,0,0,0-.02,0-.04,0-.06,0,0,0,0,0,0,0-.02,0-.04,0-.07,0,0,0,0,0,0,0-.02,0-.04,0-.06,0,0,0,0,0,0,0-.02,0-.04,0-.06,0,0,0,0,0,0,0-.02,0-.04,0-.06,0,0,0,0,0,0,0-.02,0-.04,0-.06,0,0,0,0,0-.01,0-.02,0-.04,0-.06,0,0,0,0,0,0,0-.02,0-.04,0-.06,0,0,0-.01,0-.02,0-.02,0-.04,0-.05,0,0,0-.01,0-.02,0-.01,0-.03,0-.04,0,0,0-.02,0-.03,0-.01,0-.03,0-.04,0,0,0-.02,0-.03,0-.01,0-.02,0-.03,0-.02,0-.03,0-.05,0,0,0-.01,0-.02,0-.02,0-.05,0-.07,0,0,0,0,0,0-.35-3.13-2.04-5.86-4.49-7.59"/>
      <path class="cls-4" d="M57.05,57.41c0,6.71-5.44,12.14-12.14,12.14s-12.14-5.44-12.14-12.14,5.44-12.14,12.14-12.14,12.14,5.44,12.14,12.14"/>
      <path class="cls-3" d="M57.05,57.34s0,.05,0,.07h0s0-.05,0-.07M57.05,57.26s0,.05,0,.07c0-.02,0-.05,0-.07M57.04,57.18s0,.04,0,.07c0-.02,0-.04,0-.07M57.04,57.11s0,.04,0,.07c0-.02,0-.04,0-.07M57.04,57.02s0,.04,0,.07c0-.02,0-.04,0-.07M57.04,56.95s0,.04,0,.06c0-.02,0-.04,0-.06M57.03,56.88s0,.04,0,.06c0-.02,0-.04,0-.06M57.03,56.8s0,.04,0,.06c0-.02,0-.04,0-.06M57.03,56.73s0,.03,0,.04c0-.01,0-.03,0-.04M57.02,56.65s0,.04,0,.06c0-.02,0-.04,0-.06M57.02,56.58s0,.02,0,.04c0-.01,0-.02,0-.04M57.01,56.5s0,.02,0,.03c0,0,0-.02,0-.03M57,56.36s0,0,0,.01c0,0,0,0,0-.01"/>
      <path class="cls-3" d="M33.38,61.25c.12.37.26.73.42,1.09.35-.03.7-.04,1.06-.04.1,0,.2,0,.3,0-.62-.3-1.22-.65-1.78-1.05M51.92,47.51c.4,1.21.62,2.5.62,3.84,0,6.71-5.44,12.14-12.14,12.14,0,0-.02,0-.03,0,2.57,1.17,4.7,3.14,6.07,5.59,1.77-1.46,4-2.38,6.44-2.52,2.55-2.23,4.16-5.5,4.16-9.15,0-.02,0-.05,0-.07h0s0-.06,0-.08c0,0,0,0,0-.01,0-.02,0-.04,0-.07,0,0,0,0,0,0,0-.02,0-.04,0-.07,0,0,0-.01,0-.02,0-.02,0-.04,0-.07,0,0,0,0,0-.01,0-.02,0-.04,0-.06,0,0,0-.01,0-.02,0-.02,0-.04,0-.06,0,0,0-.01,0-.02,0-.02,0-.04,0-.06,0,0,0-.02,0-.03,0-.01,0-.03,0-.04,0,0,0-.02,0-.03,0-.02,0-.04,0-.06,0-.01,0-.02,0-.03,0-.01,0-.02,0-.04,0-.02,0-.03,0-.05,0,0,0-.02,0-.03,0-.04,0-.09-.01-.13,0,0,0,0,0-.01-.31-3.65-2.25-6.85-5.08-8.85"/>
      <path class="cls-4" d="M64.69,77.69c0,6.16-4.99,11.15-11.15,11.15s-11.15-4.99-11.15-11.15,4.99-11.15,11.15-11.15,11.15,4.99,11.15,11.15"/>
      <path class="cls-5" d="M53.47,88.85s.04,0,.07,0c-.02,0-.04,0-.07,0M53.4,88.85s.03,0,.05,0c-.01,0-.03,0-.05,0M53.33,88.85s.03,0,.05,0c-.01,0-.03,0-.05,0M53.26,88.84s.04,0,.06,0c-.02,0-.04,0-.06,0M53.18,88.84h0s.03,0,.05,0c-.02,0-.03,0-.05,0M64.69,77.63s0,.04,0,.06h0s0-.04,0-.06M64.69,77.56s0,.04,0,.06c0-.02,0-.04,0-.06M64.69,77.48s0,.04,0,.06c0-.02,0-.04,0-.06M64.68,77.42s0,.04,0,.06c0-.02,0-.04,0-.06M64.68,77.34s0,.04,0,.06c0-.02,0-.04,0-.06M64.68,77.27s0,.04,0,.05c0-.02,0-.04,0-.05M64.68,77.2s0,.04,0,.06c0-.02,0-.04,0-.06M64.67,77.13s0,.04,0,.06c0-.02,0-.04,0-.06M64.67,77.06s0,.03,0,.05c0-.02,0-.03,0-.05M64.67,76.99s0,.04,0,.06c0-.02,0-.04,0-.06M64.66,76.92s0,.03,0,.04c0-.01,0-.03,0-.04M64.66,76.85s0,.02,0,.03c0-.01,0-.02,0-.03M64.65,76.78s0,.03,0,.05c0-.02,0-.03,0-.05M64.65,76.72s0,.02,0,.02c0,0,0-.02,0-.02M64.64,76.65s0,.01,0,.02c0,0,0-.01,0-.02M64.63,76.52s0,0,0,0c0,0,0,0,0,0"/>
      <path class="cls-3" d="M59.98,68.6c.37,1.11.57,2.29.57,3.53,0,5.8-4.42,10.56-10.08,11.1,1.39,1.54,2.35,3.48,2.71,5.62.02,0,.03,0,.05,0,0,0,.01,0,.02,0,.02,0,.04,0,.06,0h.02s.03,0,.05,0c0,0,.02,0,.02,0,.02,0,.03,0,.05,0,0,0,.01,0,.02,0,.02,0,.04,0,.07,0h0c6.16,0,11.15-4.99,11.15-11.15,0-.02,0-.04,0-.06h0s0-.05,0-.07c0,0,0,0,0-.01,0-.02,0-.04,0-.06,0,0,0,0,0,0,0-.02,0-.04,0-.06,0,0,0-.01,0-.02,0-.02,0-.04,0-.06,0,0,0,0,0-.01,0-.02,0-.04,0-.05,0,0,0,0,0-.01,0-.02,0-.04,0-.06,0,0,0-.01,0-.02,0-.02,0-.04,0-.06,0,0,0-.01,0-.02,0-.02,0-.03,0-.05,0,0,0-.01,0-.02,0-.02,0-.04,0-.06,0,0,0-.01,0-.02,0-.01,0-.03,0-.04,0-.01,0-.02,0-.03,0-.01,0-.02,0-.03,0,0,0-.02,0-.03,0-.02,0-.03,0-.05,0-.01,0-.02,0-.03,0,0,0-.02,0-.02,0-.02,0-.04,0-.06,0,0,0-.01,0-.02,0-.04,0-.08-.01-.12,0,0,0,0,0,0-.34-3.27-2.1-6.12-4.64-7.92"/>
      <path class="cls-4" d="M25.52,76c0,6.16-4.99,11.15-11.15,11.15s-11.15-4.99-11.15-11.15,4.99-11.15,11.15-11.15,11.15,4.99,11.15,11.15"/>
      <path class="cls-5" d="M14.3,87.15s.04,0,.07,0c-.02,0-.04,0-.07,0M14.23,87.15s.03,0,.05,0c-.02,0-.03,0-.05,0M14.16,87.15s.03,0,.05,0c-.02,0-.03,0-.05,0M14.09,87.15s.04,0,.06,0c-.02,0-.04,0-.06,0M14.01,87.15s.04,0,.05,0c-.02,0-.04,0-.05,0M13.95,87.15s.03,0,.04,0c-.01,0-.03,0-.04,0M13.88,87.14s.03,0,.04,0c-.01,0-.03,0-.04,0M13.81,87.14s.03,0,.05,0c-.02,0-.03,0-.05,0M13.73,87.14s.03,0,.04,0c-.01,0-.03,0-.04,0M13.66,87.13s.02,0,.04,0c-.01,0-.02,0-.04,0M13.6,87.13s.02,0,.03,0c-.01,0-.02,0-.03,0M13.54,87.12s.02,0,.03,0c-.01,0-.02,0-.03,0M13.45,87.12s.02,0,.03,0c-.01,0-.02,0-.03,0M13.39,87.11s.02,0,.03,0c0,0-.02,0-.03,0M13.33,87.11s.01,0,.02,0c0,0-.01,0-.02,0M13.28,87.1s0,0,0,0c0,0,0,0,0,0M13.11,87.08s0,0,0,0c0,0,0,0,0,0M13.05,87.08s0,0,0,0c0,0,0,0,0,0"/>
      <path class="cls-3" d="M20.81,66.9c.37,1.11.57,2.3.57,3.53,0,6.16-4.99,11.15-11.15,11.15-2.4,0-4.63-.76-6.45-2.06,1.34,4.03,4.92,7.04,9.27,7.55,0,0,0,0,0,0,.02,0,.03,0,.05,0,0,0,0,0,0,0,.05,0,.11.01.16.02,0,0,0,0,0,0,.01,0,.03,0,.04,0,0,0,.01,0,.02,0,.01,0,.03,0,.04,0,0,0,.02,0,.03,0,.01,0,.02,0,.04,0,.01,0,.02,0,.03,0,.02,0,.04,0,.06,0,.01,0,.02,0,.03,0,.01,0,.02,0,.03,0,.01,0,.02,0,.03,0,.01,0,.02,0,.03,0,.01,0,.02,0,.04,0,0,0,.02,0,.03,0,.01,0,.03,0,.04,0,.01,0,.03,0,.04,0,.02,0,.03,0,.05,0,0,0,.02,0,.03,0,.01,0,.03,0,.04,0,0,0,.02,0,.03,0,.01,0,.03,0,.04,0,0,0,.02,0,.02,0,.02,0,.04,0,.05,0h.02s.04,0,.06,0c0,0,.01,0,.02,0,.01,0,.03,0,.05,0,0,0,.02,0,.02,0,.01,0,.03,0,.05,0,0,0,.01,0,.02,0,.02,0,.04,0,.07,0h0c.34,0,.67-.01,1-.04,1.11-3.29,3.73-5.9,7.02-7-.51-1.41-.79-2.94-.79-4.53,0-2.3.59-4.47,1.62-6.36-.68-.88-1.49-1.66-2.4-2.31"/>
      <path class="cls-4" d="M48.14,75.57c0,7.33-5.94,13.27-13.27,13.27s-13.27-5.94-13.27-13.27,5.94-13.27,13.27-13.27,13.27,5.94,13.27,13.27"/>
      <path class="cls-3" d="M48.14,75.5s0,.05,0,.08h0s0-.05,0-.08M48.14,75.41s0,.05,0,.07c0-.02,0-.05,0-.07M48.14,75.32s0,.05,0,.07c0-.02,0-.05,0-.07M48.14,75.24s0,.05,0,.07c0-.02,0-.05,0-.07M48.14,75.15s0,.05,0,.07c0-.02,0-.05,0-.07M48.13,75.07s0,.04,0,.06c0-.02,0-.04,0-.06M48.13,74.99s0,.04,0,.07c0-.02,0-.04,0-.07M48.13,74.9s0,.04,0,.06c0-.02,0-.04,0-.06M48.12,74.83s0,.03,0,.04c0-.01,0-.03,0-.04M48.12,74.74s0,.04,0,.06c0-.02,0-.04,0-.06M48.11,74.67s0,.02,0,.03c0,0,0-.02,0-.03M48.11,74.58s0,.01,0,.02c0,0,0-.01,0-.02M48.09,74.43s0,0,0,0c0,0,0,0,0,0"/>
      <path class="cls-3" d="M22.28,79.77c.04.11.08.22.12.33.08-.03.17-.05.25-.08-.12-.08-.25-.17-.37-.25M42.54,64.75c.44,1.32.68,2.73.68,4.2,0,6.35-4.46,11.65-10.41,12.96.44.35.86.73,1.24,1.14,2.03-2.16,4.92-3.51,8.13-3.51,1.77,0,3.45.41,4.94,1.15.66-1.57,1.02-3.3,1.02-5.11,0-.03,0-.05,0-.08,0,0,0-.01,0-.02,0-.02,0-.05,0-.07,0,0,0-.01,0-.02,0-.02,0-.05,0-.07,0,0,0,0,0,0,0-.02,0-.05,0-.07,0,0,0-.01,0-.02,0-.02,0-.05,0-.07,0,0,0-.01,0-.02,0-.02,0-.04,0-.06,0,0,0-.01,0-.02,0-.02,0-.04,0-.07,0,0,0-.02,0-.03,0-.02,0-.04,0-.06,0-.01,0-.02,0-.03,0-.01,0-.03,0-.04,0-.01,0-.02,0-.03,0-.02,0-.04,0-.06,0-.01,0-.02,0-.04,0-.01,0-.02,0-.03,0-.02,0-.05,0-.07,0,0,0-.01,0-.02,0-.05,0-.1-.01-.15,0,0,0,0,0,0-.34-4-2.46-7.49-5.55-9.69"/>
      <path class="cls-4" d="M37.08,90.68c0,6.16-4.99,11.15-11.15,11.15s-11.15-4.99-11.15-11.15,4.99-11.15,11.15-11.15,11.15,4.99,11.15,11.15"/>
      <path class="cls-5" d="M25.86,101.84s.04,0,.07,0c-.02,0-.04,0-.07,0M25.8,101.84s.03,0,.05,0c-.01,0-.03,0-.05,0M25.73,101.84s.03,0,.05,0c-.01,0-.03,0-.05,0M25.65,101.83s.04,0,.06,0c-.02,0-.04,0-.06,0M25.58,101.83s.04,0,.05,0c-.02,0-.04,0-.05,0M25.51,101.83s.03,0,.04,0c-.01,0-.03,0-.04,0M25.44,101.83s.03,0,.04,0c-.01,0-.03,0-.04,0M25.37,101.82s.03,0,.05,0c-.02,0-.04,0-.05,0M25.29,101.82s.03,0,.05,0c-.02,0-.03,0-.05,0M25.23,101.82s.03,0,.04,0c-.01,0-.03,0-.04,0M25.16,101.81s.02,0,.04,0c-.01,0-.03,0-.04,0M25.09,101.81s.03,0,.04,0c-.01,0-.03,0-.04,0M25.01,101.8s.03,0,.04,0c-.01,0-.03,0-.04,0M24.95,101.8s.02,0,.03,0c-.01,0-.02,0-.03,0M24.89,101.79s.02,0,.03,0c0,0-.02,0-.03,0M24.83,101.78s.01,0,.02,0c0,0-.01,0-.02,0M24.73,101.77s0,0,.01,0c0,0,0,0-.01,0M24.67,101.77s.01,0,.02,0c0,0-.01,0-.02,0M24.61,101.76s0,0,.01,0c0,0,0,0-.01,0M24.4,101.73s0,0,0,0c0,0,0,0,0,0"/>
      <path class="cls-3" d="M31.05,91.35c-2,2.97-5.4,4.92-9.25,4.92-2.4,0-4.63-.76-6.45-2.06,1.32,3.96,4.8,6.94,9.05,7.52,0,0,0,0,0,0,.07,0,.14.02.21.03,0,0,0,0,.01,0,.01,0,.03,0,.05,0,0,0,.01,0,.02,0,.01,0,.03,0,.04,0,0,0,0,0,.01,0,.03,0,.06,0,.09,0,0,0,.01,0,.02,0,.01,0,.02,0,.04,0,0,0,.02,0,.03,0,.01,0,.02,0,.04,0,.01,0,.02,0,.03,0,.01,0,.02,0,.03,0,.01,0,.03,0,.04,0,.01,0,.03,0,.04,0,.01,0,.03,0,.04,0,0,0,.02,0,.03,0,.01,0,.03,0,.04,0,0,0,.02,0,.03,0,.01,0,.03,0,.04,0,0,0,.02,0,.03,0,.02,0,.03,0,.05,0,0,0,.02,0,.03,0,.02,0,.04,0,.05,0,0,0,.02,0,.02,0,.01,0,.03,0,.04,0,0,0,.02,0,.03,0,.01,0,.03,0,.04,0,0,0,.02,0,.02,0,.02,0,.04,0,.05,0,0,0,.01,0,.02,0,.02,0,.04,0,.06,0,0,0,.01,0,.02,0,.01,0,.03,0,.05,0,0,0,.02,0,.02,0,.02,0,.03,0,.05,0,0,0,.01,0,.02,0,.02,0,.04,0,.07,0h0c3.2,0,6.09-1.35,8.13-3.51-1.74-1.85-2.85-4.28-3.01-6.98M32.38,81.59c.3.91.49,1.87.55,2.87.34-.5.71-.97,1.12-1.41-.51-.54-1.07-1.03-1.68-1.46"/>
      <path class="cls-4" d="M53.34,90.68c0,6.16-4.99,11.15-11.15,11.15s-11.15-4.99-11.15-11.15,4.99-11.15,11.15-11.15,11.15,4.99,11.15,11.15"/>
      <path class="cls-5" d="M42.12,101.84s.04,0,.07,0c-.02,0-.04,0-.07,0M42.05,101.84s.03,0,.05,0c-.02,0-.03,0-.05,0M41.98,101.84s.03,0,.05,0c-.01,0-.03,0-.05,0M41.9,101.83s.04,0,.06,0c-.02,0-.04,0-.06,0M41.83,101.83s.04,0,.05,0c-.02,0-.04,0-.05,0M41.76,101.83s.03,0,.04,0c-.01,0-.03,0-.04,0M41.7,101.83s.03,0,.04,0c-.01,0-.03,0-.04,0M41.62,101.82s.03,0,.05,0c-.02,0-.04,0-.05,0M41.54,101.82s.03,0,.05,0c-.02,0-.03,0-.05,0M41.48,101.82s.03,0,.04,0c-.01,0-.03,0-.04,0M41.41,101.81s.02,0,.04,0c-.01,0-.03,0-.04,0M41.35,101.81s.03,0,.04,0c-.01,0-.03,0-.04,0M41.26,101.8s.03,0,.04,0c-.01,0-.03,0-.04,0M41.2,101.8s.02,0,.03,0c-.01,0-.02,0-.03,0M41.14,101.79s.02,0,.03,0c0,0-.02,0-.03,0M41.08,101.78s.01,0,.02,0c0,0-.01,0-.02,0M40.98,101.77s0,0,.01,0c0,0,0,0-.01,0M40.92,101.77s.01,0,.02,0c0,0-.01,0-.02,0M40.86,101.76s0,0,.01,0c0,0,0,0-.01,0M40.65,101.73s0,0,0,0c0,0,0,0,0,0M53.33,90.62s0,.04,0,.06h0s0-.04,0-.06M53.33,90.55s0,.04,0,.06c0-.02,0-.04,0-.06M53.33,90.47s0,.04,0,.06c0-.02,0-.04,0-.06M53.33,90.41s0,.04,0,.06c0-.02,0-.04,0-.06M53.33,90.33s0,.04,0,.06c0-.02,0-.04,0-.06M53.33,90.27s0,.03,0,.05c0-.02,0-.03,0-.05M53.32,90.19s0,.04,0,.05c0-.02,0-.04,0-.05M53.32,90.12s0,.03,0,.05c0-.02,0-.03,0-.05M53.32,90.06s0,.03,0,.04c0-.01,0-.03,0-.04M53.31,89.98s0,.03,0,.05c0-.02,0-.03,0-.05M53.31,89.92s0,.02,0,.03c0-.01,0-.02,0-.03M53.3,89.85s0,.02,0,.02c0,0,0-.02,0-.02M53.29,89.72s0,0,0,0c0,0,0,0,0,0"/>
      <path class="cls-3" d="M48.63,81.59c.37,1.11.57,2.3.57,3.53,0,6.16-4.99,11.15-11.15,11.15-2.4,0-4.63-.76-6.45-2.06,1.32,3.96,4.8,6.94,9.05,7.52,0,0,0,0,0,0,.07,0,.14.02.21.03,0,0,0,0,.01,0,.01,0,.03,0,.04,0,0,0,.01,0,.02,0,.01,0,.03,0,.04,0,0,0,0,0,.01,0,.03,0,.06,0,.09,0,0,0,.01,0,.02,0,.01,0,.02,0,.04,0,0,0,.02,0,.03,0,.01,0,.02,0,.04,0,.01,0,.02,0,.03,0,.01,0,.02,0,.03,0,.01,0,.03,0,.04,0,.01,0,.03,0,.04,0,.01,0,.03,0,.04,0,0,0,.02,0,.03,0,.01,0,.03,0,.04,0,0,0,.02,0,.03,0,.01,0,.03,0,.04,0,0,0,.02,0,.03,0,.02,0,.03,0,.05,0,0,0,.02,0,.03,0,.02,0,.04,0,.05,0,0,0,.02,0,.02,0,.01,0,.03,0,.04,0,0,0,.02,0,.03,0,.01,0,.03,0,.04,0,0,0,.02,0,.02,0,.02,0,.04,0,.05,0,0,0,.01,0,.02,0,.02,0,.04,0,.06,0,0,0,.01,0,.02,0,.01,0,.03,0,.05,0,0,0,.02,0,.02,0,.01,0,.03,0,.05,0,0,0,.01,0,.02,0,.02,0,.04,0,.07,0h0c6.16,0,11.15-4.99,11.15-11.15,0-.02,0-.04,0-.06h0s0-.05,0-.07c0,0,0,0,0-.01,0-.02,0-.04,0-.06,0,0,0,0,0,0,0-.02,0-.04,0-.06,0,0,0-.01,0-.02,0-.02,0-.04,0-.06,0,0,0,0,0-.01,0-.02,0-.03,0-.05,0,0,0-.01,0-.02,0-.02,0-.04,0-.05,0,0,0-.02,0-.02,0-.02,0-.03,0-.05,0,0,0-.02,0-.03,0-.01,0-.03,0-.04,0,0,0-.02,0-.02,0-.02,0-.03,0-.05,0,0,0-.02,0-.03,0-.01,0-.02,0-.03,0-.02,0-.03,0-.05,0,0,0-.02,0-.02,0-.04,0-.08,0-.12,0,0,0,0,0,0-.29-3.36-2.06-6.29-4.66-8.13"/>
    </g>
  </g>
</svg>