<?xml version="1.0" encoding="utf-8"?>
<!-- Generator: Adobe Illustrator 28.0.0, SVG Export Plug-In . SVG Version: 6.00 Build 0)  -->
<svg version="1.1" id="Layer_1" xmlns="http://www.w3.org/2000/svg" xmlns:xlink="http://www.w3.org/1999/xlink" x="0px" y="0px"
	 width="60.5px" height="74.3px" viewBox="0 0 60.5 74.3" style="enable-background:new 0 0 60.5 74.3;" xml:space="preserve">
<style type="text/css">
	.st0{fill:#A4C3F1;}
	.st1{fill:#30AC89;}
	.st2{fill:#2CD2E9;}
	.st3{fill:#007662;}
	.st4{fill:#00B4B9;}
	.st5{fill:#00925E;}
	.st6{fill:#00C2B3;}
</style>
<path class="st0" d="M40.3,33.5c-0.5,0.1-11.8,2.3-14.4,12.9c0,0-2.8,16.7,16,15.7c0,0,7.7-0.9,7.6,12.2c0,0,3.4-1.8,3.5-9.7
	c0,0,0-5,2.4-7.4c0,0,10.2-9.1,1.7-19.2C57.1,38,51.4,31.1,40.3,33.5"/>
<path class="st1" d="M14.7,8.3c-0.2,0-0.4,0-0.6,0c-4.4,0.2-9,1.5-12.5,4.3C0.8,13.2,0.2,14,0,15c-0.1,0.9,0.1,1.8,0.4,2.7
	c0.6,1.7,1.7,3.2,3.1,4.3c1.4,1.2,3.2,2,5,2.2c0.6,0.1,1.2,0.1,1.8,0.1c1.6,0,3.1-0.2,4.7-0.3c1.4-0.1,2.2-0.4,3.3-0.4
	c0.4,0,0.8,0,1.2,0.1c0.7,0.1,1.4,0.4,1.9,0.8c0.8,0.5,0.9,1.1,1,1.4c0,0.2-0.2,0.8-0.3,1c-0.5,0.8-0.9,1.3-1.4,2
	c-0.5,0.7-1,1.3-1.2,2.1c-0.3,0.8-0.4,1.8,0.1,2.6c0.5,0.8,1.6,0.9,2.5,0.9c0,0,0.1,0,0.2,0c1,0,1.9-0.2,2.8-0.4
	c1-0.3,1.9-0.7,2.8-0.9c0.3-0.1,0.7-0.2,1-0.2c0.4,0,0.8,0.1,1.1,0.5c0.4,0.5,0.2,1.2,0.1,1.8c-0.2,0.6-0.4,1.2-0.5,1.9
	s0.1,1.3,0.6,1.8c0,0,0,0,0,0c1.7-1.7,3.5-2.8,5.2-3.6c-1.7-1.7-3.1-3.5-4.3-5.5c-1.9-3-3.4-6.4-4.4-9.8c-0.5-1.6-0.8-3.3-0.9-5
	c-0.4-0.4-0.8-0.8-1.2-1.2c-1.5-1.4-3-2.9-4.8-4c-0.8-0.5-1.7-0.9-2.6-1.2C16.4,8.4,15.6,8.3,14.7,8.3"/>
<path class="st2" d="M35.4,35.2c-1.7,0.8-3.5,2-5.2,3.6c0.7,0.6,1.7,0.6,2.5,0.7l7,0c0.1,0,0.2,0,0.3,0c0.1,0,0.2,0,0.3-0.1
	c0,0,0,0-0.1,0c-0.2,0-0.5-0.1-0.6-0.3l-0.8-0.7C37.7,37.4,36.5,36.3,35.4,35.2"/>
<path class="st3" d="M35.8,0c-2.3,0-4.7,1.5-6.2,3.1c-3.1,3.3-4.1,7.6-3.8,11.9c5.3,5.5,9.5,12,12.6,19c0.8-0.2,1.4-0.4,1.7-0.5
	c0-1.5,0.1-2.9,0.5-4.3c1-3.3,3.3-6.1,4.4-9.4c0.5-1.4,0.6-2.9-0.2-4.2c-0.8-1.3-2.1-1.4-3.5-1.5c-3.9-0.2-2.2-5.2-1.7-7.4
	C40.2,4.4,40,1,37.2,0.2C36.7,0.1,36.3,0,35.8,0"/>
<path class="st4" d="M40.1,33.6c-0.3,0.1-0.9,0.2-1.7,0.5c0.3,0.7,0.6,1.4,0.9,2c0.4,1,0.8,2,1.2,3c0.1,0.2,0,0.2-0.1,0.3
	c0.2,0,0.3-0.2,0.3-0.5C40.4,37.2,40.1,35.4,40.1,33.6"/>
<path class="st5" d="M25.8,15c0.1,1.7,0.5,3.3,0.9,5c1,3.4,2.5,6.8,4.4,9.8c1.2,2,2.6,3.8,4.3,5.5c1.1-0.5,2.2-0.9,3-1.2
	C35.3,27,31.1,20.5,25.8,15"/>
<path class="st6" d="M38.5,34c-0.8,0.3-1.9,0.7-3,1.2c1.1,1.1,2.2,2.2,3.5,3.2l0.8,0.7c0.2,0.2,0.4,0.3,0.6,0.3c0,0,0,0,0.1,0
	c0.1-0.1,0.1-0.2,0.1-0.3c-0.4-1-0.8-2-1.2-3C39.1,35.4,38.8,34.7,38.5,34"/>
</svg>
