<?xml version="1.0" encoding="UTF-8"?>
<svg id="Layer_2" xmlns="http://www.w3.org/2000/svg" width="109.43" height="95.96" viewBox="0 0 109.43 95.96">
  <defs>
    <style>
      .cls-1 {
        fill: #2cbe36;
      }

      .cls-2 {
        fill: #00992a;
      }

      .cls-3 {
        fill: #ff8f23;
      }

      .cls-4 {
        fill: #ffb244;
      }

      .cls-5 {
        fill: #00b528;
      }

      .cls-6 {
        fill: #ff8694;
      }

      .cls-7 {
        fill: #ffe6af;
      }

      .cls-8 {
        fill: #ff7f85;
      }

      .cls-9 {
        fill: #17a27b;
      }
    </style>
  </defs>
  <g id="Layer_1-2" data-name="Layer_1">
    <g>
      <path class="cls-4" d="M45.93,83.05c-.48,0-.95-.26-1.19-.71-.35-.66-.11-1.48.55-1.83.2-.11.42-.16.64-.16.48,0,.95.26,1.19.71.35.66.11,1.48-.55,1.83-.2.11-.42.16-.64.16M36.81,81.09c-.76,0-1.49-.41-1.87-1.12-.56-1.03-.17-2.32.86-2.88.32-.17.67-.25,1.01-.25.76,0,1.49.41,1.87,1.12.56,1.03.17,2.32-.86,2.88-.32.17-.67.26-1.01.26M47.17,76.69c-1.05,0-2.06-.56-2.59-1.55-.77-1.43-.24-3.22,1.2-3.99.44-.24.92-.35,1.39-.35,1.05,0,2.06.56,2.59,1.55.77,1.43.24,3.22-1.2,3.99-.44.24-.92.35-1.39.35M32.6,73.2c-1.92,0-3.79-1.03-4.77-2.84-1.42-2.63-.43-5.91,2.19-7.33.82-.44,1.69-.65,2.56-.65,1.92,0,3.79,1.03,4.77,2.84,1.42,2.63.43,5.91-2.2,7.33-.82.44-1.69.65-2.56.65M46.33,15.95l-2.38-4.85c5.68-2.78,11.69-4.1,17.61-4.1,14.81,0,29.05,8.24,36.01,22.44,9.74,19.87,1.54,43.88-18.33,53.62l-2.4-4.9c-1.14.59-2.37,1.13-3.68,1.58l-12.9-27.64,5.68,3.82-2.39-4.88-2.86-1.43s.78-.04,2.11-.12l-1.2-2.45c-.4.08-.69.13-.85.16l-.04-.08.66-.56-1.03-2.09c-.7.8-1.1,1.27-1.1,1.27l.46-2.58-2.44-4.97c-.22,4.13-.39,7.13-.41,7.13,0,0,0,0,0,0l-13.76-26.38-.39-.75s1.28-1.09,3.65-2.25M61.45,0c-12.91,0-24.63,5.1-33.26,13.4.62-.02,1.23-.04,1.8-.04,2.02,0,3.72.13,4.88.26.24-.22.47-.41.68-.54.44-.3.97-.46,1.45-.46.88,0,1.65.52,1.64,1.69-.02,1.22-1.21,2.24-2.38,2.71-.68,5.09-2.92,15.11-10.22,21-3.69,2.97-8.16,4.48-12.34,5.2-.15,1.57-.23,3.16-.23,4.76,0,26.5,21.48,47.98,47.98,47.98s47.98-21.48,47.98-47.98S87.95,0,61.45,0"/>
      <path class="cls-2" d="M37.01,12.61c-.49,0-1.01.16-1.45.46-.21.14-.44.32-.68.54,1.06.11,1.68.22,1.68.22,0,0-.03,1.23-.29,3.18,1.17-.48,2.36-1.5,2.38-2.71.02-1.16-.75-1.69-1.64-1.69"/>
      <path class="cls-7" d="M61.56,7c-5.92,0-11.94,1.32-17.61,4.1l2.38,4.85c2.71-1.33,6.85-2.76,12.12-2.76h.03v1.03c-.02.44-.76,14.93-1.24,23.98l2.44,4.97,5.18-29.18h0s0,0,0,0c0,0,.05,0,.14,0,1.15,0,9.27.25,15.54,7.07,0,0,.01,0,.01,0,.15,0-15.84,18.39-20.23,23.44l1.03,2.09,23.83-20.42h.02s6.45,3.71,7.41,14.96l-.8.16c-.22.06-24.89,4.75-30.23,5.77l1.2,2.45c7.2-.4,30.42-1.68,30.69-1.68,0,0,0,0,0,0,0,0-.4,8.55-4.25,16.02l-25.69-12.79,2.39,4.88,20.93,14.09s-3.57,4.83-10.02,8.15l2.4,4.9c19.87-9.74,28.08-33.75,18.33-53.62-6.96-14.19-21.2-22.44-36.01-22.44"/>
      <path class="cls-3" d="M32.59,62.38c-.87,0-1.75.21-2.56.65-2.63,1.42-3.61,4.7-2.19,7.33.98,1.81,2.84,2.84,4.77,2.84.87,0,1.74-.21,2.56-.65,2.63-1.42,3.61-4.7,2.2-7.33-.98-1.81-2.84-2.84-4.77-2.84"/>
      <path class="cls-3" d="M47.16,70.8c-.47,0-.95.11-1.39.35-1.43.77-1.97,2.56-1.2,3.99.53.99,1.55,1.55,2.59,1.55.47,0,.95-.11,1.39-.35,1.43-.77,1.97-2.56,1.2-3.99-.53-.99-1.55-1.55-2.59-1.55"/>
      <path class="cls-3" d="M36.81,76.84c-.34,0-.69.08-1.01.25-1.03.56-1.42,1.85-.86,2.88.38.71,1.12,1.12,1.87,1.12.34,0,.69-.08,1.01-.26,1.03-.56,1.42-1.85.86-2.88-.38-.71-1.12-1.12-1.87-1.12"/>
      <path class="cls-3" d="M45.93,80.35c-.22,0-.44.05-.64.16-.66.35-.9,1.17-.55,1.83.24.45.71.71,1.19.71.22,0,.44-.05.64-.16.66-.35.9-1.17.55-1.83-.24-.45-.71-.71-1.19-.71"/>
      <path class="cls-8" d="M46.33,15.95c-2.37,1.16-3.65,2.25-3.65,2.25l.39.75,13.76,26.38s0,0,0,0c.02,0,.19-3,.41-7.13l-10.91-22.24"/>
      <path class="cls-6" d="M58.44,13.19c-5.27,0-9.4,1.43-12.12,2.76l10.91,22.24c.48-9.05,1.22-23.54,1.23-23.98v-1.03h-.02"/>
      <path class="cls-8" d="M59.67,43.16l-.46,2.58s.41-.47,1.1-1.27l-.65-1.32"/>
      <path class="cls-6" d="M64.86,13.98h0s0,0,0,0M64.99,13.98c-.09,0-.14,0-.14,0h0l-5.18,29.18.65,1.32c4.39-5.05,20.39-23.44,20.23-23.44,0,0,0,0-.01,0-6.27-6.82-14.39-7.07-15.54-7.07"/>
      <path class="cls-8" d="M60.25,52.1l12.9,27.64c1.31-.46,2.54-1,3.68-1.58l-10.91-22.24-5.68-3.82"/>
      <path class="cls-6" d="M65.93,55.92l10.91,22.24c6.45-3.32,10.02-8.15,10.02-8.15l-20.93-14.09"/>
      <path class="cls-8" d="M62.78,49.5c-1.32.07-2.11.12-2.11.12l2.86,1.43-.76-1.54"/>
      <path class="cls-6" d="M93.47,47.82c-.28,0-23.49,1.28-30.69,1.68l.76,1.54,25.69,12.79c3.86-7.46,4.25-16.02,4.25-16.02,0,0,0,0,0,0"/>
      <path class="cls-8" d="M61.34,46.57l-.66.56.04.08c.17-.03.46-.09.85-.16l-.23-.48"/>
      <path class="cls-6" d="M85.19,26.14h-.02s-23.83,20.43-23.83,20.43l.23.48c5.34-1.02,30.01-5.71,30.23-5.77l.8-.16c-.96-11.25-7.41-14.97-7.41-14.97"/>
      <path class="cls-9" d="M28.19,13.4c-5.38.21-12.35,1.45-17.68,5.75C.42,27.29,0,43.32,0,43.32c0,0,2.69.48,6.56.48,2.11,0,4.57-.14,7.14-.58,1.15-11.68,6.49-22.13,14.49-29.82"/>
      <path class="cls-1" d="M29.99,13.36c-.58,0-1.18.01-1.8.04-8,7.7-13.34,18.14-14.49,29.82,4.19-.72,8.65-2.23,12.34-5.2,7.3-5.89,9.54-15.91,10.22-21-.3.12-.59.21-.87.25-.16.03-.32.04-.48.04-.73,0-1.36-.31-1.44-1.18-.08-.84.67-1.83,1.41-2.51-1.16-.12-2.86-.26-4.88-.26"/>
      <path class="cls-5" d="M34.88,13.62c-.73.68-1.48,1.67-1.41,2.51.08.87.72,1.18,1.44,1.18.16,0,.32-.01.48-.04.28-.05.57-.13.87-.25.26-1.95.29-3.18.29-3.18,0,0-.61-.11-1.68-.22"/>
    </g>
  </g>
</svg>