<?xml version="1.0" encoding="utf-8"?>
<!-- Generator: Adobe Illustrator 28.0.0, SVG Export Plug-In . SVG Version: 6.00 Build 0)  -->
<svg version="1.1" id="Layer_1" xmlns="http://www.w3.org/2000/svg" xmlns:xlink="http://www.w3.org/1999/xlink" x="0px" y="0px"
	 width="48.7px" height="44.2px" viewBox="0 0 48.7 44.2" style="enable-background:new 0 0 48.7 44.2;" xml:space="preserve">
<style type="text/css">
	.st0{fill:#D34124;}
	.st1{fill:#17A27B;}
	.st2{fill:#267522;}
	.st3{fill:#F3F1DF;}
	.st4{fill:#F2C59D;}
	.st5{fill:#BBE3C4;}
	.st6{fill:#C0D59C;}
	.st7{fill:#FCEED3;}
	.st8{fill:#5972A8;}
	.st9{fill:#5D8AD8;}
</style>
<path class="st0" d="M24.3,42.4c1.8,0,2.8,1.6,4.8,1.7c9.1,0.7,19.5-11.4,19.5-23.2c0-6.2-4.2-12.5-9.5-14.7
	c-5.3-2.1-13.6,1.4-14.8,2.2c-1.2-0.8-9.5-4.3-14.8-2.2C1.1,9.6,0.1,19.7,0.1,20.9C-0.9,32.8,10.9,44,19.8,44
	C21.5,44,22.7,42.3,24.3,42.4"/>
<path class="st1" d="M12,0C7.7,0,4.5,2,4.5,2c1,2.1,2.4,3.6,3.9,4.7c0.3-0.2,0.7-0.3,1.1-0.5c1.2-0.5,2.6-0.7,4-0.7
	c4.8,0,10,2.3,10.9,2.8c0,0,0,0,0,0v0C20.6,1.7,15.9,0,12,0"/>
<path class="st2" d="M13.5,5.6c-1.4,0-2.7,0.2-4,0.7C9.1,6.4,8.8,6.5,8.4,6.7c2.9,2.1,6.3,2.7,9.3,2.7c3.4,0,6.2-0.8,6.7-0.9V8.4
	c0,0,0,0,0,0C23.4,7.8,18.3,5.5,13.5,5.6"/>
<path class="st3" d="M34.5,1.6c-4.1,0-8.2,2.2-10.1,6.7l0,0v0c1-0.6,6.1-2.8,10.8-2.8c1.4,0,2.7,0.2,3.9,0.7c4.2,1.7,7.8,6.1,9,11
	c0-0.1,0-0.3,0-0.4c0-6-4.1-12.3-9.3-14.4C37.5,1.9,36,1.6,34.5,1.6"/>
<path class="st4" d="M25.7,27.5c0,0-0.1,0-0.2,0c-0.5,0-0.8-0.2-1.1-0.4v-7c0.5-1.1,1.4-1.6,2.4-1.6c0.3,0,0.7,0.1,1,0.2
	c1.2,0.5,2.2,2,2.2,3.4c0,1-0.3,2.1-0.9,3c0.3,0.2,0.5,0.4,0.6,0.6c0.5,0.6,0.4,1.5-0.2,2C29.3,27.9,29,28,28.7,28
	c-0.4,0-0.8-0.2-1.1-0.5c-0.1-0.1-0.2-0.2-0.3-0.4C26.8,27.3,26.2,27.5,25.7,27.5 M35.2,5.6c-4.7,0-9.8,2.2-10.8,2.8
	c0,0,0,0.1,0,0.1c0,0,0,0-0.1,0v29.4c1.5,1,2.8,1.5,4.7,1.7c0.2,0,0.5,0,0.7,0c8.6,0,18.2-11.2,18.4-22.4c-1.2-4.9-4.8-9.3-9-11
	C37.9,5.7,36.6,5.6,35.2,5.6"/>
<path class="st5" d="M24.4,8.4L24.4,8.4L24.4,8.4C24.4,8.4,24.4,8.4,24.4,8.4"/>
<path class="st6" d="M24.4,8.4L24.4,8.4v0.1V8.4C24.4,8.4,24.4,8.4,24.4,8.4"/>
<path class="st7" d="M26.9,18.5c-1,0-2,0.5-2.4,1.6v7c0.3,0.2,0.7,0.4,1.1,0.4c0,0,0.1,0,0.2,0c0.5,0,1-0.2,1.6-0.5
	c-0.7-1.1-2-3.5-1.4-3.9c0.1,0,0.1-0.1,0.2-0.1c0.7,0,2.2,1.2,3.1,2c0.6-0.9,0.9-2,0.9-3c0-1.4-1-2.9-2.2-3.4
	C27.6,18.6,27.2,18.5,26.9,18.5"/>
<path class="st8" d="M29.2,25.1c-0.5,0.8-1.2,1.5-1.9,1.9c0.1,0.2,0.2,0.3,0.3,0.4c0.3,0.3,0.7,0.5,1.1,0.5c0.3,0,0.6-0.1,0.9-0.3
	c0.6-0.5,0.7-1.4,0.2-2C29.7,25.5,29.5,25.3,29.2,25.1"/>
<path class="st9" d="M26.1,23.1c-0.1,0-0.2,0-0.2,0.1c-0.5,0.4,0.7,2.8,1.4,3.9c0.7-0.4,1.4-1.1,1.9-1.9
	C28.3,24.3,26.7,23.1,26.1,23.1"/>
</svg>
