<?xml version="1.0" encoding="UTF-8"?>
<svg id="Layer_2" xmlns="http://www.w3.org/2000/svg" width="93.43" height="120.83" viewBox="0 0 93.43 120.83">
  <defs>
    <style>
      .cls-1 {
        fill: #f0f0d9;
      }

      .cls-2 {
        fill: #003d22;
      }

      .cls-3 {
        fill: #006a46;
      }

      .cls-4 {
        fill: #c9dcc6;
      }

      .cls-5 {
        fill: #2f8a30;
      }

      .cls-6 {
        fill: #c9dcc5;
      }

      .cls-7 {
        fill: #005936;
      }

      .cls-8 {
        fill: #4d4d4a;
      }

      .cls-9 {
        fill: #006d47;
      }

      .cls-10 {
        fill: #f6f4e2;
      }

      .cls-11 {
        fill: #fff9e8;
      }

      .cls-12 {
        fill: #cee0c9;
      }

      .cls-13 {
        fill: #c9dbc5;
      }

      .cls-14 {
        fill: #4c9e83;
      }

      .cls-15 {
        fill: #ccddc8;
      }

      .cls-16 {
        fill: #ff5582;
      }

      .cls-17 {
        fill: #56b646;
      }

      .cls-18 {
        fill: #f3f3da;
      }

      .cls-19 {
        fill: #1f7a32;
      }

      .cls-20 {
        fill: #00754e;
      }

      .cls-21 {
        fill: #ececd9;
      }

      .cls-22 {
        fill: #39a249;
      }

      .cls-23 {
        fill: #005032;
      }

      .cls-24 {
        fill: #ecefdb;
      }

      .cls-25 {
        fill: #ecead8;
      }
    </style>
  </defs>
  <g id="Layer_1-2" data-name="Layer_1">
    <g>
      <path class="cls-20" d="M93.43,56.95c0,31.45-20.91,56.95-46.71,56.95S0,88.4,0,56.95,20.91,0,46.71,0s46.71,25.5,46.71,56.95"/>
      <path class="cls-22" d="M56.83,3.81c8.69,8.02,13.96,28.14,13.96,51.7h0c0,9.7-1.02,18.82-2.81,26.76,4.31-3.78,8.08-8.43,11.12-13.74.66-4.17,1.01-8.53,1.01-13.01,0-23.57-9.66-43.69-23.28-51.7"/>
      <path class="cls-17" d="M70.79,55.51c0,9.7-1.02,18.82-2.81,26.76h0c1.79-7.93,2.81-17.05,2.81-26.76h0M48.21,1.11s-.03.02-.05.02v8.87c.09,0,.19,0,.28,0v82.16c4.15-.84,8.11-2.34,11.81-4.41,1.88-9.08,2.75-20.21,2.75-32.24,0-27-4.37-49.47-14.79-54.4"/>
      <path class="cls-23" d="M48.16.09v.42c18,3.33,31.95,26.67,31.95,54.99s-13.95,51.67-31.95,54.99v.42c20.09,0,39.09-24.81,39.09-55.42S68.83-.87,48.16.09"/>
      <path class="cls-23" d="M48.16.12v.42c-18,3.33-31.95,26.67-31.95,54.99s13.95,51.67,31.95,54.99v.42c-20.09,0-39.09-24.81-39.09-55.42S27.48-.84,48.16.12"/>
      <path class="cls-23" d="M48.16.09v.99c10.46,4.88,14.85,27.38,14.85,54.42s-4.38,49.54-14.85,54.42v.99c12.5,0,22.63-24.81,22.63-55.42S61.89.09,48.16.09"/>
      <path class="cls-23" d="M48.28.08v.99c-10.46,4.88-14.85,27.38-14.85,54.42s4.38,49.54,14.85,54.42v.99c-12.5,0-22.63-24.81-22.63-55.42S34.55.08,48.28.08"/>
      <path class="cls-7" d="M87.03,28.17c.29,2.55.44,5.16.44,7.81,0,3.54-.26,7-.77,10.36.36,2.99.55,6.05.55,9.16,0,30.46-18.83,55.18-38.81,55.41v2.94c2.42-.11,4.8-.44,7.12-.98,21.57-5.04,37.87-28.16,37.87-55.93,0-.04,0-.07,0-.11,0-.01,0-.02,0-.03,0-.03,0-.06,0-.08,0-.01,0-.02,0-.03,0-.07,0-.15,0-.22,0,0,0-.02,0-.03,0-.03,0-.06,0-.09,0,0,0-.02,0-.02,0-.08,0-.15,0-.23,0,0,0,0,0-.01,0-.04,0-.07,0-.11,0,0,0,0,0,0-.14-10.13-2.45-19.61-6.39-27.79"/>
      <path class="cls-19" d="M79.1,68.52c-3.04,5.31-6.8,9.96-11.12,13.74-2.69,11.94-7.14,21.2-12.49,25.68,11.68-6.08,20.68-20.94,23.6-39.42"/>
      <path class="cls-5" d="M60.25,87.75c-3.7,2.07-7.66,3.58-11.81,4.41v17.63c5.65-2.84,9.5-10.9,11.81-22.04M67.98,82.26h0c-2.69,11.94-7.14,21.2-12.49,25.68h0c5.35-4.48,9.79-13.74,12.49-25.68"/>
      <path class="cls-2" d="M86.7,46.34c-1.23,8.13-3.87,15.65-7.6,22.18-2.92,18.48-11.92,33.35-23.6,39.42h0c-2.22,1.86-4.59,2.9-7.05,2.97h0c19.98-.23,38.81-24.95,38.81-55.41,0-3.11-.19-6.17-.55-9.16"/>
      <path class="cls-2" d="M67.98,82.26c-2.41,2.11-5,3.96-7.73,5.48-2.31,11.15-6.16,19.2-11.81,22.04v1.13c2.47-.07,4.84-1.11,7.05-2.97,5.35-4.48,9.79-13.74,12.49-25.68"/>
      <path class="cls-14" d="M.38,64.2c0,.4-.01.81-.01,1.21,0,30.61,20.35,55.42,45.45,55.42v-.09c-18.59-1.29-34.19-16.2-40.19-36.68-2.69-6.04-4.51-12.75-5.25-19.86"/>
      <path class="cls-20" d="M16.69,22.88C6.95,32.8.67,47.6.38,64.2c.74,7.11,2.56,13.82,5.25,19.86,0,0,0-.01,0-.02-2.61-5.88-4.4-12.39-5.18-19.28.82,1.71,1.72,3.37,2.68,4.96-.09-1.42-.13-2.86-.13-4.3h0c0-13.58,4.01-26.02,10.66-35.66.9-2.4,1.92-4.7,3.04-6.88M33.75,11.98c-1.86.62-3.67,1.39-5.43,2.28-.61.83-1.2,1.69-1.77,2.58,2.1-1.41,4.31-2.63,6.6-3.62.2-.42.4-.84.6-1.24M45.82,10c-1.9,0-3.78.14-5.62.42-.08.18-.17.36-.25.55,1.92-.44,3.87-.74,5.87-.87v-.09"/>
      <path class="cls-3" d="M28.32,14.26c-4.24,2.16-8.16,5.08-11.63,8.62-1.12,2.18-2.14,4.48-3.04,6.88,3.6-5.21,7.97-9.61,12.9-12.92.57-.89,1.16-1.75,1.77-2.58"/>
      <path class="cls-3" d="M40.2,10.42c-2.2.33-4.36.85-6.45,1.56-.21.4-.41.82-.6,1.24,2.2-.96,4.47-1.71,6.81-2.25.08-.18.17-.37.25-.55"/>
      <path class="cls-9" d="M.44,64.76c.78,6.9,2.57,13.4,5.18,19.28-1.33-4.53-2.18-9.33-2.5-14.32-.96-1.59-1.86-3.25-2.68-4.96"/>
      <path class="cls-24" d="M48.16,10c-.78,0-1.56.04-2.34.09v82.51c.79-.1,1.56-.23,2.34-.38V10"/>
      <path class="cls-18" d="M48.44,10c-.1,0-.19,0-.28,0v82.22c.09-.02.19-.04.28-.06V10"/>
      <path class="cls-11" d="M48.44,113.86c-.57.03-1.15.04-1.73.04h0s-.05,0-.07,0c0,0-.02,0-.03,0-.02,0-.03,0-.05,0,0,0-.02,0-.03,0-.01,0-.03,0-.04,0-.01,0-.02,0-.03,0-.01,0-.03,0-.04,0-.01,0-.02,0-.03,0-.01,0-.03,0-.04,0-.01,0-.02,0-.03,0-.01,0-.03,0-.04,0-.01,0-.02,0-.03,0-.01,0-.03,0-.04,0,0,0-.02,0-.03,0-.01,0-.03,0-.04,0-.01,0-.02,0-.03,0-.01,0-.03,0-.04,0,0,0-.02,0-.03,0-.01,0-.03,0-.04,0,0,0-.02,0-.03,0-.04,0-.09,0-.14,0v6.85c.87.06,1.74.09,2.62.09v-6.97"/>
      <path class="cls-24" d="M46.61,113.9s.02,0,.03,0c0,0-.02,0-.03,0M46.54,113.9s.02,0,.03,0c0,0-.02,0-.03,0M46.46,113.9s.02,0,.03,0h-.03M46.39,113.9s.02,0,.03,0c-.01,0-.02,0-.03,0M46.32,113.9s.02,0,.03,0c-.01,0-.02,0-.03,0M46.24,113.9s.02,0,.03,0c-.01,0-.02,0-.03,0M46.17,113.9s.02,0,.03,0c-.01,0-.02,0-.03,0M46.1,113.9s.02,0,.03,0c-.01,0-.02,0-.03,0M46.03,113.9s.02,0,.03,0c-.01,0-.02,0-.03,0M45.95,113.89s.02,0,.03,0c-.01,0-.02,0-.03,0"/>
      <path class="cls-10" d="M46.64,113.9s.05,0,.07,0c-.02,0-.05,0-.07,0M46.57,113.9s.03,0,.05,0c-.02,0-.03,0-.05,0M46.5,113.9s.03,0,.04,0c-.01,0-.03,0-.04,0M46.42,113.9s.03,0,.04,0c-.01,0-.03,0-.04,0M46.35,113.9s.03,0,.04,0c-.01,0-.03,0-.04,0M46.28,113.9s.03,0,.04,0c-.01,0-.03,0-.04,0M46.21,113.9s.03,0,.04,0c-.01,0-.03,0-.04,0M46.13,113.9s.03,0,.04,0c-.01,0-.03,0-.04,0M46.06,113.9s.03,0,.04,0c-.01,0-.03,0-.04,0M45.98,113.89s.03,0,.04,0c-.02,0-.03,0-.04,0M45.82,113.89h0s.09,0,.14,0c-.05,0-.09,0-.14,0"/>
      <path class="cls-21" d="M45.82,110.84v3.05s.09,0,.14,0c.01,0,.02,0,.03,0,.02,0,.03,0,.04,0,.01,0,.02,0,.03,0,.01,0,.03,0,.04,0,.01,0,.02,0,.03,0,.01,0,.03,0,.04,0,.01,0,.02,0,.03,0,.01,0,.03,0,.04,0,.01,0,.02,0,.03,0,.01,0,.03,0,.04,0,.01,0,.02,0,.03,0,.01,0,.03,0,.04,0,.01,0,.02,0,.03,0,.01,0,.03,0,.04,0h.03s.03,0,.04,0c0,0,.02,0,.03,0,.02,0,.03,0,.05,0,0,0,.02,0,.03,0,.02,0,.05,0,.07,0h0c.58,0,1.15-.01,1.73-.04v-2.94c-.09,0-.19,0-.28,0h0v.03c-.78,0-1.56-.04-2.34-.11M48.16,92.22c-.77.15-1.55.28-2.34.38v15.76c.74.6,1.52,1.11,2.34,1.5v-17.63"/>
      <path class="cls-1" d="M48.44,92.16c-.09.02-.19.04-.28.06v17.63s.05.02.08.04c.07-.03.14-.07.21-.1v-17.63"/>
      <path class="cls-25" d="M48.16,110.91h0c.09.01.19.01.28.01h0c-.1,0-.19,0-.28,0h0"/>
      <path class="cls-25" d="M45.82,110.58v.25c.78.07,1.56.11,2.34.11v-.03h0c-.79-.02-1.57-.13-2.34-.34"/>
      <path class="cls-25" d="M48.44,109.79c-.07.03-.14.07-.21.1.02,0,.03.02.05.02v.99s-.09,0-.13,0h0c.1.01.19.01.28,0v-1.13"/>
      <path class="cls-25" d="M45.82,108.36v2.23c.77.2,1.55.31,2.34.32h0s.09,0,.13,0v-.99s-.03-.02-.05-.02c-.03-.01-.05-.02-.08-.04h0c-.82-.39-1.6-.9-2.34-1.5"/>
      <path class="cls-4" d="M13.64,29.76c-6.65,9.64-10.66,22.08-10.66,35.66,0,1.45.05,2.88.13,4.3,3.16,5.24,7.04,9.79,11.47,13.44-3.47-8.13-5.53-17.57-5.53-27.63,0-9.23,1.68-18.02,4.58-25.77M33.14,13.22c-2.29,1-4.5,2.21-6.6,3.62-6.4,9.98-10.34,23.63-10.34,38.69,0,12.55,2.74,24.13,7.36,33.42,2.44,1.18,4.97,2.11,7.59,2.78-3.43-9.72-5.51-22.38-5.51-36.23,0-16.94,2.73-32.11,7.49-42.28M45.82,10.09c-1.99.14-3.95.43-5.87.87-4.51,10.09-6.51,26.28-6.51,44.53,0,14.36,1.24,27.45,3.97,37.29,1.11.1,2.22.14,3.35.14,1.71,0,3.4-.11,5.06-.33V10.09"/>
      <path class="cls-6" d="M26.55,16.84c-4.93,3.31-9.3,7.7-12.9,12.92-2.91,7.75-4.58,16.54-4.58,25.77,0,10.06,2.05,19.5,5.53,27.63,2.79,2.31,5.8,4.26,8.98,5.79-4.62-9.29-7.36-20.87-7.36-33.42,0-15.06,3.94-28.71,10.34-38.69"/>
      <path class="cls-6" d="M39.95,10.97c-2.34.54-4.61,1.29-6.81,2.25-4.76,10.16-7.49,25.33-7.49,42.28,0,13.85,2.08,26.52,5.51,36.23,2.04.52,4.12.87,6.24,1.06-2.73-9.84-3.97-22.93-3.97-37.29,0-18.25,2-34.43,6.51-44.53"/>
      <path class="cls-12" d="M5.62,84.07c6,20.48,21.6,35.39,40.19,36.68v-6.85s0,0,0,0c0,0-.02,0-.03,0-.02,0-.03,0-.05,0,0,0-.02,0-.03,0-.01,0-.03,0-.04,0-.01,0-.02,0-.03,0-.01,0-.03,0-.04,0-.01,0-.02,0-.03,0-.01,0-.03,0-.04,0-.01,0-.02,0-.04,0-.01,0-.02,0-.04,0-.01,0-.02,0-.03,0-.01,0-.03,0-.04,0,0,0-.02,0-.03,0-.01,0-.03,0-.04,0-.01,0-.02,0-.03,0-.01,0-.03,0-.04,0,0,0-.02,0-.03,0-.02,0-.03,0-.05,0,0,0-.02,0-.02,0-.02,0-.05,0-.07,0,0,0-.01,0-.02,0-.02,0-.03,0-.05,0-.01,0-.02,0-.04,0-.01,0-.02,0-.03,0-.01,0-.03,0-.04,0-.01,0-.02,0-.03,0-.01,0-.02,0-.04,0-.01,0-.02,0-.04,0-.01,0-.02,0-.04,0-.01,0-.02,0-.04,0-.01,0-.02,0-.04,0-.01,0-.02,0-.03,0-.01,0-.02,0-.04,0-.01,0-.02,0-.03,0-.01,0-.02,0-.04,0-.01,0-.02,0-.04,0-.01,0-.02,0-.04,0-.01,0-.02,0-.03,0-.01,0-.02,0-.04,0,0,0-.02,0-.03,0-.05,0-.11,0-.16-.01,0,0-.01,0-.02,0-.02,0-.03,0-.05,0,0,0-.01,0-.02,0-.02,0-.03,0-.05,0,0,0-.02,0-.02,0-.01,0-.03,0-.04,0,0,0-.02,0-.03,0-.01,0-.03,0-.04,0,0,0-.02,0-.03,0-.02,0-.03,0-.04,0,0,0-.02,0-.03,0-.01,0-.03,0-.04,0,0,0-.02,0-.02,0-.02,0-.03,0-.05,0,0,0-.02,0-.02,0-.02,0-.03,0-.05,0,0,0-.01,0-.02,0-.02,0-.03,0-.05,0,0,0,0,0,0,0-.09,0-.17-.01-.26-.02,0,0,0,0,0,0-.02,0-.04,0-.06,0,0,0,0,0-.01,0-.02,0-.04,0-.06,0,0,0,0,0-.01,0-.02,0-.04,0-.06,0,0,0,0,0-.01,0-.02,0-.04,0-.06,0,0,0,0,0-.01,0-.02,0-.04,0-.06,0,0,0,0,0,0,0-.02,0-.04,0-.06,0,0,0,0,0,0,0-.18-.02-.36-.04-.53-.06h0c-15.88-1.8-29.46-13.3-36.71-29.59"/>
      <path class="cls-4" d="M45.79,113.89s.02,0,.03,0c0,0-.02,0-.03,0M45.71,113.89s.02,0,.03,0c0,0-.02,0-.03,0M45.64,113.89s.02,0,.03,0c-.01,0-.02,0-.03,0M45.56,113.88s.02,0,.03,0c-.01,0-.02,0-.03,0M45.49,113.88s.02,0,.04,0c-.01,0-.02,0-.04,0M45.42,113.88s.02,0,.03,0c-.01,0-.02,0-.03,0M45.35,113.88s.02,0,.03,0c-.01,0-.02,0-.03,0M45.27,113.87s.02,0,.03,0c-.01,0-.02,0-.03,0M45.2,113.87s.02,0,.03,0c-.01,0-.02,0-.03,0M45.13,113.87s.02,0,.02,0c0,0-.02,0-.02,0M45.04,113.87s.01,0,.02,0c0,0-.01,0-.02,0M44.95,113.86s.02,0,.04,0c-.01,0-.03,0-.04,0M44.88,113.86s.03,0,.04,0c-.01,0-.03,0-.04,0M44.81,113.85s.02,0,.04,0c-.01,0-.02,0-.04,0M44.74,113.85s.02,0,.04,0c-.01,0-.02,0-.04,0M44.66,113.85s.02,0,.04,0c-.01,0-.03,0-.04,0M44.59,113.84s.02,0,.04,0c-.01,0-.03,0-.04,0M44.52,113.84s.02,0,.04,0c-.01,0-.02,0-.04,0M44.45,113.84s.02,0,.04,0c-.01,0-.02,0-.04,0M44.38,113.83s.02,0,.04,0c-.01,0-.03,0-.04,0M44.19,113.82c.05,0,.11,0,.16.01-.05,0-.11,0-.16-.01M44.12,113.81s.03,0,.05,0c-.02,0-.03,0-.05,0M44.05,113.81s.03,0,.05,0c-.02,0-.03,0-.05,0M43.98,113.81s.03,0,.04,0c-.01,0-.03,0-.04,0M43.91,113.8s.03,0,.04,0c-.01,0-.03,0-.04,0M43.84,113.8s.03,0,.04,0c-.01,0-.03,0-.04,0M43.77,113.79s.03,0,.04,0c-.02,0-.03,0-.04,0M43.7,113.78s.03,0,.05,0c-.02,0-.03,0-.05,0M43.63,113.78s.03,0,.05,0c-.02,0-.03,0-.05,0M43.56,113.77s.03,0,.05,0c-.02,0-.03,0-.05,0M43.29,113.75c.09,0,.17.01.26.02-.09,0-.17-.01-.26-.02M43.22,113.74s.04,0,.06,0c-.02,0-.04,0-.06,0M43.16,113.74s.04,0,.06,0c-.02,0-.04,0-.06,0M43.09,113.73s.04,0,.06,0c-.02,0-.04,0-.06,0M43.02,113.73s.04,0,.06,0c-.02,0-.04,0-.06,0M42.95,113.72s.04,0,.06,0c-.02,0-.04,0-.06,0M42.88,113.71s.04,0,.06,0c-.02,0-.04,0-.06,0M42.34,113.65c.18.02.36.04.53.06-.18-.02-.36-.04-.53-.06M5.62,84.04s0,.01,0,.02c7.25,16.29,20.82,27.79,36.71,29.59-15.89-1.8-29.47-13.31-36.71-29.61"/>
      <path class="cls-15" d="M45.81,113.89s0,0,0,0h0s0,0,0,0M45.74,113.89s.03,0,.05,0c-.02,0-.03,0-.05,0M45.67,113.89s.03,0,.04,0c-.01,0-.03,0-.04,0M45.59,113.89s.03,0,.04,0c-.01,0-.03,0-.04,0M45.52,113.88s.03,0,.04,0c-.01,0-.03,0-.04,0M45.45,113.88s.02,0,.04,0c-.01,0-.03,0-.04,0M45.38,113.88s.03,0,.04,0c-.01,0-.03,0-.04,0M45.3,113.88s.03,0,.04,0c-.01,0-.03,0-.04,0M45.23,113.87s.03,0,.04,0c-.01,0-.03,0-.04,0M45.15,113.87s.03,0,.05,0c-.02,0-.03,0-.05,0M45.06,113.87s.05,0,.07,0c-.02,0-.05,0-.07,0M44.99,113.86s.03,0,.05,0c-.02,0-.03,0-.05,0M44.92,113.86s.02,0,.03,0c-.01,0-.02,0-.03,0M44.84,113.86s.02,0,.03,0c-.01,0-.02,0-.03,0M44.77,113.85s.02,0,.04,0c-.01,0-.02,0-.04,0M44.7,113.85s.02,0,.04,0c-.01,0-.02,0-.04,0M44.63,113.85s.02,0,.03,0c-.01,0-.02,0-.03,0M44.56,113.84s.02,0,.03,0c-.01,0-.02,0-.03,0M44.48,113.84s.02,0,.04,0c-.01,0-.03,0-.04,0M44.41,113.83s.02,0,.03,0c-.01,0-.02,0-.03,0M44.35,113.83s.02,0,.03,0c0,0-.02,0-.03,0M44.17,113.82s.01,0,.02,0c0,0-.01,0-.02,0M44.1,113.81s.01,0,.02,0c0,0-.02,0-.02,0M44.03,113.81s.02,0,.02,0c0,0-.02,0-.02,0M43.95,113.8s.02,0,.03,0c0,0-.02,0-.03,0M43.88,113.8s.02,0,.03,0c0,0-.02,0-.03,0M43.81,113.79s.02,0,.03,0c0,0-.02,0-.03,0M43.74,113.79s.02,0,.02,0c0,0-.02,0-.02,0M43.67,113.78s.02,0,.02,0c0,0-.01,0-.02,0M43.61,113.78s.01,0,.02,0c0,0-.01,0-.02,0M43.55,113.77s0,0,0,0c0,0,0,0,0,0M43.28,113.75s0,0,0,0c0,0,0,0,0,0M43.21,113.74s0,0,.01,0c0,0,0,0-.01,0M43.14,113.74s0,0,.01,0c0,0,0,0-.01,0M43.07,113.73s0,0,.01,0c0,0,0,0-.01,0M43,113.72s0,0,.01,0c0,0,0,0-.01,0M42.94,113.72s0,0,0,0c0,0,0,0,0,0M42.87,113.71s0,0,0,0c0,0,0,0,0,0M42.33,113.65h0s0,0,0,0"/>
      <path class="cls-6" d="M45.82,92.6c-1.66.22-3.35.33-5.06.33-1.13,0-2.24-.05-3.35-.14,1.98,7.16,4.76,12.6,8.41,15.57v-15.76M23.57,88.95c4.43,8.91,10.59,15.71,17.72,19.26-3.97-3.16-7.46-8.93-10.13-16.48-2.62-.67-5.16-1.6-7.59-2.78M3.12,69.72c.31,4.99,1.17,9.79,2.5,14.32,7.25,16.3,20.82,27.81,36.71,29.61,0,0,0,0,0,0,.18.02.36.04.53.06,0,0,0,0,0,0,.02,0,.04,0,.06,0,0,0,0,0,0,0,.02,0,.04,0,.06,0,0,0,0,0,.01,0,.02,0,.04,0,.06,0,0,0,0,0,.01,0,.02,0,.04,0,.06,0,0,0,0,0,.01,0,.02,0,.04,0,.06,0,0,0,0,0,.01,0,.02,0,.04,0,.06,0,0,0,0,0,0,0,.08,0,.17.01.26.02,0,0,0,0,0,0,.02,0,.03,0,.05,0,0,0,.01,0,.02,0,.02,0,.03,0,.05,0,0,0,.01,0,.02,0,.02,0,.03,0,.05,0,0,0,.02,0,.02,0,.02,0,.03,0,.04,0,0,0,.02,0,.03,0,.01,0,.03,0,.04,0,0,0,.02,0,.03,0,.01,0,.03,0,.04,0,0,0,.02,0,.03,0,.01,0,.03,0,.04,0,0,0,.02,0,.02,0,.02,0,.03,0,.05,0,0,0,.02,0,.02,0,.02,0,.03,0,.05,0,0,0,.01,0,.02,0,.05,0,.11,0,.16.01,0,0,.02,0,.03,0,.01,0,.03,0,.04,0,.01,0,.02,0,.03,0,.01,0,.02,0,.04,0,.01,0,.03,0,.04,0,.01,0,.02,0,.04,0,.01,0,.02,0,.03,0,.01,0,.03,0,.04,0,.01,0,.02,0,.03,0,.01,0,.03,0,.04,0,.01,0,.02,0,.04,0,.01,0,.02,0,.04,0,.01,0,.02,0,.04,0,.01,0,.02,0,.04,0,.01,0,.02,0,.03,0,.01,0,.03,0,.04,0,.01,0,.02,0,.03,0,.01,0,.03,0,.04,0,.02,0,.03,0,.05,0,0,0,.01,0,.02,0,.02,0,.05,0,.07,0,0,0,.02,0,.02,0,.02,0,.03,0,.05,0,.01,0,.02,0,.03,0,.01,0,.03,0,.04,0,.01,0,.02,0,.03,0,.01,0,.03,0,.04,0,.01,0,.02,0,.03,0,.01,0,.03,0,.04,0,.01,0,.02,0,.03,0,.01,0,.03,0,.04,0,.01,0,.02,0,.04,0,.01,0,.03,0,.04,0,.01,0,.02,0,.03,0,.01,0,.03,0,.04,0,.01,0,.02,0,.03,0,.01,0,.03,0,.04,0,0,0,.02,0,.03,0,.02,0,.03,0,.05,0,0,0,.02,0,.03,0,0,0,0,0,0,0v-3.05c-12.63-1.2-24.55-12.03-31.23-27.68-4.42-3.65-8.3-8.2-11.47-13.44"/>
      <path class="cls-13" d="M14.59,83.16c6.68,15.65,18.6,26.47,31.23,27.68v-.25c-1.56-.42-3.08-1.22-4.53-2.37-7.13-3.54-13.29-10.35-17.72-19.26-3.18-1.54-6.19-3.48-8.98-5.79"/>
      <path class="cls-13" d="M31.16,91.73c2.67,7.55,6.16,13.32,10.13,16.48,1.45,1.15,2.97,1.96,4.53,2.37v-2.23c-3.66-2.97-6.43-8.41-8.41-15.57-2.12-.18-4.21-.54-6.24-1.06"/>
      <path class="cls-16" d="M52.97,120.36c-25.08,0-45.41-24.79-45.41-55.36S27.89,9.64,52.97,9.64"/>
      <path class="cls-8" d="M39.29,74.65c-.64.47-1.48.81-2.18.46-.39-.2-.69-.58-.9-1-.14-.27-.25-.58-.23-.89.03-.52.42-.92.83-1.18.59-.38,1.28-.57,1.96-.55.47.01,2.49.12,2.43.88-.03.4-.57.97-.8,1.26-.33.39-.69.74-1.09,1.03Z"/>
      <path class="cls-8" d="M45.39,85.71c-.24.81-.7,1.65-1.45,1.85-.42.12-.87.01-1.27-.17-.26-.12-.53-.28-.69-.54-.26-.43-.19-1.01-.02-1.49.25-.7.68-1.32,1.22-1.77.37-.31,2.02-1.61,2.4-.97.2.34.1,1.15.08,1.53-.03.53-.13,1.05-.27,1.56Z"/>
      <path class="cls-8" d="M37.12,82.76c-.63.5-1.45.87-2.17.55-.4-.18-.71-.55-.93-.96-.15-.27-.27-.57-.26-.88.02-.52.39-.94.79-1.22.58-.4,1.25-.63,1.94-.64.47,0,2.49.01,2.46.78-.02.41-.53,1-.76,1.29-.31.4-.67.77-1.06,1.08Z"/>
      <path class="cls-8" d="M31.73,69.53c-.77.13-1.65.05-2.16-.6-.28-.36-.4-.85-.43-1.32-.02-.31,0-.64.13-.92.23-.45.73-.64,1.2-.69.68-.07,1.38.07,1.99.4.42.23,2.21,1.26,1.87,1.92-.18.35-.89.62-1.21.77-.44.2-.91.35-1.39.43Z"/>
      <path class="cls-8" d="M37.52,50.56c-.66-.45-1.29-1.14-1.29-2,0-.48.2-.93.45-1.31.17-.25.37-.49.64-.6.44-.18.94.04,1.32.34.56.43,1,1.04,1.27,1.73.18.47.93,2.54.28,2.8-.35.14-1.04-.17-1.37-.28-.46-.16-.9-.39-1.31-.67Z"/>
      <path class="cls-8" d="M39.14,42.67c-.66-.45-1.29-1.14-1.29-2,0-.48.2-.93.45-1.31.17-.25.37-.49.64-.6.44-.18.94.04,1.32.34.56.43,1,1.04,1.27,1.73.18.47.93,2.54.28,2.8-.35.14-1.04-.17-1.37-.28-.46-.16-.9-.39-1.31-.67Z"/>
      <path class="cls-8" d="M34.19,62.1c-.77.03-1.65-.18-2.07-.89-.24-.4-.3-.9-.28-1.37.01-.31.06-.64.23-.89.28-.42.8-.53,1.27-.52.68.02,1.36.26,1.93.67.39.28,2.05,1.55,1.63,2.16-.22.32-.95.49-1.29.6-.46.14-.94.22-1.43.24Z"/>
      <path class="cls-8" d="M32.19,54.46c-.76-.16-1.57-.57-1.85-1.36-.15-.45-.11-.95,0-1.41.08-.3.19-.61.41-.81.35-.34.89-.33,1.34-.2.66.19,1.27.58,1.75,1.12.32.37,1.69,2.01,1.16,2.5-.28.26-1.02.25-1.37.27-.48.03-.97-.01-1.44-.11Z"/>
      <path class="cls-8" d="M45.84,41.8c-.37-.75-.59-1.7-.2-2.44.22-.41.59-.69.99-.89.26-.13.55-.22.83-.17.46.09.79.55.99,1.02.29.68.4,1.45.31,2.2-.06.51-.35,2.71-1.03,2.57-.36-.07-.82-.72-1.06-1-.32-.39-.6-.83-.83-1.3Z"/>
    </g>
  </g>
</svg>