<?xml version="1.0" encoding="utf-8"?>
<!-- Generator: Adobe Illustrator 28.0.0, SVG Export Plug-In . SVG Version: 6.00 Build 0)  -->
<svg version="1.1" id="Layer_1" xmlns="http://www.w3.org/2000/svg" xmlns:xlink="http://www.w3.org/1999/xlink" x="0px" y="0px"
	 width="76.3px" height="94.5px" viewBox="0 0 76.3 94.5" style="enable-background:new 0 0 76.3 94.5;" xml:space="preserve">
<style type="text/css">
	.st0{clip-path:url(#SVGID_00000096752166353359958300000010460297865790431117_);}
	.st1{fill:#68DEB7;}
	.st2{fill:#3AB08F;}
	.st3{fill:#189967;}
	.st4{fill:#007662;}
	.st5{fill:#00BB7D;}
	.st6{fill:#00905F;}
	.st7{fill:#008B4D;}
	.st8{fill:#8FF0CC;}
	.st9{fill:#95F3D2;}
	.st10{fill:#8CEEC8;}
	.st11{fill:#8CEECB;}
</style>
<g>
	<defs>
		<path id="SVGID_1_" d="M50.3,0c-0.6,0-1.1,0.1-1.5,0.4c-0.7,0.4-1,0.5-1.5,2c-0.4,1.1-0.2,1.3-0.5,2c-0.4,0.8-0.9,1.1-1.6,1.1
			c-0.1,0-0.3,0-0.4,0c-0.7-0.1-1.5-1.1-2.1-1.3c-0.1,0-0.3-0.1-0.4-0.1c-0.8,0-1.6,0.8-2.3,1.7c0.9,0.3,1.7,0.8,2.5,1.3
			c0.8,0.6,1.4,1.4,2.2,2c0.8,0.6,1.7,0.8,2.7,0.8c0,0,0.1,0,0.1,0c2,0,4-0.9,6-1c0.1,0,0.2,0,0.4,0c1.6,0,3.5,0.6,3.2,2.6
			c-0.2,1.1-0.8,2.2-1.2,3.2c-0.5,1.1-1,2.3-1.5,3.4c-0.4,1-0.9,2.2-0.1,3.2c0.4,0.5,0.9,0.8,1.3,1.2c0.2-0.2,0.4-0.4,0.6-0.6
			c1.2-1,2.7-1.6,4.2-1.8c0.6-0.1,1.1-0.1,1.7-0.1c0.6,0,1.2,0,1.8,0.1c0.3-1.2,0.4-2.5,0.3-3.7c-0.2-3.5-1.9-6.9-4.7-8.1
			c-0.7-0.3-1.6-0.5-2.3-0.8c-0.7-0.4-1.3-1-1.7-1.9c-0.8-1.7-0.8-1.8-1.5-3.5C53.5,0.9,51.8,0,50.3,0"/>
	</defs>
	<clipPath id="SVGID_00000021076897324960520350000005191986916362261396_">
		<use xlink:href="#SVGID_1_"  style="overflow:visible;"/>
	</clipPath>
	<g style="clip-path:url(#SVGID_00000021076897324960520350000005191986916362261396_);">
		<rect x="39.8" y="0" class="st1" width="24.4" height="22.4"/>
	</g>
</g>
<path class="st2" d="M36.5,5.2c-1.6,0-3.2,0.4-4.6,1c-3.5,1.6-5.9,4.9-7.1,8.4c-0.2,0.4-0.3,0.8-0.4,1.3c-0.1,0.5-0.2,1.1-0.5,1.4
	c-0.2,0.2-0.5,0.3-0.7,0.3c-0.5,0-1.2-0.3-1.6-0.5c-0.7-0.3-1.5-0.7-2.3-0.7c0,0-0.1,0-0.1,0c-0.8,0-1.6,0.4-2.2,0.9
	c-1.5,1.2-2.1,3.1-2.5,4.9c-0.4,1.9-0.5,3.9-1,5.8c-0.3,0.9-0.6,1.8-1.2,2.6c-0.6,0.8-1.3,1.5-2.1,2.1c-1.5,1.2-3,2.4-3.6,4.3
	C5.8,38.9,6,41,6.3,42.9c0.3,2.2,0.6,4.4,0.5,6.6c-0.2,4.7-1.7,9.2-3.2,13.6C0.9,71.4-2,80.7,1.9,89.1c0.8,1.7,1.1,2.6,2.5,3.9
	c0.1,0.1,0.5,0.6,1.3,1c0.1,0.1,0.8,0.4,0.9,0.4c0.4,0,0.7,0.1,0.9,0.1c0.5,0,0.7-0.1,1.3-0.2c1-0.1,1.9-0.4,2.8-0.8
	c-1.6-0.4-2.8-1.1-3.7-2.6c-0.6-0.3-0.9-0.9-1.1-1.5c-0.1-0.8,0-1.5,0.1-2.2C7,86,7.4,84.9,7.7,83.7c0.3-1.2,0.7-2.4,1.1-3.5
	c0.3-0.9,0.7-1.9,1-2.8c0-0.7,0-1.3,0.1-2c0.4-3.9,1.8-7.6,3.5-11c3.3-6.8,8-12.6,11-19.7c1.4-3.4,2.5-7,2.6-10.7
	c0-1.8-0.2-3.6-0.3-5.3c-0.1-1.7,0-3.5,0.8-5.1c1.8-3.2,5.5-3.5,7.7-6.4c1.1-1.5,1.5-3.5,1.9-5.4c0.4-1.8,0.8-3.5,1.9-5
	c0.3-0.4,0.5-0.8,0.9-1.2C38.7,5.4,37.6,5.2,36.5,5.2"/>
<path class="st3" d="M22.1,57.1c-1.8,3-3.5,6.1-4.9,9.4c1.2-1.8,2.3-3.6,3.2-5.4C21.1,59.8,21.7,58.4,22.1,57.1 M39.8,5.7
	c-0.3,0.4-0.6,0.8-0.9,1.2c-1,1.5-1.5,3.2-1.9,5c-0.4,1.9-0.8,3.9-1.9,5.4c-2.1,2.8-5.8,3.1-7.7,6.4c-0.9,1.5-1,3.3-0.8,5.1
	c0.1,1.8,0.4,3.5,0.3,5.3c-0.1,3.7-1.2,7.3-2.6,10.7c-3,7-7.7,12.9-11,19.6c-1.7,3.4-3,7.1-3.5,11c-0.1,0.7-0.1,1.3-0.1,2
	c0.1-0.2,0.2-0.4,0.2-0.6c3.5-8.7,8.5-16.7,12.9-25c0.2-0.4,0.5-0.8,0.7-1.3c0.1-0.2,0.2-0.4,0.3-0.6c4.3-8.4,7.9-17.1,10.8-26.1
	l0-0.1v0c0.1-0.2,0.3-0.3,0.5-0.3c0.3,0,0.5,0.2,0.4,0.5c-0.4,1.3-0.7,2.6-1.1,3.9c-0.7,2.6-1.4,5.2-2.1,7.8c-0.7,2.5-1.3,5-2.2,7.4
	c-0.5,1.3-1.2,2.6-1.8,3.9c0.1,0,0.2-0.1,0.4-0.2c1.7-0.8,3.1-1.7,3.9-3.4c0.8-1.8,1-3.8,2-5.5c0.8-1.5,2.1-2.7,3.8-2.9
	c1-0.1,1.8-0.2,2.6-0.8c0.6-0.5,1.1-1.2,1.5-1.9c0.8-1.4,1.2-3,1.9-4.5c0.7-1.3,1.6-2.6,3-3.3c0.5-0.2,1.1-0.4,1.6-0.4
	c0.1,0,0.3,0,0.4,0c0.9,0.1,1.7,0.6,2.5,0.6c0.1,0,0.2,0,0.3,0c1.3-0.2,2.2-1.4,3.1-2.3c-0.5-0.4-1-0.7-1.3-1.2
	c-0.8-1-0.3-2.2,0.1-3.2c0.5-1.2,1-2.3,1.5-3.4c0.4-1,1-2.1,1.2-3.2c0.3-2-1.6-2.6-3.2-2.6c-0.1,0-0.3,0-0.4,0c-2,0.1-4,1-6,1
	c-0.1,0-0.1,0-0.1,0c-1,0-1.9-0.2-2.7-0.8c-0.8-0.6-1.5-1.4-2.2-2C41.5,6.5,40.6,6,39.8,5.7"/>
<path class="st4" d="M63.8,20c-0.5,2.4-1.6,4.6-2.9,6.5c-0.2,0.3-0.5,0.7-0.8,1c-0.3,0.3-0.7,0.7-0.8,1.2c-0.2,0.8,0.6,1.4,1.1,1.8
	c0.6,0.5,1.1,0.9,1.5,1.7c0.3,0.7,0.3,1.5,0.2,2.3c-0.3,1.9-1.4,3.4-2.5,4.6c-1.2,1.3-2.6,2.4-3.7,3.9c-0.6,0.7-1.1,1.5-1.4,2.3
	C54,46.1,53.9,47,53.7,48c-0.3,1.9-0.6,3.7-1.7,5.2c-1.1,1.5-2.6,2.4-4.1,3.2c-1.7,0.9-3.4,1.8-4.9,3c-3.2,2.6-5.9,6.2-8.4,9.7
	c-3.5,4.9-7.4,10-12.2,12.9c-0.2,0.3-0.3,0.6-0.5,0.9c-2,3.4-4.4,6.7-7.7,9.1c-0.9,0.6-1.8,1.2-2.8,1.6c0.5,0.1,1,0.2,1.6,0.2
	c0.2,0,0.3,0,0.5,0c3.6,0,6.3-3.1,8.6-5.4l10.1-9.9c1.2-1.2,2.6-2.7,4.3-3c0.2,0,0.4-0.1,0.6-0.1c0.3,0,0.7,0.1,1,0.1
	c0.3,0.1,0.7,0.1,1,0.1c0,0,0,0,0,0c0.8,0,1.5-0.4,2-1.1c0.5-0.8,0.9-1.6,1.6-2.3c0.7-0.7,1.5-1.2,2.4-1.5c1.7-0.6,3.5-0.5,5.2-1.1
	c3.8-1.3,4-5.5,5.8-8.5c0.9-1.6,2.3-2.9,3.9-3.8c1.7-0.8,3.4-0.9,5.3-1.2c1.7-0.3,3.3-1,4.2-2.5c1-1.5,1.2-3.4,1.4-5.2
	c0.3-2,0.6-3.9,1.8-5.7c1.1-1.7,2.4-3.2,3.1-5.1c0.5-1.4,0.7-3,0.2-4.4c-0.2-0.7-0.6-1.3-1.1-1.7c-0.6-0.5-1.3-0.8-1.9-1.2
	c-0.3-0.2-0.6-0.3-0.7-0.6c-0.3-0.5,0.1-1,0.3-1.5c0.3-0.7,0.3-1.5,0-2.3c-0.5-1.5-1.7-2.8-3-3.6C67.8,21.1,65.8,20.3,63.8,20"/>
<path class="st5" d="M62,19.9c-0.6,0-1.1,0-1.7,0.1c-1.5,0.2-3,0.8-4.2,1.8c-0.2,0.2-0.4,0.4-0.6,0.6c0.2,0.2,0.4,0.3,0.7,0.5
	c1.3,1.3,1.4,3.1,0.8,4.8c-0.6,1.8-1.9,3.2-3.2,4.4c-1.4,1.3-3,2.7-3.6,4.6c-1.2,3.6,1,7.6-0.7,11.1c-0.8,1.7-2.4,2.7-4,3.4
	c-1.7,0.8-3.5,1.3-5.1,2.3c-3.3,1.9-5.9,4.8-8,8C28.2,68,26,75.4,22.4,82c4.8-2.9,8.7-8.1,12.2-12.9c2.5-3.5,5.2-7.1,8.4-9.7
	c1.6-1.3,3.2-2.1,4.9-3c1.5-0.8,3-1.7,4.1-3.2c1.1-1.5,1.4-3.4,1.7-5.2c0.1-1,0.3-1.9,0.7-2.8c0.4-0.9,0.8-1.6,1.4-2.3
	c1.1-1.4,2.5-2.5,3.7-3.9c1.2-1.3,2.2-2.8,2.5-4.6c0.1-0.8,0.1-1.6-0.2-2.3c-0.3-0.7-0.9-1.2-1.5-1.7c-0.5-0.4-1.3-0.9-1.1-1.8
	c0.1-0.5,0.5-0.8,0.8-1.2c0.3-0.3,0.5-0.7,0.8-1c1.3-1.9,2.4-4.1,2.9-6.5C63.1,19.9,62.5,19.9,62,19.9"/>
<path class="st6" d="M22.4,82c-1.7,1.1-3.6,1.8-5.6,2.1c-0.9,0.1-1.5,0.2-2.1,0.2c-0.5,0-1-0.1-1.7-0.2c-0.1,0-0.5-0.1-1-0.4
	c-0.3,1.1-0.6,2.2-0.9,3.2c-0.3,1-0.5,2.1-1.1,3c-0.4,0.6-1,1-1.6,1C8.3,91,8.1,91,8,91c-0.1,0-0.1,0-0.2-0.1
	c0.9,1.5,2.1,2.3,3.7,2.6c1-0.4,1.9-1,2.8-1.6c3.2-2.4,5.7-5.6,7.7-9.1C22.1,82.6,22.2,82.3,22.4,82"/>
<path class="st7" d="M24,50c-0.1,0.2-0.2,0.4-0.3,0.6C23.8,50.4,23.9,50.2,24,50 M55.4,22.4c-0.9,0.9-1.8,2.1-3.1,2.3
	c-0.1,0-0.2,0-0.3,0c-0.9,0-1.7-0.5-2.5-0.6c-0.1,0-0.3,0-0.4,0c-0.6,0-1.1,0.1-1.6,0.4c-1.4,0.7-2.3,2-3,3.3
	c-0.7,1.4-1.1,3-1.9,4.5c-0.4,0.7-0.9,1.4-1.5,1.9c-0.8,0.6-1.6,0.7-2.6,0.8c-1.8,0.2-3,1.4-3.8,2.9c-0.9,1.7-1.2,3.7-2,5.5
	c-0.8,1.8-2.2,2.7-3.9,3.4c-0.1,0-0.2,0.1-0.4,0.2c-1.5,2.9-3.4,5.7-5.2,8.4c-0.4,0.6-0.8,1.2-1.1,1.8c-0.4,1.3-1,2.7-1.6,3.9
	c-0.9,1.9-2.1,3.7-3.2,5.4c-0.3,0.7-0.6,1.3-0.8,2c-1.9,4.8-3,9.8-4.3,14.8c0,0.2-0.1,0.4-0.1,0.5c0.5,0.3,0.8,0.4,1,0.4
	c0.7,0.2,1.2,0.2,1.7,0.2c0.6,0,1.2-0.1,2.1-0.2c2-0.3,3.9-1.1,5.6-2.2c3.6-6.6,5.8-14,10-20.4c2.1-3.2,4.7-6.1,8-8
	c1.6-0.9,3.4-1.5,5.1-2.3c1.6-0.7,3.2-1.7,4-3.4c1.7-3.5-0.5-7.5,0.7-11.1c0.6-1.9,2.2-3.3,3.6-4.6c1.4-1.3,2.6-2.6,3.2-4.4
	c0.6-1.6,0.5-3.5-0.8-4.8C55.9,22.8,55.7,22.6,55.4,22.4"/>
<path class="st6" d="M8.8,80.2c-0.5,1.1-0.8,2.3-1.1,3.5C7.4,84.9,7,86,6.8,87.2c0-0.2,0.1-0.3,0.1-0.5c0.2-1.1,0.5-2.3,0.9-3.4
	C8.1,82.3,8.5,81.2,8.8,80.2"/>
<path class="st8" d="M35.2,23.4c-0.2,0-0.4,0.1-0.5,0.3v0l0,0.1c-2.8,9-6.4,17.7-10.8,26.1c0.2-0.4,0.5-0.7,0.8-1c1-1,2.3-1.5,3.6-2
	c0.7-1.3,1.3-2.6,1.8-3.9c0.9-2.4,1.6-4.9,2.2-7.4c0.7-2.6,1.4-5.2,2.1-7.8c0.4-1.3,0.7-2.6,1.1-3.9C35.8,23.6,35.5,23.4,35.2,23.4"
	/>
<path class="st9" d="M9.8,77.4c-0.4,0.9-0.7,1.9-1,2.8c0.3-0.8,0.7-1.6,1-2.3C9.8,77.8,9.8,77.6,9.8,77.4"/>
<path class="st8" d="M23.7,50.6c-0.2,0.4-0.4,0.8-0.7,1.3c-4.4,8.3-9.4,16.3-12.9,25C10,77,9.9,77.2,9.8,77.4c0,0.2,0,0.3,0,0.5
	c2-4,4.9-7.7,7.4-11.4c1.4-3.2,3-6.4,4.9-9.4c0.3-0.9,0.5-1.8,0.7-2.7C23,53.1,23.1,51.8,23.7,50.6"/>
<path class="st9" d="M6.8,87.2c-0.1,0.7-0.3,1.5-0.1,2.2c0.1,0.6,0.5,1.3,1.1,1.5c-0.3-0.4-0.5-1-0.7-1.6C7,89,6.8,88.4,6.8,87.6
	C6.8,87.4,6.8,87.3,6.8,87.2"/>
<path class="st10" d="M28.4,46.9c-1.3,0.5-2.6,1.1-3.6,2c-0.3,0.3-0.6,0.7-0.8,1c-0.1,0.2-0.2,0.4-0.3,0.6c-0.5,1.2-0.7,2.5-0.9,3.9
	c-0.2,0.9-0.4,1.8-0.7,2.7c0.4-0.6,0.7-1.2,1.1-1.8C25,52.5,26.8,49.8,28.4,46.9"/>
<path class="st11" d="M9.8,77.9c-0.4,0.8-0.7,1.5-1,2.3c-0.4,1-0.7,2-1,3.1c-0.3,1.1-0.6,2.2-0.9,3.4c0,0.2-0.1,0.3-0.1,0.5
	c0,0.2,0,0.3,0,0.5c0,0.8,0.1,1.4,0.3,1.7c0.2,0.6,0.5,1.1,0.7,1.6C7.9,91,7.9,91,8,91c0.1,0,0.3,0.1,0.4,0.1c0.7,0,1.3-0.4,1.6-1
	c0.6-0.9,0.8-2,1.1-3c0.3-1.1,0.6-2.2,0.9-3.2c-0.1,0-0.1-0.1-0.2-0.1c-0.1-0.1-0.6-0.4-0.6-0.5c-0.6-1-0.5-1.1-0.8-1.9
	C10.1,80.2,9.9,79.1,9.8,77.9"/>
<path class="st10" d="M17.3,66.5c-2.5,3.8-5.4,7.4-7.4,11.4c0,1.1,0.2,2.3,0.6,3.3c0.3,0.8,0.2,0.9,0.8,1.9c0.1,0.1,0.5,0.5,0.6,0.5
	c0.1,0.1,0.1,0.1,0.2,0.1c0-0.2,0.1-0.4,0.1-0.5c1.3-5,2.4-10,4.3-14.8C16.7,67.8,17,67.1,17.3,66.5"/>
</svg>
