<?xml version="1.0" encoding="utf-8"?>
<!-- Generator: Adobe Illustrator 28.0.0, SVG Export Plug-In . SVG Version: 6.00 Build 0)  -->
<svg version="1.1" id="Layer_1" xmlns="http://www.w3.org/2000/svg" xmlns:xlink="http://www.w3.org/1999/xlink" x="0px" y="0px"
	 width="68.3px" height="111.7px" viewBox="0 0 68.3 111.7" style="enable-background:new 0 0 68.3 111.7;" xml:space="preserve">
<style type="text/css">
	.st0{fill:#198371;}
	.st1{fill:#007662;}
	.st2{fill:#006E4D;}
	.st3{fill:#9BD7C6;}
	.st4{fill:#0F6F58;}
	.st5{fill:#00634C;}
	.st6{fill:#005D3C;}
	.st7{fill:#D34124;}
	.st8{fill:#852714;}
</style>
<path class="st0" d="M47.3,16.3c0.3,0.6,0.8,1.1,1.1,1.6c0.6,0.8,1.1,1.7,1.6,2.6c0.9,1.6,1.9,3.4,2.3,5.2c0.3,1.6-0.6,3-0.8,4.6
	c-0.3,2.6,0.9,5.2,1.9,7.6c1.1,2.4,2.3,5,2.3,7.7c0,1.7-0.6,3.3-1,4.9c-0.4,1.7-0.3,3.3,0.2,4.9c0.8,3,2.3,6,1.5,9.2
	c-0.9,3.3-3.5,5.8-5.2,8.7c-0.9,1.6-1.3,3.4-2.4,4.9c-0.9,1.3-2.4,2.1-3.9,2.4c-0.2,0-0.3,0.1-0.5,0.1c0,0.1,0,0.3,0,0.4
	c0.1,0.8,0.3,1.6,0.4,2.4c0.3,1.4,0.4,3-0.5,4.2C43.5,89,42,89.6,40.6,90c-0.1,0-0.2,0-0.2,0.1c0.1,2.7,1.4,5.2,4,6.4
	c0.8,0.3,1,0.6,1.8,0.9c0.7,0.2,1,0.3,1.9,0.4c1.5,0.2,1.4,0.3,3.2,0.3c0.1,0,0.1,0,0.2,0c0.3,0,0.6,0,0.8,0c0.2,0,0.5,0,0.7,0
	c0.1,0,0.2,0,0.4,0c0.8,0.1,1.7,0.1,2.6,0.1c0.9,0,1.9-0.1,2.8-0.3c1.8-0.4,3.3-1.6,4.5-3c1.1-1.4,2.2-3,3-4.7
	c0.7-1.5,1.1-3,0.9-4.7c-0.2-1.6-0.7-3.2-0.8-4.8s1.1-3.2,0.4-4.8c-0.3-0.8-0.8-1.5-1-2.4c-0.2-0.8-0.2-1.6,0-2.4
	c0.2-1.6,0.9-3.1,1.5-4.5c0.7-1.6,1.3-3.1,1-4.8c-0.4-2-1.1-3.9-1.7-5.8c-0.7-2.1-1.3-4.1-2-6.2c-0.6-1.8-1.4-3.6-0.9-5.6
	c0.3-1.5,0.8-2.9,0.1-4.4c-0.4-0.8-1.2-1.5-1.7-2.3c-0.5-0.7-0.7-1.6-0.9-2.5c-0.3-1.6-0.3-3.2-1.1-4.7c-0.8-1.6-2.4-2.6-3.8-3.7
	c-0.8-0.6-1.5-1.3-2.1-2.1c-0.6-0.9-1-1.8-1.5-2.8c-0.8-1.6-1.6-3.1-2.9-4.3C49.1,17.2,48.2,16.6,47.3,16.3"/>
<path class="st1" d="M11.4,17.5c-1.1,0-2.3,0.2-3.4,0.7c-1.4,0.6-2.7,1.7-3.4,3.2C4,23,4,24.9,3.4,26.7c-1.1,3.2-3.1,6.1-3.4,9.6
	c-0.2,3.3,1.8,5.9,3.3,8.7c0.8,1.5,1.2,3.1,1.1,4.8c-0.1,1.7-0.3,3.3,0,5c0.6,2.7,2.3,4.9,3.8,7.1c1.5,2.1,3.2,4.4,3.4,7
	c0.1,1.6-0.5,3.2,0.1,4.7c0.7,1.7,2.1,3.3,3.3,4.7c0.7,0.8,1.4,1.5,2.1,2.2c0.6,0.6,1.6,1.2,1.8,2.1c0.2,0.8,0,1.7,0,2.6
	c0,0.8,0.1,1.6,0.2,2.4c0.7,3.3,3.2,6.1,6.3,7.6c1.6,0.8,2.5,1.1,4.2,1.1c0,0,0,0,0,0c0.6,0,1.9-0.5,1.9-0.5c1.5-0.7,2.5-2.6,4-3.6
	c1.5-0.9,3-1.4,4.7-1.9c0-0.7,0-1.4,0.2-2.1c0.3-1.8,0.8-3.5,0.5-5.3c-0.1-0.8-0.3-1.5-0.7-2.3c-1.9-0.6-3.7-1.8-5.3-3.1
	c-0.7-0.6-1.4-1.2-1.8-2c-0.4-0.7-0.5-1.6-0.6-2.4c-0.1-1.6-0.1-3-0.9-4.5c-1.3-2.6-3.8-4.4-5.9-6.4c-2-1.8-4-3.9-4.5-6.7
	c-0.3-1.7,0.2-3.3,0-5c-0.1-1.4-0.6-2.7-1.2-4c-1.2-2.5-2.9-4.8-3.8-7.5c-0.5-1.3-0.7-2.6-0.6-3.9c0.1-1.8,0.9-3.4,1.6-4.9
	c0.8-1.7,1.3-3.4,1.6-5.2c0.2-1.5,0.3-3.1,0.5-4.7c-0.3-0.2-0.7-0.5-1.1-0.7C16.3,18.4,13.9,17.5,11.4,17.5"/>
<path class="st2" d="M40.4,80.3c0.3,0.7,0.5,1.5,0.7,2.3c0.3,1.8-0.2,3.5-0.5,5.3c-0.1,0.7-0.2,1.4-0.2,2.1c0.1,0,0.2,0,0.2-0.1
	c1.4-0.4,2.9-1,3.8-2.2c0.9-1.3,0.8-2.8,0.5-4.2c-0.2-0.8-0.4-1.6-0.4-2.4c0-0.1,0-0.3,0-0.4c-0.4,0.1-0.8,0.1-1.2,0.1
	C42.3,80.8,41.3,80.6,40.4,80.3"/>
<path class="st3" d="M38.8,0c-0.7,0-1.5,0.2-1.5,0.2c-1.6,0.4-2.9,2-4.6,2.7c-1.7,0.6-3.4,0.8-5.2,0.9c-1.5,0.1-3,0.4-4.1,1.4
	c-1.1,1.1-1.4,2.6-1.4,4c0,0.8,0,1.6-0.1,2.4c-0.1,1-0.5,1.8-0.8,2.7c-0.7,1.7-1.2,3.4-1.4,5.2c0,0.2,0,0.4-0.1,0.6
	c0.4,0.3,0.8,0.6,1,1c0.5,0.6,0.8,1.4,1,2.2c0.4,1.5,0.7,2.9,1.7,4.2c0.3,0.4,0.7,0.8,1.1,1.1c0.6-1.8,1.7-3.6,3-5
	c3.7-4.3,9.2-8.4,15-8.4c1.1,0,2.2,0.1,3.3,0.4c0.5,0.1,1.1,0.3,1.6,0.6c-0.1-0.2-0.2-0.5-0.2-0.8c-0.1-0.8,0.4-1.7,0.5-2.5
	c0.2-0.8,0.2-1.6,0.2-2.4c-0.1-3.4-2-6.6-4.7-8.7c-1.4-1.1-2.2-1.5-3.9-1.9C39.2,0,39,0,38.8,0"/>
<path class="st4" d="M42.5,15.3c-5.9,0-11.4,4.1-15,8.4c-1.2,1.5-2.4,3.2-3,5c1.8,1.6,4,2.7,6,3.9c2.3,1.4,4.7,3,5.7,5.7
	c0.6,1.6,0.5,3.3,1,4.9c0.4,1.3,1.2,2.6,2,3.7c1.7,2.2,3.8,4.2,5.3,6.6c0.7,1.2,1.2,2.4,1.4,3.7c0.2,1.7-0.2,3.5-0.6,5.2
	c-0.4,1.8-0.6,3.6-0.5,5.4c0.1,1.8,0.4,3.5,0.5,5.3c0.1,1.8,0,3.6-0.4,5.4c-0.2,0.8-0.3,1.6-0.3,2.4c0.2,0,0.3-0.1,0.5-0.1
	c1.5-0.3,3-1.1,3.9-2.4c1.1-1.5,1.5-3.4,2.4-4.9c1.7-2.9,4.3-5.4,5.2-8.7c0.8-3.2-0.6-6.2-1.5-9.2c-0.5-1.7-0.6-3.2-0.2-4.9
	c0.4-1.6,1-3.2,1-4.9c0-2.7-1.3-5.3-2.3-7.7c-1.1-2.3-2.2-4.9-1.9-7.6c0.2-1.6,1.1-3,0.8-4.6C52,23.8,50.9,22,50,20.4
	c-0.5-0.9-1-1.7-1.6-2.6c-0.3-0.5-0.8-1-1.1-1.6c-0.5-0.2-1-0.4-1.6-0.6C44.6,15.4,43.5,15.3,42.5,15.3"/>
<path class="st5" d="M19.5,20.2c-0.2,1.5-0.3,3.1-0.5,4.7c-0.3,1.8-0.8,3.5-1.6,5.2c-0.7,1.6-1.5,3.2-1.6,4.9
	c-0.1,1.3,0.2,2.7,0.6,3.9c1,2.7,2.6,5,3.8,7.5c0.6,1.3,1.1,2.6,1.2,4c0.2,1.7-0.3,3.3,0,5c0.5,2.8,2.5,4.8,4.5,6.7
	c2.1,1.9,4.6,3.8,5.9,6.4c0.7,1.4,0.8,2.9,0.9,4.5c0,0.8,0.2,1.6,0.6,2.4c0.4,0.8,1.1,1.4,1.8,2c1.6,1.3,3.3,2.4,5.3,3.1
	c-0.3-0.8-0.8-1.6-1.2-2.4c-0.9-1.5-2-2.8-3.2-4.1c-1.2-1.4-2.7-2.7-3.3-4.6c-0.5-1.5-0.3-3.1,0-4.6c0.2-0.8,0.4-1.6,0.7-2.4
	c0.2-0.8,0.5-1.7,0.5-2.6c0-1-0.6-1.9-1.1-2.7c-0.5-0.9-1.1-1.8-1.6-2.6c-1-1.6-2-3.1-2.8-4.8c-0.7-1.4-1.2-3-1.2-4.6
	c0.1-1.7,1.1-3.3,0.8-5c-0.3-1.6-1.5-2.9-2.4-4.3c-0.8-1.3-1.5-2.7-1.6-4.3c0-0.9,0.1-1.8,0.4-2.7c-0.4-0.3-0.7-0.7-1.1-1.1
	c-1-1.3-1.3-2.7-1.7-4.2c-0.2-0.8-0.5-1.6-1-2.2C20.3,20.8,20,20.4,19.5,20.2"/>
<path class="st6" d="M24.4,28.7c-0.3,0.9-0.4,1.8-0.4,2.7c0.1,1.6,0.7,3,1.6,4.3c0.9,1.3,2,2.7,2.4,4.3c0.4,1.7-0.7,3.3-0.8,5
	c-0.1,1.6,0.5,3.2,1.2,4.6c0.8,1.7,1.8,3.2,2.8,4.8c0.5,0.9,1.1,1.8,1.6,2.6c0.5,0.8,1.1,1.7,1.1,2.7c0,0.9-0.3,1.8-0.5,2.6
	c-0.2,0.8-0.5,1.6-0.7,2.4c-0.3,1.5-0.5,3.1,0,4.6c0.5,1.8,2,3.2,3.3,4.6c1.2,1.3,2.3,2.7,3.2,4.1c0.5,0.8,0.9,1.5,1.2,2.4
	c1,0.3,1.9,0.5,2.9,0.5c0.4,0,0.8,0,1.2-0.1c0-0.8,0.2-1.6,0.3-2.4c0.4-1.8,0.5-3.5,0.4-5.4c-0.1-1.8-0.4-3.5-0.5-5.3
	c-0.1-1.9,0.1-3.6,0.5-5.4c0.4-1.7,0.8-3.4,0.6-5.2c-0.2-1.3-0.7-2.6-1.4-3.7c-1.5-2.4-3.6-4.3-5.3-6.6c-0.8-1.1-1.6-2.3-2-3.7
	c-0.5-1.6-0.3-3.3-1-4.9c-1-2.6-3.4-4.3-5.7-5.7C28.4,31.4,26.2,30.3,24.4,28.7"/>
<path class="st7" d="M29.7,52.8c-2.2,1.9-0.7,13.8-3,9.2c-2-4.7-2.9-11.5-4.5-16.4c-0.3-1-0.8-2.4-1.3-2.8c-0.7-0.6-1.8-0.3-2.2,0.6
	c-0.4,1,0.1,2.3,0.3,3.3c0.2,1.3,0.5,2.5,0.9,3.8c1.3,5,3.1,9.8,5.5,14.4c1.2,2.3,2.6,4.5,3.8,6.9c0.3,0.6,0.5,1.1,0.7,1.7
	c0.1,0.4,0.7,1.6,0.5,1.9c-0.4,0.5-2.3-1.8-2.6-2.1c-1.9-1.9-3.9-3.8-6.2-5.3c-1.9-1.2-4.1-2.1-6.3-1.7c-0.4,0.1-0.5,0.6-0.3,0.8
	c3,3.2,7,5,10.6,7.3c1.9,1.2,3.7,2.6,5,4.3c0.7,0.8,1.3,1.8,1.7,2.8c0.2,0.6-0.3,1-0.9,0.9c-0.5-0.1-0.9-0.4-1.3-0.6
	c-1.8-1.2-3.9-2-6.1-2.2c-0.4,0-0.7,0.5-0.4,0.8c2.8,2.9,7,3.8,9.8,6.7c1.6,1.6,2,3.7,2.4,5.9c0.4,2.3,0.8,4.7,1.3,7
	c0.6,2.7,1.3,5.3,2,8c0.1,0.4,0.4,0.7,0.6,0.5c0.3-0.1,0.5-0.1,0.8,0c0.3,0.1,0.8-0.2,0.7-0.6c-1.4-4.4-2.7-8.8-3.5-13.4
	c-0.8-4.6-0.7-9.2,0-13.8c0.4-2.7,1.1-5.3,1.7-7.9c0.1-0.4-0.4-0.9-0.8-0.5c-2.5,2.5-2.5,10.7-4.2,9.2c-1.2-0.9-1.3-3.4-1.8-5.2
	C32,74,31.5,72.1,31,70.1c-0.4-1.9-0.7-3.8-0.8-5.8c-0.1-1.9,0.2-3.8,0.5-5.7c0.4-1.9,0.8-3.8,0-5.7C30.6,52.7,30,52.5,29.7,52.8
	L29.7,52.8z"/>
<path class="st8" d="M41.9,60.1c-0.5,1.1,0.8,1.9,2,3.4c1.2,1.5,2.3,3,3.2,4.7c0.9,1.7,1.6,3.6,2.1,5.4c0.6,1.9,1,3.8,1.4,5.8
	c0.4,1.8,1.5,4.1,0.9,5.4c-0.7,2.2-4.7-5-8.1-5.9c-0.5-0.1-0.8,0.5-0.5,0.9c1.8,2,3.7,4,5.4,6.1c2.9,3.7,5.2,7.7,6.8,12.1
	c1.6,4.3,2.5,8.9,3.5,13.4c0.1,0.4,0.6,0.4,0.9,0.2c0.2-0.2,0.4-0.3,0.7-0.3c0.3,0,0.4-0.4,0.3-0.8c-0.6-2.7-1.3-5.3-2.1-7.9
	c-0.7-2.3-1.4-4.5-2.2-6.7c-0.8-2.1-1.4-4.1-0.8-6.3c1-3.9,3.3-5.2,4.4-9.1c0.1-0.4-0.4-0.6-0.8-0.5c-1.6,0.4-1.9,1.4-3.2,3.4
	c-0.3,0.4-0.4,0.9-0.8,1.2c-0.5,0.4-1.1,0.3-1.2-0.4c-0.2-1.1-0.1-2.2,0.1-3.3c0.4-2.2,1.9-6.8,3-8.7c2-3.8,5.1-7.7,5.1-9.1
	c0-0.4-0.3-0.6-0.7-0.6c-0.9,0-2.9,2.7-4,4.7c-1.2,2.4-2.8,4.9-3.5,7.5c-0.1,0.4-0.7,3.4-1.2,3.1c-0.4-0.2-0.5-1.5-0.6-1.9
	c-0.1-0.6-0.2-1.2-0.2-1.8c-0.2-2.6,0-5.2-0.1-7.8c-0.2-5.2-0.8-10.3-2.2-15.3c-1.7-5.7-1.8-6.5-2.2-7.8c-0.3-0.9-0.5-2.4-1.3-3
	c-0.8-0.6-1.9-0.3-2.2,0.6c-0.2,0.6,2.6,8.5,2.9,9.5c1.1,4.4,2.1,9.1,2.6,14.2c0.3,5.1-3.5-4.4-6.3-5.1C42.3,59.4,42,59.8,41.9,60.1
	L41.9,60.1z"/>
</svg>
