<?xml version="1.0" encoding="UTF-8"?>
<svg id="Layer_2" xmlns="http://www.w3.org/2000/svg" width="101.31" height="100.81" viewBox="0 0 101.31 100.81">
  <defs>
    <style>
      .cls-1 {
        fill: #76253d;
      }

      .cls-2 {
        fill: #ffd787;
      }

      .cls-3 {
        fill: #c66f34;
      }

      .cls-4 {
        fill: #762964;
      }

      .cls-5 {
        fill: #5c1214;
      }

      .cls-6 {
        fill: #ffe79c;
      }

      .cls-7 {
        fill: #ffc353;
      }
    </style>
  </defs>
  <g id="Layer_1-2" data-name="Layer_1">
    <g>
      <path class="cls-4" d="M71.39,14.4c-6.1-1.09-12.16-.37-17.77,1.79-3.35-2.27-7.12-3.85-11.21-4.58C23.55,8.24,4.93,24.23.81,47.32c-4.12,23.08,7.83,44.52,26.68,47.89,4.93.88,9.84.43,14.48-1.12,4.1,3.11,8.85,5.28,14.09,6.22,20.32,3.63,40.22-12.67,44.46-36.39,4.23-23.72-8.81-45.89-29.13-49.52"/>
      <path class="cls-6" d="M38.41,4.49c-16.46,0-31.72,14.54-35.5,34.79C8.77,22.55,22.6,11.16,37.37,11.16c1.67,0,3.36.15,5.04.45,3.96.71,7.61,2.21,10.87,4.36l.98-6.59h-.04c-3.26-2.19-6.92-3.73-10.91-4.45-1.64-.29-3.28-.43-4.91-.44"/>
      <path class="cls-2" d="M37.37,11.16c-14.77,0-28.6,11.39-34.45,28.12-.02.13-.05.26-.07.39-4.01,22.46,7.62,43.33,25.96,46.6,1.63.29,3.26.43,4.88.43,3.14,0,6.23-.53,9.21-1.52l.07.05,2.17-14.56c-.67.1-1.35.15-2.03.15-.8,0-1.6-.07-2.41-.21-9.05-1.62-14.79-11.91-12.81-23,1.8-10.09,9.38-17.36,17.55-17.36.8,0,1.61.07,2.42.21,1.09.19,2.14.52,3.12.95l2.3-15.46c-3.26-2.15-6.92-3.65-10.87-4.36-1.69-.3-3.37-.45-5.04-.45"/>
      <path class="cls-1" d="M50.98,31.42l-5.84,39.26c.85-.13,1.69-.33,2.51-.6l.04.03,5.57-37.44h-.02c-.71-.48-1.47-.9-2.26-1.24"/>
      <path class="cls-7" d="M45.43,30.26c-8.18,0-15.75,7.27-17.55,17.36-1.98,11.08,3.76,21.38,12.81,23,.81.14,1.61.21,2.41.21.68,0,1.36-.05,2.03-.15l5.84-39.26c-.99-.43-2.03-.76-3.12-.95-.81-.14-1.62-.21-2.42-.21"/>
      <path class="cls-3" d="M50.89,32.33s-24.37,9.83-5.41,36.46l5.41-36.46Z"/>
      <path class="cls-3" d="M61.71,0c-2.16,0-3.98,4.2-4.51,5.53-.62,1.54-1.06,3.15-1.64,4.71-.72,1.96-1.38,3.93-1.91,5.94,1.12-.43,2.26-.8,3.41-1.12.38-1,.86-1.94,1.56-2.67,1.7-1.78,4.39-1.84,6.38-3.08,1.04-.65,1.85-1.96,1.39-3.1-.45-1.12-1.68-1.84-2.25-2.92-.5-.95-.49-2.44-1.53-3.03C62.31.08,62,0,61.71,0"/>
      <path class="cls-5" d="M57.06,15.06c-1.15.31-2.29.69-3.41,1.12-.59,2.21-1.02,4.45-1.23,6.75-.06.65.56.96,1.16.96.32,0,.64-.09.84-.27.84-.74.99-3,1.33-4.07.44-1.38.76-3.01,1.31-4.49"/>
      <path class="cls-6" d="M19.94,62.92c-1.38,1.29-3.25,2.05-5.14,2.09l-.45-.08-.28-.31c-.18-.29-.35-.64-.24-.96.1-.29.39-.47.66-.61,1.31-.67,2.7-1.18,4.13-1.51.47-.11,1.61-.55,1.97-.06.37.51-.3,1.12-.65,1.45Z"/>
      <path class="cls-6" d="M26.84,71.3c-1.38,1.29-3.25,2.05-5.14,2.09l-.45-.08-.28-.31c-.18-.29-.35-.64-.24-.96.1-.29.39-.47.66-.61,1.31-.67,2.7-1.18,4.13-1.51.47-.11,1.61-.55,1.97-.06.37.51-.3,1.12-.65,1.45Z"/>
      <path class="cls-6" d="M21.24,50.84c-1.57,1.06-3.53,1.52-5.41,1.26l-.44-.15-.23-.35c-.13-.31-.25-.68-.09-.99.14-.27.46-.4.75-.5,1.4-.46,2.85-.75,4.32-.85.48-.03,1.68-.29,1.95.24.29.56-.47,1.06-.86,1.33Z"/>
      <path class="cls-6" d="M18.45,40.8c-1.88.2-3.83-.32-5.36-1.44l-.31-.34-.04-.41c.03-.34.1-.72.39-.91.25-.17.59-.14.9-.08,1.45.25,2.87.68,4.21,1.29.44.2,1.62.54,1.61,1.13-.01.63-.91.71-1.39.76Z"/>
      <path class="cls-6" d="M24.2,32.84c-1.67-.89-3-2.41-3.64-4.19l-.07-.45.2-.36c.21-.27.49-.54.83-.54.31,0,.57.22.79.43,1.06,1.02,1.99,2.17,2.77,3.42.25.41,1.04,1.35.7,1.84-.36.52-1.16.08-1.58-.14Z"/>
      <path class="cls-6" d="M30.58,24.5c-1.39-1.28-2.28-3.1-2.45-4.98l.05-.46.29-.3c.28-.2.61-.4.94-.31.3.08.49.36.65.62.77,1.25,1.37,2.61,1.8,4.01.14.46.66,1.57.21,1.96-.48.41-1.14-.22-1.49-.54Z"/>
      <path class="cls-6" d="M41.49,24.43c-.98-1.62-1.33-3.61-.97-5.46l.17-.43.36-.21c.32-.12.7-.21.99-.04.27.16.38.48.46.78.39,1.42.6,2.88.62,4.35,0,.48.2,1.69-.34,1.94-.58.26-1.03-.52-1.28-.93Z"/>
      <path class="cls-6" d="M34.94,77.18c-.51,2.16-1.85,4.11-3.68,5.37l-.49.22-.47-.12c-.37-.17-.76-.4-.86-.78-.09-.35.08-.71.26-1.03.84-1.51,1.88-2.9,3.07-4.15.39-.41,1.22-1.58,1.88-1.34.7.26.43,1.29.3,1.83Z"/>
    </g>
  </g>
</svg>