<?xml version="1.0" encoding="utf-8"?>
<!-- Generator: Adobe Illustrator 28.0.0, SVG Export Plug-In . SVG Version: 6.00 Build 0)  -->
<svg version="1.1" id="Layer_1" xmlns="http://www.w3.org/2000/svg" xmlns:xlink="http://www.w3.org/1999/xlink" x="0px" y="0px"
	 width="44.9px" height="55.4px" viewBox="0 0 44.9 55.4" style="enable-background:new 0 0 44.9 55.4;" xml:space="preserve">
<style type="text/css">
	.st0{fill:#007662;}
	.st1{fill:#FFF07C;}
	.st2{fill:#DBDC52;}
	.st3{fill:#173A91;}
</style>
<path class="st0" d="M24,0.1c0,0-13-3.1-22.2,24.8c0,0-9.5,26,15.3,30.3c0,0,24.3,3.5,22-25.1C39.1,30.2,36.5,1.2,24,0.1"/>
<path class="st1" d="M31.8,5.5c5.9,8.7,7.3,24.7,7.3,24.7c1.1,13.8-4,20.1-9.6,23c4.5-0.7,20.3-4.7,13.9-26.4
	C43.4,26.7,39,12,31.8,5.5"/>
<path class="st2" d="M25.1,2.5c-0.3,0-0.6,0-0.9,0c0,0,0,0,0,0C23.6,2.6,11.9,2.9,9,29c0,0-3.5,24.3,18.4,24.3c0.3,0,0.7,0,1,0
	c0,0,0.4,0,1.1-0.1c5.6-2.8,10.7-9.2,9.6-23c0,0-1.4-16-7.3-24.7C29.8,3.7,27.5,2.5,25.1,2.5"/>
<circle class="st3" cx="26.1" cy="32.3" r="8.6"/>
</svg>
