<?xml version="1.0" encoding="utf-8"?>
<!-- Generator: Adobe Illustrator 28.0.0, SVG Export Plug-In . SVG Version: 6.00 Build 0)  -->
<svg version="1.1" id="Layer_1" xmlns="http://www.w3.org/2000/svg" xmlns:xlink="http://www.w3.org/1999/xlink" x="0px" y="0px"
	 width="41.5px" height="43.6px" viewBox="0 0 41.5 43.6" style="enable-background:new 0 0 41.5 43.6;" xml:space="preserve">
<style type="text/css">
	.st0{fill:#66DD66;}
	.st1{fill:#B5F566;}
	.st2{fill:#198371;}
	.st3{fill:#21E433;}
	.st4{fill:#0A991A;}
	.st5{fill:#12D222;}
	.st6{fill:#007662;}
	.st7{fill:#006627;}
	.st8{fill:#003D2C;}
	.st9{fill:#003726;}
	.st10{fill:#ABEB9C;}
	.st11{fill:#D6F89C;}
	.st12{fill:#7DE576;}
</style>
<path class="st0" d="M10.5,6.2c-0.6,0.3-1.2,0.6-1.8,1C1.1,11.8-1.6,20,0.9,26.7c-0.4,0.7-0.5,1.6-0.1,2.4c0.4,0.8,1.2,1.3,2.1,1.3
	c0,0,0.1,0,0.1,0c2.8,3.3,7.4,5.4,12.3,5.4c2.3,0,4.7-0.4,6.9-1.4c0.1-0.6,0.1-1.2,0.2-1.8c-2.2,1-4.5,1.5-6.9,1.5
	c-5.2,0-10.2-2.2-12.6-6.3l1.5-0.8c-0.4-0.7-0.6-1.1-0.7-1.2c-0.1-0.2,8.6-3.8,8.9-3.8l0,0l-0.3,0.9l7.5-3.8
	c-0.5-0.2-0.9-0.4-0.9-0.4l8.3-4.6c0.2,0.4,0.3,0.7,0.4,1.1l2.7-1.4c0.5,0.8,0.8,1.6,1.1,2.6c0.6-0.4,1.1-0.8,1.8-1.1
	c0-0.2-0.1-0.3-0.1-0.5c0.4-0.5,0.6-1.2,0.4-1.8l-1.3,0.9c-0.2,0.1-0.4,0.2-0.6,0.2c-0.3,0-0.6-0.2-0.8-0.5C30.4,13,30.5,12.3,31,12
	l1.3-0.9c-0.3-0.2-0.7-0.3-1.1-0.3c-0.4-0.6-0.9-1.1-1.4-1.6c-2,1-4.7,1.9-7.8,1.9C18.4,11.1,14.5,9.9,10.5,6.2"/>
<path class="st1" d="M14.6,32.4c-1,0-1.5-0.2-1.6-0.2c-0.2,0,2.2-9.3,2.4-9.5l5.4,7.9C18.1,32.1,15.9,32.4,14.6,32.4 M19.8,19
	l-7.5,3.8l-2.7,8.2c-2.9-1.4-4.4-3.1-5.2-4.2l-1.5,0.8c2.3,4.1,7.4,6.3,12.6,6.3c2.4,0,4.8-0.5,6.9-1.5c0.1-0.8,0.3-1.7,0.5-2.5
	c-0.3,0.2-0.5,0.3-0.6,0.3l0,0c-0.3,0-3.7-8.8-3.7-9l6.5,2.2c0.3-0.7,0.7-1.3,1.1-1.9C24.4,20.9,21.4,19.7,19.8,19 M30.3,13.7
	l-2.7,1.4c0.5,1.5,0.7,2.8,0.7,3.9c0.9-1,1.9-1.9,3.1-2.7C31.1,15.3,30.8,14.5,30.3,13.7"/>
<path class="st2" d="M19.7,0C13.2,0,7.5,2.8,7.5,2.8c1,1.3,2,2.4,3,3.4c2.4-1.1,4.9-1.6,7.3-1.6c4.6,0,9,1.8,11.9,4.6
	c1.1-0.5,2-1.1,2.6-1.5L30,7.1c-0.5-0.1-0.8-0.7-0.7-1.2c0.1-0.5,0.5-0.7,1-0.7c0.1,0,0.2,0,0.3,0l2.1,0.5C28.9,1.3,24.1,0,19.7,0"
	/>
<path class="st3" d="M17.9,4.6c-2.4,0-5,0.5-7.3,1.6c3.9,3.7,7.9,4.9,11.4,4.9c3.1,0,5.8-0.9,7.8-1.9C26.9,6.4,22.5,4.6,17.9,4.6"/>
<path class="st2" d="M35.2,14.1c-0.8,0.3-1.5,0.7-2.1,1c1.5,6.4-1.1,14.1-9.7,18.6c-0.4,0.2-0.8,0.4-1.2,0.6
	c-0.5,5.2,0.2,9.3,0.2,9.3c20.6-7.9,16.2-25,14.8-29.2l-0.3,3.2c-0.1,0.5-0.5,0.9-1,0.9c0,0-0.1,0-0.1,0c-0.6-0.1-0.9-0.5-0.9-1.1
	L35.2,14.1"/>
<path class="st4" d="M33.1,15.1c-0.6,0.3-1.2,0.7-1.8,1.1c1.2,5.3-2.1,12.6-8.2,15.9c-0.2,0.1-0.5,0.2-0.7,0.3
	c-0.1,0.6-0.2,1.2-0.2,1.8c0.4-0.2,0.8-0.4,1.2-0.6C31.9,29.3,34.6,21.6,33.1,15.1"/>
<path class="st5" d="M31.3,16.2c-1.2,0.8-2.2,1.8-3.1,2.7c0,1.8-0.4,2.9-0.4,3.1c0,0,0,0,0,0c-0.2,0-0.7-0.2-1.6-0.5
	c-0.4,0.6-0.8,1.2-1.1,1.9l2.4,0.8c-1.6,3.6-3.7,5.1-4.7,5.7c-0.2,0.8-0.3,1.7-0.5,2.5c0.2-0.1,0.5-0.2,0.7-0.3
	C29.3,28.9,32.6,21.6,31.3,16.2"/>
<path class="st6" d="M40.6,5.9c-0.2,0-0.4,0-0.6,0.2l-2,1.3c0.2,0.2,0.3,0.6,0.2,0.9c-0.1,0.5-0.5,0.7-1,0.7c-0.1,0-0.2,0-0.3,0
	l-1-0.3l-3.7,2.5c0.4,0.2,0.7,0.5,0.9,0.9c0.1,0.2,0.2,0.5,0.2,0.7l2.1-1.4l0.1-1.2c0.1-0.5,0.5-0.9,1-0.9c0,0,0.1,0,0.1,0
	c0.4,0,0.8,0.3,0.9,0.7l3.5-2.3c0.5-0.3,0.6-0.9,0.3-1.4C41.2,6.1,40.9,5.9,40.6,5.9"/>
<path class="st7" d="M32.3,11.2L31,12c-0.5,0.3-0.6,0.9-0.3,1.4c0.2,0.3,0.5,0.5,0.8,0.5c0.2,0,0.4,0,0.6-0.2l1.3-0.9
	c0-0.2-0.1-0.5-0.2-0.7C33,11.7,32.7,11.4,32.3,11.2"/>
<path class="st6" d="M32.6,5.7c0.3,0.4,0.6,0.8,0.9,1.2c0,0-0.4,0.3-1.1,0.8l3.7,1l2-1.3c-0.1-0.2-0.3-0.3-0.5-0.3L32.6,5.7"/>
<path class="st8" d="M30.3,5.1c-0.4,0-0.8,0.3-1,0.7c-0.1,0.5,0.2,1.1,0.7,1.2l2.4,0.6c0.7-0.5,1.1-0.8,1.1-0.8
	c-0.3-0.4-0.6-0.8-0.9-1.2l-2.1-0.5C30.5,5.1,30.4,5.1,30.3,5.1"/>
<path class="st9" d="M38.1,7.4l-2,1.3L37,9c0.1,0,0.2,0,0.3,0c0.4,0,0.8-0.3,1-0.7C38.3,7.9,38.3,7.6,38.1,7.4"/>
<path class="st6" d="M37.6,10.1l-2.1,1.4l-0.3,2.7c0.5-0.2,1.1-0.4,1.6-0.6c0,0,0.1,0.3,0.3,0.9l0.4-4
	C37.6,10.3,37.6,10.2,37.6,10.1"/>
<path class="st8" d="M36.9,13.5c-0.6,0.2-1.1,0.4-1.6,0.6l-0.3,3.3c-0.1,0.5,0.3,1,0.9,1.1c0,0,0.1,0,0.1,0c0.5,0,0.9-0.4,1-0.9
	l0.3-3.2C37,13.8,36.8,13.5,36.9,13.5"/>
<path class="st9" d="M36.6,9.3c-0.5,0-0.9,0.4-1,0.9l-0.1,1.2l2.1-1.4c-0.1-0.4-0.4-0.7-0.9-0.7C36.7,9.3,36.7,9.3,36.6,9.3"/>
<path class="st10" d="M12.7,22c-0.2,0-9,3.6-8.9,3.8c0,0.1,0.2,0.5,0.7,1.2l7.9-4.1L12.7,22"/>
<path class="st11" d="M12.4,22.9l-7.9,4.1c0.8,1.1,2.3,2.8,5.2,4.2L12.4,22.9"/>
<path class="st11" d="M15.3,22.8c-0.1,0.2-2.6,9.5-2.4,9.5c0.1,0,0.7,0.2,1.6,0.2c1.4,0,3.5-0.3,6.1-1.8L15.3,22.8"/>
<path class="st11" d="M18.6,21.3c0,0.2,3.4,9,3.7,9l0,0c0,0,0.3-0.1,0.6-0.3c0.5-2.2,1.2-4.4,2.3-6.5L18.6,21.3"/>
<path class="st12" d="M25.2,23.5c-1.1,2.1-1.8,4.3-2.3,6.5c1-0.6,3.1-2.2,4.7-5.7L25.2,23.5"/>
<path class="st10" d="M27.2,14l-8.3,4.6c0,0,0.4,0.2,0.9,0.4l7.7-4C27.5,14.7,27.3,14.4,27.2,14"/>
<path class="st11" d="M27.6,15.1l-7.7,4c1.5,0.6,4.6,1.9,6.4,2.5c0.6-0.9,1.2-1.8,2-2.6C28.2,17.9,28.1,16.6,27.6,15.1"/>
<path class="st12" d="M28.3,19c-0.7,0.8-1.4,1.7-2,2.6c0.8,0.3,1.4,0.5,1.6,0.5c0,0,0,0,0,0C27.9,21.9,28.3,20.8,28.3,19"/>
</svg>
