<?xml version="1.0" encoding="UTF-8"?>
<svg id="Layer_2" xmlns="http://www.w3.org/2000/svg" width="69.94" height="111.76" viewBox="0 0 69.94 111.76">
  <defs>
    <style>
      .cls-1 {
        fill: #c80000;
      }

      .cls-2 {
        fill: #4d4d4a;
      }

      .cls-3 {
        fill: #0f8a61;
      }

      .cls-4 {
        fill: #173a91;
      }

      .cls-5 {
        fill: #fcce79;
      }

      .cls-6 {
        fill: #f9911e;
      }

      .cls-7 {
        fill: #f9c33e;
      }
    </style>
  </defs>
  <g id="Layer_1-2" data-name="Layer_1">
    <g>
      <path class="cls-3" d="M26.57,8.82c-1.07,0-2.18.1-3.27.25-.13.33-.33.65-.6.94-.11.13-.25.26-.41.39.42-.14.66-.21.66-.21,0,0,2.13-.76,4.84-1.32-.4-.03-.81-.05-1.23-.05"/>
      <path class="cls-3" d="M16.45,10.66c-.59.19-.93.31-.93.31,0,0-11.07,3.3-13.29,8.24-.28.63-.38,1.31-.38,2,0,.64.09,1.29.17,1.89.58,3.89,1.46,7.65,1.47,11.62,0,.25,0,.49-.01.74-.17,5.95-1.11,11.92-2.54,17.77C.3,55.89,0,58.62,0,61.36c0,8.65,3.01,17.39,7.4,24.64,5.29,8.73,13.02,15.32,21.62,20.65,3.91,2.43,9.62,5.12,14.94,5.12,1.48,0,2.93-.21,4.3-.69,3.73-1.13,6.92-5.25,9.54-10.38-1.32,1.43-2.75,2.47-4.28,2.93-1.21.37-2.46.53-3.74.53-7.44,0-15.65-5.61-20.58-9.38-7.94-6.07-13.08-12.9-16.74-22.19-1.99-5.03-3.28-10.5-3.28-15.98,0-2.4.25-4.8.79-7.17,1.26-5.44,2.08-10.99,2.19-16.53,0-.17,0-.34,0-.51,0-3.76-.86-7.33-1.42-11.01-.09-.58-.17-1.2-.17-1.82,0-.62.08-1.23.33-1.8,1.07-2.45,4.45-4.45,7.36-5.78-.34-.02-.65-.1-.91-.26-.33-.2-.62-.57-.88-1.07"/>
      <path class="cls-5" d="M32.89,8.27c-1.69,0-3.5.27-5.1.6,1.26.1,2.4.37,3.32.89,1.17.66,1.87,1.9,2.46,3.02,1.94,3.69,3.52,7.48,6.13,10.83,3.65,4.7,7.94,8.96,12.54,12.84,13.07,11.02,15.44,31.57,13.94,38.71-.96,4.54-3.81,16.58-8.39,25.54,6.72-7.28,10.72-24.84,11.82-30.38,1.32-6.64-.99-25.79-12.98-36.14-4.23-3.65-8.17-7.64-11.53-12.04-2.4-3.14-3.86-6.68-5.66-10.13-.54-1.04-1.2-2.2-2.27-2.83-1.13-.66-2.65-.91-4.28-.91"/>
      <path class="cls-6" d="M27.8,8.87c-2.71.56-4.84,1.32-4.84,1.32,0,0-.24.07-.66.21-.95.8-2.59,1.59-3.87,1.59h-.18c-2.91,1.32-6.29,3.32-7.36,5.77-.49,1.13-.34,2.46-.16,3.62.59,3.85,1.49,7.57,1.41,11.52-.11,5.54-.93,11.09-2.19,16.53-1.8,7.78-.37,15.91,2.49,23.15,3.66,9.29,8.8,16.13,16.74,22.19,4.93,3.77,13.14,9.38,20.58,9.38,1.28,0,2.53-.16,3.74-.53,1.53-.46,2.96-1.5,4.28-2.93,4.58-8.96,7.44-21,8.39-25.54,1.5-7.14-.87-27.7-13.94-38.71-4.6-3.88-8.89-8.13-12.54-12.84-2.6-3.35-4.18-7.14-6.13-10.83-.59-1.12-1.3-2.36-2.46-3.02-.92-.52-2.06-.79-3.32-.89"/>
      <path class="cls-7" d="M36.96,36.29c-1.64-.3-3.13-1.13-4.08-2.42-.48-.65-1.63-1.65-2.55-1.19-.79.4-1,1.63-1.01,2.36,0,1.61-.71,3.16-1.86,4.37-10.38,10.92-5.04,34.5,6.8,43.48,2.32,1.76,4.85,3.38,7.57,4.52,8.65,3.62,13.31-5.21,15.34-12.01,4.25-14.24-5.37-36.42-20.2-39.1Z"/>
      <path class="cls-4" d="M18.64,0c-.44,0-.91.14-1.41.48-2.37,1.6-2.13,7.57-.78,10.18,1.36-.43,4.03-1.2,6.85-1.59.55-1.34.12-2.88-.28-3.96-.36-.97-1.99-5.11-4.38-5.11"/>
      <path d="M23.3,9.07c-2.82.39-5.49,1.16-6.85,1.59.26.5.55.87.88,1.07.26.16.57.24.91.26,1.69-.77,3.22-1.31,4.05-1.59.15-.13.29-.26.41-.39.27-.3.46-.62.6-.94"/>
      <path class="cls-1" d="M22.3,10.4c-.83.28-2.36.82-4.05,1.59h.18c1.29,0,2.92-.79,3.87-1.59"/>
      <ellipse class="cls-2" cx="34.26" cy="43.34" rx="3.51" ry="3.32" transform="translate(-11.77 12.79) rotate(-18.1)"/>
      <path class="cls-2" d="M34.16,53.93c.42,1.29-.34,2.71-1.71,3.15-1.37.45-2.82-.24-3.24-1.54s.34-2.71,1.71-3.15c1.37-.45,2.82.24,3.24,1.54Z"/>
      <path class="cls-2" d="M48.1,55.09c.57,1.74-.46,3.64-2.3,4.24-1.84.6-3.79-.32-4.36-2.07-.57-1.74.46-3.64,2.3-4.24,1.84-.6,3.79.32,4.36,2.07Z"/>
      <path class="cls-2" d="M35.4,69.89c.46,1.39-.37,2.91-1.84,3.39-1.47.48-3.03-.26-3.48-1.65-.46-1.39.37-2.91,1.84-3.39,1.47-.48,3.03.26,3.48,1.65Z"/>
      <path class="cls-2" d="M52.59,50.47c.44,1.35-.36,2.83-1.78,3.29-1.43.47-2.94-.25-3.38-1.6-.44-1.35.36-2.83,1.78-3.29,1.43-.47,2.94.25,3.38,1.6Z"/>
      <path class="cls-2" d="M30.91,59.94c.56,1.71-.45,3.57-2.25,4.16-1.8.59-3.72-.32-4.28-2.03-.56-1.71.45-3.57,2.25-4.16,1.8-.59,3.72.32,4.28,2.03Z"/>
      <path class="cls-2" d="M30.31,53.93c.55,1.69-.44,3.53-2.23,4.11s-3.67-.31-4.23-2c-.55-1.69.44-3.53,2.23-4.11,1.78-.58,3.67.31,4.23,2Z"/>
      <path class="cls-2" d="M31.21,47.49c.47,1.42-.37,2.97-1.88,3.46-1.5.49-3.09-.26-3.56-1.69-.47-1.42.37-2.97,1.88-3.46,1.5-.49,3.09.26,3.56,1.69Z"/>
      <path class="cls-2" d="M40.24,52.27c.56,1.73-.45,3.61-2.27,4.2-1.82.6-3.75-.32-4.32-2.05-.56-1.73.45-3.61,2.27-4.2s3.75.32,4.32,2.05Z"/>
      <path class="cls-2" d="M56.4,67c.49,1.49-.39,3.11-1.96,3.63-1.57.51-3.24-.28-3.72-1.77-.49-1.49.39-3.11,1.96-3.63,1.57-.51,3.24.28,3.72,1.77Z"/>
      <ellipse class="cls-2" cx="37.64" cy="73.3" rx="3.66" ry="3.47" transform="translate(-20.92 15.33) rotate(-18.11)"/>
      <path class="cls-2" d="M38.82,58.46c.51,1.55-.41,3.24-2.04,3.77s-3.37-.29-3.88-1.84c-.51-1.55.41-3.24,2.04-3.78,1.64-.53,3.37.29,3.88,1.84Z"/>
      <path class="cls-2" d="M52.98,57.02c.51,1.55-.41,3.24-2.04,3.77-1.64.53-3.37-.29-3.88-1.84-.51-1.55.41-3.24,2.04-3.77,1.64-.53,3.37.29,3.88,1.84Z"/>
      <path class="cls-2" d="M32.67,66.5c.57,1.74-.46,3.65-2.3,4.25-1.84.6-3.79-.32-4.36-2.07-.57-1.74.46-3.65,2.3-4.25,1.84-.6,3.79.32,4.36,2.07Z"/>
      <path class="cls-2" d="M46.76,75.31c.46,1.4-.37,2.93-1.85,3.41-1.48.48-3.05-.26-3.51-1.66s.37-2.93,1.85-3.41c1.48-.48,3.05.26,3.51,1.66Z"/>
      <path class="cls-2" d="M35.45,63.34c.48,1.47-.39,3.06-1.93,3.57-1.55.51-3.19-.27-3.67-1.74s.39-3.06,1.93-3.57c1.55-.51,3.19.27,3.67,1.74Z"/>
      <path class="cls-2" d="M42.08,79.26c.49,1.49-.39,3.11-1.96,3.62-1.57.51-3.24-.28-3.72-1.76-.49-1.49.39-3.11,1.96-3.62,1.57-.51,3.24.28,3.72,1.76Z"/>
      <path class="cls-2" d="M40.77,47.61c.37,1.12-.29,2.34-1.47,2.72-1.18.39-2.43-.21-2.8-1.33-.37-1.12.29-2.34,1.47-2.72,1.18-.39,2.43.21,2.8,1.33Z"/>
      <path class="cls-2" d="M56.36,72.45c.37,1.12-.29,2.34-1.47,2.72-1.18.39-2.43-.21-2.8-1.33-.37-1.12.29-2.34,1.47-2.72,1.18-.39,2.43.21,2.8,1.33Z"/>
      <path class="cls-2" d="M45.56,59.88c.37,1.12-.29,2.34-1.47,2.72-1.18.39-2.43-.21-2.8-1.33s.29-2.34,1.47-2.72c1.18-.39,2.43.21,2.8,1.33Z"/>
      <path class="cls-2" d="M50.46,62.45c.46,1.39-.37,2.91-1.84,3.39-1.47.48-3.03-.26-3.48-1.65-.46-1.39.37-2.91,1.84-3.39,1.47-.48,3.03.26,3.48,1.65Z"/>
      <path class="cls-2" d="M49.44,45.24c.29.9-.24,1.88-1.18,2.19-.95.31-1.95-.17-2.25-1.07-.29-.9.24-1.88,1.18-2.19.95-.31,1.95.17,2.25,1.07Z"/>
      <path class="cls-2" d="M52.76,74.88c.43,1.31-.35,2.75-1.73,3.2-1.39.45-2.86-.24-3.29-1.56-.43-1.31.35-2.75,1.73-3.2,1.39-.45,2.86.24,3.29,1.56Z"/>
      <path class="cls-2" d="M35.67,76.32c.38,1.18-.31,2.46-1.55,2.86-1.24.41-2.56-.22-2.94-1.39-.38-1.18.31-2.46,1.55-2.86,1.24-.41,2.56.22,2.94,1.39Z"/>
      <path class="cls-2" d="M49.84,67.92c.59,1.82-.48,3.79-2.39,4.42-1.91.63-3.95-.34-4.54-2.15-.59-1.82.48-3.79,2.39-4.42,1.91-.63,3.95.34,4.54,2.15Z"/>
      <path class="cls-2" d="M46.89,49.46c.56,1.7-.45,3.56-2.25,4.15-1.8.59-3.71-.32-4.26-2.02-.56-1.7.45-3.56,2.25-4.15,1.8-.59,3.71.32,4.26,2.02Z"/>
      <path class="cls-2" d="M44.8,42.47c.46,1.4-.37,2.93-1.85,3.41-1.48.48-3.05-.26-3.5-1.66-.46-1.4.37-2.93,1.85-3.41,1.48-.48,3.05.26,3.5,1.66Z"/>
      <ellipse class="cls-2" cx="47.51" cy="82.66" rx="3.35" ry="3.17" transform="translate(-23.33 18.86) rotate(-18.1)"/>
      <path class="cls-2" d="M43.04,65c.61,1.86-.49,3.89-2.45,4.53-1.96.64-4.05-.35-4.66-2.21-.61-1.86.49-3.89,2.45-4.53,1.96-.64,4.05.35,4.66,2.21Z"/>
      <path class="cls-2" d="M55.36,61.42c.37,1.13-.3,2.37-1.49,2.76-1.19.39-2.46-.21-2.83-1.34-.37-1.13.3-2.37,1.49-2.76s2.46.21,2.83,1.34Z"/>
    </g>
  </g>
</svg>