<?xml version="1.0" encoding="UTF-8"?>
<svg id="Layer_2" xmlns="http://www.w3.org/2000/svg" width="106.25" height="104.3" viewBox="0 0 106.25 104.3">
  <defs>
    <style>
      .cls-1 {
        fill: #2c2f58;
      }

      .cls-2 {
        fill: #2b1d33;
      }

      .cls-3 {
        fill: #2c282f;
      }

      .cls-4 {
        fill: #f4683d;
      }

      .cls-5 {
        fill: #f63704;
      }

      .cls-6 {
        fill: #04498e;
      }

      .cls-7 {
        fill: #173a91;
      }

      .cls-8 {
        fill: #f14112;
      }

      .cls-9 {
        fill: #ee2805;
      }

      .cls-10 {
        fill: #2c1927;
      }

      .cls-11 {
        fill: #2a1228;
      }

      .cls-12 {
        fill: #fc8e2c;
      }

      .cls-13 {
        fill: #fc9f4b;
      }

      .cls-14 {
        fill: #f9580d;
      }

      .cls-15 {
        fill: #2a3f54;
      }

      .cls-16 {
        fill: #17a27b;
      }
    </style>
  </defs>
  <g id="Layer_1-2" data-name="Layer_1">
    <g>
      <path class="cls-4" d="M83.29,37.67c0,11.09-13.19,20.08-29.47,20.08s-29.47-8.99-29.47-20.08,13.19-20.08,29.47-20.08,29.47,8.99,29.47,20.08"/>
      <path class="cls-12" d="M106.25,57.68c0,26.33-19.24,46.95-52.41,46.61C18.9,103.94,0,82.24,0,55.9c0-14.26,8.17-37.64,27.92-38.26,15.63-.49,14.15,13.87,27.34,13.87,14.37,0,11.68-14.77,24.36-13.07,21.48,2.88,26.64,26.07,26.64,39.24"/>
      <path class="cls-13" d="M70.24,18.65c-1.29,0-2.33.4-3.2,1.07,1.28.44,2.51.94,3.67,1.5.8-.79,1.67-1.47,2.69-1.98-.58-.18-1.18-.33-1.81-.45-.49-.09-.94-.14-1.36-.13M35.76,17.98c-.18,0-.36,0-.54.01-.61.03-1.2.1-1.78.21,1.98.52,3.58,1.35,4.97,2.35.86-.36,1.74-.69,2.65-.99-1.4-.97-3.1-1.59-5.3-1.59"/>
      <path class="cls-8" d="M67.04,19.72c-.83.63-1.52,1.51-2.15,2.5.59,1.18,1.12,2.57,1.59,4.1,1.49-1.74,2.73-3.61,4.24-5.11-1.17-.56-2.39-1.06-3.67-1.5M41.06,19.57c-.91.3-1.8.63-2.65.99.67.48,1.28,1,1.87,1.55.37-.85.75-1.61,1.17-2.26-.13-.1-.25-.19-.38-.28"/>
      <path class="cls-14" d="M73.41,19.24c-1.03.51-1.9,1.19-2.69,1.98-1.51,1.5-2.75,3.37-4.24,5.11,2.65,8.7,3.42,22.24,3.42,31.18,0,25.31-5.73,45.35-15.67,46.62,22.88-.12,36.13-20.45,36.13-46.33,0-12.55-3.34-34.26-16.95-38.55M33.44,18.2c-12.61,2.42-17.88,24.27-17.88,37.82,0,25.56,12.68,46.72,36.18,48.04-10.51-1.83-16.18-22.93-16.18-48.34,0-10.49,1.43-25.92,4.72-33.61-.58-.55-1.2-1.07-1.87-1.55-1.39-1-2.99-1.84-4.97-2.35"/>
      <path class="cls-13" d="M44.37,17.43c-.95.16-1.81.83-2.59,1.9,1.14-.35,2.32-.65,3.54-.9-.29-.36-.61-.69-.95-1.01"/>
      <path class="cls-8" d="M62.34,18.83c.1,1.84.4,3.88,1.01,6.06.51-.92,1.01-1.84,1.54-2.67-.74-1.48-1.59-2.65-2.55-3.39M45.32,18.44c-1.21.25-2.39.55-3.54.9-.12.16-.23.33-.35.51,3.88,3,5.39,8.77,9.36,11.01.84.27,1.76.47,2.78.58-.09-.04-.19-.09-.28-.14-.79-.05-1.41-.59-1.93-1.45-.89-.88-1.74-2.05-2.54-3.6-.27-.18-.46-.47-.5-.81h0s0-.04,0-.04l-.03-.17c-.03-.15-.07-.37-.13-.65-.13-.56-.34-1.34-.66-2.22-.46-1.26-1.17-2.69-2.17-3.91"/>
      <path class="cls-14" d="M51.74,104.05c.4.07.8.11,1.22.12.09,0,.17,0,.26,0,.34,0,.68-.02,1.01-.06-.07,0-.13,0-.2,0-.19,0-.37,0-.56,0-.58,0-1.16-.03-1.72-.06M50.8,30.85c1.03.58,2.22.92,3.66.92h0c-.29-.09-.59-.21-.88-.35-1.02-.1-1.94-.3-2.78-.58"/>
      <path class="cls-9" d="M64.89,22.21c-.53.83-1.03,1.75-1.54,2.67.3,1.07.67,2.18,1.14,3.33,0,0-.43.45-1.16,1.03,1.23-.84,2.24-1.86,3.16-2.93-.47-1.54-1-2.92-1.59-4.1M41.44,19.85c-.41.65-.8,1.4-1.17,2.26,3.43,3.2,5.76,7.2,10.53,8.75-3.98-2.24-5.48-8.01-9.36-11.01"/>
      <path class="cls-5" d="M40.27,22.1c-3.29,7.69-4.72,23.12-4.72,33.61,0,25.41,5.67,46.51,16.18,48.34.57.03,1.14.05,1.72.06.19,0,.38,0,.56,0,.07,0,.13,0,.2,0,9.94-1.27,15.67-21.31,15.67-46.62,0-8.93-.77-22.48-3.42-31.18-.92,1.07-1.93,2.08-3.16,2.93-1.43,1.15-4.02,2.83-6.85,2.83-.66,0-1.33-.09-2.01-.3h0c-1.44,0-2.63-.34-3.66-.92-4.77-1.55-7.1-5.55-10.53-8.75"/>
      <path class="cls-16" d="M50.64,25.12c0-.06-.22-1.6-.95-3.58-.74-1.98-2-4.43-4.22-6.25-1.85-1.5-3.55-3.01-4.75-4.48-.6-.73-1.07-1.45-1.39-2.13-.31-.68-.47-1.32-.47-1.94,0-.54.12-1.08.39-1.66.31-.63.64-.94.98-1.13.34-.19.72-.27,1.12-.27.44,0,.9.1,1.23.21.17.05.3.11.39.14l.09.04h.02s.13-.27.13-.27l-.14.27h0s.13-.27.13-.27l-.14.27h0s0,0,0,0l.29-.6-.3.6h0s.29-.6.29-.6l-.3.6.07.04c.17.1.58.38.92.81.34.44.62.98.62,1.76,0,.25-.03.54-.11.86-.13.53-.37.96-.73,1.35-.53.58-1.36,1.06-2.32,1.37-.96.31-2.06.47-3.08.46-.99,0-1.9-.15-2.52-.37-2.1-.75-3.57-1.75-4.5-2.77-.93-1.02-1.3-2.04-1.3-2.91,0-.97.43-1.84,1.42-2.56.52-.38.64-1.11.26-1.63-.38-.52-1.11-.64-1.63-.26-1.51,1.08-2.39,2.72-2.38,4.46,0,1.56.67,3.13,1.91,4.49,1.24,1.36,3.05,2.54,5.44,3.39.96.34,2.09.5,3.3.5,1.65,0,3.44-.31,5.01-1.06.78-.38,1.51-.88,2.11-1.53.6-.65,1.06-1.46,1.28-2.39.12-.49.17-.96.17-1.4,0-1.63-.74-2.85-1.45-3.58-.71-.74-1.38-1.08-1.46-1.12l-.51,1.05.53-1.04c-.09-.04-1.23-.64-2.78-.65-.7,0-1.5.14-2.27.57-.77.43-1.46,1.15-1.93,2.16-.42.87-.62,1.78-.62,2.67,0,1.01.26,1.99.68,2.91.64,1.38,1.63,2.66,2.81,3.89,1.18,1.23,2.56,2.41,3.98,3.56,1.74,1.41,2.86,3.49,3.5,5.25.32.87.53,1.66.66,2.22.06.28.11.5.13.65l.03.17v.04s0,0,0,0c.09.64.67,1.09,1.31,1,.64-.09,1.09-.67,1-1.31"/>
      <path class="cls-7" d="M60.16,4.58c-2.89,0-5.99,2.2-6.15,2.27-1.13,3.29-2.26,7.33-3.19,10.85.99-.07,1.98-.1,3-.1,2.26,0,4.47.17,6.58.5.08-.02.17-.03.25-.03.2,0,.4.04.63.14.05.02.09.04.14.06.3.06.6.11.9.17-.24-6.56,2.08-10.66,2.08-10.66-.9-2.43-2.53-3.2-4.24-3.2"/>
      <path class="cls-1" d="M61.42,18.26c.32.15.62.33.92.56,0-.13-.01-.26-.02-.39-.3-.06-.6-.12-.9-.17M53.82,17.59c-1.01,0-2.01.03-3,.1-.39,1.49-.75,2.89-1.05,4.11.66,1.86.85,3.27.86,3.32.07.53-.22,1.02-.69,1.23.42,1.35.87,2.6,1.43,3.5.63.63,1.28,1.1,1.93,1.45.04,0,.08,0,.11,0,4.28,0,3.88-12.56,6.99-13.2-2.12-.33-4.32-.5-6.58-.5"/>
      <path class="cls-15" d="M60.66,18.07c-.09,0-.17,0-.25.03.34.05.68.11,1.02.17-.05-.02-.09-.04-.14-.06-.22-.09-.43-.14-.63-.14"/>
      <path class="cls-2" d="M48.83,26.24c.8,1.55,1.66,2.72,2.54,3.6-.56-.9-1-2.14-1.43-3.5-.1.04-.2.07-.31.09-.05,0-.11.01-.16.01-.24,0-.46-.07-.65-.2M60.41,18.09c-3.12.64-2.71,13.2-6.99,13.2-.04,0-.08,0-.11,0,.09.05.19.1.28.14.53.05,1.09.08,1.67.08s1.13-.02,1.66-.07c3.25-.95,4.91-3.79,6.44-6.56-.61-2.18-.91-4.21-1.01-6.06-.3-.23-.6-.42-.92-.56-.34-.06-.68-.12-1.02-.17"/>
      <path class="cls-3" d="M53.58,31.43c.29.14.59.25.88.35.91,0,1.72-.12,2.45-.33-.53.05-1.08.07-1.66.07s-1.14-.03-1.67-.08"/>
      <path class="cls-11" d="M63.35,24.89c-1.53,2.76-3.19,5.61-6.44,6.56,2.72-.24,4.76-1.07,6.41-2.2.74-.59,1.16-1.03,1.16-1.03-.46-1.14-.84-2.25-1.14-3.33"/>
      <path class="cls-10" d="M63.32,29.25c-1.65,1.13-3.68,1.96-6.41,2.2-.73.21-1.54.33-2.45.33.68.21,1.35.3,2.01.3,2.83,0,5.42-1.69,6.85-2.83"/>
      <path class="cls-6" d="M49.78,21.8c-.64,2.56-1.03,4.29-1.03,4.29.03.05.05.1.08.16.19.13.41.2.65.2.05,0,.1,0,.16-.01.11-.01.21-.04.31-.09.47-.2.76-.7.69-1.23,0-.05-.2-1.46-.86-3.32"/>
    </g>
  </g>
</svg>