<?xml version="1.0" encoding="utf-8"?>
<!-- Generator: Adobe Illustrator 28.0.0, SVG Export Plug-In . SVG Version: 6.00 Build 0)  -->
<svg version="1.1" id="Layer_1" xmlns="http://www.w3.org/2000/svg" xmlns:xlink="http://www.w3.org/1999/xlink" x="0px" y="0px"
	 width="53px" height="112.2px" viewBox="0 0 53 112.2" style="enable-background:new 0 0 53 112.2;" xml:space="preserve">
<style type="text/css">
	.st0{fill:#F1C630;}
	.st1{fill:#FFEFBF;}
	.st2{fill:#FADB76;}
	.st3{fill:#FDEEBF;}
	.st4{fill:#17A27B;}
	.st5{fill:#2BD62E;}
	.st6{fill:#07E22C;}
	.st7{fill:#007662;}
	.st8{fill:#00955E;}
	.st9{fill:#00C623;}
	.st10{fill:#00AD5A;}
	.st11{fill:#00D121;}
	.st12{fill:#006D4B;}
	.st13{fill:#008948;}
	.st14{fill:#EBB01D;}
</style>
<path class="st0" d="M52.2,74.2c0,17.9,0.6,33.8-24.3,33C4,106.5,4,92.4,4,74.1s12.2-33,24-33.2C40,40.8,52.2,55.9,52.2,74.2"/>
<path class="st1" d="M51.6,89.9c-1.4,10.2-6.2,17.4-22,17.4c-0.5,0-1.1,0-1.7,0c-0.2,0-0.4,0-0.6,0c0,3.1,0.1,4.9,0.3,4.9
	c0.6,0,1.2,0,1.8,0C46.6,112.2,50.7,102.5,51.6,89.9"/>
<path class="st2" d="M34.3,105.6l-3.5-11.7l8.4,8.9L34.3,105.6 M43.5,101.1L30.9,90.4l16.1,4L43.5,101.1 M48.2,92.4l-16.2-7
	l17.7-0.9L48.2,92.4 M49.4,83l-18.7-3.7l18.5-4.4L49.4,83 M48.9,73.1l-17.7-0.2l16-7.7L48.9,73.1 M30.2,68.2l11.7-10.8l3.5,6
	L30.2,68.2 M30.1,62.2l5.4-11l4.3,3.6L30.1,62.2 M27.8,46.8c-0.1,0-0.1,0-0.2,0c0,0-0.5,45.2-0.3,60.4c0.2,0,0.4,0,0.6,0
	c0.6,0,1.1,0,1.7,0c15.8,0,20.6-7.2,22-17.4c0.2-3.3,0.3-6.7,0.3-10.3C51.9,61.7,39.8,46.8,27.8,46.8"/>
<polyline class="st3" points="41.9,57.4 30.2,68.2 45.4,63.4 41.9,57.4 "/>
<polyline class="st3" points="30.9,90.4 43.5,101.1 47,94.4 30.9,90.4 "/>
<polyline class="st3" points="35.5,51.2 30.1,62.2 39.9,54.7 35.5,51.2 "/>
<polyline class="st3" points="30.7,93.8 34.3,105.6 39.1,102.8 30.7,93.8 "/>
<polyline class="st3" points="47.1,65.2 31.2,72.9 48.8,73.1 47.1,65.2 "/>
<polyline class="st3" points="49.6,84.4 31.9,85.3 48.2,92.4 49.6,84.4 "/>
<polyline class="st3" points="49.3,74.9 30.7,79.3 49.4,82.9 49.3,74.9 "/>
<path class="st4" d="M9.3,0l1.6,1.5c0.2,0.2,0.5,0.5,0.7,0.7c2,1.7,3.5,3.8,4.9,6.1c1.4,2.4,2.2,5,2.6,7.8c0.2,1.1,0.4,2.3,0.5,3.5
	c2.5,2.1,4.7,4.5,6.4,7.1c0.6-2,1.4-3.8,2.4-5.6c-1.2-3.8-3.2-7.4-5.8-10.5c-3.2-3.8-7.1-6.8-11.3-9.4c-0.3-0.2-0.5-0.3-0.8-0.5
	c-0.2-0.2-0.3-0.2-0.4-0.2C9.8,0.2,9.5,0.1,9.3,0"/>
<path class="st4" d="M2.2,25.3L4,25.9c0.2,0.1,0.5,0.2,0.7,0.3c2.1,0.6,4.1,1.7,5.9,3c1.9,1.4,3.4,3.2,4.7,5.1
	c1.5,2.2,2.9,4.6,4.3,6.8c0.4,0.5,0.7,1.1,1.2,1.6c1.1-0.6,2.2-1,3.4-1.3c-2.4-1.7-3.8-4.4-4.9-7c-0.7-1.7-1.5-3.4-2.2-5.1
	c-0.3-0.2-0.6-0.3-0.9-0.5c-3.8-1.8-7.8-2.8-12-3.4c-0.3,0-0.5-0.1-0.8-0.1c-0.2,0-0.3,0-0.4,0C2.7,25.3,2.5,25.4,2.2,25.3"/>
<path class="st5" d="M24.1,41.5c-1.1,0.3-2.3,0.7-3.4,1.3c0.9,1.2,2,2.4,3.5,3c0.5,0.2,1.1,0.4,1.6,0.4c0.5,0,1-0.1,1.5-0.4
	c0,0,0.1-0.1,0.1-0.1c-0.7-0.5-1-1.4-1.1-2.2c0-0.3,0-0.7,0-1.1C25.5,42.2,24.8,41.9,24.1,41.5C24.2,41.5,24.1,41.5,24.1,41.5"/>
<path class="st4" d="M53,17.6c-0.3,0.1-0.6,0.1-0.8,0.2c-0.1,0-0.2,0-0.5,0.1c-0.4,0.1-0.6,0.2-0.9,0.3c-4.7,1.4-9.2,3.4-13.2,6.2
	c-1,0.7-1.9,1.5-2.8,2.3c-0.2,1.1-0.5,2.2-0.7,3.3c-0.6,2.5-1.3,5.2-3.1,7.1c-0.3,0.3-0.6,0.5-0.9,0.7c0,0.5,0,1,0,1.5
	c-0.1,0.6-0.3,1.3-0.6,1.8c1.7,0.2,3.3,0.6,4.9,1.3c0.6-1,1.1-2,1.5-3.1c1.3-2.9,2.4-5.8,3.7-8.7c1.1-2.5,2.5-4.9,4.4-6.8
	c1.8-1.8,3.9-3.5,6.2-4.6c0.2-0.1,0.5-0.3,0.8-0.5L53,17.6"/>
<path class="st5" d="M29.5,41c-0.3,0.5-0.7,0.9-1.3,1.1c0,0,0,0-0.1,0c0.1,0.4,0.2,0.8,0.2,1.2c0,0.9-0.2,1.8-0.9,2.3
	c0.2,0.1,0.4,0.3,0.6,0.4c0.4,0.2,0.8,0.2,1.2,0.2c0.8,0,1.7-0.3,2.3-0.8c1.2-0.8,2.1-2,2.9-3.2C32.8,41.6,31.1,41.1,29.5,41"/>
<path class="st6" d="M28.1,42.2c-0.4,0.2-0.9,0.3-1.3,0.3c-0.2,0-0.4,0-0.6,0c0,0.4,0,0.7,0,1.1c0.1,0.9,0.4,1.7,1.1,2.2
	c0.7-0.6,1-1.5,0.9-2.3C28.3,42.9,28.2,42.5,28.1,42.2"/>
<path class="st7" d="M0,10.1l2.1,1.1c0.3,0.2,0.7,0.4,0.9,0.5c2.6,1.3,4.9,3.1,7,5.2c2.2,2.2,3.8,4.8,5,7.7c0.7,1.6,1.3,3.1,2,4.7
	c3.6,1.9,6.8,4.6,9,8.1c0.3,0.5,0.6,1,0.9,1.6c0.1-0.3,0.2-0.6,0.2-0.9c-0.9-0.4-1.5-1.2-1.7-2.1c-0.2-0.6-0.3-1.3-0.3-2
	c-0.7-0.2-1.4-0.7-1.9-1.3c-1.7-2-2.3-4.7-2.7-7.3c-0.3-2-0.6-4-0.9-6c-0.7-0.6-1.5-1.2-2.2-1.7c-4.5-3.2-9.6-5.4-14.8-7
	c-0.4-0.1-0.6-0.2-1-0.3c-0.3-0.1-0.4-0.1-0.5-0.1C0.6,10.2,0.3,10.2,0,10.1"/>
<path class="st8" d="M19.5,19.5c0.3,2,0.6,4,0.9,6c0.4,2.5,1,5.3,2.7,7.3c0.5,0.6,1.2,1.1,1.9,1.3c0-0.5,0-1.1,0-1.6
	c0-1.3,0.2-2.6,0.5-3.9c0.1-0.6,0.3-1.3,0.5-1.9C24.2,23.9,22,21.5,19.5,19.5"/>
<path class="st8" d="M17,29.4c0.7,1.7,1.4,3.4,2.2,5.1c1.1,2.6,2.5,5.4,4.9,7c0.8-0.2,1.5-0.4,2.3-0.4c0.1-0.4,0.2-0.8,0.2-1.2
	c0.1-0.3,0.1-0.6,0.2-0.9c-0.3-0.5-0.6-1.1-0.9-1.6C23.8,34,20.6,31.3,17,29.4"/>
<path class="st9" d="M26.4,41c-0.8,0.1-1.5,0.2-2.3,0.5c0,0,0,0,0,0c0.6,0.4,1.3,0.8,2.1,0.9C26.3,41.9,26.4,41.5,26.4,41"/>
<path class="st8" d="M30.1,37.7c-0.6,0.4-1.2,0.6-1.9,0.6c-0.2,0-0.4,0-0.6-0.1c-0.1,0-0.3-0.1-0.4-0.1C27,38.4,27,38.7,26.9,39
	c0.2,0.5,0.4,0.9,0.6,1.4c0.1,0.2,0.2,0.4,0.2,0.6c0.1,0,0.1,0,0.2,0c0.1,0,0.1,0,0.2,0c0.5,0,0.9,0,1.3,0.1
	c0.3-0.5,0.5-1.2,0.6-1.8C30.1,38.7,30.1,38.2,30.1,37.7"/>
<path class="st9" d="M28.1,40.9c-0.1,0-0.1,0-0.2,0c-0.1,0-0.1,0-0.2,0c0.2,0.4,0.3,0.8,0.4,1.2c0,0,0,0,0.1,0
	c0.6-0.2,1-0.7,1.3-1.1C29,40.9,28.6,40.9,28.1,40.9"/>
<path class="st10" d="M26.9,39c-0.1,0.3-0.2,0.6-0.2,0.9c-0.1,0.4-0.2,0.8-0.2,1.2c0.4-0.1,0.9-0.1,1.3-0.1
	c-0.1-0.2-0.1-0.4-0.2-0.5C27.3,39.9,27.1,39.4,26.9,39"/>
<path class="st11" d="M27.7,40.9c-0.4,0-0.9,0-1.3,0.1c-0.1,0.4-0.1,0.9-0.2,1.3c0.2,0,0.4,0,0.6,0c0.4,0,0.9-0.1,1.3-0.3
	C28,41.7,27.9,41.3,27.7,40.9"/>
<path class="st7" d="M46.7,5.2c-0.2,0.1-0.5,0.2-0.8,0.3c-0.1,0.1-0.2,0.1-0.4,0.2C45.2,5.9,45,6,44.7,6.2
	c-4.3,2.3-8.4,5.2-11.8,8.8c-1.7,1.8-3.3,3.9-4.5,6.1c0.3,1.1,0.6,2.3,0.8,3.5c0.2,1.3,0.3,2.6,0.2,3.9c0,1.2-0.1,2.5-0.6,3.6
	c0,0,0,0.1,0,0.1c0.2,0.4,0.3,0.9,0.5,1.3c1.5-2.6,3.4-4.9,5.6-6.8c0.4-2,0.8-4,1.3-6.1c0.6-2.7,1.5-5.3,3.1-7.6
	c1.4-2.2,3.2-4.2,5.2-5.8C44.5,7,44.8,6.7,45,6.5L46.7,5.2"/>
<path class="st8" d="M28.3,21c-1,1.8-1.8,3.6-2.4,5.6c0.9,1.4,1.7,2.9,2.3,4.4c0.2,0.4,0.3,0.7,0.4,1.1c0,0,0-0.1,0-0.1
	c0.4-1.1,0.5-2.4,0.6-3.6c0-1.3,0-2.6-0.2-3.9C28.9,23.3,28.7,22.2,28.3,21"/>
<path class="st8" d="M34.8,26.6c-2.2,2-4.1,4.3-5.6,6.8c0.2,0.6,0.3,1.2,0.5,1.7c0.2,0.8,0.4,1.7,0.4,2.5c0.3-0.2,0.6-0.4,0.9-0.7
	c1.8-1.9,2.6-4.6,3.1-7.1C34.3,28.8,34.6,27.7,34.8,26.6"/>
<path class="st12" d="M28.7,32.1c-0.4,1-1.1,1.8-2.2,2c-0.2,0-0.3,0-0.5,0c-0.3,0-0.7-0.1-1-0.2c0,0.7,0.1,1.4,0.3,2
	c0.3,0.9,0.9,1.8,1.7,2.1c0.2-0.7,0.5-1.3,0.7-2c0.4-0.9,0.8-1.8,1.3-2.7C29.1,33,28.9,32.6,28.7,32.1"/>
<path class="st13" d="M26,26.6c-0.2,0.6-0.3,1.3-0.5,1.9c-0.3,1.3-0.4,2.6-0.5,3.9c0,0.5,0,1.1,0,1.6c0.3,0.1,0.6,0.2,1,0.2
	c0.2,0,0.3,0,0.5,0c1.1-0.2,1.8-1,2.2-2c-0.1-0.4-0.3-0.7-0.4-1.1C27.7,29.4,26.9,28,26,26.6"/>
<path class="st13" d="M29.2,33.4c-0.5,0.9-1,1.8-1.3,2.7c-0.3,0.6-0.5,1.3-0.7,2c0.1,0,0.3,0.1,0.4,0.1c0.2,0.1,0.4,0.1,0.6,0.1
	c0.7,0,1.3-0.2,1.9-0.6c-0.1-0.9-0.2-1.7-0.4-2.5C29.5,34.6,29.4,34,29.2,33.4"/>
<polyline class="st14" points="14.2,66.2 10.2,70.2 14.2,74.1 18.2,70.2 14.2,66.2 "/>
<polyline class="st14" points="22.8,66.1 18.8,70.1 22.8,74 26.8,70.1 22.8,66.1 "/>
<polyline class="st14" points="18.7,71.7 14.7,75.6 18.7,79.6 22.7,75.6 18.7,71.7 "/>
<polyline class="st14" points="14.2,55.5 10.2,59.4 14.2,63.4 18.2,59.4 14.2,55.5 "/>
<polyline class="st14" points="22.9,55.5 18.9,59.4 22.9,63.4 26.9,59.4 22.9,55.5 "/>
<polyline class="st14" points="18.6,60.8 14.6,64.8 18.6,68.8 22.5,64.8 18.6,60.8 "/>
<polyline class="st14" points="14.2,87.7 10.2,91.7 14.2,95.7 18.2,91.7 14.2,87.7 "/>
<polyline class="st14" points="22.9,87.7 18.9,91.7 22.9,95.7 26.9,91.7 22.9,87.7 "/>
<polyline class="st14" points="17.9,93.5 13.9,97.5 17.9,101.4 21.9,97.5 17.9,93.5 "/>
<polyline class="st14" points="18.1,50.2 14.2,54.1 18.1,58.1 22.1,54.1 18.1,50.2 "/>
<polyline class="st14" points="9.1,70.7 5.2,74.7 9.1,78.6 13.1,74.7 9.1,70.7 "/>
<polyline class="st14" points="9.5,61.3 5.6,65.2 9.5,69.2 13.5,65.2 9.5,61.3 "/>
<polyline class="st14" points="9.5,82.4 5.5,86.3 9.5,90.3 13.4,86.3 9.5,82.4 "/>
<polyline class="st14" points="13.6,76.7 9.7,80.6 13.6,84.6 17.6,80.6 13.6,76.7 "/>
<polyline class="st14" points="22.9,77 18.9,80.9 22.9,84.9 26.9,80.9 22.9,77 "/>
<polyline class="st14" points="18.6,82.4 14.6,86.3 18.6,90.3 22.5,86.3 18.6,82.4 "/>
</svg>
