<?xml version="1.0" encoding="utf-8"?>
<!-- Generator: Adobe Illustrator 28.0.0, SVG Export Plug-In . SVG Version: 6.00 Build 0)  -->
<svg version="1.1" id="Layer_1" xmlns="http://www.w3.org/2000/svg" xmlns:xlink="http://www.w3.org/1999/xlink" x="0px" y="0px"
	 width="61px" height="73.4px" viewBox="0 0 61 73.4" style="enable-background:new 0 0 61 73.4;" xml:space="preserve">
<style type="text/css">
	.st0{fill:#FFE79C;}
	.st1{fill:#EFC800;}
	.st2{fill:#FFFBB3;}
	.st3{fill:#FFF539;}
</style>
<path class="st0" d="M46.7,0c-2,0-3.9,1.1-4.8,3.1c-1.4,3.1-0.9,11.3-1,14.3c-0.2,6.8-2.1,12.6-2.6,13.9c0.1,0,0.1,0,0.2,0
	c0.2,0,0.4,0,0.6,0c0.2,0,0.4,0,0.6,0c0.1,0,0.2,0,0.2,0c0.5,0,1.1,0,1.6,0c1.2,0,2.5,0.1,3.7,0.1c1.2,0,2.5,0.1,4.4,0.3
	c2.2,0.2,3.2,0.3,5.7,0.7c0.2,0,0.3,0.1,0.5,0.1c0.5-4,0.9-10.9,0.7-13.3c-0.2-2.5-1.7-11.6-3.3-14.1c-1.4-2.3-2.4-4.3-5.1-5
	C47.7,0.1,47.2,0,46.7,0"/>
<path class="st1" d="M57.9,38c0.2-1.1,0.3-3,0.1-4.1c-0.2-0.9-1.8-1.2-2.7-1.4c-2.4-0.4-3.5-0.5-5.7-0.7c-4.9-0.4-5.8-0.3-10.6-0.4
	c-1.2,0-1.9,0-3.1,0.1c-0.6,0-0.8,0.5-0.9,1.1c-0.1,0.5,0.1,0.9,0.2,1.3c-1.6,4-1.2,3.5-5.6,9.3c-6.1,8.1-8.1,5.4-17.3,15.7
	c-3.8,4.2-6.6,3.6-12,5.5c-0.3,0.1-0.5,0.5-0.3,0.7c0.8,1,1.5,1.9,2.3,2.9c0.6,0.7,1.2,1.3,2.1,0.9c0.9-0.3,1.6-1.1,2.4-1.6
	c0.9-0.5,1.8-0.9,2.7-1.3c3.9-1.4,4.7,0,8.8,0c4.4,0,8.8,0.1,13-1.1c3.6-1,7-2.8,9.9-5.1c6.6-5,8.5-7,13.1-14.2
	c1.7-2.7,1.7-2.9,2-3.4C57,41.2,57.6,39.4,57.9,38"/>
<path class="st0" d="M57.3,33.1c0.3,0.2,0.6,0.4,0.6,0.8c0.2,1.1,0.2,3-0.1,4.1c-0.3,1.5-0.9,3.3-1.4,4.3c-0.3,0.5-0.3,0.7-2,3.4
	c-4.1,6.3-6,8.6-10.9,12.6c0,0.1,0.1,0.3,0.1,0.4c0.4,2,0.3,3.9,0.2,5.9c-0.1,1.9-0.1,3.8,0.6,5.6c0.9,2.2,2.1,3.2,3.5,3.2
	c0.9,0,1.9-0.4,3-1.3c2.3-1.8,4.7-6,5.9-9.5c2.9-8.3,3.9-11.9,4.1-20c0.1-3.2-1-6.5-2-8.1C58.6,33.8,58,33.4,57.3,33.1 M38.3,31.3
	c0,0-0.1,0-0.2,0c-1.7,0.2-2.6-0.3-3.1,0.9c-0.2,0.6,0,0.8,0.1,1.7c0,0,0-0.1,0.1-0.2c-0.1-0.4-0.3-0.8-0.2-1.3
	c0.1-0.5,0.3-1,0.9-1.1C36.8,31.4,37.5,31.4,38.3,31.3C38.2,31.3,38.2,31.3,38.3,31.3"/>
<path class="st2" d="M41.5,31.3c-0.5,0-1.1,0-1.6,0c-0.1,0-0.2,0-0.2,0c-0.2,0-0.4,0-0.6,0c-0.2,0-0.4,0-0.6,0c-0.1,0-0.1,0-0.2,0
	c0,0,0,0,0,0c0.1,0,0.2,0,0.4,0c0.1,0,0.3,0,0.4,0c2.9,0,4.4,0,6.2,0.1C44,31.4,42.7,31.3,41.5,31.3"/>
<path class="st3" d="M38.6,31.4c-0.1,0-0.2,0-0.4,0c-0.8,0-1.4,0-2.3,0.1c-0.6,0-0.8,0.5-0.9,1.1c-0.1,0.5,0.1,0.9,0.2,1.3
	c0,0,0,0.1-0.1,0.2c0,0.5,0.1,1.1,0,2.1c-0.1,1-0.1,2,0,2.9c0.2,1.9,0.6,3.8,1.4,5.6c0.9,1.8,2.1,3.2,3.3,4.8c2.1,2.9,3,5.3,3.8,8.8
	c4.9-3.9,6.9-6.2,10.9-12.6c1.7-2.7,1.7-2.9,2-3.4c0.5-1,1.1-2.8,1.4-4.3c0.2-1.1,0.3-3,0.1-4.1c-0.1-0.3-0.3-0.6-0.6-0.8
	c-1.1-0.5-2.6-0.7-4.4-1c-2.1-0.3-4.4-0.5-6.4-0.6c-0.4,0-0.8-0.1-1.3-0.1c-1.8-0.1-3.3-0.1-6.2-0.1C38.9,31.4,38.8,31.4,38.6,31.4"
	/>
</svg>
