<?xml version="1.0" encoding="UTF-8"?>
<svg id="Layer_2" xmlns="http://www.w3.org/2000/svg" width="81.86" height="112.64" viewBox="0 0 81.86 112.64">
  <defs>
    <style>
      .cls-1 {
        fill: #fff8e6;
      }

      .cls-2 {
        fill: #f1c630;
      }

      .cls-3 {
        fill: #3767d3;
      }

      .cls-4 {
        fill: #ffe79c;
      }

      .cls-5 {
        fill: #345028;
      }

      .cls-6 {
        fill: #fff55f;
      }
    </style>
  </defs>
  <g id="Layer_1-2" data-name="Layer_1">
    <g>
      <path class="cls-2" d="M70.45,56.55c0,27.32-6.34,49.74-35.23,49.47C8.01,105.76,0,83.87,0,56.55S5.62,6.99,35.23,7.08c28.41.09,35.23,22.15,35.23,49.47"/>
      <path class="cls-4" d="M60.42,17.26c7.68,9.03,10.03,23.25,10.03,39.29,0,27.16-6.26,49.47-34.71,49.47-.17,0-.34,0-.51,0-3.68-.03-7.01-.47-10.02-1.25,5.4,4.99,12.15,7.89,20.6,7.89,2.68,0,5.53-.29,8.56-.9,28.97-5.82,30.59-29.59,24.83-56.93-3.43-16.3-8.89-30.22-18.78-37.55"/>
      <path class="cls-6" d="M42.76,11.71c-2.86,0-5.94.33-9.24,1.01C3.87,18.87,2.93,42.32,8.68,69.66c3.1,14.74,8.2,27.41,16.52,35.1,3.01.79,6.34,1.22,10.02,1.25.17,0,.34,0,.51,0,28.45,0,34.71-22.31,34.71-49.47,0-16.03-2.35-30.26-10.03-39.29-4.77-3.54-10.57-5.54-17.66-5.54"/>
      <path class="cls-2" d="M60.2,56.07c2.26,15.15-1.28,28.57-15.44,30.35-14.65,1.84-21.37-9.37-23.63-24.52s1.83-28.33,15.44-30.35c12.75-1.9,21.37,9.37,23.63,24.52Z"/>
      <path class="cls-1" d="M43.97,49.56c.78-1.79,2.24-3.28,4.02-4.08.15-.07.3-.13.46-.11l.39.18c.29.2.59.46.62.81.03.32-.18.6-.38.85-.96,1.17-2.07,2.23-3.3,3.12-.4.29-1.31,1.18-1.84.87-.56-.33-.18-1.18.02-1.64Z"/>
      <path class="cls-1" d="M48.45,51.28c1.33-1.44,3.2-2.35,5.15-2.53.16-.01.33-.02.47.05l.31.3c.21.28.41.63.32.97-.08.31-.37.51-.64.68-1.3.79-2.69,1.42-4.15,1.86-.48.14-1.62.68-2.02.21-.42-.5.22-1.18.56-1.54Z"/>
      <path class="cls-1" d="M37.3,42.56c.78-1.79,2.24-3.28,4.02-4.08.15-.07.3-.13.46-.11l.39.18c.29.2.59.46.62.81.03.32-.18.6-.38.85-.96,1.17-2.07,2.23-3.3,3.12-.4.29-1.31,1.18-1.84.87-.56-.33-.18-1.18.02-1.64Z"/>
      <path class="cls-1" d="M41.78,44.27c1.33-1.44,3.2-2.35,5.15-2.53.16-.01.33-.02.47.05l.31.3c.21.28.41.63.32.97-.08.31-.37.51-.64.68-1.3.79-2.69,1.42-4.15,1.86-.48.14-1.62.68-2.02.21-.42-.5.22-1.18.56-1.54Z"/>
      <path class="cls-1" d="M46.23,55.71c1.65-1.05,3.69-1.46,5.62-1.13.16.03.32.06.44.17l.22.37c.13.33.24.71.06,1.02-.16.28-.49.4-.79.49-1.45.44-2.96.69-4.48.74-.5.02-1.74.25-2.01-.31-.28-.59.52-1.08.93-1.35Z"/>
      <path class="cls-1" d="M50.46,59.18c1.65-1.05,3.69-1.46,5.62-1.13.16.03.32.06.44.17l.22.37c.13.33.24.71.06,1.02-.16.28-.49.4-.79.49-1.45.44-2.96.69-4.48.74-.5.02-1.74.25-2.01-.31-.28-.59.52-1.08.93-1.35Z"/>
      <path class="cls-1" d="M48.04,64.4c1.7-.96,3.77-1.26,5.67-.83.16.04.32.08.44.19l.2.38c.11.34.2.73,0,1.02-.17.27-.51.37-.82.45-1.48.36-3,.52-4.52.5-.5,0-1.75.15-1.99-.42-.25-.6.57-1.05,1-1.29Z"/>
      <path class="cls-1" d="M50.58,68.47c1.92-.34,3.97.05,5.63,1.09l.35.32.07.42c0,.35-.05.75-.33.97-.25.2-.6.18-.92.15-1.51-.15-3-.49-4.43-1.02-.47-.17-1.71-.43-1.74-1.05-.03-.65.89-.8,1.37-.89Z"/>
      <path class="cls-1" d="M46.14,70.66c1.95.16,3.83,1.06,5.17,2.48.11.12.22.24.25.4l-.04.43c-.09.34-.24.71-.57.85-.29.13-.63.03-.93-.09-1.42-.53-2.78-1.24-4.02-2.11-.41-.28-1.54-.85-1.42-1.46.13-.64,1.06-.55,1.56-.51Z"/>
      <path class="cls-1" d="M47.42,75.98c1.95.16,3.83,1.06,5.17,2.48.11.12.22.24.25.4l-.04.43c-.09.34-.24.71-.57.85-.29.13-.63.03-.93-.09-1.42-.53-2.78-1.24-4.02-2.11-.41-.28-1.54-.85-1.42-1.46.13-.64,1.06-.55,1.56-.51Z"/>
      <path class="cls-1" d="M34.58,51.94c-1.47-1.29-3.43-2.01-5.38-1.98-.16,0-.33.01-.46.1l-.28.33c-.18.31-.34.67-.22,1,.11.3.42.47.71.61,1.37.65,2.83,1.13,4.32,1.41.49.09,1.69.51,2.03,0,.37-.54-.35-1.15-.72-1.47Z"/>
      <path class="cls-1" d="M31.26,55.4c-1.81-.73-3.9-.77-5.73-.09-.15.06-.31.12-.41.25l-.15.4c-.07.35-.1.74.12,1.02.2.24.55.3.87.34,1.51.16,3.04.13,4.54-.09.49-.07,1.76-.07,1.92-.67.17-.63-.7-.97-1.16-1.15Z"/>
      <path class="cls-1" d="M35.69,43.61c-1.03-1.66-2.7-2.91-4.58-3.45-.15-.04-.32-.08-.47-.04l-.36.23c-.26.24-.52.54-.5.89.02.32.27.57.5.78,1.12,1.02,2.38,1.9,3.72,2.6.44.23,1.47.98,1.95.59.51-.41,0-1.2-.26-1.62Z"/>
      <path class="cls-1" d="M34.3,46.22c-1.81-.73-3.9-.77-5.73-.09-.15.06-.31.12-.41.25l-.15.4c-.07.35-.1.74.12,1.02.2.24.55.3.87.34,1.51.16,3.04.13,4.54-.09.49-.07,1.76-.07,1.92-.67.17-.63-.7-.97-1.16-1.15Z"/>
      <path class="cls-1" d="M35.16,58.46c-1.94-.25-3.96.25-5.57,1.37l-.33.34-.05.43c.02.35.09.75.38.95.26.19.61.15.92.11,1.5-.23,2.97-.64,4.37-1.24.46-.19,1.68-.52,1.68-1.14,0-.65-.93-.76-1.42-.82Z"/>
      <path class="cls-1" d="M32.81,63.4c-1.94-.25-3.96.25-5.57,1.37l-.33.34-.05.43c.02.35.09.75.38.95.26.19.61.15.92.11,1.5-.23,2.97-.64,4.37-1.24.46-.19,1.68-.52,1.68-1.14,0-.65-.93-.76-1.42-.82Z"/>
      <path class="cls-1" d="M37.22,67.09c-1.95-.14-3.94.47-5.48,1.67l-.31.36-.02.43c.04.35.13.74.43.93.27.17.62.12.93.06,1.49-.31,2.93-.8,4.3-1.47.45-.22,1.65-.61,1.62-1.23-.03-.65-.97-.71-1.46-.74Z"/>
      <path class="cls-1" d="M36.66,71.86c-1.89.51-3.57,1.74-4.63,3.38-.09.14-.17.28-.18.44l.12.41c.16.32.37.66.71.74.31.07.62-.09.9-.25,1.3-.78,2.5-1.73,3.57-2.81.35-.35,1.36-1.12,1.13-1.69-.25-.6-1.14-.35-1.62-.22Z"/>
      <path class="cls-1" d="M40.48,73.27c-1.7.97-3.01,2.59-3.61,4.45-.05.15-.09.32-.06.47l.22.37c.23.27.52.54.88.53.32,0,.58-.24.8-.47,1.06-1.09,1.98-2.31,2.74-3.62.25-.43,1.03-1.43.66-1.92-.39-.52-1.2-.04-1.62.2Z"/>
      <path class="cls-1" d="M42.74,77.63c-1.3,1.46-2.02,3.42-2,5.37,0,.16.01.33.1.47l.33.28c.3.18.67.34,1,.22.3-.11.47-.42.61-.7.66-1.37,1.14-2.82,1.43-4.31.1-.49.52-1.68,0-2.03-.54-.37-1.15.34-1.47.71Z"/>
      <path class="cls-3" d="M28.22,0c-2,0-4.6,1.48-4.72,1.52-2.21,3.63-1.67,6.79-1.54,7.41,2.52-.82,5.31-1.38,8.41-1.65-1.47-3.45,0-5.86,0-5.86C30.04.36,29.2,0,28.22,0"/>
      <path class="cls-5" d="M30.37,7.28c-3.1.28-5.89.84-8.41,1.65.02.07.03.11.03.11.18,1.74,1.35,2.32,2.8,2.32,2.8,0,6.68-2.13,6.68-2.13-.48-.68-.84-1.33-1.1-1.95"/>
    </g>
  </g>
</svg>