<?xml version="1.0" encoding="utf-8"?>
<!-- Generator: Adobe Illustrator 28.0.0, SVG Export Plug-In . SVG Version: 6.00 Build 0)  -->
<svg version="1.1" id="Layer_1" xmlns="http://www.w3.org/2000/svg" xmlns:xlink="http://www.w3.org/1999/xlink" x="0px" y="0px"
	 width="61.4px" height="66px" viewBox="0 0 61.4 66" style="enable-background:new 0 0 61.4 66;" xml:space="preserve">
<style type="text/css">
	.st0{fill:#C66F34;}
	.st1{fill:#FFFCE2;}
	.st2{fill:#F7E7B3;}
	.st3{fill:#F7D16E;}
</style>
<path class="st0" d="M57.5,32.2C57.5,48.1,44.6,61,28.7,61S0,48.1,0,32.2S12.9,3.5,28.7,3.5S57.5,16.4,57.5,32.2"/>
<path class="st0" d="M22.2,4.7c-1.2-1.7-1.7-2.5-4.8-3.8c2.7,0,5.6,0.4,7.9,1.7c2.3-1.9,5-2.5,7.9-2.6c-2.2,1.3-4.1,3.1-5.7,5.1
	c-1-0.2-3,0.3-3.9,0.1c-0.3-0.1-0.9-0.1-1.2,0c-0.3,0.1,0.7,0.2,0.8,0.4"/>
<path class="st1" d="M54.7,19.8c1.8,3.8,2.8,8,2.8,12.4C57.5,48.1,44.6,61,28.8,61c-6.6,0-12.7-2.2-17.5-6c5.1,6.7,13.2,11,22.2,11
	c15.4,0,28-12.5,28-28C61.4,31.1,58.8,24.7,54.7,19.8"/>
<path class="st2" d="M32.4,51c-0.9,0-1.8-0.1-2.7-0.3c-7.2-1.6-11.5-9.3-9.8-17.2c1.5-6.9,7.3-11.7,13.5-11.7c0.9,0,1.8,0.1,2.7,0.3
	c7.2,1.6,11.5,9.3,9.8,17.2C44.3,46.3,38.6,51,32.4,51 M33.4,10c-15.4,0-28,12.5-28,28c0,6.4,2.2,12.3,5.8,17c4.8,3.8,10.9,6,17.5,6
	c15.9,0,28.7-12.9,28.7-28.7c0-4.5-1-8.7-2.8-12.4C49.5,13.8,41.9,10,33.4,10"/>
<path class="st3" d="M33.5,21.9c-6.2,0-11.9,4.8-13.5,11.7c-1.8,7.9,2.6,15.6,9.8,17.2c0.9,0.2,1.8,0.3,2.6,0.3
	c6.2,0,11.9-4.8,13.5-11.7c1.8-7.9-2.6-15.6-9.8-17.2C35.2,22,34.3,21.9,33.5,21.9"/>
</svg>
