<?xml version="1.0" encoding="UTF-8"?>
<svg id="Layer_2" xmlns="http://www.w3.org/2000/svg" width="107.31" height="67.26" viewBox="0 0 107.31 67.26">
  <defs>
    <style>
      .cls-1 {
        fill: #f8390d;
      }

      .cls-2 {
        fill: #ed7e10;
      }

      .cls-3 {
        fill: #e55c93;
      }

      .cls-4 {
        fill: #f97c1b;
      }

      .cls-5 {
        fill: #891f3f;
      }

      .cls-6 {
        fill: #f8b438;
      }

      .cls-7 {
        fill: #f42985;
      }

      .cls-8 {
        fill: #fc8c30;
      }

      .cls-9 {
        fill: #c83a6e;
      }
    </style>
  </defs>
  <g id="Layer_1-2" data-name="Layer_1">
    <g>
      <path class="cls-5" d="M77.63,24.09c-3.51,0-6.79.68-9.55,2-.12-.41-.27-.81-.45-1.21-.79-1.72-2.03-2.9-3.69-3.51l-.26.12c-.06.11-.06.27,0,.41l2.24,5.43c-2.02,1.38-3.65,3.18-4.72,5.37-.5,1.03-.86,2.11-1.08,3.21-.04.08-.08.15-.11.23-2.31,4.74-1.99,10.22.4,15.25.82-.56,1.63-1.13,2.4-1.76,8.11-6.62,12.62-16.47,18.29-25.35,0,0,0,0,0,0-1.17-.14-2.32-.21-3.44-.21Z"/>
      <path class="cls-5" d="M21.97,44.05l-.34.05-.1.33,2.4,8.92.27.23h.04s.28-.16.28-.16c.07-.13,1.79-3.15.86-5.97-.5-1.5-1.64-2.64-3.42-3.41Z"/>
      <path class="cls-5" d="M79.17,5.91l-.34.05-.1.33,2.4,8.92.27.23h.04s.28-.16.28-.16c.07-.13,1.79-3.15.86-5.97-.5-1.5-1.64-2.64-3.42-3.41Z"/>
      <path class="cls-5" d="M30.39,22.81l-.26.12c-.06.11-.06.27,0,.41l4.26,10.33c.06.14.17.23.28.23h.04s.19-.24.19-.24c.03-.17.68-4.11-.81-7.34-.79-1.72-2.03-2.9-3.69-3.51Z"/>
      <path class="cls-5" d="M46.91,35.6l-.26.12c-.06.11-.06.27,0,.41l4.26,10.33c.06.14.17.23.28.23h.04s.19-.25.19-.25c.03-.17.68-4.11-.81-7.34-.79-1.72-2.03-2.9-3.69-3.51Z"/>
      <path class="cls-5" d="M46.93,8.26l-.28.12c-.06.11-.06.27,0,.41l4.37,10.31c.06.14.17.23.29.23,0,0,0,0,0,0h.04s.2-.25.2-.25c.03-.17.76-4.12-.77-7.35-.81-1.72-2.11-2.88-3.84-3.48Z"/>
      <path class="cls-9" d="M95.53,6.46c.06-.21.11-.41.15-.63.02-.09.03-.19.05-.28.04-.25.06-.5.06-.74,0-.05,0-.1,0-.15,0-.06-.01-.13-.01-.19,0-.31-.04-.61-.09-.91-.02-.12-.06-.23-.08-.35-.06-.24-.13-.47-.23-.69-.05-.12-.1-.23-.16-.34-.11-.21-.25-.41-.39-.6-.07-.09-.13-.18-.2-.26-.24-.26-.5-.49-.82-.68-.29-.17-.59-.29-.9-.38-.06-.02-.13-.04-.19-.06-.3-.08-.61-.14-.93-.17-.06,0-.11,0-.17-.01-.3-.02-.6-.03-.9-.03-.4,0-.8.02-1.19.04-8.47.47-16.94.93-25.4,1.4-6.76.37-13.63.77-20.03,3-1.73.6-3.4,1.34-5.01,2.18-6.99,3.66-12.86,9.43-17.46,15.9l-.03.04c-3.76,5.32-5.61,11.84-9.52,17.03-.19.25-.41.5-.64.75-.08.09-.18.17-.26.26-.17.17-.33.33-.52.5-.11.1-.24.21-.36.31-.18.15-.35.3-.54.45-.14.11-.28.22-.42.33-.19.15-.38.29-.57.44-.15.11-.31.23-.46.34-.1.07-.19.15-.29.22-.11.08-.22.16-.32.23-.18.13-.36.26-.54.39-.28.2-.56.4-.84.6-.21.15-.43.31-.64.46-.17.12-.33.24-.5.36-.21.15-.41.31-.61.46-.15.11-.3.23-.44.34-.21.16-.41.32-.61.49-.13.1-.26.21-.38.31-.22.19-.43.38-.64.57-.09.08-.18.16-.26.24-.28.27-.54.54-.78.81-.05.05-.08.11-.13.16-.18.22-.36.43-.51.65-.07.1-.11.19-.17.29-.11.18-.22.35-.3.53-.05.11-.08.22-.12.33-.06.17-.12.33-.16.5-.03.12-.03.23-.05.35-.02.18-.03.35-.02.53,0,.07.01.14.02.21.04.26.1.52.22.79.13.3.31.57.51.84.05.07.11.14.17.21.18.22.39.44.62.64.04.04.08.08.12.12.28.23.58.45.91.66.08.05.17.1.26.16.28.17.58.33.89.48.09.04.17.09.26.13.39.18.81.35,1.25.51.09.03.19.07.29.1.37.13.75.25,1.15.37.12.04.25.07.37.11.49.14.99.26,1.51.38.06.01.11.02.17.04.48.11.97.2,1.47.29.14.03.29.05.44.08.52.09,1.05.17,1.59.25.04,0,.07.01.11.02.58.08,1.17.15,1.77.22.15.02.3.03.46.05.5.05,1.01.1,1.52.15.11,0,.21.02.32.03.61.05,1.21.09,1.82.13.14,0,.27.02.41.02.51.03,1.02.06,1.52.08.13,0,.26.01.4.02.61.02,1.22.05,1.82.06.08,0,.16,0,.24,0,.53.01,1.06.02,1.58.03.13,0,.27,0,.4,0,.59,0,1.17.01,1.73.01.47,0,.93,0,1.38,0,.1,0,.19,0,.28,0,.35,0,.7,0,1.03-.01.12,0,.24,0,.36,0,.3,0,.6-.01.89-.02.12,0,.25,0,.37,0,.28,0,.56-.01.83-.02.11,0,.23,0,.34,0,.26,0,.52-.01.77-.02.1,0,.2,0,.29,0,.26,0,.52-.02.76-.02.07,0,.13,0,.2,0,.6-.02,1.14-.04,1.58-.05,1.16-.04,2.33-.11,3.49-.22.38-.03.76-.09,1.14-.13.78-.09,1.57-.18,2.35-.3.45-.07.9-.16,1.35-.24.71-.13,1.41-.26,2.11-.41.47-.1.94-.22,1.41-.34.67-.17,1.33-.35,1.99-.54.47-.14.94-.29,1.41-.45.64-.21,1.28-.45,1.91-.69.46-.18.92-.36,1.37-.55.63-.27,1.25-.56,1.86-.86.43-.21.86-.42,1.29-.64.63-.34,1.24-.7,1.84-1.08.38-.23.77-.46,1.15-.71.1-.07.2-.15.3-.22-2.38-5.04-2.71-10.51-.4-15.25.04-.08.07-.15.11-.23.22-1.1.58-2.18,1.08-3.21,1.07-2.2,2.69-4,4.72-5.37l-2.24-5.43c-.06-.14-.06-.3,0-.41l.26-.12c1.66.61,2.9,1.79,3.69,3.51.18.39.33.8.45,1.21,2.76-1.32,6.04-2,9.55-2,1.13,0,2.28.07,3.44.21,0,0,0,0,0,0,.58-.91,1.18-1.81,1.8-2.7.19-.27.38-.54.57-.81.45-.63.9-1.25,1.37-1.85.23-.3.47-.6.7-.89.47-.59.96-1.17,1.47-1.74.23-.26.45-.52.68-.78.74-.8,1.5-1.58,2.3-2.33.94-.87,1.95-1.71,2.86-2.62s1.73-1.89,2.31-3.04c0,0,0,0,0,0,.13-.26.23-.53.33-.81.03-.08.05-.17.08-.26ZM24.52,53.43l-.28.16h-.04s-.27-.24-.27-.24l-2.4-8.92.1-.33.34-.05c1.77.76,2.92,1.91,3.42,3.41.93,2.82-.79,5.84-.86,5.97ZM34.89,33.66l-.19.24h-.04s0,0,0,0c-.11,0-.22-.09-.28-.23l-4.26-10.33c-.06-.14-.06-.3,0-.41l.26-.12c1.66.61,2.9,1.79,3.69,3.51,1.49,3.23.83,7.18.81,7.34ZM51.41,46.45l-.19.24h-.03s0,0,0,0c-.11,0-.22-.09-.28-.23l-4.26-10.33c-.06-.14-.06-.3,0-.41l.26-.12c1.66.61,2.9,1.79,3.69,3.51,1.49,3.23.83,7.18.81,7.34ZM51.54,19.09l-.2.24h-.04s0,0,0,0c-.11,0-.23-.09-.29-.23l-4.37-10.31c-.06-.14-.06-.3,0-.41l.28-.12c1.74.59,3.03,1.76,3.84,3.48,1.53,3.23.8,7.18.77,7.35ZM81.73,15.29l-.28.16h-.04s-.27-.24-.27-.24l-2.4-8.92.1-.33.34-.05c1.77.76,2.92,1.91,3.42,3.41.93,2.82-.79,5.84-.86,5.97Z"/>
      <path class="cls-3" d="M63.28,49.23c-.16.14-.33.28-.5.41-.77.63-1.57,1.22-2.39,1.78,2.44,5.13,7.02,9.8,13.14,12.79,4.23,2.06,8.65,3.04,12.8,3.04,7.76,0,14.61-3.44,17.65-9.68.04-.08.07-.15.11-.23-3.24,3.78-8.56,5.79-14.59,5.79-4.41,0-9.2-1.08-13.83-3.33-5.38-2.62-9.66-6.4-12.4-10.57"/>
      <path class="cls-7" d="M60.1,35.92c-.04.08-.08.15-.11.23-2.31,4.75-1.99,10.24.41,15.28.82-.56,1.62-1.15,2.39-1.78.17-.14.33-.27.5-.41-2.23-3.39-3.46-7.03-3.46-10.52,0-.94.09-1.88.27-2.79"/>
      <path class="cls-6" d="M84.78,52.67c-.93-1.95-.96-4.26-.09-6.24.92,1.95.96,4.26.09,6.24M96.51,51.33c-3.14-1.36-5.89-3.56-7.9-6.32,3.14,1.36,5.89,3.55,7.9,6.32M74.28,46.43s-.07,0-.1,0c1.82-1.65,4.22-2.56,6.67-2.56.03,0,.05,0,.08,0-1.81,1.63-4.2,2.56-6.64,2.56M88.92,40.87s-.07,0-.1,0c1.82-1.65,4.22-2.56,6.67-2.56.03,0,.05,0,.08,0-1.81,1.63-4.2,2.56-6.65,2.56M84.78,38.6c-.93-1.95-.96-4.26-.09-6.24.92,1.95.96,4.26.09,6.24M81.07,24.31c-2.16,3.39-4.16,6.92-6.25,10.37,2.27,1.33,4.25,3.12,5.8,5.25-2.38-1.03-4.53-2.54-6.31-4.42-3.13,5.07-6.51,9.91-11.02,13.72,2.75,4.17,7.02,7.95,12.4,10.57,4.63,2.25,9.42,3.33,13.83,3.33,7.39,0,13.72-3.02,16.44-8.62.92-1.89,1.35-3.91,1.35-6,0-7.79-6.1-16.35-15.86-21.1-3.45-1.68-6.98-2.7-10.39-3.12"/>
      <path class="cls-4" d="M68.07,26.1c-.77.37-1.49.78-2.17,1.24l2.02,4.9c.06.14.17.23.28.23h.04s.19-.24.19-.24c.02-.15.53-3.2-.35-6.13"/>
      <path class="cls-8" d="M77.63,24.09c-3.51,0-6.79.68-9.55,2,.88,2.93.38,5.99.35,6.13l-.19.24h-.04s0,0,0,0c-.11,0-.22-.09-.28-.23l-2.02-4.9c-2.02,1.38-3.65,3.18-4.72,5.37-.92,1.89-1.35,3.91-1.35,6,0,3.49,1.23,7.14,3.46,10.52,4.51-3.82,7.9-8.65,11.02-13.72-.57-.6-1.1-1.24-1.59-1.9.72.31,1.42.67,2.1,1.07,2.09-3.44,4.09-6.98,6.25-10.37-1.17-.14-2.32-.21-3.44-.21"/>
      <path class="cls-2" d="M74.82,34.67c-.17.28-.34.56-.51.84,1.78,1.88,3.93,3.39,6.31,4.42-1.55-2.13-3.54-3.92-5.8-5.25"/>
      <path class="cls-1" d="M72.72,33.6c.49.67,1.02,1.31,1.59,1.9.17-.28.34-.56.51-.84-.68-.4-1.38-.76-2.1-1.07"/>
      <path class="cls-2" d="M88.61,45.01c2.02,2.76,4.76,4.97,7.9,6.32-2.01-2.77-4.76-4.96-7.9-6.32"/>
      <path class="cls-2" d="M84.69,32.37c-.87,1.98-.84,4.28.09,6.24.87-1.98.83-4.28-.09-6.24"/>
      <path class="cls-2" d="M84.69,46.43c-.87,1.98-.84,4.28.09,6.24.87-1.98.83-4.28-.09-6.24"/>
      <path class="cls-2" d="M95.48,38.31c-2.45,0-4.85.92-6.67,2.56.03,0,.07,0,.1,0,2.44,0,4.83-.93,6.65-2.56-.03,0-.05,0-.08,0"/>
      <path class="cls-2" d="M80.85,43.87c-2.45,0-4.85.92-6.67,2.56.03,0,.07,0,.1,0,2.44,0,4.83-.93,6.64-2.56-.03,0-.05,0-.08,0"/>
    </g>
  </g>
</svg>