<?xml version="1.0" encoding="UTF-8"?>
<svg id="Layer_2" xmlns="http://www.w3.org/2000/svg" width="92.98" height="102.02" viewBox="0 0 92.98 102.02">
  <defs>
    <style>
      .cls-1 {
        fill: #ffcfcd;
      }

      .cls-2 {
        fill: #85b38a;
      }

      .cls-3 {
        fill: #005234;
      }

      .cls-4 {
        fill: #54906c;
      }

      .cls-5 {
        fill: #d9e4cf;
      }

      .cls-6 {
        fill: #8cb2ac;
      }

      .cls-7 {
        fill: #f1ffcd;
      }

      .cls-8 {
        fill: #ff5582;
      }

      .cls-9 {
        fill: #dee3c9;
      }

      .cls-10 {
        fill: #145c26;
      }

      .cls-11 {
        fill: #00754e;
      }

      .cls-12 {
        fill: #39a249;
      }

      .cls-13 {
        fill: #236d24;
      }

      .cls-14 {
        fill: #004229;
      }

      .cls-15 {
        fill: #599087;
      }

      .cls-16 {
        fill: #1f7131;
      }

      .cls-17 {
        fill: #65c144;
      }
    </style>
  </defs>
  <g id="Layer_1-2" data-name="Layer_1">
    <g>
      <path class="cls-11" d="M39.38,14.83c-.38,0-.73-.26-.81-.65,0-.03-.72-3.09-2.88-4.56-.8-.54-1.85-1.26-2.79-2.13-.95.15-1.88.11-2.56-.07-2.55-.68-4.32-2.14-4.72-3.9-.28-1.24.14-2.45,1.15-3.32.35-.3.88-.26,1.18.09.3.35.26.88-.09,1.18-.54.46-.75,1.06-.61,1.68.2.89,1.24,2.05,3.52,2.66.22.06.48.09.76.11-.73-1.1-1.07-2.37-.55-3.75.3-.79.82-1.36,1.51-1.66,1.22-.54,2.52-.04,2.66.02.82.32,2.3,1.49,1.99,3.59-.15.98-.72,1.82-1.67,2.44-.21.14-.43.26-.67.37.54.43,1.15.87,1.81,1.32,2.72,1.85,3.54,5.43,3.57,5.58.1.45-.18.89-.63.99l-.18.02M33.73,1.92c-.19,0-.39.03-.57.11-.27.12-.47.36-.61.73-.37.97,0,1.92.9,2.9.4-.12.79-.29,1.12-.51.54-.36.85-.79.93-1.3.2-1.32-.91-1.77-.95-1.79-.14-.06-.47-.14-.81-.14"/>
      <path class="cls-11" d="M89.81,32.51c8.7,20.87-1.16,44.84-22.02,53.55s-44.84-1.16-53.55-22.02c-8.7-20.87,1.16-44.84,22.02-53.55,20.87-8.7,44.84,1.16,53.55,22.02"/>
      <path class="cls-7" d="M67.82,86.04s-.02,0-.03.01h0s.02,0,.03-.01h0M90.6,61.99c-.63,1.75-1.37,3.46-2.22,5.11-2.24,4.33-5.25,8.27-8.95,11.59-.44.4-.9.79-1.36,1.17,5.79-4.77,10.08-10.99,12.53-17.88M92.83,51.79s0,.02,0,.02c0,0,0-.02,0-.02M88.39,29.45c.76,1.47,1.43,3,2.02,4.58,1.5,4.03,2.32,8.15,2.52,12.24.09,1.85.06,3.69-.1,5.51.55-6.37-.38-12.96-3.01-19.28-.44-1.05-.91-2.06-1.42-3.05M88.35,29.36s.01.03.02.04c0-.01-.01-.03-.02-.04M88.3,29.28s.01.02.02.03c0,0-.01-.02-.02-.03M88.26,29.19s0,.02.01.03c0,0,0-.02-.01-.03M88.21,29.1s.01.02.02.03c0,0-.01-.02-.02-.03M88.16,29.01s.01.02.02.03c0-.01-.01-.02-.02-.03M88.11,28.92s.01.03.02.04c0-.01-.01-.03-.02-.04M88.06,28.83s.02.03.03.05c0-.02-.02-.03-.03-.05M88.01,28.73s.02.04.03.06c-.01-.02-.02-.04-.03-.06M87.96,28.63s.03.05.04.07c-.01-.02-.03-.05-.04-.07M39.91,9.16c-.36.11-.73.23-1.09.36.36-.12.73-.24,1.09-.36,0,0,0,0,0,0"/>
      <path class="cls-12" d="M88.38,67.1c-2.25,4.34-5.27,8.28-8.95,11.59,3.69-3.33,6.71-7.27,8.95-11.59M84.17,22.9s0,0,0,0c0,0,0,0,0,0M36.27,10.48h0s-12.51,48.63,28.48,76.69h0c-4.2,1.38-8.48,2.04-12.71,2.04-.06,0-.12,0-.18,0,0,0,0,0,0,0,.06,0,.13,0,.19,0,5.24,0,10.56-1.01,15.69-3.15-.98.41-1.97.76-2.97,1.09C37.63,50.45,36.27,10.49,36.27,10.48h0s0,0,0,0M39.29,9.37c21.27,27.81,25.69,58.85,28.53,76.67h-.03s.02,0,.03,0C80.41,38.45,40,9.87,39.29,9.37M39.91,9.16c-.36.11-.73.23-1.09.36-.85.29-1.7.61-2.55.97,1-.42,2-.78,3.02-1.11,0,0,0,0,0,0,.22-.07.43-.14.65-.21,0,0-.01,0-.02,0M63.64,9.01c8.02,2.38,15.23,7.19,20.5,13.85-5.3-6.71-12.52-11.49-20.5-13.85M63.56,8.98s.05.02.08.02c-.03,0-.05-.02-.08-.02M58.23,7.79s.03,0,.05,0c-.02,0-.03,0-.05,0M52.01,7.32c-3.94,0-7.93.57-11.86,1.77.03,0,.05-.01.08-.02,3.92-1.18,7.89-1.75,11.8-1.75,2.08,0,4.14.16,6.17.47-2.04-.31-4.11-.47-6.2-.47"/>
      <path class="cls-7" d="M13.29,61.51c.2.58.41,1.17.64,1.75h0c-.23-.58-.44-1.16-.64-1.75"/>
      <path class="cls-17" d="M52.13,86.43l.58.98c.15.25-.23.94-.85,1.79.06,0,.12,0,.18,0,4.23,0,8.51-.66,12.71-2.04h0s-1.35.18-3.6.18-5.41-.18-9.02-.92M36.27,10.48c-9.92,4.14-17.36,11.73-21.49,20.8-4.45,9.77-5.07,21.24-.85,31.97l5.37-8.87C10.07,23.42,36.27,10.48,36.27,10.48M36.27,10.48h0s-13.16,13.35-5.72,39.13l16.74,27.61c8.9,7.91,17.46,9.94,17.46,9.94C23.76,59.12,36.27,10.48,36.27,10.48"/>
      <path class="cls-11" d="M90.93,35.52c6.7,20.45-3.58,42.38-23.11,50.52C80.52,38.03,39.28,9.37,39.28,9.37c21.49-7.04,44.61,4.67,51.65,26.15"/>
      <path class="cls-13" d="M36.27,10.48h0s-26.2,12.93-16.96,43.9l7.07-11.66,4.17,6.89c-7.44-25.78,5.72-39.13,5.72-39.13"/>
      <path class="cls-13" d="M47.28,77.23l2.37,3.91h0l.44.74s-.12.19-.35.5l1.14,1.93c.14.24.29.49.43.74,0,0,0,0,0,0l.81,1.38c3.61.74,6.77.92,9.02.92s3.6-.18,3.6-.18h0s-8.56-2.04-17.46-9.94"/>
      <path class="cls-6" d="M68.46,85.77s-.04.02-.06.03c-.01.02-.02.03-.02.03,0,0,.03-.02.08-.05M40.15,9.08c-.2.05-.31.07-.31.07,0,0,.02,0,.07,0,.08-.03.16-.05.24-.08"/>
      <path class="cls-2" d="M40.15,9.08s0,0,0,0c-.08.02-.16.05-.24.08,0,0,0,0,0,0,.08-.03.16-.05.25-.08"/>
      <path class="cls-16" d="M40.23,9.06s-.05.01-.08.02c-.08.03-.16.05-.25.08,0,0,.01,0,.02,0,.1-.03.21-.06.31-.09"/>
      <path class="cls-3" d="M47.69,8.34c-3.72,0-6.47.51-7.45.73-.1.03-.21.06-.31.09,1.49.07,22.69,1.63,32.76,31.33,8.63,25.47-3.76,44.51-4.29,45.3.02,0,.04-.02.06-.03,1.58-1.06,25.48-17.69,14.97-49.17-8.15-24.41-25.56-28.26-35.74-28.26"/>
      <path class="cls-15" d="M67.77,86.06s-.02,0-.03.01c.01,0,.02,0,.03-.01M67.79,86.05s0,0,0,0h0s0,0,0,0"/>
      <path class="cls-14" d="M67.79,86.05s-.03.01-.05.02c0,0,0,0,0,0,.01,0,.02,0,.03-.01,0,0,0,0,.01,0h0"/>
      <polyline class="cls-4" points="67.79 86.05 67.79 86.05 67.79 86.05 67.79 86.05 67.79 86.05"/>
      <path class="cls-10" d="M39.28,9.37c-1.01.33-2.02.69-3.02,1.11h0s0,0,0,0c0,0,1.37,39.96,28.51,76.67.99-.33,1.99-.68,2.97-1.09.02,0,.03-.01.05-.02h0s.03-.01.03-.01c-2.84-17.81-7.26-48.85-28.53-76.67,0,0,0,0,0,0"/>
      <polyline class="cls-14" points="39.28 9.37 39.28 9.37 39.29 9.37 39.28 9.37"/>
      <path class="cls-11" d="M49.65,82.23H3.09L.04,87.42c-.46.77,3.43,5.68,6.8,8.04,6.36,4.47,12.08,6.57,19.34,6.56,4.86,0,10.79-1.33,14.52-3.34,2.36-1.27,4.61-2.57,7-4.74.91-.82,5.46-5.75,5-6.53l-3.05-5.19"/>
      <path class="cls-9" d="M50.88,84.31l.43.74s0,0,0,0c-.14-.25-.29-.49-.43-.74"/>
      <path class="cls-5" d="M3.08,82.24l-1.23,2.09c-.15.26-.31.53-.46.79.79,1.5,3.18,4.04,3.66,4.54,1.7,1.77,3.68,3.3,5.84,4.55,4.74,2.76,10.08,4.2,15.48,4.2,3.05,0,6.11-.46,9.09-1.39,3.55-1.11,6.9-2.82,9.75-5.1,1.35-1.08,2.59-2.28,3.67-3.6.3-.37,1.8-2.12,2.43-3.26l-.43-.74c-.5-.84-.95-1.62-1.14-1.93-.77,1.06-2.66,3.56-4,4.97-1.8,1.89-3.91,3.51-6.24,4.77-3.95,2.14-8.61,3.44-13.19,3.44-1.16,0-2.32-.08-3.46-.26-1.37-.21-2.72-.51-4.05-.9-2.44-.72-4.78-1.74-6.91-3.06-2.09-1.3-3.88-2.96-5.54-4.72-1.25-1.33-2.59-3.34-3.18-4.26h0l-.08-.13"/>
      <path class="cls-8" d="M49.65,81.14h0l-23.28-38.41L4.68,78.51h0s-1.59,2.63-1.59,2.63h.01l-.36.59.42.63h0c.59.91,1.93,2.93,3.18,4.26,1.66,1.76,3.45,3.43,5.54,4.72,2.13,1.32,4.47,2.34,6.91,3.06,1.32.39,2.68.69,4.05.9,5.62.86,11.71-.5,16.65-3.18,2.34-1.26,4.45-2.89,6.24-4.77,1.74-1.82,4.39-5.47,4.35-5.47l-.44-.74"/>
      <path class="cls-1" d="M15.7,75.5c-.42,0-1.14.85-1.32,1.07-.3.37-.5.83-.56,1.31-.04.33,0,.7.24.92.15.13.35.19.55.22.1.01.2.02.3.02.21,0,.41-.04.6-.13.48-.26.67-.85.71-1.4.02-.34,0-.68-.05-1.01-.04-.24-.1-.76-.29-.94-.05-.04-.1-.06-.17-.06"/>
      <path class="cls-1" d="M33.74,80.21c-.47,0-.49,1.4-.48,1.73,0,.48.15.96.41,1.36.18.28.45.54.78.55,0,0,.02,0,.02,0,.19,0,.38-.08.54-.19.26-.16.5-.37.61-.66.21-.5-.03-1.08-.35-1.52-.2-.27-.43-.52-.69-.74-.19-.16-.57-.52-.82-.53,0,0,0,0-.01,0"/>
      <path class="cls-1" d="M26.78,61.85c-.47,0-.49,1.4-.48,1.73,0,.48.15.96.41,1.36.18.28.45.54.78.55,0,0,.01,0,.02,0,.19,0,.38-.08.54-.19.26-.16.5-.37.61-.66.21-.5-.03-1.08-.35-1.52-.2-.27-.43-.52-.69-.74-.19-.16-.56-.52-.82-.53,0,0,0,0-.01,0"/>
    </g>
  </g>
</svg>