<?xml version="1.0" encoding="utf-8"?>
<!-- Generator: Adobe Illustrator 28.0.0, SVG Export Plug-In . SVG Version: 6.00 Build 0)  -->
<svg version="1.1" id="Layer_1" xmlns="http://www.w3.org/2000/svg" xmlns:xlink="http://www.w3.org/1999/xlink" x="0px" y="0px"
	 width="71.7px" height="79.8px" viewBox="0 0 71.7 79.8" style="enable-background:new 0 0 71.7 79.8;" xml:space="preserve">
<style type="text/css">
	.st0{fill:#4C9F91;}
	.st1{fill:#E0FF8C;}
	.st2{fill:#B3E770;}
	.st3{fill:#E0F5A8;}
	.st4{fill:#FC8E2C;}
</style>
<path class="st0" d="M33.5,0C15,0,0,16.9,0,37.8c0,13.6,6.4,25.5,15.9,32.1C9.3,63,5.2,53.2,5.2,42.3c0-20.7,14.9-37.6,33.3-37.6
	c7.1,0,13.7,2.5,19.1,6.8C51.4,4.4,42.9,0,33.5,0"/>
<path class="st1" d="M57.5,11.5c5.8,6.8,9.4,16.1,9.4,26.3c0,20.9-15,37.8-33.5,37.8c-6.5,0-12.5-2.1-17.6-5.6
	c5.9,6.2,13.9,9.9,22.6,9.9c18.4,0,33.3-16.8,33.3-37.6C71.7,29.5,66.1,18.3,57.5,11.5"/>
<path class="st2" d="M40.5,64.1c-4.6,0-2.4-12.3-1.4-21.3c1.6-14,1.8-20.5,4.8-20.5c1.3,0,3.1,1.2,5.7,3.5c3.3,2.8,6.4,9.4,5,18.8
	s-5.2,13.9-9.9,17.6C43,63.5,41.6,64.1,40.5,64.1 M31.2,60.6c-1.1,0-2.5-0.9-4.2-3.1c-3.7-4.7-6.4-9.9-5.6-19.4
	c0.8-9.5,5.4-15.1,9.2-17.1c2.7-1.4,4.5-2.1,5.8-2.1c3.7,0,2.3,6.3,0.5,21.2C35.9,48.7,35.2,60.6,31.2,60.6 M38.4,4.7
	C20.1,4.7,5.2,21.5,5.2,42.3c0,10.9,4.1,20.7,10.7,27.6c5.1,3.6,11.1,5.6,17.6,5.6c18.5,0,33.5-16.9,33.5-37.8
	c0-10.2-3.6-19.5-9.4-26.3C52.1,7.2,45.5,4.7,38.4,4.7"/>
<path class="st3" d="M36.4,18.9c-1.3,0-3.1,0.7-5.8,2.1c-3.8,2-8.4,7.6-9.2,17.1s1.9,14.7,5.6,19.4c1.7,2.1,3.1,3.1,4.2,3.1
	c4,0,4.7-11.9,5.7-20.5C38.7,25.2,40.1,18.9,36.4,18.9"/>
<path class="st3" d="M43.9,22.3c-3,0-3.2,6.5-4.8,20.5c-1,9-3.2,21.3,1.4,21.3c1,0,2.4-0.6,4.2-2.1c4.7-3.7,8.5-8.2,9.9-17.5
	s-1.8-15.9-5-18.8C47,23.5,45.2,22.3,43.9,22.3"/>
<path class="st4" d="M45.4,37.2c0.9-1,2.1-1.6,3.4-1.7c0.1,0,0.2,0,0.3,0l0.2,0.2c0.1,0.2,0.3,0.4,0.2,0.6c-0.1,0.2-0.2,0.3-0.4,0.5
	c-0.8,0.5-1.8,0.9-2.7,1.2c-0.3,0.1-1.1,0.5-1.3,0.1C44.8,37.9,45.2,37.5,45.4,37.2L45.4,37.2z"/>
<path class="st4" d="M47.8,39.3c1.1-0.6,2.5-0.8,3.8-0.5c0.1,0,0.2,0.1,0.3,0.1s0.1,0.2,0.1,0.2c0.1,0.2,0.1,0.5,0,0.7
	c-0.1,0.2-0.3,0.2-0.5,0.3c-1,0.2-2,0.3-3,0.3c-0.3,0-1.2,0.1-1.3-0.3C47,39.7,47.5,39.4,47.8,39.3L47.8,39.3z"/>
<path class="st4" d="M42.8,31.4c0.9-1,2.1-1.6,3.4-1.7c0.1,0,0.2,0,0.3,0l0.2,0.2c0.1,0.2,0.3,0.4,0.2,0.6c-0.1,0.2-0.2,0.3-0.4,0.5
	c-0.8,0.5-1.8,0.9-2.7,1.2c-0.3,0.1-1.1,0.5-1.3,0.1C42.1,32.1,42.5,31.7,42.8,31.4L42.8,31.4z"/>
<path class="st4" d="M45.2,33.5c1.1-0.6,2.5-0.8,3.8-0.5c0.1,0,0.2,0.1,0.3,0.1s0.1,0.2,0.1,0.2c0.1,0.2,0.1,0.5,0,0.7
	c-0.1,0.2-0.3,0.2-0.5,0.3c-1,0.2-2,0.3-3,0.3c-0.3,0-1.2,0.1-1.3-0.3C44.3,33.9,44.9,33.6,45.2,33.5L45.2,33.5z"/>
<path class="st4" d="M45.5,41.5c1.2-0.3,2.6-0.1,3.8,0.5c0.1,0.1,0.2,0.1,0.2,0.2c0.1,0.1,0.1,0.2,0.1,0.3c0,0.2,0,0.5-0.2,0.7
	c-0.2,0.1-0.4,0.1-0.6,0.1c-1,0-2-0.2-2.9-0.5c-0.3-0.1-1.1-0.2-1.2-0.6C44.6,41.7,45.2,41.6,45.5,41.5z"/>
<path class="st4" d="M47.4,44.6c1.2-0.3,2.6-0.1,3.8,0.5c0.1,0.1,0.2,0.1,0.2,0.2c0.1,0.1,0.1,0.2,0.1,0.3c0,0.2,0,0.5-0.2,0.7
	c-0.2,0.1-0.4,0.1-0.6,0.1c-1,0-2-0.2-2.9-0.5c-0.3-0.1-1.1-0.2-1.2-0.6C46.5,44.8,47.1,44.7,47.4,44.6z"/>
<path class="st4" d="M44.8,47.3c1.3-0.2,2.6,0,3.7,0.7c0.1,0.1,0.2,0.1,0.2,0.2c0,0.1,0.1,0.2,0.1,0.3c0,0.2,0,0.5-0.2,0.6
	c-0.2,0.1-0.4,0.1-0.6,0.1c-1-0.1-2-0.3-2.9-0.7c-0.3-0.1-1.1-0.3-1.2-0.7C43.8,47.5,44.4,47.4,44.8,47.3L44.8,47.3z"/>
<path class="st4" d="M45.5,50.4c1.3,0.2,2.5,0.9,3.3,1.9c0.1,0.1,0.1,0.2,0.2,0.3c0,0.1,0,0.2-0.1,0.3c-0.1,0.2-0.2,0.5-0.4,0.5
	c-0.2,0.1-0.4,0-0.6-0.1c-0.9-0.4-1.8-0.9-2.5-1.6c-0.2-0.2-1-0.6-0.9-1C44.5,50.3,45.1,50.4,45.5,50.4z"/>
<path class="st4" d="M42.2,50.8c1.2,0.5,2.2,1.5,2.7,2.7c0,0.1,0.1,0.2,0.1,0.3c0,0.1-0.1,0.2-0.1,0.3c-0.1,0.2-0.3,0.4-0.5,0.4
	c-0.2,0-0.4-0.1-0.6-0.2c-0.8-0.6-1.5-1.4-2.1-2.2c-0.2-0.3-0.8-0.9-0.6-1.2C41.4,50.5,41.9,50.7,42.2,50.8L42.2,50.8z"/>
<path class="st4" d="M41.9,54.4c1.2,0.5,2.2,1.5,2.7,2.7c0,0.1,0.1,0.2,0.1,0.3c0,0.1-0.1,0.2-0.1,0.3c-0.1,0.2-0.3,0.4-0.5,0.4
	c-0.2,0-0.4-0.1-0.6-0.2c-0.8-0.6-1.5-1.4-2.1-2.2c-0.2-0.3-0.8-0.9-0.6-1.2C41,54,41.6,54.3,41.9,54.4L41.9,54.4z"/>
<path class="st4" d="M30.5,46c-0.9,0.9-2.1,1.5-3.4,1.6c-0.1,0-0.2,0-0.3,0l-0.2-0.2c-0.1-0.2-0.3-0.4-0.2-0.6
	c0-0.2,0.2-0.3,0.4-0.4c0.9-0.5,1.8-0.9,2.7-1.2c0.3-0.1,1.1-0.4,1.3-0.1C31.1,45.3,30.7,45.7,30.5,46L30.5,46z"/>
<path class="st4" d="M28.1,43.9c-1.1,0.6-2.5,0.8-3.8,0.4c-0.1,0-0.2-0.1-0.3-0.1C24,44.1,24,44,23.9,43.9c-0.1-0.2-0.1-0.5,0-0.7
	c0.1-0.2,0.3-0.2,0.5-0.3c1-0.2,2-0.3,3-0.2c0.3,0,1.2-0.1,1.3,0.3C28.9,43.5,28.4,43.7,28.1,43.9L28.1,43.9z"/>
<path class="st4" d="M33.1,51.8c-0.9,0.9-2.1,1.5-3.4,1.6c-0.1,0-0.2,0-0.3,0l-0.2-0.2c-0.1-0.2-0.3-0.4-0.2-0.6
	c0-0.2,0.2-0.3,0.4-0.4c0.9-0.5,1.8-0.9,2.7-1.2c0.3-0.1,1.1-0.4,1.3-0.1C33.7,51.1,33.3,51.6,33.1,51.8L33.1,51.8z"/>
<path class="st4" d="M30.7,49.7c-1.1,0.6-2.5,0.8-3.8,0.4c-0.1,0-0.2-0.1-0.3-0.1c-0.1-0.1-0.1-0.2-0.1-0.2c-0.1-0.2-0.1-0.5,0-0.7
	c0.1-0.2,0.3-0.2,0.5-0.3c1-0.2,2-0.3,3-0.2c0.3,0,1.2-0.1,1.3,0.3C31.5,49.3,31,49.6,30.7,49.7L30.7,49.7z"/>
<path class="st4" d="M30.5,41.7c-1.3,0.3-2.6,0.1-3.7-0.6c-0.1-0.1-0.2-0.1-0.2-0.2c0-0.1,0-0.2-0.1-0.3c0-0.2,0-0.5,0.2-0.7
	c0.2-0.1,0.4-0.1,0.6-0.1c1,0,2,0.2,3,0.5c0.3,0.1,1.1,0.2,1.2,0.6C31.4,41.5,30.8,41.6,30.5,41.7z"/>
<path class="st4" d="M28.6,38.6c-1.3,0.3-2.6,0.1-3.7-0.5c-0.1,0-0.2-0.1-0.2-0.2c0-0.1,0-0.2-0.1-0.3c0-0.2,0-0.5,0.2-0.7
	c0.2-0.1,0.4-0.1,0.6-0.1c1,0,2,0.2,3,0.5c0.3,0.1,1.1,0.2,1.2,0.6C29.5,38.4,28.9,38.5,28.6,38.6z"/>
<path class="st4" d="M31.3,35.9c-1.3,0.2-2.6-0.1-3.7-0.8c-0.1-0.1-0.2-0.1-0.2-0.2c0-0.1,0-0.2,0-0.3c0-0.2,0-0.5,0.2-0.6
	c0.2-0.1,0.4-0.1,0.6-0.1c1,0.1,2,0.3,2.9,0.7c0.3,0.1,1.1,0.3,1.1,0.7C32.2,35.7,31.6,35.8,31.3,35.9L31.3,35.9z"/>
<path class="st4" d="M30.6,32.8c-1.3-0.2-2.5-0.9-3.2-1.9c-0.1-0.1-0.1-0.2-0.1-0.3c0-0.1,0-0.2,0-0.3c0.1-0.2,0.2-0.5,0.4-0.5
	c0.2-0.1,0.4,0,0.6,0.1c0.9,0.4,1.8,1,2.5,1.6c0.2,0.2,1,0.7,0.8,1C31.5,32.9,30.9,32.8,30.6,32.8z"/>
<path class="st4" d="M33.8,32.4c-1.2-0.5-2.1-1.5-2.7-2.7c0-0.1-0.1-0.2-0.1-0.3c0-0.1,0.1-0.2,0.1-0.3c0.1-0.2,0.3-0.4,0.5-0.4
	c0.2,0,0.4,0.1,0.6,0.3c0.8,0.7,1.5,1.4,2,2.2c0.2,0.3,0.8,0.9,0.5,1.2C34.7,32.8,34.1,32.5,33.8,32.4z"/>
<path class="st4" d="M34.2,28.8c-1.2-0.5-2.1-1.5-2.7-2.7c0-0.1-0.1-0.2-0.1-0.3c0-0.1,0.1-0.2,0.1-0.3c0.1-0.2,0.3-0.4,0.5-0.4
	c0.2,0,0.4,0.1,0.6,0.3c0.8,0.7,1.5,1.4,2,2.2c0.2,0.3,0.8,0.9,0.5,1.2C35.1,29.2,34.5,28.9,34.2,28.8z"/>
</svg>
