<?xml version="1.0" encoding="utf-8"?>
<!-- Generator: Adobe Illustrator 28.0.0, SVG Export Plug-In . SVG Version: 6.00 Build 0)  -->
<svg version="1.1" id="Layer_1" xmlns="http://www.w3.org/2000/svg" xmlns:xlink="http://www.w3.org/1999/xlink" x="0px" y="0px"
	 width="51px" height="47.6px" viewBox="0 0 51 47.6" style="enable-background:new 0 0 51 47.6;" xml:space="preserve">
<style type="text/css">
	.st0{fill:#FF6529;}
	.st1{fill:#FFEE67;}
	.st2{fill:#AFCDF9;}
	.st3{fill:#FFF9C9;}
	.st4{fill:#FFA200;}
	.st5{fill:#FFBC21;}
	.st6{fill:#FFD160;}
</style>
<path class="st0" d="M38.3,15.4c0.6,0.6,1.5,0.6,2.1,0c0.4-0.5,0.8-1.4,0.6-2c0-0.1,0.1-0.2,0.1-0.2c0.2-0.3,0.5-0.4,0.9-0.5
	c0.7-0.1,1.3-0.3,1.7-1c0.2-0.3,0.2-0.7,0.5-0.8c0.3-0.2,0.7-0.1,1.1-0.2c0.7-0.2,1.2-0.7,1.3-1.5c0-0.4-0.6-0.4-0.6,0
	c-0.1,0.9-1.1,0.9-1.7,1.1c-0.3,0.1-0.6,0.3-0.8,0.6c-0.2,0.3-0.3,0.6-0.5,0.8c-0.5,0.5-1.3,0.3-1.9,0.7c-0.2,0.1-0.3,0.3-0.4,0.4
	c-0.6-0.4-1.8-0.1-2.3,0.5C37.7,13.9,37.7,14.9,38.3,15.4L38.3,15.4z"/>
<path class="st0" d="M33.5,10.6c0.8,0.2,1.6-0.2,1.9-1C35.6,9,35.4,8.1,35,7.6c0-0.2,0-0.3,0-0.5c0.1-0.3,0.4-0.5,0.7-0.7
	c0.5-0.4,0.9-0.9,0.9-1.6c0-0.4-0.1-0.7,0.2-1c0.2-0.2,0.5-0.4,0.8-0.6c0.5-0.5,0.7-1.2,0.5-1.8c-0.1-0.3-0.7-0.2-0.6,0.2
	c0.3,0.8-0.4,1.3-1,1.8c-0.2,0.2-0.4,0.4-0.5,0.7c-0.1,0.4,0,0.7-0.1,1.1c-0.2,0.7-0.9,0.9-1.3,1.4c-0.2,0.2-0.2,0.4-0.2,0.7
	c-0.8-0.1-1.6,0.8-1.9,1.5C32.3,9.5,32.7,10.3,33.5,10.6L33.5,10.6z"/>
<path class="st0" d="M44,22.6c-0.2,0-0.3,0-0.5,0.1c-0.2-0.7-1.4-1.1-2.2-1c-0.8,0.1-1.4,0.9-1.2,1.7c0.1,0.8,0.9,1.4,1.7,1.2
	c0.6-0.1,1.4-0.6,1.7-1.3c0.1,0,0.1-0.1,0.2-0.1c0.4-0.2,0.7,0,1.1,0.2c0.6,0.3,1.2,0.5,1.9,0.2c0.4-0.1,0.7-0.4,1.1-0.2
	c0.3,0.1,0.6,0.3,1,0.4c0.6,0.2,1.3,0.1,1.7-0.4c0.2-0.3-0.2-0.7-0.4-0.4c-0.6,0.7-1.4,0.2-2-0.1c-0.3-0.1-0.6-0.2-0.9,0
	c-0.3,0.1-0.6,0.3-1,0.4C45.2,23.3,44.7,22.6,44,22.6L44,22.6z"/>
<path class="st0" d="M50.6,32.7C49.7,33,49.4,32,49,31.5c-0.2-0.2-0.4-0.4-0.7-0.5c-0.4-0.1-0.7,0-1.1-0.2c-0.6-0.3-0.7-1-1.2-1.4
	c-0.2-0.2-0.4-0.2-0.6-0.3c0.2-0.7-0.6-1.7-1.3-2c-0.8-0.3-1.6,0-2,0.8c-0.3,0.7,0,1.6,0.8,2c0.6,0.3,1.6,0.2,2.1-0.2
	c0.1,0,0.2,0,0.3,0c0.3,0.1,0.5,0.4,0.7,0.7c0.3,0.6,0.8,1,1.4,1.2c0.3,0.1,0.8,0,1,0.2c0.2,0.2,0.3,0.6,0.6,0.9
	c0.4,0.6,1.1,0.9,1.8,0.7C51.2,33.2,51,32.6,50.6,32.7L50.6,32.7z"/>
<path class="st0" d="M42,41.2c-0.9,0-0.9-1-1.1-1.7c-0.1-0.3-0.3-0.6-0.6-0.8c-0.3-0.2-0.6-0.3-0.9-0.5c-0.5-0.5-0.3-1.3-0.7-1.9
	c-0.1-0.2-0.3-0.3-0.4-0.4c0.4-0.6,0-1.8-0.5-2.3c-0.6-0.6-1.5-0.5-2.1,0.1s-0.5,1.5,0.1,2.1c0.5,0.4,1.4,0.7,2,0.6
	c0.1,0,0.1,0,0.2,0.1c0.3,0.2,0.4,0.5,0.5,0.8c0.2,0.7,0.3,1.3,1,1.7c0.3,0.2,0.7,0.2,0.9,0.5c0.2,0.3,0.1,0.7,0.2,1
	c0.2,0.7,0.7,1.3,1.5,1.3C42.4,41.8,42.4,41.2,42,41.2L42,41.2z"/>
<path class="st0" d="M38.4,47.1c-0.9-0.2-0.8-1.2-0.9-1.9c0-0.3-0.2-0.6-0.4-0.8c-0.3-0.2-0.6-0.4-0.8-0.7c-0.4-0.6-0.1-1.4-0.5-2
	c-0.1-0.1-0.2-0.2-0.3-0.3c0.5-0.6,0.2-1.8-0.2-2.4c-0.5-0.6-1.4-0.7-2.1-0.2c-0.6,0.5-0.7,1.4-0.2,2.1c0.4,0.5,1.2,0.9,1.9,0.8
	c0.1,0,0.2,0.1,0.2,0.1c0.3,0.2,0.4,0.6,0.4,0.9c0.1,0.7,0.2,1.3,0.8,1.8c0.2,0.2,0.6,0.3,0.8,0.6c0.1,0.3,0.1,0.8,0.1,1.1
	c0.1,0.7,0.6,1.3,1.3,1.4C38.6,47.7,38.7,47.2,38.4,47.1L38.4,47.1z"/>
<path class="st0" d="M26.3,37.2c-0.8,0.1-1.4,0.8-1.3,1.6c0.1,0.6,0.6,1.4,1.2,1.7c0,0.1,0.1,0.1,0.1,0.1c0.2,0.4,0,0.8-0.2,1.1
	c-0.3,0.6-0.5,1.3-0.2,2c0.2,0.4,0.4,0.6,0.2,1.1c-0.2,0.3-0.3,0.6-0.4,0.9c-0.2,0.6-0.1,1.3,0.4,1.7c0.3,0.2,0.7-0.2,0.4-0.4
	c-0.7-0.6-0.1-1.4,0.2-2c0.1-0.3,0.2-0.6,0.1-0.9c-0.1-0.4-0.3-0.7-0.4-1.1c0-0.7,0.6-1.2,0.6-1.9c0-0.2,0-0.3-0.1-0.5
	c0.7-0.2,1.2-1.4,1.1-2.1C27.9,37.7,27.1,37.1,26.3,37.2z"/>
<path class="st0" d="M22.3,32.8c-0.7-0.4-1.6-0.2-2,0.4c-0.3,0.5-0.5,1.5-0.2,2.1c0,0.1,0,0.2-0.1,0.3c-0.1,0.3-0.5,0.5-0.8,0.6
	c-0.6,0.3-1.1,0.6-1.4,1.3c-0.1,0.3-0.1,0.7-0.4,0.9c-0.3,0.2-0.7,0.3-1,0.4c-0.6,0.4-1,1-0.9,1.7c0,0.4,0.6,0.2,0.5-0.2
	C16,39.6,17,39.3,17.6,39c0.3-0.2,0.5-0.4,0.6-0.7c0.1-0.3,0.1-0.7,0.4-1c0.4-0.6,1.2-0.6,1.7-1c0.2-0.2,0.2-0.3,0.3-0.5
	c0.7,0.3,1.8-0.3,2.2-1C23.2,34.2,23,33.3,22.3,32.8z"/>
<path class="st0" d="M15.7,35.7c0.6-0.5,0.7-1.4,0.2-2.1c-0.5-0.6-1.4-0.7-2.1-0.2c-0.5,0.4-0.9,1.3-0.8,1.9c0,0,0,0.1,0,0.1
	c-0.2,0.3-0.5,0.4-0.9,0.4c-0.7,0.1-1.3,0.2-1.8,0.7c-0.2,0.2-0.3,0.7-0.7,0.8c-0.3,0.1-0.8,0.1-1.1,0.1c-0.7,0.1-1.3,0.6-1.4,1.2
	c-0.1,0.4,0.5,0.5,0.5,0.2C7.8,38,8.8,38.1,9.5,38c0.3,0,0.6-0.2,0.8-0.4c0.2-0.3,0.3-0.6,0.7-0.8c0.6-0.4,1.4-0.1,2-0.5
	c0.2-0.1,0.3-0.2,0.4-0.3C13.9,36.4,15.1,36.2,15.7,35.7L15.7,35.7z"/>
<path class="st0" d="M9.1,27.5c0.2,0,0.3,0,0.5-0.1c0.2,0.7,1.4,1.1,2.2,1c0.8-0.1,1.4-0.9,1.2-1.7c-0.1-0.8-0.9-1.4-1.7-1.2
	c-0.6,0.1-1.4,0.7-1.7,1.3c0,0-0.1,0.1-0.2,0.1c-0.4,0.2-0.7,0-1.1-0.2c-0.6-0.3-1.3-0.5-1.9-0.2c-0.4,0.1-0.7,0.4-1.1,0.2
	c-0.3-0.1-0.6-0.3-1-0.4c-0.6-0.2-1.3-0.1-1.7,0.4C2.6,27,3,27.4,3.2,27.1c0.6-0.7,1.4-0.2,2,0.1c0.3,0.1,0.6,0.2,0.9,0
	c0.3-0.1,0.6-0.3,1-0.4C7.9,26.8,8.4,27.4,9.1,27.5L9.1,27.5z"/>
<path class="st0" d="M4.1,18.9c0.7,0.2,0.9,0.9,1.5,1.2c0.2,0.1,0.4,0.2,0.6,0.2c0,0.8,0.9,1.6,1.6,1.8c0.8,0.2,1.6-0.3,1.8-1.1
	s-0.3-1.6-1.1-1.8C8,19,7,19.2,6.6,19.7c-0.1,0-0.2,0-0.3,0c-0.4,0-0.6-0.4-0.8-0.6c-0.5-0.5-1-0.8-1.7-0.8c-0.4,0-0.7,0.1-1-0.2
	c-0.2-0.2-0.4-0.5-0.7-0.7c-0.5-0.4-1.2-0.5-1.8-0.2c-0.3,0.2,0,0.7,0.3,0.5c0.8-0.4,1.3,0.4,1.8,0.9c0.2,0.2,0.5,0.4,0.8,0.4
	C3.4,18.9,3.7,18.8,4.1,18.9L4.1,18.9z"/>
<path class="st0" d="M8,13.2c0.9-0.2,1.2,0.8,1.5,1.4c0.2,0.3,0.4,0.5,0.7,0.6c0.4,0.1,0.7,0.1,1,0.4c0.5,0.4,0.6,1.2,1.1,1.6
	c0.2,0.2,0.3,0.2,0.5,0.3c-0.3,0.7,0.4,1.8,1,2.2c0.7,0.4,1.6,0.2,2-0.5c0.4-0.7,0.2-1.6-0.5-2c-0.5-0.3-1.5-0.4-2.1-0.1
	c-0.1,0-0.2,0-0.3-0.1c-0.3-0.1-0.5-0.5-0.6-0.8c-0.3-0.6-0.6-1.1-1.3-1.4c-0.3-0.1-0.8-0.1-1-0.4c-0.2-0.3-0.3-0.6-0.4-0.9
	c-0.4-0.6-1-1-1.7-0.8C7.5,12.7,7.6,13.3,8,13.2L8,13.2z"/>
<path class="st0" d="M15.3,5.5c0.9,0.2,0.8,1.2,0.9,1.9c0,0.3,0.2,0.6,0.5,0.8c0.3,0.2,0.6,0.4,0.8,0.7c0.4,0.6,0.1,1.4,0.5,2
	c0.1,0.2,0.2,0.3,0.3,0.4c-0.5,0.6-0.3,1.8,0.2,2.4c0.5,0.7,1.4,0.8,2.1,0.3c0.7-0.5,0.8-1.4,0.3-2.1c-0.4-0.5-1.2-0.9-1.9-0.9
	c0,0-0.1,0-0.1,0c-0.3-0.2-0.4-0.5-0.4-0.9c0-0.7-0.1-1.3-0.7-1.8c-0.2-0.2-0.7-0.3-0.8-0.7c-0.1-0.3,0-0.8-0.1-1.1
	c-0.1-0.7-0.5-1.3-1.2-1.4C15.1,4.9,15,5.5,15.3,5.5L15.3,5.5z"/>
<path class="st0" d="M22.2,6.7c-0.1,0-0.1-0.1-0.2-0.1c-0.3-0.3-0.2-0.7-0.1-1.1C22,4.8,22,4.1,21.6,3.6c-0.2-0.3-0.5-0.5-0.5-0.9
	c0-0.4,0.2-0.7,0.2-1.1c0-0.6-0.3-1.2-0.9-1.5c-0.3-0.2-0.6,0.3-0.3,0.5c0.8,0.4,0.5,1.3,0.4,2c0,0.3,0,0.6,0.2,0.9
	C21,3.8,21.2,4,21.3,4.3c0.2,0.7-0.3,1.4,0,2.2c0,0.1,0.1,0.2,0.2,0.3c-0.6,0.4-0.7,1.7-0.4,2.4c0.3,0.8,1.2,1.1,2,0.8
	s1.1-1.2,0.8-2C23.6,7.4,22.9,6.8,22.2,6.7L22.2,6.7z"/>
<g>
	<path class="st1" d="M30.2,13.6c0.2,0.4,0.4,0.8,0.4,1.1c0,0,0,0,0,0.1l0,0c0,0.2,0,0.4-0.1,0.5c0.5,0,0.8,0,1.4,0.2
		c2.1,0.5,3.7,1.9,4.8,3.7c-0.9-2.7-2.9-4.8-5.6-5.5C30.7,13.6,30.4,13.6,30.2,13.6"/>
	<path class="st1" d="M27.1,13.3C27.1,13.3,27.1,13.3,27.1,13.3c-4.8,0-9.1,4.2-9.1,9.5c0,1.7,0.5,3.4,1.3,4.8c-0.3-1-0.5-2-0.5-3
		l0,0c0-5.2,4.1-9.3,8.8-9.5l0-0.2c0,0,0,0,0-0.1l0,0c0-0.4,0.2-1,0.5-1.4C27.8,13.3,27.5,13.3,27.1,13.3"/>
	<path class="st2" d="M36.7,19.2c0.4,1.1,0.6,2.3,0.6,3.6l0,0c0,5.3-4.3,9.6-9.6,9.6c-3.6,0-6.7-1.9-8.3-4.8
		c1.3,3.8,4.9,6.6,9.1,6.6c5.3,0,9.6-4.3,9.6-9.6C38,22.5,37.5,20.7,36.7,19.2"/>
	<path class="st3" d="M23.8,22.7L23.8,22.7c0-2.1,1.7-3.8,3.8-3.8s3.8,1.7,3.8,3.8l0,0c0,2.1-1.7,3.8-3.8,3.8S23.8,24.8,23.8,22.7
		L23.8,22.7 M27.6,15L27.6,15c-4.7,0.2-8.8,4.3-8.8,9.5c0,1.1,0.2,2.1,0.5,3c1.7,2.9,4.8,4.8,8.3,4.8c5.3,0,9.6-4.3,9.6-9.6
		c0-1.3-0.2-2.5-0.6-3.6l0,0c-1.1-1.8-2.7-3.2-4.8-3.7c-0.6-0.2-0.9-0.2-1.4-0.2l0,0c-0.2,0.5-0.7,0.9-1.3,1l0,0c0,0,0,0-0.1,0l0,0
		C28.3,16.3,27.7,15.7,27.6,15"/>
	<path class="st4" d="M27.6,26.5c2.1,0,3.8-1.7,3.8-3.8s-1.7-3.8-3.8-3.8s-3.8,1.7-3.8,3.8S25.5,26.5,27.6,26.5z"/>
	<path class="st0" d="M30,6c-0.2,0-0.4,0.3-0.2,0.5c0.6,0.6,0,1.4-0.3,2c-0.2,0.3-0.2,0.6-0.2,0.9c0.1,0.4,0.3,0.7,0.3,1.1
		c0,0.7-0.7,1.2-0.8,1.9c0,0.2,0,0.4,0,0.5c-0.3,0.1-0.6,0.3-0.8,0.6c0.3,0,0.5,0.1,1,0.1c0.5,0,0.8,0,1.1,0.1
		c-0.2-0.3-0.4-0.6-0.7-0.7l-0.1-0.2c-0.1-0.4,0.1-0.7,0.3-1c0.4-0.6,0.6-1.2,0.4-2c-0.1-0.3-0.3-0.6-0.1-1c0.2-0.3,0.4-0.6,0.5-0.9
		c0.2-0.6,0.2-1.3-0.2-1.8C30.1,6,30.1,5.9,30,6"/>
	<path class="st5" d="M28,13.4L28,13.4c-0.3,0.4-0.5,1-0.5,1.4c0,0,0,0,0,0.1l0,0.2h0.2v0c0,0,0,0,0,0l0,0c0.7,0,0.9,0.1,1.6,0.2
		c0,0,0,0,0,0s0,0,0,0l0,0c0,0,0,0,0,0c0,0,0,0,0,0l0,0c0,0,0.1,0,0.1,0c0,0,0,0,0,0c0,0,0,0,0,0h0l0,0c0.2,0,0.4,0,0.6,0l0,0
		c0.1-0.2,0.1-0.3,0.1-0.5c0,0,0,0,0-0.1c0-0.3-0.2-0.8-0.4-1.1l0,0c-0.3,0-0.6,0-1.1-0.1C28.5,13.4,28.3,13.4,28,13.4L28,13.4"/>
	<path class="st6" d="M27.9,15L27.9,15C27.9,15,27.9,15,27.9,15L27.9,15h-0.3c0.1,0.7,0.7,1.2,1.5,1.2c0,0,0,0,0.1,0
		c0.6,0,1.1-0.4,1.3-1c-0.2,0-0.4,0-0.6,0l0,0h0c0,0,0,0,0,0c0,0,0,0,0,0c0,0-0.1,0-0.1,0l0,0c0,0,0,0,0,0c0,0,0,0,0,0l0,0
		c0,0,0,0,0,0c0,0,0,0,0,0C28.8,15.2,28.6,15.1,27.9,15"/>
</g>
</svg>
