<?xml version="1.0" encoding="UTF-8"?>
<svg id="Layer_2" xmlns="http://www.w3.org/2000/svg" width="89.32" height="94.67" viewBox="0 0 89.32 94.67">
  <defs>
    <style>
      .cls-1 {
        fill: #256124;
      }

      .cls-2 {
        fill: #ed9a7c;
      }

      .cls-3 {
        fill: #be1616;
      }

      .cls-4 {
        fill: #e89292;
      }

      .cls-5 {
        fill: #04bc76;
      }

      .cls-6 {
        fill: #d12626;
      }

      .cls-7 {
        fill: #17a27b;
      }
    </style>
  </defs>
  <g id="Layer_1-2" data-name="Layer_1">
    <g>
      <path class="cls-6" d="M54.38,14.76c-21.04,1.59-45.04,25.47-46.65,46.65-1.16,15.41,13.74,25.53,26.63,29.15,13.79,3.88,26.67,5.22,40.8,3.12,21.44-3.19,13.53-37.01,8.37-52.29-4.28-12.68-13.75-27.79-29.15-26.63"/>
      <path class="cls-4" d="M70.84,20.63c6.05,5.34,10.23,13.45,12.69,20.75,4.2,12.44,10.23,37.19.74,47.67,9.49-10.48,3.47-35.23-.73-47.67-2.46-7.3-6.65-15.41-12.7-20.75M70.8,20.6s.03.02.04.04c-.01-.01-.03-.02-.04-.04"/>
      <path class="cls-3" d="M63.43,16.05c5.19,5.29,8.85,12.58,11.09,19.22,5.15,15.28,13.07,49.1-8.37,52.29-4.5.67-8.87.99-13.19.99-9.24,0-18.21-1.46-27.61-4.11-2.96-.83-6.03-2.02-8.99-3.52,5.12,4.63,11.8,7.89,18.01,9.63,9.4,2.65,18.37,4.11,27.61,4.11,4.32,0,8.69-.32,13.19-.99,3.98-.59,6.94-2.24,9.1-4.62,9.49-10.48,3.46-35.22-.74-47.67-2.46-7.3-6.65-15.41-12.69-20.75,0,0,0,0,0,0-.01-.01-.03-.02-.04-.04-2.2-1.94-4.66-3.51-7.36-4.54"/>
      <path class="cls-2" d="M54.27,28.79c-.13,0-.26,0-.39.01-.45.03-1.31.06-1.35.66-.04.56,1.06.94,1.46,1.15,1.24.63,2.55,1.11,3.91,1.42.15.03.3.06.45.06.14,0,.28-.03.4-.1.28-.17.36-.52.41-.84v-.39s-.29-.33-.29-.33c-1.29-1.04-2.94-1.63-4.6-1.63"/>
      <path class="cls-2" d="M50.01,56.78c-.2,0-.39.07-.5.26-.3.48.5,1.33.76,1.7.8,1.14,1.74,2.18,2.8,3.08.21.18.46.37.73.37.01,0,.03,0,.04,0,.32-.02.57-.29.75-.56l.17-.35-.09-.42c-.7-1.64-2.04-3.01-3.66-3.76-.26-.12-.66-.31-.99-.31"/>
      <path class="cls-2" d="M66.44,72.99c-.2,0-.38.07-.5.26-.3.48.5,1.33.76,1.7.8,1.14,1.74,2.18,2.8,3.08.21.18.46.37.73.37.01,0,.03,0,.04,0,.32-.02.57-.29.75-.56l.17-.35-.09-.42c-.7-1.65-2.04-3.01-3.66-3.76-.26-.12-.66-.31-1-.31"/>
      <path class="cls-2" d="M22.7,60s-.02,0-.03,0c-.6.04-.63.9-.66,1.35-.1,1.79.49,3.6,1.61,4.99l.33.28h.39c.32-.03.68-.12.84-.39.15-.25.1-.57.04-.85-.3-1.36-.78-2.67-1.42-3.91-.2-.4-.57-1.47-1.12-1.47"/>
      <path class="cls-2" d="M43,39.52c-.3,0-.56.08-.67.37-.2.53.74,1.21,1.07,1.52,1,.96,2.12,1.8,3.34,2.48.21.12.43.23.66.23.05,0,.11,0,.16-.02.31-.08.5-.4.63-.69l.1-.38-.17-.4c-1.01-1.48-2.58-2.57-4.32-2.99-.22-.05-.52-.13-.81-.13"/>
      <path class="cls-2" d="M60.26,41.98c-.3,0-.56.08-.67.37-.2.53.74,1.21,1.07,1.52,1,.96,2.12,1.8,3.34,2.48.21.12.44.23.66.23.05,0,.11,0,.16-.02.31-.08.5-.4.63-.69l.1-.38-.17-.4c-1.01-1.48-2.58-2.57-4.32-2.99-.22-.05-.52-.13-.81-.13"/>
      <path class="cls-2" d="M65.19,57.98c-.3,0-.56.08-.67.37-.2.53.74,1.21,1.07,1.52,1,.96,2.12,1.8,3.34,2.48.21.12.44.23.67.23.05,0,.11,0,.16-.02.31-.08.5-.4.63-.69l.1-.38-.17-.4c-1.01-1.48-2.58-2.57-4.32-2.98-.22-.05-.52-.13-.81-.13"/>
      <path class="cls-2" d="M35.37,51.41s-.06,0-.1.01c-.58.13-.48.98-.44,1.43.18,1.78,1.05,3.48,2.38,4.68l.37.22.39-.05c.31-.09.65-.24.77-.54.11-.27.01-.58-.1-.85-.51-1.29-1.19-2.52-2.02-3.64-.25-.35-.75-1.28-1.27-1.28"/>
      <path class="cls-2" d="M35.67,66.52s-.06,0-.1.01c-.58.13-.48.98-.44,1.43.18,1.78,1.05,3.48,2.38,4.68l.37.22.39-.05c.31-.09.65-.24.77-.54.11-.27.01-.58-.1-.85-.51-1.29-1.19-2.52-2.02-3.64-.25-.35-.75-1.28-1.27-1.28"/>
      <path class="cls-2" d="M52.34,70.89s-.06,0-.1.01c-.58.13-.48.98-.44,1.43.18,1.78,1.05,3.48,2.38,4.68l.37.22.39-.05c.31-.09.65-.24.77-.54.11-.27.01-.58-.1-.85-.51-1.29-1.19-2.52-2.02-3.64-.25-.35-.75-1.28-1.27-1.28"/>
      <path class="cls-7" d="M6.32,43.37c-3.26,4.99-11.57,16.38-1.49,17.4,3.63.37,6.81-2.59,8.45-5.85,1.64-3.26,2.29-6.95,3.97-10.18,1.4-2.69,4.13-5.64,7.4-5.63,3.39.01,5.48,2.84,9.25.51,13.38-8.27-14.42-16.78-18.78-21.31-1.51-1.56-3.18-4.52-5.29-5.36-2.5-1-5.87-.09-4.23,3.18,2.15,4.31,4.63,5.2,5.05,10.33.33,4.14.27,7.91-1.46,11.79-.61,1.37-1.37,2.67-2.13,3.96-.19.33-.44.72-.73,1.15"/>
      <path class="cls-7" d="M52.07,0c-.2,0-.4.01-.59.03-6.38.68-10.87,6.31-15.05,11.17-3.11,3.62-7.22,7.61-12.15,8.39-.44.07-.88.1-1.33.1-3.38,0-6.97-1.86-9.77-3.73.68.86,1.32,1.72,1.93,2.35,1.9,1.97,8.27,4.71,13.73,7.85,7.85-6.38,16.94-10.75,25.54-11.4.03,0,.06,0,.09,0-.28-.9-.85-1.66-1.72-2.07-.23-.11-.56-.14-.95-.14s-.82.03-1.26.07c-.44.03-.89.07-1.3.07-.72,0-1.33-.1-1.56-.49-.4-.68.82-1.42,1.28-1.75,1.99-1.43,4.03-2.81,5.83-4.49.8-.74,1.61-1.6,1.71-2.68C56.69,1.18,54.23,0,52.07,0"/>
      <path class="cls-1" d="M36.83,37c-.57.87-1.52,1.74-2.93,2.61-1.1.68-2.05.92-2.94.92-2.16,0-3.91-1.42-6.31-1.43,0,0-.01,0-.02,0-3.26,0-5.99,2.94-7.38,5.63-1.01,1.95-1.65,4.06-2.35,6.15.28.11.57.16.84.16,2.18,0,4.13-3.03,5.44-4.5,2-2.26,2.25-2.25,5.01-2.33,4.32-.12,9.58-.27,10.62-6.13.07-.4.07-.75,0-1.07M54.47,14.75s-.06,0-.09,0c-8.6.65-17.68,5.02-25.54,11.4.84.48,1.65.97,2.43,1.47,2.4-1.34,6.27-1.71,7.99-2.28,3.07-1.02,6.6-1.34,9.54-2.68,2.06-.94,4.17-2.11,5.28-4.08.64-1.14.78-2.61.39-3.83"/>
      <path class="cls-5" d="M12.03,15.15c-.9.29-1.42,1.31-1.41,2.26.01.95.45,1.84.92,2.67,1.92,3.31,3.06,5.2,3.52,7.98.19,1.14.27,2.44.24,4.06-.08,4.18-2.28,8.27-2.7,12.45-.18,1.74-.3,4.07,1.03,5.43.43.44.85.72,1.27.88.71-2.08,1.34-4.2,2.35-6.15,1.39-2.68,4.12-5.63,7.38-5.63,0,0,.01,0,.02,0,2.4,0,4.15,1.43,6.31,1.43.89,0,1.84-.24,2.94-.92,1.41-.87,2.36-1.74,2.93-2.61-.59-3.05-6.82-2.47-7.52-5.7-.37-1.73.54-2.87,1.96-3.67-.78-.5-1.59-.99-2.43-1.47-5.46-3.14-11.82-5.88-13.73-7.85-.61-.63-1.25-1.49-1.93-2.35-.4-.27-.79-.54-1.16-.81"/>
    </g>
  </g>
</svg>