<?xml version="1.0" encoding="utf-8"?>
<!-- Generator: Adobe Illustrator 28.0.0, SVG Export Plug-In . SVG Version: 6.00 Build 0)  -->
<svg version="1.1" id="Layer_1" xmlns="http://www.w3.org/2000/svg" xmlns:xlink="http://www.w3.org/1999/xlink" x="0px" y="0px"
	 width="45.5px" height="42.9px" viewBox="0 0 45.5 42.9" style="enable-background:new 0 0 45.5 42.9;" xml:space="preserve">
<style type="text/css">
	.st0{fill:#FCE03D;}
	.st1{fill:#17A27B;}
	.st2{fill:#2DE93A;}
	.st3{fill:#007662;}
	.st4{fill:#006817;}
	.st5{fill:#004B2F;}
	.st6{fill:#003726;}
</style>
<path class="st0" d="M36.5,11.9c-0.6-0.8-1.5-1.2-2.5-1.2C28.4,4.7,17.9,4.2,9.5,10c-8.4,5.8-11.7,15.8-8,23.2
	c-0.4,0.8-0.4,1.9,0.2,2.7c0.6,0.9,1.7,1.3,2.7,1.1c5.7,5.3,15.7,5.5,23.7-0.1s11.4-14.9,8.4-22.2C37.1,14,37.1,12.8,36.5,11.9"/>
<path class="st1" d="M21.7,0c-5.8,0-10.7,2-10.7,2c1.4,2.1,2.9,3.7,4.3,5c2.3-0.8,4.6-1.2,6.8-1.2c4,0,7.8,1.2,10.7,3.7
	c1.2-0.5,2.1-1,2.7-1.4l-2.7-0.7c-0.5-0.1-0.8-0.7-0.7-1.2c0.1-0.5,0.5-0.7,1-0.7c0.1,0,0.2,0,0.3,0L35.2,6C31.5,1.3,26.3,0,21.7,0"
	/>
<path class="st2" d="M22.2,5.9c-2.2,0-4.5,0.4-6.8,1.2c3.5,3,7.2,4,10.4,4c2.8,0,5.2-0.7,7.1-1.5C30,7.2,26.2,5.9,22.2,5.9"/>
<path class="st1" d="M41.1,14.1c-1.5,0.6-2.8,1.3-4,2.2c2,7-1.4,15.6-8.9,20.8c0,0-0.1,0.1-0.2,0.1c0,3.4,0.3,5.8,0.3,5.8
	C48,35.5,44.5,19.4,43,14.8L42.9,16c-0.1,0.5-0.5,0.9-1,0.9c0,0-0.1,0-0.1,0c-0.6-0.1-0.9-0.5-0.9-1.1L41.1,14.1"/>
<path class="st2" d="M37.1,16.2c-7.5,5.3-9,14.8-9.1,20.9c0,0,0.1-0.1,0.2-0.1C35.7,31.8,39.1,23.3,37.1,16.2"/>
<path class="st3" d="M44.5,5.7c-0.2,0-0.4,0-0.6,0.2l-3.1,2C41,8.1,41.1,8.4,41,8.7c-0.1,0.5-0.5,0.7-1,0.7c-0.1,0-0.2,0-0.3,0
	L39,9.2l-3.2,2.1c0.3,0.2,0.5,0.4,0.7,0.7c0.2,0.3,0.3,0.6,0.4,1l4.6-3l0.1-1.3c0.1-0.5,0.5-0.9,1-0.9c0,0,0.1,0,0.1,0
	c0.4,0,0.8,0.4,0.9,0.8l1.5-1c0.5-0.3,0.6-0.9,0.3-1.4C45.2,5.8,44.8,5.7,44.5,5.7"/>
<path class="st4" d="M35.8,11.2l-0.9,0.6c-0.5,0.3-0.6,0.9-0.3,1.4c0.2,0.3,0.5,0.5,0.8,0.5c0.2,0,0.4,0,0.6-0.2l0.9-0.6
	c-0.1-0.3-0.2-0.7-0.4-1C36.3,11.6,36.1,11.4,35.8,11.2"/>
<path class="st3" d="M35.2,6.1c0.4,0.5,0.8,1,1.1,1.6c0,0-0.3,0.2-0.8,0.5l3.4,0.9l1.9-1.3c-0.1-0.2-0.3-0.3-0.6-0.4L35.2,6.1"/>
<path class="st5" d="M33,5.5c-0.4,0-0.8,0.3-1,0.7c-0.1,0.5,0.2,1.1,0.7,1.2l2.7,0.7c0.5-0.3,0.8-0.5,0.8-0.5
	c-0.3-0.6-0.7-1.1-1.1-1.6l-1.9-0.5C33.2,5.5,33.1,5.5,33,5.5"/>
<path class="st6" d="M40.9,7.9l-1.9,1.3l0.8,0.2c0.1,0,0.2,0,0.3,0c0.4,0,0.8-0.3,1-0.7C41.1,8.4,41,8.1,40.9,7.9"/>
<path class="st3" d="M43.6,8.5l-2.1,1.4l-0.4,4.2c0.5-0.2,1-0.4,1.5-0.5c0,0,0.2,0.5,0.5,1.3l0.6-6C43.6,8.7,43.6,8.6,43.6,8.5"/>
<path class="st5" d="M42.6,13.5c-0.5,0.2-1,0.3-1.5,0.5l-0.2,1.8c-0.1,0.5,0.3,1,0.9,1.1c0,0,0.1,0,0.1,0c0.5,0,0.9-0.4,1-0.9
	l0.1-1.2C42.7,14,42.5,13.5,42.6,13.5"/>
<path class="st6" d="M42.6,7.7c-0.5,0-0.9,0.4-1,0.9l-0.1,1.3l2.1-1.4c-0.1-0.4-0.4-0.7-0.9-0.8C42.7,7.7,42.7,7.7,42.6,7.7"/>
</svg>
