<?xml version="1.0" encoding="utf-8"?>
<!-- Generator: Adobe Illustrator 28.0.0, SVG Export Plug-In . SVG Version: 6.00 Build 0)  -->
<svg version="1.1" id="Layer_1" xmlns="http://www.w3.org/2000/svg" xmlns:xlink="http://www.w3.org/1999/xlink" x="0px" y="0px"
	 width="34.3px" height="42.5px" viewBox="0 0 34.3 42.5" style="enable-background:new 0 0 34.3 42.5;" xml:space="preserve">
<style type="text/css">
	.st0{fill:#173A91;}
	.st1{fill:#F0EED7;}
	.st2{fill:#9B3F44;}
	.st3{fill:#DC7559;}
	.st4{fill:#DE230D;}
</style>
<path class="st0" d="M12.3,1.7c0.2,3.9-2.2,7.4-4.7,10.4c-2.5,3-5.3,6-6.6,9.6c-1.2,3.5-1.2,7.5,0.3,11c1.3,3,3.7,5.6,6.8,7.4
	c3.5,2,8.1,2.7,12.2,2.4c2.1-0.1,4.7-0.9,6.5-1.9c1.7-1,3.2-2.3,4.4-3.8c2.4-2.8,3.4-6.1,3.3-9.7c-0.2-3.7-2.4-6.8-5.1-9.4
	c-2.8-2.7-6-4.9-8.6-7.7c-1.3-1.3-2.3-2.8-3.2-4.4c-0.8-1.4-1.6-2.9-2.7-4.1C14,1,13.4,0.5,12.7,0.1c-0.5-0.3-1,0-0.6,0.7
	C12,0.8,12.2,1.3,12.3,1.7"/>
<path class="st1" d="M28.8,25.4c1.5,6.6-3,13.3-10,14.8c-7,1.6-13.9-2.5-15.4-9.1c-1.5-6.6,2.1-17,9.1-18.6
	C19.6,11,27.3,18.8,28.8,25.4"/>
<path class="st2" d="M17.3,12.5c-0.3,0-0.6,0-0.8,0c5.7,1.3,11.1,7.5,12.3,12.9c1.5,6.6-3,13.3-10,14.8c-0.8,0.2-1.7,0.3-2.5,0.3
	c0.8,0.1,1.5,0.2,2.3,0.2c1,0,2-0.1,3-0.3c7-1.6,11.5-8.2,10-14.8C30.3,19.6,23.8,12.5,17.3,12.5"/>
<path class="st3" d="M20,36.4c-0.5,0-1-0.3-1.1-0.8c-0.2-0.6-0.7-3.7,0-3.9c0,0,0,0,0.1,0c0.7,0,2,2.6,2.2,3.2
	c0.2,0.6-0.1,1.3-0.8,1.5C20.3,36.4,20.2,36.4,20,36.4 M15.2,33.9c-0.2,0-0.5-0.1-0.7-0.2c-0.5-0.4-0.7-1.1-0.3-1.7
	c0.3-0.5,2.2-2.5,3-2.5c0.1,0,0.1,0,0.2,0c0.5,0.4-0.8,3.2-1.1,3.8C15.9,33.8,15.6,33.9,15.2,33.9 M10.8,32.8c-0.4,0-0.8-0.2-1-0.6
	c-0.3-0.6-0.2-1.3,0.4-1.6c0.5-0.3,2.5-1.1,3.4-1.1c0.2,0,0.4,0.1,0.5,0.2c0.3,0.6-2,2.6-2.6,3C11.2,32.8,11,32.8,10.8,32.8
	 M22.9,33.3c-0.3,0-0.7-0.2-0.9-0.4c-0.4-0.5-2-3.2-1.5-3.7c0,0,0.1-0.1,0.2-0.1c0.7,0,2.7,1.8,3.1,2.2c0.4,0.5,0.3,1.3-0.2,1.7
	C23.5,33.2,23.2,33.3,22.9,33.3 M25.7,29.2c-0.8,0-3.7-0.4-3.7-1.1c0-0.7,3.1-1.3,3.7-1.3c0,0,0,0,0,0c0.6,0,1.2,0.5,1.2,1.2
	C26.9,28.7,26.4,29.2,25.7,29.2C25.7,29.2,25.7,29.2,25.7,29.2 M11.7,28.5c-0.4,0-0.7,0-0.9,0c-0.7-0.1-1.1-0.7-1-1.4
	c0.1-0.6,0.6-1,1.2-1c0.1,0,0.1,0,0.2,0c0.7,0.1,3.6,1.1,3.5,1.8C14.7,28.4,12.9,28.5,11.7,28.5 M19.4,27c-0.2,0-0.4-0.1-0.5-0.2
	c-0.3-0.6,2-2.6,2.6-3c0.2-0.1,0.4-0.2,0.6-0.2c0.4,0,0.8,0.2,1,0.6c0.3,0.6,0.2,1.3-0.4,1.6C22.4,26.2,20.4,27,19.4,27 M13.8,25.1
	c-0.9,0-2.9-0.9-3.4-1.2c-0.5-0.4-0.7-1.1-0.3-1.7c0.2-0.3,0.6-0.5,1-0.5c0.2,0,0.5,0.1,0.7,0.2c0.5,0.4,2.9,2.5,2.5,3
	C14.1,25,14,25,13.8,25.1 M16.7,25.4c-0.7,0-1.8-2.8-1.9-3.4c-0.1-0.6,0.3-1.3,0.9-1.4c0.1,0,0.2,0,0.3,0c0.6,0,1,0.4,1.2,0.9
	C17.2,22.1,17.3,25.2,16.7,25.4C16.7,25.3,16.7,25.3,16.7,25.4 M18.9,24.3C18.9,24.3,18.9,24.3,18.9,24.3c-0.7-0.2-0.2-3.3,0-3.9
	c0.2-0.5,0.6-0.8,1.1-0.8c0.1,0,0.3,0,0.4,0.1c0.6,0.2,1,0.9,0.7,1.5C21,21.7,19.6,24.3,18.9,24.3 M16.5,12.5c-0.3,0-0.7,0.1-1,0.2
	c-7,1.6-10.6,12-9.1,18.6c1.1,4.9,5.2,8.4,10,9.2c0.8,0,1.7-0.1,2.5-0.3c7-1.6,11.5-8.2,10-14.8C27.6,20,22.3,13.8,16.5,12.5"/>
<path class="st4" d="M20.7,29.2c-0.1,0-0.1,0-0.2,0.1c-0.5,0.4,1,3.2,1.5,3.7c0.2,0.3,0.6,0.4,0.9,0.4c0.3,0,0.5-0.1,0.8-0.3
	c0.5-0.4,0.6-1.2,0.2-1.7C23.5,30.9,21.5,29.2,20.7,29.2"/>
<path class="st4" d="M19,31.6C19,31.6,18.9,31.6,19,31.6c-0.7,0.2-0.2,3.3,0,4c0.2,0.5,0.6,0.8,1.1,0.8c0.1,0,0.2,0,0.4-0.1
	c0.6-0.2,1-0.9,0.8-1.5C21,34.2,19.6,31.6,19,31.6"/>
<path class="st4" d="M25.7,26.8C25.7,26.8,25.6,26.8,25.7,26.8c-0.7,0-3.8,0.7-3.8,1.3c0,0.6,3,1.1,3.7,1.1c0,0,0,0,0.1,0
	c0.7,0,1.2-0.6,1.2-1.2C26.8,27.4,26.3,26.8,25.7,26.8"/>
<path class="st4" d="M20,19.5c-0.5,0-1,0.3-1.1,0.8c-0.2,0.6-0.7,3.7-0.1,3.9c0,0,0,0,0.1,0c0.7,0,2.1-2.6,2.3-3.2
	c0.2-0.6-0.1-1.3-0.7-1.5C20.3,19.6,20.1,19.6,20,19.5"/>
<path class="st4" d="M13.6,29.6c-0.9,0-2.9,0.8-3.4,1.1c-0.6,0.3-0.8,1.1-0.4,1.6c0.2,0.4,0.6,0.6,1,0.6c0.2,0,0.4-0.1,0.6-0.2
	c0.6-0.3,2.9-2.4,2.6-3C13.9,29.6,13.8,29.6,13.6,29.6"/>
<path class="st4" d="M17.1,29.6c-0.7,0-2.6,2-3,2.5c-0.4,0.6-0.2,1.3,0.3,1.7c0.2,0.1,0.4,0.2,0.7,0.2c0.4,0,0.8-0.2,1-0.5
	c0.4-0.6,1.7-3.4,1.1-3.8C17.3,29.6,17.2,29.6,17.1,29.6"/>
<path class="st4" d="M22.2,23.7c-0.2,0-0.4,0-0.6,0.2c-0.6,0.3-3,2.4-2.6,2.9c0.1,0.1,0.2,0.2,0.5,0.2c0.9,0,2.9-0.8,3.4-1.1
	c0.6-0.3,0.8-1.1,0.4-1.6C23,23.9,22.6,23.7,22.2,23.7"/>
<path class="st4" d="M11,26.1c-0.6,0-1.1,0.4-1.2,1c-0.1,0.7,0.3,1.3,1,1.4c0.2,0,0.5,0,0.9,0c1.2,0,3-0.2,3-0.6
	c0.1-0.7-2.9-1.7-3.5-1.8C11.2,26.1,11.1,26.1,11,26.1"/>
<path class="st4" d="M15.8,20.5c-0.1,0-0.2,0-0.3,0c-0.6,0.2-1,0.8-0.9,1.4c0.1,0.6,1.3,3.4,1.9,3.4c0,0,0,0,0,0
	c0.6-0.1,0.5-3.3,0.3-3.9C16.9,20.9,16.4,20.5,15.8,20.5"/>
<path class="st4" d="M11,21.7c-0.4,0-0.8,0.2-1,0.5c-0.4,0.5-0.2,1.3,0.3,1.7c0.5,0.3,2.5,1.2,3.4,1.2c0.2,0,0.3,0,0.4-0.1
	c0.4-0.5-2-2.7-2.5-3C11.4,21.7,11.2,21.7,11,21.7"/>
</svg>
